<svg width="64" height="64" viewBox="0 0 64 64" fill="none" xmlns="http://www.w3.org/2000/svg">
<path d="M7 54V46H11V54" stroke="#2D4356" stroke-width="2" stroke-miterlimit="10"/>
<path d="M11 54V42H15V54" stroke="#2D4356" stroke-width="2" stroke-miterlimit="10"/>
<path d="M15 54V46H19V54" stroke="#2D4356" stroke-width="2" stroke-miterlimit="10"/>
<path d="M19 54V38H23V54" stroke="#2D4356" stroke-width="2" stroke-miterlimit="10"/>
<path d="M23 54V40H27V54" stroke="#2D4356" stroke-width="2" stroke-miterlimit="10"/>
<path d="M27 54V36H31V54" stroke="#2D4356" stroke-width="2" stroke-miterlimit="10"/>
<path d="M31 54V28H35V54" stroke="#2D4356" stroke-width="2" stroke-miterlimit="10"/>
<path d="M35 29V20H39V54" stroke="#2D4356" stroke-width="2" stroke-miterlimit="10"/>
<path d="M34 8H40" stroke="#2D4356" stroke-width="2" stroke-miterlimit="10"/>
<path d="M34 12H40" stroke="#2D4356" stroke-width="2" stroke-miterlimit="10"/>
<path d="M6 57H28" stroke="#2D4356" stroke-width="2" stroke-miterlimit="10"/>
<path d="M8 11H12" stroke="#2D4356" stroke-width="2" stroke-miterlimit="10"/>
<path d="M25 63H1V12.8L11 5V3H1V10" stroke="#2D4356" stroke-width="2" stroke-miterlimit="10"/>
<path d="M45 28V1H18.1H15V15H1" stroke="#2D4356" stroke-width="2" stroke-miterlimit="10"/>
<path d="M63 31H43V55H63V31Z" stroke="#2D4356" stroke-width="2" stroke-miterlimit="10"/>
<path d="M47 50V52" stroke="#2D4356" stroke-width="2" stroke-miterlimit="10"/>
<path d="M51 50V52" stroke="#2D4356" stroke-width="2" stroke-miterlimit="10"/>
<path d="M55 50V52" stroke="#2D4356" stroke-width="2" stroke-miterlimit="10"/>
<path d="M59 50V52" stroke="#2D4356" stroke-width="2" stroke-miterlimit="10"/>
<path d="M47 46V48" stroke="#2D4356" stroke-width="2" stroke-miterlimit="10"/>
<path d="M51 46V48" stroke="#2D4356" stroke-width="2" stroke-miterlimit="10"/>
<path d="M55 46V48" stroke="#2D4356" stroke-width="2" stroke-miterlimit="10"/>
<path d="M59 46V48" stroke="#2D4356" stroke-width="2" stroke-miterlimit="10"/>
<path d="M47 42V44" stroke="#2D4356" stroke-width="2" stroke-miterlimit="10"/>
<path d="M51 42V44" stroke="#2D4356" stroke-width="2" stroke-miterlimit="10"/>
<path d="M55 42V44" stroke="#2D4356" stroke-width="2" stroke-miterlimit="10"/>
<path d="M59 42V44" stroke="#2D4356" stroke-width="2" stroke-miterlimit="10"/>
<path d="M59 35H47V39H59V35Z" stroke="#2D4356" stroke-width="2" stroke-miterlimit="10"/>
<path d="M60.9 63H30.9L28 61L31 59H61C62.1 59 63 59.9 63 61C63 62.1 62.1 63 60.9 63Z" stroke="#2D4356" stroke-width="2" stroke-miterlimit="10"/>
<path d="M45 5.29995H47.6L49.5 3.19995L52.5 4.39995L52.4 7.19995L54.1 8.99995L57 8.89995L58.2 11.9L56.1 13.8V16.4L58.2 18.3L57 21.2999L54.2 21.2L52.4 23L52.5 25.7999L49.5 27L47.6 24.9H45" stroke="#2D4356" stroke-width="2" stroke-miterlimit="10"/>
<path d="M46 12.5C47.4 12.5 48.6 13.7 48.6 15.1C48.6 16.5 47.4 17.7 46 17.7" stroke="#2D4356" stroke-width="2" stroke-miterlimit="10"/>
<path d="M6 20H10" stroke="#2D4356" stroke-width="2" stroke-miterlimit="10"/>
<path d="M6 29H10" stroke="#2D4356" stroke-width="2" stroke-miterlimit="10"/>
<path d="M6 38H10" stroke="#2D4356" stroke-width="2" stroke-miterlimit="10"/>
</svg>
