<svg width="206" height="206" viewBox="0 0 206 206" fill="none" xmlns="http://www.w3.org/2000/svg">
<path d="M185.358 164.178H171.713V164.281H185.358V164.178Z" fill="#EBEBEB"/>
<path d="M136.463 165.299H132.883V165.402H136.463V165.299Z" fill="#EBEBEB"/>
<path d="M171.301 160.354H163.395V160.458H171.301V160.354Z" fill="#EBEBEB"/>
<path d="M39.4076 161.047H21.6133V161.15H39.4076V161.047Z" fill="#EBEBEB"/>
<path d="M45.6861 161.047H43.0781V161.15H45.6861V161.047Z" fill="#EBEBEB"/>
<path d="M92.7622 162.785H54.166V162.888H92.7622V162.785Z" fill="#EBEBEB"/>
<path d="M97.6437 139.174H18.0906C17.4674 139.173 16.8701 138.924 16.4298 138.483C15.9895 138.042 15.7422 137.444 15.7422 136.821V24.992C15.7476 24.3723 15.9973 23.7798 16.437 23.3432C16.8767 22.9066 17.4709 22.6611 18.0906 22.66H97.6437C98.2676 22.66 98.866 22.9079 99.3072 23.3491C99.7483 23.7903 99.9962 24.3886 99.9962 25.0126V136.821C99.9962 137.445 99.7483 138.043 99.3072 138.485C98.866 138.926 98.2676 139.174 97.6437 139.174V139.174ZM18.0906 22.7424C17.4947 22.7435 16.9236 22.981 16.5026 23.4028C16.0816 23.8245 15.8452 24.3961 15.8452 24.992V136.821C15.8452 137.417 16.0816 137.989 16.5026 138.41C16.9236 138.832 17.4947 139.07 18.0906 139.071H97.6437C98.2399 139.07 98.8115 138.832 99.2331 138.411C99.6547 137.989 99.8921 137.417 99.8932 136.821V24.992C99.8921 24.3957 99.6547 23.8241 99.2331 23.4025C98.8115 22.9809 98.2399 22.7435 97.6437 22.7424H18.0906Z" fill="#EBEBEB"/>
<path d="M186.763 139.281H107.206C106.582 139.28 105.985 139.032 105.544 138.591C105.103 138.15 104.855 137.552 104.854 136.928V25.0991C104.855 24.4755 105.103 23.8778 105.544 23.4368C105.985 22.9959 106.582 22.7477 107.206 22.7466H186.763C187.386 22.7488 187.982 22.9976 188.421 23.4385C188.861 23.8795 189.108 24.4766 189.108 25.0991V136.928C189.108 137.551 188.861 138.148 188.421 138.589C187.982 139.03 187.386 139.279 186.763 139.281V139.281ZM107.206 22.8496C106.61 22.8507 106.038 23.088 105.617 23.5097C105.195 23.9313 104.958 24.5028 104.957 25.0991V136.928C104.958 137.525 105.195 138.096 105.617 138.518C106.038 138.939 106.61 139.177 107.206 139.178H186.763C187.36 139.177 187.931 138.939 188.353 138.518C188.774 138.096 189.012 137.525 189.013 136.928V25.0991C189.012 24.5028 188.774 23.9313 188.353 23.5097C187.931 23.088 187.36 22.8507 186.763 22.8496H107.206Z" fill="#EBEBEB"/>
<path d="M206 157.549H0V157.652H206V157.549Z" fill="#EBEBEB"/>
<path d="M31.1718 60.976H68.5361C73.3235 60.976 74.4771 54.2769 69.9575 52.7031L69.7803 52.6454C74.782 48.476 63.8105 39.6921 51.8913 51.8544C52.8224 47.8003 42.2258 49.267 38.9875 54.8002C37.8339 51.1663 27.7316 57.4782 31.1718 60.976Z" fill="#E6E6E6"/>
<path d="M131.111 44.2695H153.515C153.515 44.2695 158.768 42.2919 158.089 37.0512C157.409 31.8106 149.478 36.1778 149.478 36.1778C149.478 36.1778 151.88 28.8648 144.2 30.9412C136.52 33.0177 135.771 40.2648 135.771 40.2648C135.771 40.2648 125.681 38.5014 131.111 44.2695Z" fill="#EBEBEB"/>
<path d="M151.694 59.0108H166.485C166.485 59.0108 169.954 57.7048 169.505 54.244C169.056 50.7832 163.819 53.6672 163.819 53.6672C163.819 53.6672 165.405 48.8427 160.334 50.2105C158.904 50.5758 157.614 51.3546 156.624 52.4494C155.635 53.5443 154.991 54.9065 154.772 56.3658C154.772 56.3658 148.11 55.2081 151.694 59.0108Z" fill="#EBEBEB"/>
<path d="M148.851 133.987L148.81 129.611V129.368L148.773 125.466V125.219L148.736 121.511V121.268L148.703 117.737V117.507L148.67 114.136V113.922L148.637 110.7V110.498L148.608 107.421V107.223L148.583 104.677C148.454 104.758 148.316 104.823 148.171 104.871V107.021H145.444L147.644 105.006C147.417 105.052 147.187 105.079 146.956 105.089L145.143 106.737L145.176 104.792C145.026 104.732 144.887 104.649 144.764 104.545L144.715 107.215V107.413L144.665 110.49V110.7L144.603 113.91V114.124L144.546 117.486V117.717L144.484 121.248V121.491L144.418 125.199V125.45L144.348 129.347V129.611L144.274 133.982L143.854 152.852L149.111 152.914L148.851 133.987ZM148.303 133.163L145.135 129.739H148.283L148.303 133.163ZM148.254 129.331H145.118L148.229 126.06L148.254 129.331ZM148.287 124.523L145.271 121.433H148.27L148.287 124.523ZM148.25 121.009H145.267L148.233 118.038L148.25 121.009ZM148.229 116.917L145.345 114.112H148.204L148.229 116.917ZM148.229 113.675H145.378L148.204 110.964L148.229 113.675ZM148.18 107.433V110L145.431 107.446L148.18 107.433ZM145.081 108.018L147.829 110.581H145.044L145.081 108.018ZM145.04 111.026H147.825L144.978 113.712L145.04 111.026ZM144.982 114.779L147.866 117.589H144.958L144.982 114.779ZM144.941 118.017H147.862L144.9 120.976L144.941 118.017ZM144.884 122.109L147.903 125.211H144.842L144.884 122.109ZM144.855 125.627H147.908L144.793 128.882L144.855 125.627ZM144.834 129.937L148.002 133.373H144.785L144.834 129.937Z" fill="#EBEBEB"/>
<path d="M148.538 104.211H148.328L148.175 104.071L146.939 105.225C147.169 105.214 147.397 105.186 147.623 105.142L148.138 104.673V104.99C148.282 104.941 148.421 104.876 148.55 104.796L148.538 104.211ZM144.723 104.236V104.698C144.848 104.798 144.987 104.881 145.135 104.945V104.236H144.723Z" fill="#EBEBEB"/>
<path d="M149.144 103.869C149.159 103.984 149.147 104.1 149.109 104.208C149.071 104.317 149.008 104.415 148.926 104.496L148.777 104.636C148.699 104.698 148.617 104.755 148.53 104.805C148.401 104.885 148.262 104.95 148.118 104.998C147.952 105.066 147.779 105.117 147.603 105.151C147.377 105.194 147.149 105.222 146.919 105.233H146.61C146.105 105.234 145.605 105.133 145.139 104.936C144.992 104.873 144.853 104.789 144.727 104.689L144.69 104.66L144.554 104.529C144.475 104.451 144.415 104.356 144.381 104.25C144.346 104.145 144.338 104.032 144.357 103.923L144.67 102.168H143.846L146.73 100.705L149.733 102.073H148.889L149.144 103.869Z" fill="#EBEBEB"/>
<path d="M162.377 106.069L162.488 152.86H165.883H185.618H189.013L189.161 106.069H162.377Z" fill="#EBEBEB"/>
<path d="M167.557 100.116L167.569 110.548H169.67H181.886H183.987L184.008 100.116H167.557Z" fill="#EBEBEB"/>
<path d="M167.536 110.548H164.067L164.062 107.425H167.532L167.536 110.548Z" fill="#FAFAFA"/>
<path d="M174.19 107.421H170.721V110.548H174.19V107.421Z" fill="#FAFAFA"/>
<path d="M180.848 107.421H177.379V110.548H180.848V107.421Z" fill="#FAFAFA"/>
<path d="M187.5 110.548H184.031L184.039 107.425H187.509L187.5 110.548Z" fill="#F0F0F0"/>
<path d="M167.491 116.246H164.104L164.096 113.197H167.486L167.491 116.246Z" fill="#F0F0F0"/>
<path d="M174.137 113.197H170.746V116.246H174.137V113.197Z" fill="#F0F0F0"/>
<path d="M180.785 113.197H177.395V116.246H180.785V113.197Z" fill="#FAFAFA"/>
<path d="M187.428 116.246H184.037L184.045 113.197H187.436L187.428 116.246Z" fill="#FAFAFA"/>
<path d="M167.461 121.8H164.153L164.145 118.825H167.457L167.461 121.8Z" fill="#F0F0F0"/>
<path d="M174.103 118.825H170.791V121.8H174.103V118.825Z" fill="#FAFAFA"/>
<path d="M180.74 118.825H177.428V121.8H180.74V118.825Z" fill="#FAFAFA"/>
<path d="M174.17 102.885H170.635V106.074H174.17V102.885Z" fill="#FAFAFA"/>
<path d="M180.836 102.885H177.297V106.074H180.836V102.885Z" fill="#F0F0F0"/>
<path d="M187.373 121.8H184.064L184.069 118.825H187.381L187.373 121.8Z" fill="#F0F0F0"/>
<path d="M167.453 127.226H164.219L164.211 124.321H167.449L167.453 127.226Z" fill="#FAFAFA"/>
<path d="M174.082 124.321H170.848V127.226H174.082V124.321Z" fill="#F0F0F0"/>
<path d="M180.715 127.226H177.48L177.485 124.321H180.719L180.715 127.226Z" fill="#F0F0F0"/>
<path d="M187.346 127.226H184.111L184.12 124.321H187.354L187.346 127.226Z" fill="#FAFAFA"/>
<path d="M167.598 133.323H163.993L163.984 130.089H167.593L167.598 133.323Z" fill="#F0F0F0"/>
<path d="M174.214 133.323H170.613L170.609 130.089H174.219L174.214 133.323Z" fill="#FAFAFA"/>
<path d="M180.835 133.323H177.23V130.089H180.84L180.835 133.323Z" fill="#FAFAFA"/>
<path d="M187.453 133.323H183.848L183.856 130.089H187.461L187.453 133.323Z" fill="#F0F0F0"/>
<path d="M167.619 138.473H164.096L164.088 135.317H167.615L167.619 138.473Z" fill="#F0F0F0"/>
<path d="M174.232 135.317H170.709V138.473H174.232V135.317Z" fill="#FAFAFA"/>
<path d="M180.851 135.317H177.328V138.473H180.851V135.317Z" fill="#F0F0F0"/>
<path d="M187.464 138.473H183.941L183.95 135.317H187.476L187.464 138.473Z" fill="#FAFAFA"/>
<path d="M167.544 144.27H164.108L164.104 141.197H167.54L167.544 144.27Z" fill="#FAFAFA"/>
<path d="M174.149 141.197H170.713V144.27H174.149V141.197Z" fill="#FAFAFA"/>
<path d="M180.752 141.197H177.316V144.27H180.752V141.197Z" fill="#F0F0F0"/>
<path d="M187.354 144.27H183.922L183.926 141.197H187.362L187.354 144.27Z" fill="#F0F0F0"/>
<path d="M167.543 149.54H164.19L164.186 146.544H167.539L167.543 149.54Z" fill="#F0F0F0"/>
<path d="M187.34 149.54H183.99L183.994 146.544H187.348L187.34 149.54Z" fill="#FAFAFA"/>
<path d="M180.769 146.544H170.758L170.778 147.298H171.054L171.059 152.86H172.06L172.056 147.298H179.488L179.48 152.86H180.481L180.489 147.298H180.79L180.769 146.544Z" fill="#F5F5F5"/>
<path d="M175.813 152.86H172.105V147.298H175.818L175.813 152.86Z" fill="#E6E6E6"/>
<path d="M179.435 152.86H175.723L175.727 147.298H179.443L179.435 152.86Z" fill="#EBEBEB"/>
<path d="M162.415 120.955L162.489 152.86H158.234H133.489H129.229L128.924 120.955H162.415Z" fill="#F5F5F5"/>
<path d="M156.049 128.046H160.202L160.19 124.321H156.037L156.049 128.046Z" fill="#E6E6E6"/>
<path d="M147.765 128.046H151.918L151.901 124.321H147.744L147.765 128.046Z" fill="#E6E6E6"/>
<path d="M139.478 128.046H143.631L143.606 124.321H139.453L139.478 128.046Z" fill="#E6E6E6"/>
<path d="M131.193 128.046H135.346L135.313 124.321H131.16L131.193 128.046Z" fill="#E6E6E6"/>
<path d="M155.893 135.317H160.368L160.355 131.309H155.877L155.893 135.317Z" fill="#E6E6E6"/>
<path d="M147.624 135.317H152.099L152.078 131.309H147.6L147.624 135.317Z" fill="#E6E6E6"/>
<path d="M139.351 135.317H143.825L143.801 131.309H139.322L139.351 135.317Z" fill="#E6E6E6"/>
<path d="M131.082 135.317H135.556L135.523 131.309H131.045L131.082 135.317Z" fill="#E6E6E6"/>
<path d="M156.008 141.967H160.351L160.343 138.082H155.996L156.008 141.967Z" fill="#E6E6E6"/>
<path d="M147.747 141.967H152.09L152.073 138.082H147.727L147.747 141.967Z" fill="#E6E6E6"/>
<path d="M139.486 141.967H143.828L143.804 138.082H139.457L139.486 141.967Z" fill="#E6E6E6"/>
<path d="M131.222 141.967H135.565L135.536 138.082H131.189L131.222 141.967Z" fill="#E6E6E6"/>
<path d="M156.102 148.794H160.313L160.305 145.028H156.086L156.102 148.794Z" fill="#E6E6E6"/>
<path d="M131.349 148.794H135.564L135.531 145.028H131.316L131.349 148.794Z" fill="#E6E6E6"/>
<path d="M139.289 145.028H152.321L152.325 146.165H151.493L151.526 152.86H150.318L150.285 146.165H141.345L141.39 152.86H140.187L140.138 146.165H139.301L139.289 145.028Z" fill="#F5F5F5"/>
<path d="M145.885 152.86H150.347L150.314 146.165H145.844L145.885 152.86Z" fill="#E6E6E6"/>
<path d="M141.362 152.86H145.824L145.787 146.165H141.316L141.362 152.86Z" fill="#EBEBEB"/>
<path d="M62.6658 93.6435V92.1438C62.6593 92.1009 62.6376 92.0618 62.6048 92.0335C62.5719 92.0053 62.53 91.9897 62.4866 91.9897C62.4432 91.9897 62.4013 92.0053 62.3684 92.0335C62.3356 92.0618 62.3139 92.1009 62.3074 92.1438V93.7918C62.3093 93.8385 62.3285 93.8829 62.3612 93.9164C62.3939 93.9499 62.4378 93.97 62.4845 93.9731C62.6273 93.9731 62.7669 94.0155 62.8855 94.0949C63.0042 94.1743 63.0966 94.2871 63.151 94.4191C63.2055 94.5511 63.2195 94.6963 63.1914 94.8362C63.1632 94.9762 63.0941 95.1047 62.9929 95.2053C62.8916 95.306 62.7628 95.3744 62.6227 95.4017C62.4825 95.4291 62.3374 95.4142 62.2058 95.359C62.0741 95.3038 61.9618 95.2107 61.8831 95.0916C61.8043 94.9725 61.7627 94.8327 61.7635 94.6899C61.7635 94.4633 61.3845 94.4633 61.4051 94.6899C61.4957 95.584 62.5381 96.1731 63.2467 95.4563C63.3827 95.3159 63.478 95.1413 63.5225 94.951C63.567 94.7607 63.559 94.5619 63.4993 94.3758C63.4397 94.1897 63.3307 94.0233 63.1839 93.8944C63.0371 93.7654 62.858 93.6787 62.6658 93.6435V93.6435Z" fill="#EBEBEB"/>
<path d="M36.2554 82.8615V86.108L32.8317 82.6843L32.6628 82.8532H32.4238V113.753H36.7334V82.8532L36.2554 82.8615ZM32.9018 106.436L35.9176 109.452H32.9018V106.436ZM32.9018 98.7688L35.9176 101.785H32.9018V98.7688ZM32.9018 91.1056L35.9176 94.1214H32.9018V91.1056ZM32.9018 83.4383L35.9176 86.4582H32.9018V83.4383ZM35.9176 86.932L32.9018 89.952V86.932H35.9176ZM36.2554 87.2699V90.2898H33.2396L36.2554 87.2699ZM35.9176 94.5994L32.9018 97.6152V94.5994H35.9176ZM36.2554 94.9372V97.953H33.2396L36.2554 94.9372ZM35.9176 102.263L32.9018 105.283V102.263H35.9176ZM36.2554 102.588V105.608H33.2396L36.2554 102.588ZM35.9176 109.918L32.9018 112.933V109.918H35.9176ZM33.2396 113.3L36.2554 110.268V113.3H33.2396ZM36.2554 109.114L33.2396 106.098H36.2554V109.114ZM36.2554 101.447L33.2396 98.431H36.2554V101.447ZM36.2554 93.7836L33.2396 90.7678H36.2554V93.7836Z" fill="#F0F0F0"/>
<path d="M32.9023 72.6851V78.692H33.372V76.3972L35.844 78.8692L36.0129 78.7003H36.256V72.6851H32.9023ZM35.432 73.163L33.372 75.223V73.163H35.432ZM35.7699 78.107L33.7099 76.047H35.7699V78.107ZM33.7099 75.5732L35.7699 73.5132V75.5732H33.7099Z" fill="#F0F0F0"/>
<path d="M25.0326 82.8615H19.2852V88.6088H25.0326V82.8615Z" fill="#E6E6E6"/>
<path d="M62.562 91.1551H62.2407V80.1053L35.473 71.2267H33.7055L19.372 80.1217L19.2031 79.8539L33.6108 70.9094H35.5266L35.5513 70.9177L62.562 79.8745V91.1551Z" fill="#E6E6E6"/>
<path d="M59.2869 83.1128H59.6165L62.9784 79.7509H19.0469V83.1004H59.2869V83.1128ZM59.7648 80.2288H61.8248L59.7648 82.2888V80.2288ZM19.5248 82.6225V80.5625L21.5848 82.6225H19.5248ZM21.9226 82.2847L19.8626 80.2247H21.9226V82.2847ZM22.4006 80.2247H24.4606L22.4006 82.2847V80.2247ZM24.7984 82.6184H22.7384L24.7984 80.5584V82.6184ZM25.2763 82.6184V80.5584L27.3363 82.6184H25.2763ZM27.67 82.2805L25.61 80.2205H27.67V82.2805ZM28.148 80.2205H30.208L28.148 82.2805V80.2205ZM30.5458 82.6143H28.4858L30.5458 80.5543V82.6143ZM31.0237 82.6143V80.5543L33.0837 82.6143H31.0237ZM33.4216 82.2764L31.3616 80.2164H33.4216V82.2764ZM33.8995 80.2164H35.9595L33.8995 82.2764V80.2164ZM36.2932 82.6101H34.2332L36.2932 80.5501V82.6101ZM36.7711 82.6101V80.5501L38.8311 82.6101H36.7711ZM39.169 82.2723L37.109 80.2123H39.169V82.2723ZM39.6469 80.2123H41.7069L39.6469 82.2723V80.2123ZM42.0406 82.606H39.9806L42.0406 80.546V82.606ZM42.5185 82.606V80.546L44.5785 82.606H42.5185ZM44.9164 82.2682L42.8564 80.2082H44.9164V82.2682ZM45.3943 80.2082H47.4543L45.3943 82.2682V80.2082ZM47.7921 82.6019H45.7321L47.7921 80.5419V82.6019ZM48.27 82.6019V80.5419L50.33 82.6019H48.27ZM50.6638 82.2641L48.6038 80.2041H50.6638V82.2641ZM51.1417 80.2041H53.2017L51.1417 82.2641V80.2041ZM53.5395 82.5978H51.4795L53.5395 80.5378V82.5978ZM54.0174 80.2041H56.0774L54.0174 82.2641V80.2041ZM56.4153 82.5978H54.3553L56.4153 80.5378V82.5978ZM56.8932 82.5978V80.5378L58.9532 82.5978H56.8932ZM57.231 80.2041H59.291V82.2641L57.231 80.2041Z" fill="#F0F0F0"/>
<path d="M38.8591 84.1675H30.0176L30.3431 80.4596C30.3844 79.9747 30.6064 79.523 30.965 79.1941C31.3237 78.8653 31.7928 78.6831 32.2795 78.6838H36.4901C36.9671 78.6846 37.4273 78.8604 37.7834 79.1778C38.1396 79.4952 38.3669 79.9322 38.4224 80.406L38.8591 84.1675Z" fill="#F0F0F0"/>
<path d="M33.1408 80.2164H31.4434V81.9139H33.1408V80.2164Z" fill="#FAFAFA"/>
<path d="M35.2873 80.2164H33.5898V81.9139H35.2873V80.2164Z" fill="#FAFAFA"/>
<path d="M37.4338 80.2164H35.7363V81.9139H37.4338V80.2164Z" fill="#FAFAFA"/>
<path d="M35.7373 71.7664C35.7373 71.9953 35.6694 72.2192 35.5422 72.4096C35.415 72.5999 35.2342 72.7483 35.0226 72.8359C34.8111 72.9236 34.5783 72.9465 34.3537 72.9018C34.1292 72.8572 33.9229 72.7469 33.761 72.585C33.5991 72.4231 33.4888 72.2168 33.4441 71.9922C33.3994 71.7676 33.4224 71.5349 33.51 71.3233C33.5976 71.1118 33.746 70.931 33.9364 70.8038C34.1268 70.6765 34.3506 70.6086 34.5796 70.6086C34.8866 70.6086 35.1811 70.7306 35.3982 70.9477C35.6153 71.1648 35.7373 71.4593 35.7373 71.7664V71.7664Z" fill="#E6E6E6"/>
<path d="M62.4829 93.1326C62.3531 93.1326 62.2245 93.1071 62.1045 93.0574C61.9846 93.0077 61.8756 92.9348 61.7838 92.843C61.6919 92.7512 61.6191 92.6422 61.5694 92.5222C61.5197 92.4023 61.4941 92.2737 61.4941 92.1438V91.155H63.4717V92.1438C63.4717 92.2737 63.4462 92.4023 63.3965 92.5222C63.3468 92.6422 63.2739 92.7512 63.1821 92.843C63.0903 92.9348 62.9813 93.0077 62.8613 93.0574C62.7414 93.1071 62.6128 93.1326 62.4829 93.1326V93.1326Z" fill="#E6E6E6"/>
<path d="M15.6719 106.069L16.4382 152.86H19.8372H39.572H42.9669L42.4601 106.069H15.6719Z" fill="#F5F5F5"/>
<path d="M17.3457 107.425L17.4405 113.119L17.4652 114.68L17.4899 116.246H20.9631L20.9383 114.68L20.9177 113.119L20.8271 107.425H17.3457Z" fill="#E6E6E6"/>
<path d="M24.0039 107.425L24.0904 113.119L24.111 114.68L24.1357 116.246H27.6089L27.5883 114.68L27.5677 113.119L27.4894 107.425H24.0039Z" fill="#E6E6E6"/>
<path d="M30.6602 107.425L30.7384 113.119L30.759 114.68L30.7796 116.246H34.2528L34.2363 114.68L34.2157 113.119L34.1457 107.425H30.6602Z" fill="#E6E6E6"/>
<path d="M37.3223 107.425L37.3882 113.119L37.417 115.533L37.4253 116.246H40.9025L40.8943 115.533L40.8655 113.119L40.8037 107.425H37.3223Z" fill="#E6E6E6"/>
<path d="M17.5547 118.825L17.6494 124.515L17.6742 126.076L17.6989 127.638H21.1762L21.1556 126.076L21.1308 124.515L21.0443 118.825H17.5547Z" fill="#E6E6E6"/>
<path d="M24.1973 118.825L24.2797 124.515L24.3126 126.715L24.325 127.638H27.8064L27.794 126.715L27.7652 124.515L27.6828 118.825H24.1973Z" fill="#E6E6E6"/>
<path d="M30.834 118.825L30.9123 124.515L30.9329 126.076L30.9535 127.638H34.4349L34.4143 126.076L34.3937 124.515L34.3236 118.825H30.834Z" fill="#E6E6E6"/>
<path d="M37.4746 118.825L37.5446 124.515L37.5611 126.076L37.5817 127.638H41.059L41.0425 126.076L41.0261 124.515L40.9643 118.825H37.4746Z" fill="#E6E6E6"/>
<path d="M17.7539 130.089L17.8445 135.754L17.8734 137.311L17.8981 138.865H21.3713L21.3465 137.311L21.3218 135.754L21.2394 130.089H17.7539Z" fill="#E6E6E6"/>
<path d="M24.3789 130.089L24.4613 135.754L24.4819 137.311L24.5066 138.865H27.9798L27.9592 137.311L27.9386 135.754L27.8603 130.089H24.3789Z" fill="#E6E6E6"/>
<path d="M30.998 130.089L31.0722 135.754L31.0928 137.311L31.1134 138.865H34.5907L34.5701 137.311L34.5495 135.754L34.4795 130.089H30.998Z" fill="#E6E6E6"/>
<path d="M37.623 130.089L37.689 135.754L37.7137 137.905L37.726 138.865H41.1992L41.191 137.905L41.1662 135.754L41.1044 130.089H37.623Z" fill="#E6E6E6"/>
<path d="M39.5529 141.197H37.8349H34.6172H31.177H27.9592H24.5232H17.8652L17.9147 144.27H24.5685H28.0004H31.2182H34.6542H37.872H39.59H41.308L41.2751 141.197H39.5529Z" fill="#E6E6E6"/>
<path d="M34.6116 146.544H24.6L24.5918 147.298H24.8926L24.975 152.86H25.9761L25.8937 147.298H33.3262L33.3962 152.86H34.3933L34.3274 147.298H34.6034L34.6116 146.544Z" fill="#FAFAFA"/>
<path d="M29.7299 152.86H26.0219L25.9395 147.298H29.6557L29.7299 152.86Z" fill="#E6E6E6"/>
<path d="M33.3466 152.86H29.6386L29.5645 147.298H33.2766L33.3466 152.86Z" fill="#E6E6E6"/>
<path d="M67.7237 108.768L68.0245 152.86H64.8232H46.2297H43.0284L42.4805 108.768H67.7237Z" fill="#E6E6E6"/>
<path d="M58.8094 141.967H60.1731H66.2913L66.2995 143.38L66.3078 144.793L66.349 149.91H63.1807L63.1395 144.649H60.0495H58.8299H57.0501L57.0254 141.967H58.8094Z" fill="#F0F0F0"/>
<path d="M46.7368 141.967H47.9563H53.7655L53.7944 144.649H47.7833L47.8451 149.91H44.6768L44.6191 144.793L44.5944 142.75L44.582 141.967H46.7368Z" fill="#F0F0F0"/>
<path d="M51.1625 146.919H59.7774L59.7856 147.673H59.8804L59.9216 152.86H58.9905L58.9452 147.673H52.0153L52.0689 152.86H51.1378L51.0801 147.673H51.1707L51.1625 146.919Z" fill="#F5F5F5"/>
<path d="M55.4928 152.86H58.9536L58.9083 147.673H55.4434L55.4928 152.86Z" fill="#EBEBEB"/>
<path d="M52.1063 152.86H55.5671L55.5177 147.673H52.0527L52.1063 152.86Z" fill="#E0E0E0"/>
<path d="M56.5723 110.548H66.176L66.2337 118.825H56.6505L56.5723 110.548Z" fill="#F0F0F0"/>
<path d="M44.1211 110.548H53.7248L53.8031 118.825H44.22L44.1211 110.548Z" fill="#F0F0F0"/>
<path d="M56.8398 120.955H66.0316L66.0934 128.865H56.9099L56.8398 120.955Z" fill="#F0F0F0"/>
<path d="M44.4102 120.955H53.6019L53.6843 128.865H44.5008L44.4102 120.955Z" fill="#F0F0F0"/>
<path d="M56.9336 131.712H66.1789L66.2365 139.643H57.0036L56.9336 131.712Z" fill="#F0F0F0"/>
<path d="M44.541 131.712H53.7863L53.8646 139.643H44.6317L44.541 131.712Z" fill="#F0F0F0"/>
<path d="M103 175.928C147.118 175.928 182.883 173.84 182.883 171.264C182.883 168.689 147.118 166.6 103 166.6C58.8819 166.6 23.1172 168.689 23.1172 171.264C23.1172 173.84 58.8819 175.928 103 175.928Z" fill="#5F90FF"/>
<path d="M66.2617 34.8634L67.7985 36.8492H138.193L139.742 34.8634H66.2617Z" fill="#407BFF"/>
<g opacity="0.4">
<path opacity="0.4" d="M66.2617 34.8634L67.7985 36.8492H138.193L139.742 34.8634H66.2617Z" fill="black"/>
</g>
<path d="M138.209 32.3049H67.6543V157.38H138.209V32.3049Z" fill="#407BFF"/>
<g opacity="0.4">
<path opacity="0.4" d="M138.209 32.3049H67.6543V157.38H138.209V32.3049Z" fill="white"/>
</g>
<g opacity="0.8">
<path opacity="0.8" d="M70.5139 35.3825C70.5411 35.5642 70.5289 35.7496 70.4781 35.9262C70.4273 36.1028 70.3391 36.2664 70.2196 36.4059C70.1 36.5454 69.9518 36.6576 69.7851 36.7348C69.6183 36.812 69.4369 36.8524 69.2532 36.8533C68.858 36.8378 68.4816 36.6807 68.1927 36.4106C67.9038 36.1406 67.7216 35.7757 67.6794 35.3825C67.6509 35.1996 67.6622 35.0127 67.7126 34.8347C67.7631 34.6566 67.8513 34.4915 67.9714 34.3506C68.0915 34.2098 68.2406 34.0966 68.4085 34.0187C68.5764 33.9408 68.7591 33.9001 68.9442 33.8993C69.3406 33.9162 69.7175 34.0755 70.0059 34.3479C70.2942 34.6204 70.4746 34.9877 70.5139 35.3825Z" fill="#F0F0F0"/>
<path opacity="0.8" d="M73.1141 35.3825C73.1394 35.5652 73.1253 35.7513 73.0727 35.9281C73.0202 36.105 72.9304 36.2686 72.8095 36.4079C72.6885 36.5472 72.5391 36.659 72.3714 36.7358C72.2037 36.8127 72.0214 36.8527 71.8369 36.8533C71.4447 36.834 71.0722 36.6751 70.7867 36.4055C70.5012 36.1358 70.3213 35.773 70.2796 35.3825C70.2524 35.1991 70.265 35.0121 70.3164 34.834C70.3678 34.656 70.4569 34.491 70.5776 34.3504C70.6984 34.2097 70.8479 34.0967 71.0161 34.0188C71.1843 33.941 71.3673 33.9002 71.5527 33.8993C71.9476 33.9181 72.3225 34.0783 72.6092 34.3505C72.8958 34.6228 73.0751 34.9891 73.1141 35.3825V35.3825Z" fill="#F0F0F0"/>
<path opacity="0.8" d="M75.7099 35.3825C75.7339 35.5657 75.7186 35.7519 75.665 35.9288C75.6115 36.1056 75.5209 36.269 75.3993 36.4082C75.2777 36.5473 75.1279 36.6589 74.9598 36.7357C74.7917 36.8125 74.6092 36.8526 74.4245 36.8533C74.0314 36.8388 73.6572 36.6814 73.372 36.4106C73.0868 36.1398 72.9102 35.7742 72.8754 35.3825C72.8502 35.1984 72.8645 35.0111 72.9174 34.8331C72.9704 34.655 73.0607 34.4903 73.1824 34.3499C73.304 34.2096 73.4542 34.0968 73.6229 34.019C73.7917 33.9413 73.975 33.9005 74.1608 33.8993C74.5558 33.9141 74.9316 34.0733 75.2171 34.3466C75.5026 34.62 75.6779 34.9885 75.7099 35.3825V35.3825Z" fill="#F0F0F0"/>
<path opacity="0.8" d="M78.3053 35.3825C78.3267 35.5663 78.3092 35.7525 78.2539 35.929C78.1986 36.1056 78.1067 36.2685 77.9843 36.4073C77.8619 36.546 77.7117 36.6574 77.5434 36.7343C77.3751 36.8111 77.1925 36.8517 77.0075 36.8533C76.6158 36.8385 76.2431 36.6807 75.9599 36.4096C75.6767 36.1386 75.5027 35.7732 75.4707 35.3825C75.4481 35.1975 75.4648 35.0099 75.5197 34.8318C75.5747 34.6538 75.6666 34.4894 75.7895 34.3493C75.9125 34.2093 76.0636 34.0968 76.233 34.0192C76.4024 33.9417 76.5863 33.9008 76.7727 33.8993C77.1659 33.9145 77.5397 34.0743 77.8225 34.3479C78.1053 34.6216 78.2772 34.99 78.3053 35.3825V35.3825Z" fill="#F0F0F0"/>
<path opacity="0.8" d="M80.9039 35.3825C80.9234 35.5669 80.9042 35.7534 80.8474 35.93C80.7906 36.1065 80.6976 36.2693 80.5742 36.4078C80.4508 36.5463 80.2999 36.6574 80.131 36.7342C79.9622 36.8109 79.7792 36.8515 79.5937 36.8533C79.203 36.8391 78.8313 36.6811 78.55 36.4097C78.2687 36.1382 78.0975 35.7724 78.0693 35.3825C78.0479 35.1971 78.0658 35.0093 78.1217 34.8312C78.1776 34.6532 78.2704 34.4889 78.3939 34.349C78.5175 34.2091 78.6691 34.0968 78.8389 34.0193C79.0087 33.9418 79.1928 33.901 79.3795 33.8993C79.7724 33.9129 80.1463 34.0723 80.4281 34.3465C80.7099 34.6207 80.8795 34.99 80.9039 35.3825V35.3825Z" fill="#F0F0F0"/>
<path opacity="0.8" d="M83.5001 35.3825C83.5178 35.5676 83.4969 35.7543 83.4386 35.9309C83.3804 36.1075 83.2861 36.2701 83.1618 36.4083C83.0375 36.5466 82.8858 36.6575 82.7164 36.7341C82.547 36.8107 82.3635 36.8513 82.1776 36.8533C81.7879 36.8398 81.4172 36.6816 81.1377 36.4097C80.8582 36.1379 80.6899 35.7717 80.6655 35.3825C80.646 35.1964 80.6656 35.0083 80.723 34.8303C80.7804 34.6522 80.8743 34.4881 80.9989 34.3485C81.1234 34.2088 81.2757 34.0968 81.446 34.0194C81.6164 33.9421 81.801 33.9011 81.9881 33.8993C82.3801 33.9122 82.753 34.0717 83.033 34.3464C83.313 34.6211 83.4797 34.9908 83.5001 35.3825V35.3825Z" fill="#F0F0F0"/>
<path opacity="0.8" d="M86.1086 35.3825C86.1245 35.5682 86.1019 35.7552 86.0422 35.9318C85.9825 36.1085 85.887 36.2709 85.7618 36.4089C85.6365 36.5469 85.4841 36.6577 85.3141 36.7341C85.1441 36.8106 84.9601 36.8512 84.7737 36.8533C84.385 36.8405 84.0152 36.6822 83.7375 36.4099C83.4599 36.1375 83.2945 35.7709 83.274 35.3825C83.2557 35.196 83.2764 35.0077 83.3348 34.8297C83.3932 34.6516 83.4879 34.4876 83.6131 34.3481C83.7382 34.2086 83.891 34.0967 84.0617 34.0194C84.2325 33.9422 84.4174 33.9013 84.6048 33.8993C84.996 33.9123 85.3679 34.0722 85.6466 34.347C85.9252 34.6218 86.0902 34.9915 86.1086 35.3825V35.3825Z" fill="#F0F0F0"/>
<path opacity="0.8" d="M88.6951 35.3825C88.7092 35.5692 88.6849 35.7568 88.6235 35.9337C88.5621 36.1107 88.4651 36.2731 88.3384 36.411C88.2117 36.5489 88.0581 36.6593 87.887 36.7354C87.7159 36.8115 87.531 36.8516 87.3438 36.8533C86.956 36.8412 86.5871 36.6828 86.3112 36.41C86.0354 36.1372 85.8729 35.7701 85.8564 35.3825C85.8406 35.1955 85.8634 35.0072 85.9235 34.8294C85.9835 34.6515 86.0795 34.488 86.2055 34.3488C86.3315 34.2097 86.4848 34.098 86.6558 34.0207C86.8268 33.9433 87.0119 33.902 87.1996 33.8993C87.5905 33.9105 87.9626 34.07 88.2403 34.3455C88.5181 34.6209 88.6807 34.9916 88.6951 35.3825V35.3825Z" fill="#F0F0F0"/>
<path opacity="0.8" d="M91.2915 35.3825C91.3038 35.5692 91.2781 35.7564 91.2158 35.9328C91.1535 36.1092 91.056 36.2711 90.9293 36.4086C90.8025 36.5462 90.6491 36.6566 90.4783 36.733C90.3076 36.8094 90.1231 36.8504 89.9361 36.8533C89.5488 36.842 89.1803 36.6837 88.9056 36.4105C88.6308 36.1373 88.4704 35.7697 88.457 35.3825C88.4429 35.1945 88.4675 35.0056 88.5292 34.8275C88.5909 34.6493 88.6885 34.4857 88.8159 34.3468C88.9433 34.2078 89.0978 34.0964 89.2699 34.0194C89.442 33.9425 89.6281 33.9016 89.8166 33.8993C90.2055 33.9108 90.5753 34.071 90.8497 34.3469C91.1241 34.6228 91.2822 34.9935 91.2915 35.3825V35.3825Z" fill="#F0F0F0"/>
<path opacity="0.8" d="M93.8905 35.3825C93.9005 35.57 93.8726 35.7576 93.8084 35.934C93.7443 36.1105 93.6452 36.2722 93.5171 36.4095C93.389 36.5468 93.2346 36.6569 93.063 36.7331C92.8914 36.8094 92.7062 36.8503 92.5185 36.8533C92.1318 36.8439 91.7636 36.6858 91.4904 36.4118C91.2172 36.1379 91.0602 35.7692 91.0518 35.3825C91.0395 35.1942 91.0656 35.0054 91.1285 34.8275C91.1914 34.6496 91.2898 34.4863 91.4177 34.3476C91.5456 34.2089 91.7004 34.0976 91.8726 34.0206C92.0449 33.9435 92.231 33.9022 92.4196 33.8993C92.8089 33.9088 93.1793 34.0685 93.4535 34.345C93.7276 34.6214 93.8842 34.9932 93.8905 35.3825V35.3825Z" fill="#F0F0F0"/>
<path opacity="0.8" d="M96.4872 35.3825C96.4954 35.5703 96.4661 35.7578 96.4008 35.934C96.3355 36.1103 96.2356 36.2717 96.107 36.4087C95.9784 36.5458 95.8236 36.6557 95.6519 36.7321C95.4801 36.8084 95.2949 36.8497 95.1069 36.8533C94.7217 36.8428 94.3554 36.6839 94.0845 36.4099C93.8135 36.1359 93.6588 35.7678 93.6526 35.3825C93.642 35.1936 93.6697 35.0045 93.734 34.8265C93.7983 34.6486 93.8979 34.4855 94.0268 34.347C94.1557 34.2084 94.3113 34.0974 94.4841 34.0205C94.657 33.9435 94.8436 33.9023 95.0328 33.8993C95.4205 33.9089 95.7891 34.0692 96.0606 34.3461C96.3321 34.623 96.4851 34.9947 96.4872 35.3825Z" fill="#F0F0F0"/>
<path opacity="0.8" d="M99.082 35.3825C99.0886 35.5709 99.0576 35.7587 98.991 35.935C98.9243 36.1113 98.8232 36.2726 98.6936 36.4094C98.564 36.5463 98.4085 36.6561 98.2361 36.7323C98.0637 36.8085 97.8779 36.8496 97.6894 36.8533C97.3054 36.8427 96.9405 36.6834 96.6715 36.409C96.4025 36.1347 96.2505 35.7667 96.2474 35.3825C96.2392 35.1931 96.2689 35.004 96.3348 34.8262C96.4007 34.6485 96.5015 34.4857 96.6312 34.3475C96.761 34.2093 96.9171 34.0985 97.0903 34.0215C97.2636 33.9445 97.4505 33.903 97.64 33.8993C98.0269 33.9079 98.3948 34.0683 98.6646 34.3457C98.9343 34.6232 99.0842 34.9955 99.082 35.3825Z" fill="#F0F0F0"/>
<path opacity="0.8" d="M101.681 35.3825C101.686 35.5715 101.654 35.7596 101.586 35.9359C101.517 36.1123 101.415 36.2735 101.285 36.4102C101.154 36.5469 100.998 36.6564 100.825 36.7325C100.652 36.8085 100.465 36.8496 100.276 36.8533C99.8926 36.8447 99.5278 36.6857 99.2603 36.4105C98.9929 36.1354 98.8443 35.7662 98.8466 35.3825C98.84 35.1925 98.8712 35.0031 98.9385 34.8253C99.0058 34.6475 99.1078 34.4848 99.2385 34.3468C99.3693 34.2088 99.5262 34.0981 99.7001 34.0213C99.874 33.9445 100.061 33.903 100.251 33.8993C100.637 33.909 101.003 34.0701 101.271 34.3477C101.538 34.6252 101.686 34.997 101.681 35.3825V35.3825Z" fill="#F0F0F0"/>
<path opacity="0.8" d="M104.276 35.3825C104.263 35.6596 104.17 35.9269 104.006 36.1511C103.843 36.3754 103.617 36.5467 103.357 36.644C103.098 36.7412 102.815 36.76 102.544 36.6981C102.274 36.6362 102.028 36.4963 101.836 36.2957C101.644 36.0951 101.516 35.8427 101.466 35.5697C101.417 35.2967 101.448 35.0152 101.557 34.7601C101.666 34.5049 101.848 34.2873 102.079 34.1343C102.31 33.9813 102.582 33.8996 102.859 33.8993C103.05 33.903 103.238 33.9444 103.412 34.0211C103.587 34.0978 103.745 34.2082 103.876 34.3461C104.008 34.4839 104.111 34.6465 104.18 34.8243C104.248 35.0022 104.281 35.1919 104.276 35.3825V35.3825Z" fill="#F0F0F0"/>
<path opacity="0.8" d="M106.874 35.3825C106.877 35.7658 106.73 36.135 106.463 36.4103C106.196 36.6855 105.832 36.8447 105.448 36.8533C105.259 36.8496 105.073 36.8085 104.9 36.7325C104.727 36.6564 104.571 36.5469 104.44 36.4102C104.309 36.2735 104.207 36.1123 104.139 35.9359C104.071 35.7596 104.039 35.5715 104.043 35.3825C104.037 34.9971 104.183 34.6247 104.45 34.3468C104.717 34.0688 105.084 33.9079 105.469 33.8993C105.659 33.903 105.847 33.9445 106.02 34.0213C106.194 34.0981 106.351 34.2088 106.482 34.3468C106.613 34.4848 106.715 34.6475 106.782 34.8253C106.849 35.0031 106.88 35.1925 106.874 35.3825V35.3825Z" fill="#F0F0F0"/>
<path opacity="0.8" d="M109.472 35.3825C109.471 35.7673 109.32 36.1365 109.05 36.4113C108.781 36.6861 108.415 36.8447 108.03 36.8533C107.842 36.8496 107.656 36.8085 107.483 36.7323C107.311 36.6561 107.156 36.5463 107.026 36.4094C106.896 36.2726 106.795 36.1113 106.729 35.935C106.662 35.7587 106.631 35.5709 106.638 35.3825C106.635 34.9962 106.785 34.6245 107.054 34.3471C107.322 34.0698 107.689 33.909 108.075 33.8993C108.265 33.903 108.452 33.9445 108.626 34.0214C108.799 34.0983 108.956 34.2091 109.086 34.3473C109.216 34.4854 109.317 34.6481 109.383 34.8259C109.45 35.0037 109.48 35.1929 109.472 35.3825Z" fill="#F0F0F0"/>
<path opacity="0.8" d="M112.064 35.3825C112.059 35.7674 111.905 36.1355 111.635 36.4096C111.365 36.6837 110.999 36.8427 110.614 36.8533C110.426 36.8496 110.24 36.8084 110.069 36.7321C109.897 36.6558 109.742 36.546 109.613 36.409C109.484 36.272 109.383 36.1106 109.318 35.9343C109.252 35.7581 109.222 35.5705 109.23 35.3825C109.232 34.9947 109.385 34.623 109.656 34.3461C109.928 34.0692 110.296 33.9089 110.684 33.8993C110.873 33.9029 111.059 33.9445 111.232 34.0216C111.405 34.0987 111.56 34.2098 111.689 34.3482C111.817 34.4866 111.917 34.6495 111.982 34.8272C112.046 35.0049 112.074 35.1937 112.064 35.3825Z" fill="#F0F0F0"/>
<path opacity="0.8" d="M114.669 35.3825C114.659 35.7689 114.502 36.137 114.229 36.4107C113.956 36.6844 113.588 36.8429 113.202 36.8533C113.015 36.8503 112.83 36.8094 112.658 36.7331C112.487 36.6568 112.333 36.5467 112.205 36.4093C112.077 36.2719 111.978 36.1102 111.915 35.9337C111.851 35.7573 111.824 35.5698 111.834 35.3825C111.839 34.9943 111.995 34.6231 112.267 34.3466C112.54 34.0702 112.909 33.9099 113.297 33.8993C113.486 33.9023 113.672 33.9435 113.844 34.0205C114.017 34.0976 114.172 34.2087 114.3 34.3474C114.428 34.486 114.527 34.6492 114.591 34.8272C114.654 35.0051 114.681 35.194 114.669 35.3825V35.3825Z" fill="#F0F0F0"/>
<path opacity="0.8" d="M117.264 35.3825C117.25 35.7718 117.088 36.1411 116.811 36.4146C116.533 36.6882 116.162 36.8451 115.772 36.8533C115.585 36.8504 115.401 36.8094 115.23 36.733C115.059 36.6566 114.905 36.5463 114.778 36.4089C114.651 36.2714 114.553 36.1095 114.49 35.9331C114.427 35.7567 114.401 35.5694 114.413 35.3825C114.422 34.9935 114.58 34.6228 114.855 34.3469C115.129 34.071 115.499 33.9108 115.888 33.8993C116.078 33.8993 116.266 33.9386 116.44 34.0145C116.614 34.0905 116.77 34.2015 116.899 34.3408C117.029 34.48 117.128 34.6444 117.19 34.8236C117.253 35.0029 117.278 35.1931 117.264 35.3825V35.3825Z" fill="#F0F0F0"/>
<path opacity="0.8" d="M119.859 35.3825C119.843 35.7698 119.681 36.1368 119.406 36.4097C119.131 36.6826 118.763 36.8411 118.375 36.8533C118.187 36.8533 118 36.8144 117.828 36.7391C117.655 36.6638 117.5 36.5537 117.371 36.4157C117.243 36.2777 117.144 36.1147 117.082 35.937C117.019 35.7592 116.994 35.5705 117.007 35.3825C117.021 34.9927 117.182 34.6225 117.458 34.3471C117.734 34.0717 118.105 33.9116 118.495 33.8993C118.684 33.8992 118.872 33.9384 119.045 34.0145C119.218 34.0906 119.374 34.2019 119.502 34.3413C119.631 34.4808 119.729 34.6453 119.79 34.8245C119.851 35.0038 119.874 35.1938 119.859 35.3825V35.3825Z" fill="#F0F0F0"/>
<path opacity="0.8" d="M122.459 35.3825C122.438 35.7709 122.273 36.1375 121.995 36.4099C121.717 36.6822 121.348 36.8405 120.959 36.8533C120.773 36.8512 120.589 36.8106 120.419 36.7341C120.249 36.6577 120.096 36.5469 119.971 36.4089C119.846 36.2709 119.75 36.1085 119.69 35.9318C119.631 35.7552 119.608 35.5682 119.624 35.3825C119.641 34.9916 119.804 34.6214 120.082 34.3462C120.361 34.0711 120.733 33.9114 121.124 33.8993C121.311 33.9019 121.496 33.9432 121.667 34.0207C121.837 34.0981 121.99 34.21 122.115 34.3492C122.241 34.4885 122.336 34.6522 122.395 34.83C122.454 35.0078 122.476 35.1959 122.459 35.3825Z" fill="#F0F0F0"/>
<path opacity="0.8" d="M125.055 35.3825C125.032 35.7713 124.864 36.1375 124.586 36.4094C124.307 36.6814 123.936 36.8397 123.547 36.8533C123.361 36.8513 123.177 36.8107 123.008 36.7341C122.838 36.6576 122.686 36.5467 122.562 36.4085C122.437 36.2703 122.342 36.1078 122.284 35.9312C122.225 35.7546 122.203 35.5678 122.221 35.3825C122.241 34.9908 122.408 34.6211 122.688 34.3464C122.968 34.0717 123.341 33.9122 123.733 33.8993C123.92 33.9011 124.104 33.9421 124.275 34.0194C124.445 34.0968 124.597 34.2088 124.722 34.3485C124.846 34.4881 124.94 34.6522 124.998 34.8303C125.055 35.0083 125.075 35.1964 125.055 35.3825V35.3825Z" fill="#F0F0F0"/>
<path opacity="0.8" d="M127.651 35.3825C127.625 35.7724 127.455 36.1387 127.174 36.4104C126.893 36.6821 126.521 36.8399 126.131 36.8533C125.947 36.8486 125.766 36.806 125.599 36.728C125.433 36.6501 125.284 36.5386 125.163 36.4005C125.041 36.2624 124.95 36.1007 124.894 35.9255C124.837 35.7503 124.818 35.5654 124.837 35.3825C124.861 34.99 125.031 34.6207 125.313 34.3465C125.595 34.0723 125.968 33.9129 126.361 33.8993C126.546 33.9038 126.728 33.9468 126.896 34.0255C127.063 34.1042 127.212 34.217 127.333 34.3565C127.455 34.4961 127.546 34.6594 127.6 34.836C127.655 35.0127 127.672 35.1988 127.651 35.3825Z" fill="#F0F0F0"/>
<path opacity="0.8" d="M130.25 35.3825C130.219 35.7728 130.045 36.1382 129.763 36.4093C129.48 36.6804 129.108 36.8384 128.717 36.8533C128.532 36.8523 128.349 36.8121 128.18 36.7355C128.011 36.6589 127.86 36.5476 127.737 36.4088C127.615 36.27 127.522 36.1069 127.467 35.93C127.411 35.7532 127.394 35.5666 127.415 35.3825C127.442 34.9896 127.614 34.6208 127.897 34.3469C128.18 34.0731 128.554 33.9136 128.948 33.8993C129.134 33.9008 129.318 33.9417 129.487 34.0192C129.657 34.0968 129.808 34.2093 129.931 34.3493C130.054 34.4894 130.146 34.6538 130.201 34.8318C130.256 35.0099 130.272 35.1975 130.25 35.3825V35.3825Z" fill="#F0F0F0"/>
<path opacity="0.8" d="M132.844 35.3825C132.81 35.7736 132.634 36.1386 132.349 36.4093C132.065 36.68 131.692 36.8378 131.299 36.8533C131.115 36.8518 130.932 36.8113 130.765 36.7343C130.597 36.6574 130.447 36.5458 130.325 36.4069C130.203 36.268 130.112 36.105 130.058 35.9284C130.004 35.7519 129.987 35.5658 130.01 35.3825C130.042 34.9892 130.217 34.6212 130.501 34.348C130.786 34.0747 131.161 33.9151 131.555 33.8993C131.741 33.9006 131.924 33.9414 132.093 34.0191C132.262 34.0968 132.413 34.2095 132.534 34.3498C132.656 34.4901 132.747 34.6547 132.801 34.8328C132.854 35.0108 132.869 35.1982 132.844 35.3825Z" fill="#F0F0F0"/>
<path opacity="0.8" d="M135.446 35.3825C135.404 35.771 135.226 36.1322 134.943 36.4016C134.66 36.671 134.291 36.8311 133.901 36.8533C133.716 36.8527 133.534 36.8127 133.366 36.7358C133.199 36.659 133.049 36.5472 132.928 36.4079C132.807 36.2686 132.717 36.105 132.665 35.9281C132.612 35.7513 132.598 35.5652 132.624 35.3825C132.662 34.9897 132.841 34.624 133.127 34.3518C133.413 34.0797 133.787 33.9191 134.181 33.8993C134.365 33.9021 134.547 33.9442 134.714 34.0227C134.881 34.1013 135.029 34.2145 135.149 34.3548C135.268 34.4952 135.357 34.6594 135.408 34.8366C135.459 35.0138 135.472 35.1999 135.446 35.3825V35.3825Z" fill="#F0F0F0"/>
<path opacity="0.8" d="M138.041 35.3825C137.999 35.775 137.818 36.1394 137.53 36.4093C137.241 36.6793 136.866 36.8368 136.472 36.8533C136.288 36.8523 136.106 36.8118 135.939 36.7347C135.772 36.6575 135.624 36.5455 135.504 36.406C135.384 36.2666 135.296 36.1031 135.244 35.9265C135.193 35.75 135.18 35.5644 135.207 35.3825C135.246 34.9877 135.426 34.6204 135.715 34.3479C136.003 34.0755 136.38 33.9162 136.777 33.8993C136.962 33.9001 137.144 33.9408 137.312 34.0187C137.48 34.0966 137.629 34.2098 137.749 34.3506C137.869 34.4915 137.958 34.6566 138.008 34.8347C138.058 35.0127 138.07 35.1996 138.041 35.3825Z" fill="#F0F0F0"/>
</g>
<path d="M66.2578 32.8529H139.746L139.742 34.8635H66.2619L66.2578 32.8529Z" fill="#407BFF"/>
<path d="M66.2539 30.8423L67.7865 32.8528H138.201L139.751 30.8423H66.2539Z" fill="#407BFF"/>
<g opacity="0.4">
<path opacity="0.4" d="M66.2539 30.8423L67.7865 32.8528H138.201L139.751 30.8423H66.2539Z" fill="black"/>
</g>
<path d="M66.2461 28.8235H139.755L139.751 30.8423H66.2543L66.2461 28.8235Z" fill="#407BFF"/>
<g opacity="0.8">
<path opacity="0.8" d="M67.7832 30.8423H138.206L138.202 32.8528H67.7873L67.7832 30.8423Z" fill="white"/>
</g>
<g opacity="0.7">
<path opacity="0.7" d="M138.227 72.4337H67.6758V73.3195H138.227V72.4337Z" fill="white"/>
</g>
<g opacity="0.8">
<path opacity="0.8" d="M138.223 116.398H67.8203V117.28H138.223V116.398Z" fill="white"/>
</g>
<path d="M91.0189 40.7014H82.2969V50.1239H91.0189V40.7014Z" fill="#407BFF"/>
<path d="M107.771 40.7014H99.0488V50.1239H107.771V40.7014Z" fill="#407BFF"/>
<path d="M124.523 40.7014H115.801V50.1239H124.523V40.7014Z" fill="#407BFF"/>
<path d="M91.0189 54.8083H82.2969V64.2308H91.0189V54.8083Z" fill="#407BFF"/>
<path d="M107.771 54.8083H99.0488V64.2308H107.771V54.8083Z" fill="#407BFF"/>
<path d="M124.523 54.8083H115.801V64.2308H124.523V54.8083Z" fill="#407BFF"/>
<path d="M91.0189 123.184H82.2969V132.606H91.0189V123.184Z" fill="#407BFF"/>
<path d="M107.771 123.184H99.0488V132.606H107.771V123.184Z" fill="#407BFF"/>
<path d="M124.523 123.184H115.801V132.606H124.523V123.184Z" fill="#407BFF"/>
<path d="M81.6752 143.022H72.9531V152.444H81.6752V143.022Z" fill="#407BFF"/>
<path d="M132.919 143.022H124.197V152.444H132.919V143.022Z" fill="#407BFF"/>
<path d="M91.0189 80.7438H82.2969V90.1662H91.0189V80.7438Z" fill="#407BFF"/>
<path d="M107.771 80.7438H99.0488V90.1662H107.771V80.7438Z" fill="#407BFF"/>
<path d="M124.523 80.7438H115.801V90.1662H124.523V80.7438Z" fill="#407BFF"/>
<path d="M91.0189 94.8506H82.2969V104.273H91.0189V94.8506Z" fill="#407BFF"/>
<path d="M107.771 94.8506H99.0488V104.273H107.771V94.8506Z" fill="#407BFF"/>
<path d="M124.523 94.8506H115.801V104.273H124.523V94.8506Z" fill="#407BFF"/>
<g opacity="0.8">
<path opacity="0.8" d="M92.845 144.126H101.872L101.835 153.499H92.7832L92.845 144.126Z" fill="white"/>
</g>
<g opacity="0.8">
<path opacity="0.8" d="M103.615 144.126H113.012L112.567 153.499H103.516L103.615 144.126Z" fill="white"/>
</g>
<path d="M114.45 155.386H90.6319L90.5371 153.499H114.54L114.45 155.386Z" fill="#407BFF"/>
<g opacity="0.1">
<path opacity="0.1" d="M114.45 155.386H90.6319L90.5371 153.499H114.54L114.45 155.386Z" fill="white"/>
</g>
<path d="M115.411 157.38H89.7925L89.6895 155.522H115.505L115.411 157.38Z" fill="#407BFF"/>
<g opacity="0.4">
<path opacity="0.4" d="M116.259 140.805H88.8773L88.7578 138.683H116.366L116.259 140.805Z" fill="white"/>
</g>
<path d="M88.877 140.805L92.8445 144.126H113.012L116.258 140.805H88.877Z" fill="#263238"/>
<path d="M90.7305 142.358L92.1313 153.482H93.2437L92.7946 142.358C92.4759 142.195 92.1228 142.109 91.7646 142.109C91.4063 142.109 91.0532 142.195 90.7346 142.358H90.7305Z" fill="#407BFF"/>
<path d="M114.793 142.358L113.421 153.482H112.309L112.721 142.358C113.027 142.158 113.385 142.051 113.751 142.051C114.117 142.051 114.475 142.158 114.781 142.358H114.793Z" fill="#407BFF"/>
<path d="M67.7832 30.8423H138.206L138.202 32.8528H67.7873L67.7832 30.8423Z" fill="#407BFF"/>
<path d="M149.218 95.2255C147.006 98.2084 146.149 99.5803 145.292 100.425C144.356 101.348 134.806 100.643 133.653 100.161C132.771 99.7905 133.381 98.6451 133.797 98.7028C135.371 98.9212 141.279 97.8788 143.03 97.1207C143.335 96.9848 146.326 93.3468 146.326 93.3468L149.218 95.2255Z" fill="#FFB573"/>
<path d="M145.584 93.252C147.454 89.82 151.142 87.3027 152.258 87.1585C153.865 86.9484 154.405 87.2698 153.935 88.5593C153.136 90.7553 151.665 93.0625 149.593 95.8559L145.584 93.252Z" fill="#407BFF"/>
<g opacity="0.1">
<path opacity="0.1" d="M145.584 93.252C147.454 89.82 151.142 87.3027 152.258 87.1585C153.865 86.9484 154.405 87.2698 153.935 88.5593C153.136 90.7553 151.665 93.0625 149.593 95.8559L145.584 93.252Z" fill="black"/>
</g>
<path d="M152.258 87.1586C153.161 86.8302 154.083 86.5551 155.018 86.3346C156.727 85.9237 158.463 85.6373 160.214 85.4776C161.232 85.3681 162.255 85.3117 163.279 85.3087C163.383 85.3074 163.486 85.3185 163.588 85.3417C163.973 85.4377 164.307 85.6793 164.518 86.0157C164.729 86.3521 164.802 86.7573 164.721 87.1462C163.003 96.2308 162.92 100.26 163.168 104.941L152.711 105.311C152.578 105.312 152.449 105.265 152.348 105.179C152.247 105.093 152.18 104.973 152.159 104.842C151.693 102.485 150.247 97.2485 150.247 97.2485C148.941 95.9919 148.723 94.4427 148.599 93.5405C148.525 93.0502 149.621 92.5187 150.812 89.9231C150.791 89.9231 151.722 87.344 152.258 87.1586Z" fill="#407BFF"/>
<path d="M158.866 105.085L155.055 105.225C154.487 100.693 154.594 96.6922 154.791 92.1849C155.925 96.5527 157.285 100.858 158.866 105.085V105.085Z" fill="#263238"/>
<path d="M159.971 139.94C159.876 139.73 159.781 139.528 159.691 139.289C155.579 129.463 152.439 109.592 152.439 109.592L159.769 105.884C159.769 105.884 161.854 123.344 164.713 134.703C165.15 136.434 165.599 137.999 166.064 139.371L161.058 141.67L159.971 139.94Z" fill="#FFB573"/>
<g opacity="0.8">
<path opacity="0.8" d="M159.971 139.94C159.876 139.73 159.781 139.528 159.691 139.289C155.579 129.463 152.439 109.592 152.439 109.592L159.769 105.884C159.769 105.884 161.854 123.344 164.713 134.703C165.15 136.434 165.599 137.999 166.064 139.371L161.058 141.67L159.971 139.94Z" fill="#263238"/>
</g>
<path d="M152.98 107.029C152.98 107.029 149.627 130.513 150.418 140.117C151.242 150.24 154.249 167.573 154.249 167.573L156.721 167.404C157.561 158.363 157.355 149.255 156.107 140.261C161.772 125.681 162.407 107.4 162.407 107.4L152.98 107.029Z" fill="#FFB573"/>
<path opacity="0.8" d="M152.98 107.029C152.98 107.029 149.627 130.513 150.418 140.117C151.242 150.24 154.249 167.573 154.249 167.573L156.721 167.404C157.561 158.363 157.355 149.255 156.107 140.261C161.772 125.681 162.407 107.4 162.407 107.4L152.98 107.029Z" fill="#263238"/>
<path d="M157.041 168.178C157.213 168.507 157.308 168.871 157.317 169.241C157.383 170.597 157.478 174.21 157.478 174.21L157.181 174.231C157.181 174.231 157 172.459 156.794 171.573C156.588 170.687 156.452 171.45 155.999 172.418C155.546 173.386 154.273 174.379 152.336 174.56C150.066 174.77 149.139 174.729 149.761 174.091C150.383 173.452 151.871 172.974 151.871 172.974C151.871 172.974 153.848 169.592 153.733 167.309C153.609 164.874 156.423 167.161 156.967 166.819C157.161 166.86 156.93 167.981 157.041 168.178Z" fill="#263238"/>
<path d="M164.878 135.548C163.44 135.857 162.163 136.916 158.385 137.295H158.158C157.997 137.295 157.833 137.324 157.66 137.332C156.646 137.385 150.841 137.114 149.766 136.483C150.701 126.822 152.542 106.292 152.542 106.292L156.971 105.764L162.686 105.591C162.686 105.591 168.99 112.101 167.539 118.009C165.376 126.846 166.447 128.218 164.878 135.548Z" fill="#263238"/>
<path d="M163.114 100.297C162.962 100.145 162.847 99.9612 162.775 99.7587C162.704 99.5563 162.679 99.3405 162.702 99.1271C162.702 99.1271 162.702 98.4762 162.681 97.4791C162.648 94.5951 162.623 88.8271 162.924 88.0608C163.583 86.4128 164.712 85.5105 165.301 86.4746C165.993 87.6035 166.043 96.169 166.043 96.169C165.866 101.838 163.789 101.088 163.114 100.297Z" fill="#FFB573"/>
<path d="M161.743 85.1398L161.397 85.7619C160.063 88.168 156.973 91.3033 155.765 91.6082C155.483 90.9552 155.05 90.3789 154.501 89.9272C154.179 90.0859 153.894 90.3084 153.662 90.5812C153.429 90.8539 153.255 91.1711 153.149 91.5134C152.115 89.8324 152.206 87.7065 152.465 86.6559C153.075 86.4705 153.726 86.281 154.344 86.1286C156.054 85.7326 157.79 85.4573 159.539 85.3046C160.27 85.2034 161.006 85.1483 161.743 85.1398V85.1398Z" fill="#407BFF"/>
<path opacity="0.8" d="M161.742 85.1398L161.396 85.7619C160.061 88.168 156.971 91.3033 155.764 91.6082C155.537 91.0245 155.345 90.4273 155.191 89.8201C154.545 90.1415 154.067 91.0561 153.852 91.7483C152.814 90.0673 152.204 87.7065 152.464 86.6559C153.074 86.4705 153.725 86.281 154.343 86.1286C156.053 85.7326 157.789 85.4573 159.538 85.3046C160.269 85.2034 161.005 85.1483 161.742 85.1398V85.1398Z" fill="white"/>
<path d="M153.791 96.9271L152.357 94.9824L151.076 97.5204C151.076 97.5204 152.386 98.2537 153.474 98.0065L153.791 96.9271Z" fill="#FFB573"/>
<path d="M150.086 94.385L149.477 96.4368L151.075 97.508L152.356 94.9824L150.086 94.385Z" fill="#FFB573"/>
<path d="M163.151 106.135L157.857 106.279H157.412L156.266 106.312H155.83L152.719 106.395C152.624 106.395 152.538 106.345 152.534 106.284L152.41 105.287C152.41 105.221 152.488 105.159 152.596 105.155L155.669 105.031H156.036L157.556 104.973H157.914L163.015 104.772C163.05 104.768 163.085 104.773 163.118 104.786C163.15 104.8 163.179 104.822 163.2 104.85L163.324 105.983C163.373 106.049 163.283 106.131 163.151 106.135Z" fill="#407BFF"/>
<path opacity="0.2" d="M163.151 106.135L157.857 106.279H157.412L156.266 106.312H155.83L152.719 106.395C152.624 106.395 152.538 106.345 152.534 106.284L152.41 105.287C152.41 105.221 152.488 105.159 152.596 105.155L155.669 105.031H156.036L157.556 104.973H157.914L163.015 104.772C163.05 104.768 163.085 104.773 163.118 104.786C163.15 104.8 163.179 104.822 163.2 104.85L163.324 105.983C163.373 106.049 163.283 106.131 163.151 106.135Z" fill="white"/>
<path d="M154.195 106.506H154.533C154.546 106.509 154.56 106.509 154.573 106.506C154.587 106.503 154.599 106.498 154.61 106.489C154.621 106.481 154.63 106.471 154.637 106.459C154.643 106.447 154.647 106.433 154.648 106.42L154.459 105.006C154.459 104.965 154.393 104.928 154.323 104.928H153.985C153.915 104.928 153.865 104.969 153.869 105.011L154.059 106.428C154.07 106.454 154.089 106.475 154.114 106.489C154.138 106.503 154.167 106.509 154.195 106.506V106.506Z" fill="#263238"/>
<path d="M160.095 106.42H160.416C160.428 106.423 160.441 106.423 160.453 106.421C160.466 106.419 160.478 106.414 160.488 106.407C160.499 106.4 160.507 106.391 160.514 106.38C160.521 106.37 160.525 106.358 160.527 106.345L160.334 104.924C160.334 104.887 160.268 104.85 160.206 104.854H159.885C159.819 104.854 159.773 104.887 159.778 104.932L159.967 106.341C159.971 106.391 160.029 106.42 160.095 106.42Z" fill="#263238"/>
<path d="M161.85 112.521L161.026 112.229L164.693 101.257C165.278 99.5145 165.056 97.85 162.893 97.0878C160.87 96.375 159.279 97.3927 158.69 99.1478L154.982 110.086L154.158 109.794L157.866 98.8635C158.55 96.8406 159.869 95.4686 163.049 96.5934C166.23 97.7181 166.168 99.5309 165.488 101.562L161.85 112.521Z" fill="#407BFF"/>
<path d="M163.922 119.29L147.854 113.522L151.496 102.885C151.576 102.638 151.706 102.41 151.875 102.214C152.045 102.018 152.252 101.858 152.485 101.743C152.717 101.628 152.97 101.56 153.229 101.544C153.488 101.528 153.747 101.563 153.992 101.649L165.701 105.81C166.341 106.047 166.864 106.523 167.16 107.137C167.456 107.752 167.502 108.458 167.288 109.106L163.922 119.29Z" fill="#407BFF"/>
<path opacity="0.4" d="M162.143 118.656L149.622 114.157C149.149 113.979 148.765 113.622 148.552 113.164C148.338 112.706 148.313 112.182 148.481 111.706L151.501 102.885C151.582 102.638 151.711 102.41 151.881 102.214C152.051 102.018 152.258 101.858 152.49 101.743C152.723 101.628 152.976 101.56 153.235 101.544C153.493 101.528 153.753 101.563 153.998 101.649L165.707 105.81C166.347 106.047 166.87 106.523 167.166 107.137C167.462 107.752 167.507 108.458 167.293 109.106L164.529 117.457C164.454 117.695 164.333 117.915 164.171 118.105C164.01 118.295 163.812 118.45 163.59 118.562C163.367 118.674 163.125 118.74 162.876 118.756C162.628 118.772 162.378 118.738 162.143 118.656V118.656Z" fill="white"/>
<path d="M156.659 105.917L155.32 105.439L155.489 104.932L156.828 105.41L156.659 105.917Z" fill="#407BFF"/>
<path d="M155.546 109.205L154.203 108.727L154.376 108.22L155.715 108.698L155.546 109.205Z" fill="#407BFF"/>
<path d="M163.542 108.372L162.199 107.895L162.368 107.384L163.711 107.862L163.542 108.372Z" fill="#407BFF"/>
<path d="M162.443 111.673L161.096 111.191L161.265 110.68L162.612 111.162L162.443 111.673Z" fill="#407BFF"/>
<path d="M160.886 107.75L158.01 106.724L158.372 105.637L161.248 106.663L160.886 107.75Z" fill="white"/>
<path d="M164.355 100.804C163.065 101.546 157.849 100.709 153.437 98.056C153.231 97.9282 153.025 97.9447 152.946 97.8953C152.67 97.6934 153.358 97.2278 153.77 97.0136C153.997 96.8982 163.733 98.1301 164.404 98.2208C165.166 100.207 164.478 100.182 164.355 100.804Z" fill="#FFB573"/>
<path d="M160.197 140.735C160.906 142.758 163.283 143.648 164.947 142.383C165.015 142.332 165.079 142.277 165.141 142.218C172.351 135.544 181.522 125.816 181.522 125.816L179.977 123.859C174.575 126.99 169.473 130.61 164.733 134.674C163.085 136.088 161.375 137.633 159.711 139.281L160.197 140.735Z" fill="#FFB573"/>
<path opacity="0.8" d="M160.197 140.735C160.906 142.758 163.283 143.648 164.947 142.383C165.015 142.332 165.079 142.277 165.141 142.218C172.351 135.544 181.522 125.816 181.522 125.816L179.977 123.859C174.575 126.99 169.473 130.61 164.733 134.674C163.085 136.088 161.375 137.633 159.711 139.281L160.197 140.735Z" fill="#263238"/>
<path d="M179.042 124.107C179.144 123.776 179.325 123.474 179.569 123.229C180.434 122.327 182.775 120.003 182.775 120.003L182.985 120.213C182.985 120.213 181.93 121.449 181.477 122.158C181.024 122.867 181.621 122.488 182.564 122.22C183.508 121.952 185.016 122.277 186.425 123.604C188.073 125.166 188.674 125.887 187.838 125.817C187.002 125.746 185.687 124.947 185.687 124.947C185.687 124.947 182.115 125.602 180.665 127.131C179.108 128.779 178.77 125.207 178.193 125.013C178.07 124.836 178.98 124.313 179.042 124.107Z" fill="#263238"/>
<path d="M154.297 84.839C155.071 85.7619 155.673 86.899 154.643 88.238C154.417 88.5237 154.298 88.8791 154.305 89.2433C154.33 89.8242 154.717 90.368 156.497 89.1238C159.093 87.3275 158.738 85.527 158.738 85.527C157.288 85.1892 156.233 82.231 155.788 80.5542L154.297 84.839Z" fill="#FFB573"/>
<path opacity="0.2" d="M155.815 83.1374C156.07 83.8543 155.382 85.0738 154.83 85.5765C154.677 85.3149 154.501 85.068 154.303 84.839L155.184 82.301C155.449 82.5346 155.663 82.819 155.815 83.1374Z" fill="black"/>
<path d="M148.105 76.9739C147.413 79.6643 148.443 82.6142 150.342 84.6413C152.262 82.5359 155.892 82.9933 157.91 80.9827C159.262 79.6478 159.509 77.4065 158.673 75.7009C157.774 73.8633 155.121 72.0917 153.028 72.3801C150.684 72.7056 148.686 74.7079 148.105 76.9739Z" fill="#263238"/>
<path d="M156.102 76.0593C155.823 75.6491 155.466 75.2979 155.051 75.026C154.636 74.754 154.171 74.5666 153.684 74.4743C153.196 74.3821 152.695 74.3869 152.21 74.4885C151.724 74.5901 151.263 74.7865 150.853 75.0663C148.418 76.7143 148.872 80.8343 149.959 83.1621C151.154 85.766 154.644 85.8731 156.271 83.3187C157.363 81.6171 157.132 80.4553 156.728 77.6908C156.649 77.1059 156.434 76.5474 156.102 76.0593Z" fill="#FFB573"/>
<path d="M151.336 81.8273C151.207 81.8879 151.066 81.9193 150.924 81.9193C150.781 81.9193 150.641 81.8879 150.512 81.8273C150.751 81.3244 150.919 80.7905 151.01 80.2411L151.336 81.8273Z" fill="#ED893E"/>
<path d="M153.45 81.5759C153.454 81.5679 153.456 81.5591 153.456 81.5502C153.456 81.5412 153.455 81.5323 153.451 81.5241C153.448 81.5159 153.442 81.5085 153.436 81.5025C153.429 81.4965 153.421 81.4921 153.413 81.4894C153.396 81.4837 153.378 81.4844 153.362 81.4913C153.346 81.4981 153.333 81.5107 153.326 81.5265C153.207 81.7821 153.027 82.0054 152.804 82.1774C152.58 82.3495 152.318 82.4654 152.041 82.5153C152.024 82.5209 152.01 82.5323 152.001 82.5474C151.992 82.5625 151.988 82.5803 151.991 82.5977V82.5977C151.993 82.6059 151.996 82.6137 152 82.6207C152.005 82.6276 152.011 82.6336 152.018 82.6382C152.025 82.6428 152.032 82.646 152.041 82.6475C152.049 82.6491 152.057 82.6489 152.065 82.6471C152.172 82.6266 152.277 82.5976 152.379 82.5606C152.614 82.4766 152.83 82.3461 153.014 82.177C153.198 82.0078 153.346 81.8034 153.45 81.5759V81.5759Z" fill="#263238"/>
<path d="M151.492 73.8098C151.274 74.1604 151.133 74.5538 151.08 74.9634C154.298 75.705 156.671 79.0834 157.586 82.2846C158.455 81.1393 160.161 79.7385 160.824 78.3624C161.561 76.8174 160.577 75.0664 159.093 74.2012C157.78 73.5531 156.416 73.0143 155.015 72.5903C154.375 72.3738 153.682 72.3761 153.045 72.5969C152.407 72.8177 151.861 73.2444 151.492 73.8098V73.8098Z" fill="#263238"/>
<path d="M157.94 79.3553C157.917 79.2378 157.87 79.1261 157.803 79.0266C157.736 78.9271 157.65 78.8418 157.55 78.7756C157.451 78.7094 157.339 78.6635 157.221 78.6407C157.103 78.6179 156.982 78.6185 156.865 78.6425C156.185 78.7908 155.938 79.7426 155.979 80.3523C156.037 81.0239 156.56 81.4895 157.137 81.0692C157.577 80.7504 157.873 80.2706 157.961 79.7343C157.979 79.6079 157.972 79.4791 157.94 79.3553Z" fill="#FFB573"/>
<path d="M152.638 79.1039C152.712 79.3717 152.638 79.6313 152.448 79.6807C152.259 79.7302 152.073 79.5489 152.003 79.2687C151.933 78.9886 152.003 78.7414 152.189 78.6961C152.374 78.6507 152.564 78.8114 152.638 79.1039Z" fill="#263238"/>
<path d="M150.183 79.965C150.257 80.2328 150.183 80.4923 149.993 80.5377C149.804 80.583 149.618 80.4058 149.544 80.1257C149.47 79.8455 149.544 79.5983 149.733 79.5489C149.923 79.4994 150.113 79.6889 150.183 79.965Z" fill="#263238"/>
<path d="M149.815 79.5531H149.119C149.119 79.5531 149.585 79.9569 149.815 79.5531Z" fill="#263238"/>
<path d="M153.157 77.8679C153.177 77.8559 153.194 77.8389 153.206 77.8185C153.225 77.7882 153.232 77.7516 153.225 77.7163C153.218 77.681 153.198 77.6498 153.169 77.629V77.629C152.959 77.4844 152.716 77.3931 152.463 77.363C152.21 77.3328 151.953 77.3647 151.715 77.4559C151.682 77.472 151.657 77.4995 151.644 77.533C151.631 77.5665 151.632 77.6037 151.645 77.6372C151.66 77.6691 151.687 77.694 151.719 77.707C151.752 77.72 151.789 77.7201 151.822 77.7073C152.02 77.6342 152.232 77.6099 152.442 77.6364C152.651 77.663 152.851 77.7395 153.025 77.8597C153.044 77.8715 153.067 77.8784 153.09 77.8798C153.113 77.8812 153.136 77.8772 153.157 77.8679V77.8679Z" fill="#263238"/>
<path d="M149.016 79.3388C149.032 79.3213 149.046 79.3019 149.057 79.2811C149.13 79.0832 149.249 78.9054 149.403 78.7622C149.558 78.619 149.745 78.5144 149.947 78.4571C149.983 78.4511 150.015 78.4312 150.035 78.4018C150.056 78.3725 150.065 78.3361 150.059 78.3005C150.055 78.2829 150.047 78.2661 150.037 78.2513C150.027 78.2365 150.013 78.224 149.998 78.2144C149.983 78.2048 149.965 78.1984 149.948 78.1955C149.93 78.1926 149.911 78.1933 149.894 78.1975C149.647 78.2633 149.419 78.3868 149.229 78.5581C149.039 78.7293 148.893 78.9432 148.802 79.1822C148.794 79.1985 148.79 79.216 148.789 79.2339C148.788 79.2518 148.791 79.2697 148.797 79.2866C148.803 79.3034 148.813 79.3189 148.825 79.3321C148.837 79.3453 148.852 79.356 148.868 79.3635C148.892 79.3735 148.919 79.3769 148.945 79.3733C148.971 79.3697 148.996 79.3592 149.016 79.3429V79.3388Z" fill="#263238"/>
<path d="M152.27 78.692H151.574C151.574 78.692 152.027 79.0752 152.27 78.692Z" fill="#263238"/>
<path d="M148.636 80.8591C148.954 82.5525 150.326 84.8885 151.788 85.8031C150.804 86.5489 149.04 85.7043 148.002 85.0409C147.492 84.6903 147.063 84.2353 146.743 83.7061C146.422 83.1769 146.218 82.5856 146.144 81.9715C146 80.74 146.167 79.4921 146.63 78.3418C147.386 76.4795 148.638 74.8604 150.252 73.6615C150.565 73.406 151.1 73.2042 151.306 73.5503C151.45 73.7892 151.286 74.09 151.129 74.3166C149.609 76.5167 148.414 78.0658 148.636 80.8591Z" fill="#263238"/>
<path d="M156.283 83.9532H156.258C156.232 83.9464 156.21 83.9297 156.196 83.9066C156.182 83.8835 156.178 83.8558 156.184 83.8296C157.284 79.3842 152.517 76.0016 151.03 75.054C151.007 75.0396 150.991 75.0169 150.985 74.9907C150.979 74.9645 150.983 74.937 150.997 74.914C151.004 74.9023 151.013 74.8921 151.024 74.8841C151.035 74.8761 151.047 74.8703 151.06 74.8673C151.073 74.8642 151.087 74.8638 151.1 74.8662C151.113 74.8685 151.126 74.8736 151.137 74.881C152.658 75.8327 157.519 79.2976 156.386 83.8791C156.38 83.9012 156.366 83.9205 156.347 83.9339C156.329 83.9473 156.306 83.9541 156.283 83.9532V83.9532Z" fill="#263238"/>
<path d="M157.12 80.7313L157.029 82.301L157.45 82.6471L157.656 82.1651L157.12 80.7313Z" fill="#407BFF"/>
<path d="M164.062 85.4488C163.733 85.365 163.388 85.3689 163.061 85.4599C162.734 85.551 162.437 85.7262 162.199 85.9679C161.674 86.5457 161.343 87.2732 161.252 88.0485C161.099 89.2351 161.4 90.4381 161.721 91.5958C162.115 92.7376 162.334 93.932 162.372 95.139C163.633 94.451 165.466 93.079 167.23 92.8978C166.987 90.092 166.661 88.2216 166.117 87.2946C165.836 86.7427 165.458 86.2459 165.001 85.8278C164.716 85.64 164.397 85.5111 164.062 85.4488V85.4488Z" fill="#407BFF"/>
<g opacity="0.1">
<path opacity="0.1" d="M164.062 85.4488C163.733 85.365 163.388 85.3689 163.061 85.4599C162.734 85.551 162.437 85.7262 162.199 85.9679C161.674 86.5457 161.343 87.2732 161.252 88.0485C161.099 89.2351 161.4 90.4381 161.721 91.5958C162.115 92.7376 162.334 93.932 162.372 95.139C163.633 94.451 165.466 93.079 167.23 92.8978C166.987 90.092 166.661 88.2216 166.117 87.2946C165.836 86.7427 165.458 86.2459 165.001 85.8278C164.716 85.64 164.397 85.5111 164.062 85.4488V85.4488Z" fill="white"/>
</g>
<path d="M134.035 98.674C134.035 98.674 130.925 99.1889 130.883 99.329C130.842 99.4691 130.859 101.22 130.859 101.22L133.652 100.161L134.035 98.674Z" fill="#FFB573"/>
<path d="M130.859 101.22L128.23 98.7441L129.405 98.4021L131.353 99.4609L130.859 101.22Z" fill="#FFB573"/>
<path d="M51.5039 164.05L54.4415 163.889L54.701 170.848L51.7635 171.005L51.5039 164.05Z" fill="#F7978D"/>
<path d="M55.4235 170.218C56.3381 170.782 57.6606 171.277 60.0708 171.52C60.6064 171.573 60.7795 172.797 59.5393 172.933C58.2992 173.069 56.1362 173.262 55.2381 173.345C53.7755 173.501 53.2316 173.633 52.078 173.778C51.9393 173.791 51.8008 173.75 51.6927 173.662C51.5846 173.574 51.5158 173.446 51.5012 173.308L51.3776 170.663C51.3754 170.635 51.3788 170.607 51.3875 170.58C51.3963 170.554 51.4103 170.529 51.4288 170.508C51.4472 170.487 51.4697 170.469 51.4948 170.457C51.52 170.445 51.5474 170.438 51.5754 170.436L54.8961 170.074C55.083 170.062 55.2684 170.113 55.4235 170.218V170.218Z" fill="#263238"/>
<path opacity="0.2" d="M51.6357 167.639L54.5774 167.478L54.4415 163.894L51.5039 164.054L51.6357 167.639Z" fill="black"/>
<path d="M56.8575 170.465C56.8979 170.411 56.9234 170.348 56.9314 170.282C56.9393 170.215 56.9295 170.147 56.9028 170.086C56.8892 170.043 56.8651 170.005 56.8327 169.974C56.8003 169.943 56.7607 169.92 56.7174 169.909C56.3425 169.806 55.568 170.469 55.4814 170.547C55.4757 170.558 55.4727 170.57 55.4727 170.582C55.4727 170.595 55.4757 170.607 55.4814 170.617C55.4868 170.631 55.4952 170.642 55.506 170.652C55.5167 170.661 55.5295 170.668 55.5432 170.671C55.8075 170.7 56.0741 170.7 56.3384 170.671C56.5301 170.665 56.7137 170.592 56.8575 170.465V170.465ZM55.7039 170.547C56.017 170.313 56.4867 169.991 56.6886 170.049C56.7089 170.055 56.7274 170.066 56.7425 170.081C56.7576 170.097 56.7688 170.115 56.7751 170.135C56.7985 170.173 56.8108 170.217 56.8108 170.261C56.8108 170.305 56.7985 170.349 56.7751 170.387C56.6515 170.547 56.2642 170.605 55.7204 170.556L55.7039 170.547Z" fill="#407BFF"/>
<path d="M55.5711 170.654C55.8471 170.444 56.2179 169.777 56.119 169.464C56.0995 169.408 56.0624 169.36 56.0134 169.328C55.9643 169.295 55.906 169.279 55.8471 169.283C55.793 169.28 55.739 169.29 55.6896 169.312C55.6402 169.334 55.5967 169.368 55.5628 169.41C55.295 169.732 55.4722 170.576 55.464 170.609C55.465 170.621 55.4689 170.631 55.4754 170.641C55.4819 170.65 55.4907 170.658 55.501 170.663H55.5381L55.5711 170.654ZM55.8306 169.419C55.9336 169.419 55.979 169.468 55.9707 169.505C55.9645 169.864 55.8164 170.206 55.5587 170.457C55.4891 170.135 55.5208 169.8 55.6494 169.497C55.6666 169.475 55.6884 169.457 55.7133 169.444C55.7382 169.431 55.7656 169.424 55.7936 169.423L55.8306 169.419Z" fill="#407BFF"/>
<path d="M28.2896 160.964L31.2024 161.578L29.0806 168.17L26.1719 167.552L28.2896 160.964Z" fill="#F7978D"/>
<path d="M29.8703 168.174C30.5501 168.998 31.9591 169.995 34.1757 170.976C34.6701 171.198 34.4517 172.41 33.2322 172.154C32.0127 171.899 29.5942 171.285 28.7002 171.099C27.2623 170.795 26.7061 170.745 25.5649 170.527C25.4962 170.514 25.431 170.487 25.3729 170.448C25.3148 170.409 25.2651 170.359 25.2267 170.301C25.1883 170.242 25.162 170.177 25.1493 170.108C25.1366 170.039 25.1378 169.969 25.1529 169.901L25.8574 167.346C25.8719 167.293 25.9067 167.247 25.9543 167.218C26.002 167.19 26.0588 167.181 26.1128 167.194L29.3841 167.886C29.5742 167.924 29.7457 168.026 29.8703 168.174Z" fill="#263238"/>
<path opacity="0.2" d="M27.1973 164.363L30.106 164.977L31.2019 161.582L28.2891 160.968L27.1973 164.363Z" fill="black"/>
<path d="M46.7832 99.292C46.7832 99.292 49.8814 126.101 50.1163 136.125C50.3346 145.358 50.1822 165.789 50.1822 165.789L55.5382 165.537C55.5382 165.537 57.7671 146.557 58.4222 137.25C59.0072 128.734 57.1862 101.484 57.1862 101.484L46.7832 99.292Z" fill="#407BFF"/>
<path opacity="0.2" d="M48.0566 109.868C48.5346 115.413 49.1855 122.549 49.7788 128.519C51.0148 125.067 51.7564 116.373 50.2897 111.046C49.4039 107.804 48.617 108.517 48.0566 109.868Z" fill="black"/>
<path d="M49.3047 164.718L56.2139 164.19L55.8967 166.46L50.0834 166.942L49.3047 164.718Z" fill="#263238"/>
<path d="M40.7181 100.326C40.7181 100.326 35.7164 125.001 33.9901 134.876C32.3957 143.973 26.1621 163.263 26.1621 163.263L31.4769 164.388C31.4769 164.388 40.3102 144.871 42.7575 135.861C44.9946 127.621 50.5855 102.411 50.5855 102.411L40.7181 100.326Z" fill="#407BFF"/>
<path d="M26.0182 161.455L33.1787 162.641L32.433 164.594L25.9316 163.218L26.0182 161.455Z" fill="#263238"/>
<path d="M30.9013 168.586C30.9579 168.548 31.0028 168.494 31.0312 168.432C31.0595 168.369 31.0701 168.3 31.0619 168.232C31.0646 168.187 31.0553 168.143 31.035 168.103C31.0148 168.063 30.9842 168.029 30.9466 168.005C30.6252 167.791 29.6776 168.178 29.5705 168.224C29.5594 168.231 29.5499 168.241 29.5428 168.252C29.5357 168.264 29.5311 168.276 29.5293 168.29C29.5301 168.303 29.5344 168.315 29.5416 168.326C29.5488 168.337 29.5588 168.346 29.5705 168.351C29.8118 168.467 30.0645 168.557 30.3245 168.619C30.5144 168.678 30.7193 168.666 30.9013 168.586ZM29.8012 168.285C30.1803 168.141 30.7159 167.997 30.8724 168.121C30.8903 168.133 30.9047 168.15 30.9141 168.169C30.9235 168.189 30.9276 168.21 30.926 168.232C30.9324 168.276 30.9266 168.322 30.9091 168.363C30.8917 168.404 30.8634 168.44 30.8271 168.467C30.6623 168.57 30.275 168.504 29.7765 168.294L29.8012 168.285Z" fill="#407BFF"/>
<path d="M29.6185 168.356C29.9398 168.24 30.5084 167.729 30.5084 167.396C30.5084 167.336 30.4886 167.278 30.452 167.231C30.4154 167.184 30.3642 167.151 30.3065 167.136C30.2558 167.117 30.2013 167.111 30.1476 167.117C30.0938 167.124 30.0424 167.143 29.9975 167.173C29.6432 167.396 29.5361 168.244 29.5278 168.281C29.5264 168.292 29.528 168.303 29.5323 168.314C29.5367 168.324 29.5437 168.333 29.5526 168.339H29.5855L29.6185 168.356ZM30.2612 167.272C30.3601 167.309 30.3807 167.359 30.3724 167.4C30.3724 167.618 29.9852 168.018 29.6885 168.178C29.7149 167.842 29.851 167.524 30.0758 167.272C30.0994 167.257 30.1259 167.247 30.1535 167.243C30.1812 167.239 30.2095 167.24 30.2365 167.247L30.2612 167.272Z" fill="#407BFF"/>
<path d="M30.9578 105.83C31.65 105.138 31.753 104.38 32.1938 103.577C32.4863 103.029 31.8106 103.243 32.4863 103.313C32.737 103.368 32.9803 103.453 33.2114 103.564C33.7965 103.791 34.3609 104.071 34.9542 104.281C35.461 104.463 36.3715 104.38 36.8041 104.631C37.5045 105.043 36.8329 106.856 36.6846 107.441C36.5116 108.15 37.5951 108.521 37.7682 107.804C38.0236 106.782 38.6746 104.961 37.8876 104.001C37.3974 103.404 36.6516 103.523 35.9677 103.391C34.6864 103.144 33.3762 101.974 32.0331 102.114C31.8326 102.122 31.6389 102.189 31.4767 102.307C31.3145 102.425 31.1912 102.589 31.1226 102.777C30.9084 103.247 31.032 103.77 30.7518 104.265C30.6045 104.522 30.4245 104.759 30.2162 104.969C29.6971 105.488 30.4469 106.349 30.9702 105.83H30.9578Z" fill="#407BFF"/>
<g opacity="0.3">
<path opacity="0.3" d="M30.9578 105.83C31.65 105.138 31.753 104.38 32.1938 103.577C32.4863 103.029 31.8106 103.243 32.4863 103.313C32.737 103.368 32.9803 103.453 33.2114 103.564C33.7965 103.791 34.3609 104.071 34.9542 104.281C35.461 104.463 36.3715 104.38 36.8041 104.631C37.5045 105.043 36.8329 106.856 36.6846 107.441C36.5116 108.15 37.5951 108.521 37.7682 107.804C38.0236 106.782 38.6746 104.961 37.8876 104.001C37.3974 103.404 36.6516 103.523 35.9677 103.391C34.6864 103.144 33.3762 101.974 32.0331 102.114C31.8326 102.122 31.6389 102.189 31.4767 102.307C31.3145 102.425 31.1912 102.589 31.1226 102.777C30.9084 103.247 31.032 103.77 30.7518 104.265C30.6045 104.522 30.4245 104.759 30.2162 104.969C29.6971 105.488 30.4469 106.349 30.9702 105.83H30.9578Z" fill="black"/>
</g>
<path d="M23.17 102.917L43.7685 109.821C44.1041 109.933 44.3814 110.174 44.5392 110.491C44.697 110.808 44.7224 111.175 44.6099 111.511L40.915 122.534C40.7208 123.114 40.3046 123.592 39.7578 123.864C39.211 124.136 38.5785 124.18 37.9994 123.986L19.2486 117.701C18.6694 117.507 18.1911 117.091 17.9189 116.544C17.6466 115.997 17.6027 115.365 17.7968 114.786L21.4918 103.762C21.6036 103.428 21.8427 103.152 22.1569 102.994C22.4712 102.836 22.8353 102.808 23.17 102.917V102.917Z" fill="#407BFF"/>
<path opacity="0.3" d="M23.17 102.917L43.7685 109.821C44.1041 109.933 44.3814 110.174 44.5392 110.491C44.697 110.808 44.7224 111.175 44.6099 111.511L40.915 122.534C40.7208 123.114 40.3046 123.592 39.7578 123.864C39.211 124.136 38.5785 124.18 37.9994 123.986L19.2486 117.701C18.6694 117.507 18.1911 117.091 17.9189 116.544C17.6466 115.997 17.6027 115.365 17.7968 114.786L21.4918 103.762C21.6036 103.428 21.8427 103.152 22.1569 102.994C22.4712 102.836 22.8353 102.808 23.17 102.917V102.917Z" fill="white"/>
<path d="M32.3006 111.429L29.0586 120.692L29.4475 120.828L32.6895 111.565L32.3006 111.429Z" fill="#407BFF"/>
<g opacity="0.3">
<path opacity="0.3" d="M32.3006 111.429L29.0586 120.692L29.4475 120.828L32.6895 111.565L32.3006 111.429Z" fill="black"/>
</g>
<path opacity="0.2" d="M43.4133 111.166L22.6238 104.199C22.3135 104.096 21.9749 104.12 21.6822 104.266C21.3895 104.412 21.1666 104.668 21.0623 104.978L20.9181 105.39C20.6255 106.264 20.692 107.219 21.1029 108.045C21.5139 108.871 22.2357 109.5 23.11 109.794L39.6476 115.36C40.0808 115.505 40.5381 115.563 40.9937 115.531C41.4492 115.499 41.8939 115.377 42.3025 115.173C42.7111 114.969 43.0756 114.687 43.375 114.342C43.6745 113.997 43.9031 113.597 44.0478 113.164L44.192 112.752C44.2469 112.597 44.2702 112.432 44.2607 112.268C44.2511 112.104 44.2088 111.943 44.1363 111.795C44.0637 111.647 43.9624 111.516 43.8383 111.408C43.7141 111.299 43.5697 111.217 43.4133 111.166V111.166Z" fill="black"/>
<path d="M43.871 109.856L23.0732 102.889C22.9193 102.837 22.7567 102.816 22.5947 102.827C22.4327 102.838 22.2745 102.881 22.1291 102.954C21.9837 103.026 21.854 103.126 21.7474 103.249C21.6407 103.371 21.5593 103.513 21.5076 103.667L21.3634 104.079C21.0708 104.954 21.1373 105.909 21.5482 106.735C21.9592 107.561 22.681 108.19 23.5553 108.484L40.1053 114.042C40.979 114.331 41.9319 114.263 42.7551 113.851C43.5784 113.44 44.2049 112.718 44.4972 111.846L44.6414 111.434C44.6952 111.279 44.718 111.116 44.7083 110.953C44.6987 110.79 44.6568 110.631 44.5852 110.484C44.5135 110.337 44.4135 110.206 44.291 110.098C44.1684 109.991 44.0256 109.908 43.871 109.856V109.856Z" fill="#407BFF"/>
<path d="M43.871 109.856L23.0732 102.889C22.9193 102.837 22.7567 102.816 22.5947 102.827C22.4327 102.838 22.2745 102.881 22.1291 102.954C21.9837 103.026 21.854 103.126 21.7474 103.249C21.6407 103.371 21.5593 103.513 21.5076 103.667L21.3634 104.079C21.0708 104.954 21.1373 105.909 21.5482 106.735C21.9592 107.561 22.681 108.19 23.5553 108.484L40.1053 114.042C40.979 114.331 41.9319 114.263 42.7551 113.851C43.5784 113.44 44.2049 112.718 44.4972 111.846L44.6414 111.434C44.6952 111.279 44.718 111.116 44.7083 110.953C44.6987 110.79 44.6568 110.631 44.5852 110.484C44.5135 110.337 44.4135 110.206 44.291 110.098C44.1684 109.991 44.0256 109.908 43.871 109.856V109.856Z" fill="#407BFF"/>
<path opacity="0.5" d="M43.871 109.856L23.0732 102.889C22.9193 102.837 22.7567 102.816 22.5947 102.827C22.4327 102.838 22.2745 102.881 22.1291 102.954C21.9837 103.026 21.854 103.126 21.7474 103.249C21.6407 103.371 21.5593 103.513 21.5076 103.667L21.3634 104.079C21.0708 104.954 21.1373 105.909 21.5482 106.735C21.9592 107.561 22.681 108.19 23.5553 108.484L40.1053 114.042C40.979 114.331 41.9319 114.263 42.7551 113.851C43.5784 113.44 44.2049 112.718 44.4972 111.846L44.6414 111.434C44.6952 111.279 44.718 111.116 44.7083 110.953C44.6987 110.79 44.6568 110.631 44.5852 110.484C44.5135 110.337 44.4135 110.206 44.291 110.098C44.1684 109.991 44.0256 109.908 43.871 109.856V109.856Z" fill="white"/>
<path d="M27.2658 107.54L26.5782 107.31C26.1575 107.169 25.7022 107.396 25.5612 107.817L24.5143 110.942C24.3734 111.363 24.6002 111.818 25.0209 111.959L25.7085 112.189C26.1292 112.33 26.5845 112.103 26.7254 111.683L27.7724 108.557C27.9133 108.137 27.6865 107.681 27.2658 107.54Z" fill="#407BFF"/>
<path d="M38.4651 111.29L37.7775 111.06C37.3567 110.919 36.9014 111.146 36.7606 111.567L35.7142 114.692C35.5733 115.113 35.8002 115.568 36.221 115.709L36.9086 115.939C37.3293 116.08 37.7846 115.853 37.9255 115.433L38.9719 112.307C39.1127 111.886 38.8858 111.431 38.4651 111.29Z" fill="#407BFF"/>
<path d="M27.2658 107.54L26.5782 107.31C26.1575 107.169 25.7022 107.396 25.5612 107.817L24.5143 110.942C24.3734 111.363 24.6002 111.818 25.0209 111.959L25.7085 112.189C26.1292 112.33 26.5845 112.103 26.7254 111.683L27.7724 108.557C27.9133 108.137 27.6865 107.681 27.2658 107.54Z" fill="white"/>
<path d="M38.4651 111.29L37.7775 111.06C37.3567 110.919 36.9014 111.146 36.7606 111.567L35.7142 114.692C35.5733 115.113 35.8002 115.568 36.221 115.709L36.9086 115.939C37.3293 116.08 37.7846 115.853 37.9255 115.433L38.9719 112.307C39.1127 111.886 38.8858 111.431 38.4651 111.29Z" fill="white"/>
<path d="M60.9183 79.2275C61.1036 79.5942 61.3302 80.0309 61.5527 80.4306C61.7752 80.8302 62.0059 81.2546 62.2408 81.6666C62.7146 82.47 63.1966 83.261 63.7075 84.0109C64.2016 84.7386 64.7352 85.4387 65.306 86.1079C65.7686 86.6711 66.3147 87.1602 66.9252 87.5582L67.0076 87.6076H67.0447H67.1477C67.377 87.6035 67.6029 87.5516 67.811 87.4552C68.5175 87.1174 69.1711 86.6789 69.7515 86.1533C70.4417 85.5675 71.0913 84.9357 71.6962 84.2622C72.0093 83.9161 72.3224 83.5741 72.6232 83.2157C72.9239 82.8573 73.2329 82.4782 73.5007 82.1486L73.5502 82.0827C73.7921 81.7428 74.1571 81.5106 74.5676 81.4356C74.978 81.3605 75.4016 81.4485 75.7482 81.6808C76.0948 81.9132 76.3371 82.2715 76.4236 82.6797C76.5102 83.0878 76.4342 83.5137 76.2117 83.8667C75.1916 85.7314 73.9462 87.4638 72.5037 89.0249C71.6881 89.8987 70.7466 90.6458 69.7103 91.2415C69.0462 91.6123 68.3179 91.8541 67.5638 91.9542C67.1071 92.0106 66.6444 91.9967 66.1919 91.913C65.9548 91.8717 65.7218 91.8096 65.4956 91.7276C65.3828 91.6952 65.2737 91.651 65.1701 91.5958L64.9229 91.4846C63.813 90.9072 62.8064 90.1498 61.9441 89.2433C61.1747 88.4724 60.4628 87.6462 59.8141 86.7713C59.1796 85.9184 58.5781 85.0532 58.0425 84.1633C57.7541 83.7225 57.4987 83.2899 57.2432 82.8243C56.9878 82.3587 56.7447 81.9344 56.4851 81.4194C56.3377 81.1286 56.249 80.8116 56.2241 80.4865C56.1991 80.1614 56.2385 79.8345 56.3399 79.5247C56.4413 79.2148 56.6027 78.9279 56.8149 78.6804C57.0272 78.4329 57.2861 78.2296 57.5769 78.0822C57.8677 77.9347 58.1847 77.846 58.5098 77.8211C58.8349 77.7962 59.1618 77.8355 59.4716 77.9369C59.7815 78.0383 60.0684 78.1997 60.3159 78.412C60.5634 78.6242 60.7667 78.8832 60.9141 79.174V79.174L60.9183 79.2275Z" fill="#263238"/>
<path d="M74.8741 83.397L77.2101 84.2457L77.0495 81.5183C77.0495 81.5183 74.6187 80.6572 74.2973 81.9303V82.5277C74.2916 82.7145 74.344 82.8985 74.4473 83.0542C74.5506 83.2099 74.6998 83.3297 74.8741 83.397V83.397Z" fill="#F7978D"/>
<path d="M79.6115 83.5989L80.1059 81.267L77.0488 81.5142L77.2095 84.2457L79.6115 83.5989Z" fill="#F7978D"/>
<path opacity="0.3" d="M61.6121 88.786C61.3401 88.4687 61.0765 88.1556 60.821 87.8384C60.0248 86.8167 59.3059 85.737 58.6704 84.6083C58.0434 83.511 57.4795 82.3789 56.9812 81.2176C56.9111 81.0528 56.8452 80.888 56.7793 80.7232C58.0153 79.9774 60.6851 80.3441 61.5461 83.809C61.8913 85.448 61.9137 87.1385 61.6121 88.786V88.786Z" fill="black"/>
<path d="M56.2594 103.614L40.7188 100.318C40.9 98.9046 42.169 94.4509 43.1578 88.6458C43.7766 84.6413 44.133 80.6006 44.2249 76.5495C44.2249 76.5495 44.2249 76.5248 44.2249 76.5124C44.2385 76.2629 44.3013 76.0185 44.4097 75.7932C44.518 75.568 44.6697 75.3663 44.8561 75.1998C45.0425 75.0334 45.2599 74.9053 45.4959 74.823C45.7319 74.7407 45.9818 74.7058 46.2313 74.7202H46.2643C47.2325 74.7779 48.4396 74.8891 49.6056 75.0745C51.8343 75.4174 54.0419 75.8851 56.2182 76.4753C56.9354 76.7051 57.6372 76.9803 58.3194 77.2993C58.7982 77.505 59.2123 77.8366 59.5177 78.2588C59.8231 78.681 60.0084 79.1781 60.0539 79.6972C60.3299 83.125 60.1981 89.7706 56.2594 103.614Z" fill="white"/>
<path d="M54.2993 78.7332L53.8544 79.6231C53.8288 79.6939 53.7824 79.7553 53.7215 79.7994C53.6605 79.8435 53.5876 79.8682 53.5124 79.8703L52.7378 79.8044C52.6266 79.8044 52.536 79.7055 52.4948 79.5613L52.1816 78.4942L53.3352 77.7773L54.2993 78.7332Z" fill="#407BFF"/>
<path d="M49.4421 74.8151C48.2061 74.6174 46.9413 74.5061 45.9195 74.4402H45.8865H45.8289C45.2998 74.4246 44.7862 74.6192 44.4001 74.9812C44.0141 75.3433 43.7872 75.8435 43.7689 76.3725C43.6713 80.6495 43.297 84.9158 42.6482 89.1445C41.1362 99.976 39.6406 102.131 39.6406 102.131L46.5581 103.412C48.6552 93.5735 50.2661 80.134 50.1013 74.9058L49.4421 74.8151Z" fill="#263238"/>
<path opacity="0.3" d="M42.8789 87.62C43.3815 84.1222 43.5999 80.513 43.7029 77.8762C43.7357 77.8415 43.7716 77.8098 43.81 77.7815C44.6793 77.0399 46.8506 78.8156 46.2573 82.1404C45.7093 85.284 44.1726 87.1957 42.8789 87.62Z" fill="black"/>
<path d="M57.4301 105.884L53.2441 104.763C55.8727 86.3264 56.4866 81.4277 55.8933 76.2612C56.9303 76.5339 57.9521 76.8612 58.9545 77.2418C59.4786 77.4959 59.9279 77.8814 60.2586 78.3609C60.5893 78.8403 60.7901 79.3973 60.8414 79.9775C61.1957 82.8532 59.0039 90.228 57.4301 105.884Z" fill="#263238"/>
<path d="M52.6054 98.2661C52.7103 98.2149 52.8243 98.185 52.9408 98.178C53.0573 98.171 53.1741 98.1871 53.2843 98.2254C53.3946 98.2637 53.4962 98.3234 53.5833 98.4011C53.6704 98.4788 53.7413 98.5729 53.792 98.6781V98.6781C53.8721 98.8351 53.9038 99.0124 53.883 99.1875C53.8622 99.3626 53.7899 99.5276 53.6752 99.6615C53.5605 99.7954 53.4086 99.8923 53.2388 99.9397C53.069 99.9872 52.8889 99.9831 52.7214 99.928C52.5539 99.873 52.4065 99.7694 52.298 99.6304C52.1894 99.4915 52.1246 99.3234 52.1117 99.1476C52.0989 98.9717 52.1385 98.796 52.2257 98.6427C52.3128 98.4895 52.4436 98.3655 52.6013 98.2867L52.6054 98.2661Z" fill="#263238"/>
<path d="M52.0827 99.5392C52.0207 99.4183 51.9831 99.2863 51.9721 99.1509C51.9611 99.0154 51.977 98.8792 52.0187 98.7498C52.0604 98.6205 52.1272 98.5007 52.2152 98.3971C52.3033 98.2936 52.4108 98.2085 52.5318 98.1466V98.1466C52.6528 98.0839 52.7852 98.0461 52.9211 98.0354C53.0569 98.0248 53.1936 98.0416 53.3229 98.0848C53.4851 98.1366 53.632 98.2276 53.7506 98.3499C53.8692 98.4721 53.9558 98.6217 54.0026 98.7855C54.0495 98.9492 54.0552 99.122 54.0192 99.2884C53.9832 99.4549 53.9067 99.6099 53.7964 99.7397C53.6861 99.8694 53.5455 99.9699 53.387 100.032C53.2285 100.095 53.0571 100.117 52.888 100.097C52.7188 100.077 52.5572 100.016 52.4174 99.9186C52.2777 99.8213 52.1641 99.6909 52.0868 99.5392H52.0827Z" fill="white"/>
<path d="M53.4427 77.798C50.1261 77.283 49.3516 75.0705 49.3516 75.0705C51.0943 73.9375 51.3621 69.937 51.325 67.704L52.7794 69.5456L54.7652 72.0547C54.6294 72.3627 54.5098 72.6776 54.4068 72.9982C53.9948 74.2754 54.0896 75.5402 55.9147 76.4013C55.9147 76.4013 56.2691 78.2264 53.4427 77.798Z" fill="#F7978D"/>
<path d="M48.7331 74.6791L49.8207 74.5226C50.689 75.8489 51.8541 76.9548 53.2239 77.7527C52.4992 78.0435 51.878 78.5442 51.4399 79.1906C48.2057 77.2706 48.7331 74.6791 48.7331 74.6791Z" fill="white"/>
<path d="M55.938 76.22L55.0398 75.808C55.0398 75.808 54.2446 77.6867 53.2188 77.7567C54.772 78.7703 54.8668 79.6643 54.8668 79.6643C57.4706 79.4006 55.938 76.22 55.938 76.22Z" fill="white"/>
<path opacity="0.2" d="M54.5139 72.6973L52.6105 70.3077C52.5254 70.6089 52.4729 70.9183 52.4539 71.2306C52.3921 72.1782 53.3768 73.3771 54.2338 73.7562L54.5139 72.6973Z" fill="black"/>
<path d="M56.6017 68.3343C56.6017 68.3343 56.7047 69.8175 58.2497 69.249C58.3156 67.671 58.8347 67.7905 59.3703 66.8635C59.7181 66.3522 59.9209 65.7562 59.9572 65.1389C59.9934 64.5215 59.8618 63.9059 59.5763 63.3574L58.5917 62.8589C54.7518 61.6682 56.6017 68.3343 56.6017 68.3343Z" fill="#263238"/>
<path opacity="0.6" d="M56.6017 68.3343C56.6017 68.3343 56.7047 69.8175 58.2497 69.249C58.3156 67.671 58.8347 67.7905 59.3703 66.8635C59.7181 66.3522 59.9209 65.7562 59.9572 65.1389C59.9934 64.5215 59.8618 63.9059 59.5763 63.3574L58.5917 62.8589C54.7518 61.6682 56.6017 68.3343 56.6017 68.3343Z" fill="white"/>
<path d="M52.5901 62.3356C53.2775 61.5655 54.2426 61.0998 55.2733 61.0411C56.3039 60.9824 57.3157 61.3354 58.0861 62.0225C60.4799 64.0536 59.6394 68.3797 58.2921 70.7239C57.9527 71.3367 57.4525 71.8452 56.8453 72.1946C56.2382 72.544 55.5472 72.7211 54.8468 72.7067C54.1464 72.6922 53.4633 72.4869 52.871 72.1128C52.2788 71.7387 51.7998 71.2101 51.4859 70.5839C50.493 68.6639 51.0204 67.0118 51.6837 64.1278C51.8244 63.4616 52.1369 62.8438 52.5901 62.3356V62.3356Z" fill="#F7978D"/>
<path d="M51.2125 66.744C51.2125 66.744 51.5998 68.0253 53.0006 67.3414C52.7575 65.9571 53.2849 65.9941 53.631 65.1166C53.8694 64.6103 53.9516 64.0444 53.8672 63.4912C53.7829 62.9379 53.5357 62.4223 53.1572 62.0101L52.0983 61.7011C47.0637 61.2273 51.2125 66.744 51.2125 66.744Z" fill="#263238"/>
<path opacity="0.6" d="M51.2125 66.744C51.2125 66.744 51.5998 68.0253 53.0006 67.3414C52.7575 65.9571 53.2849 65.9941 53.631 65.1166C53.8694 64.6103 53.9516 64.0444 53.8672 63.4912C53.7829 62.9379 53.5357 62.4223 53.1572 62.0101L52.0983 61.7011C47.0637 61.2273 51.2125 66.744 51.2125 66.744Z" fill="white"/>
<path d="M56.2114 58.8377C55.9518 58.7429 55.6717 58.7185 55.3997 58.767C55.1276 58.8154 54.8732 58.9351 54.6623 59.1137C54.3863 59.3527 54.1185 59.7194 53.76 59.6493C53.5845 59.5861 53.4244 59.4864 53.2903 59.3568C52.7135 58.9448 51.8731 59.122 51.3127 59.5587C50.7872 60.0376 50.3518 60.607 50.0273 61.2396C49.7029 61.877 49.208 62.4119 48.5977 62.7846C49.1693 63.0576 49.7922 63.2068 50.4255 63.2225C51.0588 63.2381 51.6883 63.1198 52.2727 62.8753C51.944 63.2811 51.4932 63.5701 50.9873 63.6993C52.1505 64.0319 53.3949 63.9309 54.4893 63.415C55.1031 63.1225 55.6717 62.6981 56.3433 62.591C57.0148 62.4839 57.8388 62.8382 57.9006 63.5139C57.9375 63.431 57.9911 63.3566 58.0579 63.2952C58.1247 63.2338 58.2035 63.1868 58.2892 63.1571C58.3749 63.1273 58.4658 63.1155 58.5563 63.1223C58.6468 63.1291 58.7349 63.1544 58.8153 63.1966C59.1327 63.3917 59.3829 63.6792 59.5321 64.0206C59.6799 64.3597 59.9144 64.6539 60.2119 64.8735C60.364 64.9766 60.5507 65.0154 60.7313 64.9814C60.9119 64.9475 61.0718 64.8435 61.176 64.6922C60.9306 64.6723 60.7004 64.5656 60.5267 64.3911C60.353 64.2167 60.2472 63.986 60.2284 63.7405C60.5903 63.9427 61.0118 64.0112 61.4191 63.9341C60.8835 63.9012 59.8329 61.9854 59.6722 61.4621C59.5401 60.9365 59.2408 60.468 58.8194 60.1273C58.3167 59.7812 57.81 60.3827 57.3362 60.1273C56.8624 59.8718 56.747 59.0396 56.2114 58.8377Z" fill="#263238"/>
<path d="M55.5427 69.2448C55.1578 68.9236 54.9163 68.4627 54.8711 67.9635L55.6951 68.2931C56.0453 68.4291 57.0506 68.8534 56.8281 69.4055C56.6056 69.9576 55.8105 69.4632 55.5427 69.2448Z" fill="#263238"/>
<path d="M57.9091 70.1512C58.1578 70.1457 58.403 70.0913 58.6307 69.9909C58.8583 69.8905 59.0639 69.7461 59.2357 69.5662L58.3746 69.3025C58.0162 69.1912 56.9656 68.8905 56.7926 69.4714C56.6195 70.0523 57.5589 70.1553 57.9091 70.1512Z" fill="#263238"/>
<path d="M56.7676 69.216C56.935 69.3218 57.1234 69.3899 57.3198 69.4155C57.5161 69.4411 57.7157 69.4236 57.9047 69.3643C57.6302 68.6149 57.4584 67.8319 57.3938 67.0365L56.7676 69.216Z" fill="#FF5652"/>
<path d="M51.3778 64.7581C52.0782 64.993 52.3542 66.1672 52.3213 66.9005C52.2842 67.7245 51.7445 68.2313 51.1388 67.7245C50.6723 67.2905 50.3709 66.708 50.286 66.0765C50.1789 65.2525 50.6774 64.5192 51.3778 64.7581Z" fill="#F7978D"/>
<path d="M56.033 66.06C56.1813 66.1135 56.239 66.3608 56.1772 66.5709C56.1154 66.781 55.9382 66.9252 55.7899 66.8758C55.6416 66.8263 55.5921 66.608 55.6416 66.3731C55.691 66.1383 55.8805 66.0105 56.033 66.06Z" fill="#263238"/>
<path d="M58.6338 66.777C58.7862 66.8264 58.848 67.0489 58.7821 67.2796C58.7162 67.5103 58.539 67.6628 58.3907 67.6092C58.2423 67.5557 58.1764 67.3332 58.2423 67.1025C58.3083 66.8717 58.506 66.744 58.6338 66.777Z" fill="#263238"/>
<path d="M56.5083 70.4891C56.5267 70.4907 56.545 70.4857 56.56 70.4752C56.5751 70.4647 56.586 70.4491 56.5907 70.4314C56.5932 70.4129 56.5887 70.3942 56.578 70.3789C56.5673 70.3636 56.5513 70.353 56.5331 70.349C56.2333 70.308 55.947 70.1986 55.6962 70.0293C55.4455 69.86 55.237 69.6353 55.0869 69.3726C55.0781 69.3562 55.0635 69.3437 55.046 69.3376C55.0284 69.3315 55.0092 69.3322 54.9922 69.3396C54.9758 69.3484 54.9633 69.363 54.9572 69.3805C54.9511 69.3981 54.9518 69.4173 54.9592 69.4343C55.0937 69.6782 55.2761 69.8923 55.4957 70.0637C55.7152 70.2351 55.9672 70.3601 56.2364 70.4314C56.3229 70.452 56.4177 70.452 56.5083 70.4891Z" fill="#263238"/>
<path d="M58.5422 65.784C58.5472 65.8069 58.5577 65.8283 58.5727 65.8462C58.5878 65.8642 58.6071 65.8782 58.6288 65.887C58.8013 65.9395 58.9596 66.0305 59.0917 66.1533C59.2238 66.2761 59.3261 66.4274 59.391 66.5957C59.3948 66.6133 59.4022 66.6299 59.4127 66.6445C59.4231 66.6592 59.4365 66.6715 59.452 66.6808C59.4674 66.69 59.4846 66.696 59.5024 66.6984C59.5203 66.7008 59.5384 66.6995 59.5558 66.6946V66.6946C59.5906 66.6832 59.6198 66.6589 59.6374 66.6268C59.655 66.5946 59.6597 66.557 59.6505 66.5215V66.5215C59.5749 66.3085 59.4506 66.116 59.2875 65.9593C59.1244 65.8027 58.9271 65.6863 58.7112 65.6192C58.6756 65.6087 58.6374 65.6122 58.6044 65.6291C58.5714 65.646 58.5462 65.6749 58.534 65.7099C58.5285 65.7348 58.5313 65.7609 58.5422 65.784V65.784Z" fill="#263238"/>
<path d="M55.5385 65.0507C55.5571 65.0646 55.5787 65.074 55.6015 65.0783C55.6244 65.0826 55.6479 65.0816 55.6703 65.0754C55.8393 65.012 56.0205 64.9876 56.2003 65.004C56.38 65.0204 56.5538 65.0772 56.7085 65.1702C56.737 65.1918 56.7729 65.2013 56.8084 65.1967C56.8439 65.1921 56.8761 65.1737 56.8981 65.1454V65.1454C56.9195 65.1158 56.9285 65.0789 56.9231 65.0427C56.9177 65.0066 56.8984 64.9739 56.8692 64.9518C56.6791 64.8297 56.4629 64.7542 56.2381 64.7313C56.0134 64.7084 55.7864 64.7388 55.5756 64.82C55.558 64.8255 55.5417 64.8346 55.5277 64.8466C55.5137 64.8586 55.5024 64.8734 55.4943 64.89C55.4862 64.9065 55.4815 64.9246 55.4806 64.943C55.4797 64.9614 55.4826 64.9798 55.489 64.9971C55.5015 65.0183 55.5184 65.0365 55.5385 65.0507V65.0507Z" fill="#263238"/>
<path d="M33.2706 100.899L32.735 100.841C31.4743 101.447 32.8421 103.779 32.8421 103.779L36.5501 103.325L35.4748 102.089C34.9164 101.429 34.1291 101.004 33.2706 100.899V100.899Z" fill="#F7978D"/>
<path d="M36.6695 104.924L36.5459 103.321L32.8379 103.774L33.0439 105.674C33.042 105.701 33.042 105.729 33.0439 105.756C33.0617 105.829 33.0937 105.897 33.138 105.957C33.1823 106.017 33.238 106.067 33.302 106.106C33.366 106.144 33.4369 106.169 33.5107 106.18C33.5845 106.191 33.6597 106.187 33.7319 106.168L36.2575 105.505C36.3825 105.47 36.4916 105.393 36.5667 105.288C36.6417 105.182 36.678 105.053 36.6695 104.924V104.924Z" fill="#F7978D"/>
<path d="M54.8718 94.179C54.8718 94.179 53.5823 97.2814 53.0137 96.8529C52.4451 96.4244 51.135 94.0513 51.1309 94.0018C51.1267 93.9524 52.7377 79.8043 52.7377 79.8043L53.5081 79.8702C53.195 81.4564 54.8718 94.179 54.8718 94.179Z" fill="#407BFF"/>
<path d="M33.6363 86.52C32.0955 88.7118 31.7247 99.053 32.1367 101.71C32.4625 101.345 32.9097 101.111 33.3953 101.05C33.8809 100.99 34.372 101.107 34.7776 101.381C34.8147 99.5598 36.2896 93.0543 36.9241 90.3392C37.1061 89.5757 37.5546 88.9022 38.1889 88.4399C40.9081 86.4705 45.8315 82.573 46.3754 81.0239C47.2529 78.5519 46.499 73.4843 44.3154 75.0416C42.2471 76.529 34.86 84.7525 33.6363 86.52Z" fill="#263238"/>
<path d="M156.91 34.3815C156.616 34.3126 156.328 34.2189 156.049 34.1014C155.53 33.8995 154.867 33.5575 154.17 33.2238C153.594 32.9374 152.972 32.7507 152.333 32.6717C151.843 32.6182 151.509 32.6717 151.464 32.544C151.418 32.4163 151.707 32.1773 152.288 32.0661C153.055 31.962 153.836 32.0958 154.525 32.4492C155.17 32.786 155.758 33.2226 156.268 33.7429C156.671 34.1261 156.91 34.3815 156.91 34.3815Z" fill="#407BFF"/>
<path d="M159.933 31.9465L159.311 32.1896C158.94 32.342 158.487 32.5563 157.951 32.7829C156.909 33.2443 156.019 33.7222 155.891 33.5121C155.825 33.4174 155.961 33.1825 156.262 32.8941C156.661 32.5161 157.124 32.212 157.63 31.996C158.148 31.7714 158.718 31.6917 159.278 31.7652C159.448 31.7877 159.615 31.8277 159.776 31.8847L159.933 31.9465Z" fill="#407BFF"/>
<path d="M151.299 36.1984L151.13 36.0954C151.023 36.0253 150.862 35.9347 150.669 35.8317C150.18 35.5682 149.67 35.3463 149.144 35.1684C147.933 34.7317 146.849 34.8305 146.816 34.6451C146.816 34.5627 147.064 34.4227 147.533 34.3567C148.148 34.2852 148.77 34.3542 149.354 34.5586C149.939 34.7643 150.461 35.116 150.87 35.5804C150.995 35.7174 151.105 35.8664 151.2 36.0253L151.299 36.1984Z" fill="#407BFF"/>
<path d="M152.489 33.6934L152.052 33.9447L151.084 34.4844C150.355 34.8964 149.79 35.3537 149.65 35.2301C149.588 35.1683 149.65 34.9747 149.836 34.7234C150.087 34.3856 150.407 34.1047 150.775 33.8994C151.145 33.7028 151.559 33.6036 151.978 33.611C152.151 33.6169 152.323 33.6445 152.489 33.6934V33.6934Z" fill="#407BFF"/>
<path d="M150.293 32.2679C150.293 32.2679 149.881 32.1237 149.255 31.8559C148.629 31.5881 147.784 31.2173 146.857 30.9125C146.076 30.6492 145.253 30.5346 144.43 30.5746C143.796 30.6117 143.392 30.7353 143.335 30.6199C143.277 30.5046 143.611 30.2079 144.319 29.9813C145.245 29.7417 146.222 29.7819 147.125 30.0967C147.994 30.4037 148.795 30.8782 149.482 31.4934C149.767 31.736 150.038 31.9946 150.293 32.2679V32.2679Z" fill="#407BFF"/>
<path d="M153.079 28.7288L152.848 28.7947C152.696 28.8318 152.486 28.8977 152.234 28.976C151.603 29.1849 150.984 29.4297 150.38 29.7094C148.971 30.3397 148.065 31.275 147.871 31.1267C147.781 31.0566 147.896 30.7147 148.254 30.2697C148.736 29.6966 149.34 29.2391 150.022 28.9307C150.704 28.6231 151.452 28.4927 152.197 28.5517C152.42 28.5674 152.641 28.6047 152.857 28.6629L153.079 28.7288Z" fill="#407BFF"/>
<path d="M57.6507 44.7885C57.357 44.7173 57.0691 44.6236 56.7896 44.5084C56.2705 44.3065 55.6031 43.9645 54.9109 43.6267C54.3318 43.342 53.7095 43.1555 53.0693 43.0746C52.579 43.0211 52.2453 43.0746 52.1999 42.9469C52.1546 42.8192 52.443 42.5802 53.0239 42.4731C53.7913 42.3666 54.5729 42.5005 55.2611 42.8563C55.9079 43.1892 56.4964 43.6247 57.0039 44.1458C57.4118 44.529 57.6507 44.7885 57.6507 44.7885Z" fill="#407BFF"/>
<path d="M60.6749 42.3537L60.0487 42.5967C59.6779 42.7451 59.2247 42.9593 58.6891 43.19C57.6467 43.6473 56.7609 44.1253 56.6291 43.9193C56.5591 43.8204 56.6991 43.5897 56.9958 43.2971C57.3957 42.9201 57.8587 42.6161 58.3636 42.399C58.8828 42.1774 59.4516 42.0977 60.0116 42.1683C60.1799 42.192 60.3455 42.232 60.506 42.2877C60.5635 42.3066 60.6199 42.3286 60.6749 42.3537Z" fill="#407BFF"/>
<path d="M52.0394 46.6014L51.8664 46.4984C51.7593 46.4283 51.6027 46.3377 51.4091 46.2347C50.9197 45.9727 50.4099 45.7509 49.8847 45.5714C48.6734 45.1594 47.5857 45.2335 47.5527 45.0481C47.5527 44.9657 47.8041 44.8256 48.2696 44.7597C48.8858 44.6879 49.5102 44.7583 50.0948 44.9657C50.679 45.1695 51.201 45.5199 51.6109 45.9834C51.7342 46.1203 51.8433 46.2693 51.9364 46.4283L52.0394 46.6014Z" fill="#407BFF"/>
<path d="M53.2267 44.084L52.7941 44.3354L51.8259 44.908C51.0925 45.32 50.5322 45.7774 50.3921 45.6496C50.3262 45.592 50.3921 45.3983 50.5775 45.1429C50.8304 44.8129 51.1506 44.5405 51.5169 44.3436C51.8849 44.1453 52.2977 44.0446 52.7158 44.0511C52.8868 44.0408 53.0584 44.0519 53.2267 44.084V44.084Z" fill="#407BFF"/>
</svg>
