<svg width="175" height="151" viewBox="0 0 175 151" fill="none" xmlns="http://www.w3.org/2000/svg">
<path d="M174.832 82.4792C175.726 70.5246 172.937 58.0338 169.183 46.906C163.61 30.3707 152.795 13.4153 134.575 9.50491C124.069 7.27041 113.379 9.6658 104.374 15.3146C95.7085 20.7534 88.9558 27.7742 78.3062 29.1372C67.5359 30.5137 56.4841 29.9595 45.6557 29.9595C17.8183 29.9595 -4.77696 59.008 0.871855 89.2676C6.52067 119.527 33.147 140.505 55.7422 140.505C76.0449 140.505 92.7455 128.407 112.052 125.158C121.615 123.549 131.215 125.453 140.68 123.04C151.678 120.233 162.019 113.539 168.115 103.845C172.245 97.2448 174.265 89.9648 174.832 82.4792Z" fill="#5F90FF"/>
<path opacity="0.7" d="M174.832 82.4792C175.726 70.5246 172.937 58.0338 169.183 46.906C163.61 30.3707 152.795 13.4153 134.575 9.50491C124.069 7.27041 113.379 9.6658 104.374 15.3146C95.7085 20.7534 88.9558 27.7742 78.3062 29.1372C67.5359 30.5137 56.4841 29.9595 45.6557 29.9595C17.8183 29.9595 -4.77696 59.008 0.871856 89.2676C6.52067 119.527 33.147 140.505 55.7422 140.505C76.0449 140.505 92.7455 128.407 112.052 125.158C121.615 123.549 131.215 125.453 140.68 123.04C151.678 120.233 162.019 113.539 168.115 103.845C172.245 97.2448 174.265 89.9648 174.832 82.4792Z" fill="#B6CCFF"/>
<path d="M87.8155 150.595C135.833 150.595 174.76 149.511 174.76 148.173C174.76 146.835 135.833 145.751 87.8155 145.751C39.7974 145.751 0.871094 146.835 0.871094 148.173C0.871094 149.511 39.7974 150.595 87.8155 150.595Z" fill="#2E353A"/>
<path d="M131.865 145.965H123.82V1L131.865 10.3536V145.965Z" stroke="#021746" stroke-linecap="round" stroke-linejoin="round"/>
<path d="M123.898 111.832H131.791L123.898 104.203H131.791L123.898 111.832Z" stroke="#021746" stroke-linecap="round" stroke-linejoin="round"/>
<path d="M123.898 104.011H131.791L123.898 96.3828H131.791L123.898 104.011Z" stroke="#021746" stroke-linecap="round" stroke-linejoin="round"/>
<path d="M123.898 127.406H131.791L123.898 119.777H131.791L123.898 127.406Z" stroke="#021746" stroke-linecap="round" stroke-linejoin="round"/>
<path d="M123.898 119.582H131.791L123.898 111.953H131.791L123.898 119.582Z" stroke="#021746" stroke-linecap="round" stroke-linejoin="round"/>
<path d="M123.898 96.1911H131.791L123.898 88.5625H131.791L123.898 96.1911Z" stroke="#021746" stroke-linecap="round" stroke-linejoin="round"/>
<path d="M123.898 88.3669H131.791L123.898 80.7383H131.791L123.898 88.3669Z" stroke="#021746" stroke-linecap="round" stroke-linejoin="round"/>
<path d="M123.898 80.5466H131.791L123.898 72.918H131.791L123.898 80.5466Z" stroke="#021746" stroke-linecap="round" stroke-linejoin="round"/>
<path d="M123.898 72.7262H131.791L123.898 65.0977H131.791L123.898 72.7262Z" stroke="#021746" stroke-linecap="round" stroke-linejoin="round"/>
<path d="M123.898 64.9098H131.791L123.898 57.2812H131.791L123.898 64.9098Z" stroke="#021746" stroke-linecap="round" stroke-linejoin="round"/>
<path d="M123.898 57.0856H131.791L123.898 49.457H131.791L123.898 57.0856Z" stroke="#021746" stroke-linecap="round" stroke-linejoin="round"/>
<path d="M123.898 49.2653H131.791L123.898 41.6367H131.791L123.898 49.2653Z" stroke="#021746" stroke-linecap="round" stroke-linejoin="round"/>
<path d="M123.898 41.445H131.791L123.898 33.8164H131.791L123.898 41.445Z" stroke="#021746" stroke-linecap="round" stroke-linejoin="round"/>
<path d="M123.898 33.6247H131.791L123.898 25.9961H131.791L123.898 33.6247Z" stroke="#021746" stroke-linecap="round" stroke-linejoin="round"/>
<path d="M123.898 25.8005H131.791L123.898 18.1719H131.791L123.898 25.8005Z" stroke="#021746" stroke-linecap="round" stroke-linejoin="round"/>
<path d="M123.898 17.984H131.791L123.898 10.3555H131.791L123.898 17.984Z" stroke="#021746" stroke-linecap="round" stroke-linejoin="round"/>
<path d="M169.209 18.1924L165.312 15.739H137.506L134.109 18.1924H169.209Z" stroke="#021746" stroke-linecap="round" stroke-linejoin="round"/>
<path d="M169.851 17.9805H101.922V19.7681H169.851V17.9805Z" fill="#2E353A" stroke="#021746" stroke-linecap="round" stroke-linejoin="round"/>
<path d="M165.31 15.7388L123.82 1L137.504 15.7388" stroke="#021746" stroke-linecap="round" stroke-linejoin="round"/>
<path d="M123.82 1L101.922 17.9822" stroke="#021746" stroke-linecap="round" stroke-linejoin="round"/>
<path d="M137.677 21.7773H120.918V32.5029H137.677V21.7773Z" fill="#2E353A" stroke="#021746" stroke-linecap="round" stroke-linejoin="round"/>
<path d="M137.677 135.457H120.918V146.183H137.677V135.457Z" fill="#2E353A" stroke="#021746" stroke-linecap="round" stroke-linejoin="round"/>
<path d="M134.18 24.0156H124.406V27.1439H134.18V24.0156Z" fill="white" stroke="#021746" stroke-linecap="round" stroke-linejoin="round"/>
<path d="M169.852 19.7697V39.04" stroke="#021746" stroke-linecap="round" stroke-linejoin="round"/>
<path d="M172.403 45.6172H167.438V51.2437H172.403V45.6172Z" fill="#2E353A" stroke="#021746" stroke-linecap="round" stroke-linejoin="round"/>
<path d="M167.438 45.6167L169.918 38.6719L172.403 45.6167" stroke="#021746" stroke-linecap="round" stroke-linejoin="round"/>
<path d="M103.674 134.087V124.148H74.3796V134.096C74.3748 137.343 73.2723 140.493 71.2514 143.034L69.9688 144.652H108.067L106.78 143.034C104.767 140.487 103.672 137.334 103.674 134.087V134.087Z" fill="white" stroke="#021746" stroke-width="1.09543" stroke-linecap="round" stroke-linejoin="round"/>
<g style="mix-blend-mode:multiply">
<path d="M72.5781 141.055H105.474C104.298 138.921 103.683 136.524 103.687 134.087V124.148H74.3791V134.096C74.3774 136.531 73.7577 138.925 72.5781 141.055V141.055Z" fill="#5F90FF"/>
</g>
<path d="M103.673 125.637H74.3789V129.838H103.673V125.637Z" fill="#2E353A" stroke="#021746" stroke-width="1.09543" stroke-linecap="round" stroke-linejoin="round"/>
<path d="M143.745 38.9688H34.304C32.0111 38.9688 30.1523 40.8275 30.1523 43.1205V123.124C30.1523 125.417 32.0111 127.276 34.304 127.276H143.745C146.038 127.276 147.897 125.417 147.897 123.124V43.1205C147.897 40.8275 146.038 38.9688 143.745 38.9688Z" fill="#2E353A" stroke="#021746" stroke-width="1.09543" stroke-linecap="round" stroke-linejoin="round"/>
<path d="M30.1523 113.551H147.897V123.124C147.897 124.225 147.46 125.281 146.681 126.059C145.902 126.838 144.846 127.275 143.745 127.275H34.3264C33.2253 127.275 32.1693 126.838 31.3907 126.059C30.6121 125.281 30.1747 124.225 30.1747 123.124V113.551H30.1523Z" fill="white" stroke="#021746" stroke-width="1.09543" stroke-linecap="round" stroke-linejoin="round"/>
<path d="M141.972 44.4648H36.0742V106.852H141.972V44.4648Z" fill="#5F90FF" stroke="#021746" stroke-width="1.09543" stroke-linecap="round" stroke-linejoin="round"/>
<path d="M91.1915 120.419C91.1924 119.989 91.0658 119.568 90.8277 119.211C90.5895 118.853 90.2506 118.574 89.8538 118.409C89.4571 118.244 89.0202 118.2 88.5986 118.283C88.177 118.367 87.7896 118.573 87.4854 118.877C87.1812 119.18 86.9739 119.567 86.8897 119.989C86.8056 120.41 86.8483 120.847 87.0126 121.244C87.1768 121.641 87.4552 121.981 87.8125 122.22C88.1697 122.459 88.5898 122.586 89.0196 122.586C89.3046 122.587 89.5869 122.531 89.8504 122.422C90.1139 122.314 90.3534 122.154 90.5551 121.953C90.7568 121.751 90.9169 121.512 91.0261 121.249C91.1353 120.986 91.1915 120.704 91.1915 120.419V120.419Z" fill="#2E353A" stroke="#021746" stroke-width="1.09543" stroke-linecap="round" stroke-linejoin="round"/>
<path d="M108.074 144.645H69.9805V146.419H108.074V144.645Z" fill="white" stroke="#021746" stroke-width="1.09543" stroke-linecap="round" stroke-linejoin="round"/>
<path d="M123.491 60.0977C124.718 58.8686 125.624 57.3569 126.13 55.6956C126.635 54.0342 126.725 52.274 126.391 50.5698L119.746 57.2152C119.368 57.5907 118.857 57.8015 118.325 57.8015C117.792 57.8015 117.281 57.5907 116.904 57.2152L111.38 51.6915C111.193 51.5047 111.044 51.2828 110.943 51.0386C110.842 50.7944 110.79 50.5325 110.79 50.2681C110.79 50.0037 110.842 49.7419 110.943 49.4976C111.044 49.2534 111.193 49.0315 111.38 48.8447L118.021 42.2038C116.16 41.8403 114.235 41.983 112.448 42.6169C110.661 43.2508 109.076 44.3527 107.86 45.8077C106.644 47.2626 105.84 49.0173 105.534 50.8886C105.227 52.7599 105.428 54.6793 106.115 56.4465L88.9679 73.2008L87.3144 71.5428L89.9958 68.8614C90.1328 68.7218 90.2095 68.5341 90.2095 68.3385C90.2095 68.1429 90.1328 67.9552 89.9958 67.8156L87.9043 65.7242C87.766 65.5863 87.5788 65.5089 87.3836 65.5089C87.1884 65.5089 87.0012 65.5863 86.863 65.7242L85.8172 66.7699L83.5515 64.5086L84.4229 63.6371C84.6074 63.452 84.711 63.2013 84.711 62.94C84.711 62.6786 84.6074 62.4279 84.4229 62.2428L65.7112 43.5311C65.2654 43.0847 64.736 42.7305 64.1532 42.4888C63.5704 42.2472 62.9457 42.1228 62.3148 42.1228C61.6839 42.1228 61.0592 42.2472 60.4764 42.4888C59.8936 42.7305 59.3641 43.0847 58.9183 43.5311L57.0056 45.4438C56.5593 45.8892 56.2052 46.4183 55.9636 47.0007C55.722 47.5831 55.5977 48.2075 55.5977 48.838C55.5977 49.4686 55.722 50.0929 55.9636 50.6754C56.2052 51.2578 56.5593 51.7868 57.0056 52.2322L75.7173 70.9484C75.9024 71.1329 76.1531 71.2365 76.4145 71.2365C76.6758 71.2365 76.9265 71.1329 77.1116 70.9484L77.9831 70.077L80.2444 72.3427L79.2031 73.384C79.1342 73.4525 79.0795 73.534 79.0422 73.6237C79.0049 73.7135 78.9857 73.8097 78.9857 73.9069C78.9857 74.0041 79.0049 74.1003 79.0422 74.19C79.0795 74.2798 79.1342 74.3612 79.2031 74.4298L81.2901 76.5212C81.4297 76.6583 81.6175 76.735 81.813 76.735C82.0086 76.735 82.1963 76.6583 82.3359 76.5212L85.0173 73.8398L86.644 75.4666L72.4237 89.3205C70.6563 88.6331 68.7368 88.4325 66.8655 88.7395C64.9942 89.0465 63.2395 89.8499 61.7843 91.0659C60.3291 92.2818 59.2268 93.8659 58.5923 95.6529C57.9577 97.4399 57.8141 99.3645 58.1765 101.226L64.8219 94.5849C65.0087 94.3978 65.2305 94.2493 65.4748 94.148C65.719 94.0467 65.9808 93.9946 66.2453 93.9946C66.5097 93.9946 66.7715 94.0467 67.0157 94.148C67.26 94.2493 67.4819 94.3978 67.6686 94.5849L73.2102 100.073C73.3973 100.26 73.5458 100.482 73.6471 100.726C73.7484 100.97 73.8006 101.232 73.8006 101.496C73.8006 101.761 73.7484 102.022 73.6471 102.267C73.5458 102.511 73.3973 102.733 73.2102 102.92L66.5693 109.561C68.4305 109.923 70.3549 109.78 72.142 109.146C73.9292 108.512 75.5135 107.411 76.7299 105.956C77.9463 104.501 78.7503 102.747 79.0579 100.876C79.3656 99.0048 79.1657 97.0854 78.4791 95.3179L92.6995 81.464L112.09 100.833C111.812 101.551 111.748 102.334 111.907 103.088C112.065 103.842 112.44 104.533 112.984 105.078L117.663 109.757L123.276 104.14L118.597 99.4651C118.053 98.9206 117.361 98.5462 116.607 98.3875C115.854 98.2288 115.07 98.2927 114.352 98.5713L94.9921 79.2116L112.158 62.4752C114.074 63.2207 116.165 63.3929 118.178 62.9708C120.19 62.5486 122.036 61.5504 123.491 60.0977V60.0977Z" fill="#2E353A" stroke="#021746" stroke-width="1.09543" stroke-linecap="round" stroke-linejoin="round"/>
<path d="M77.2993 92.937L110.964 60.0943C112.733 60.7831 114.654 60.9844 116.526 60.677C118.399 60.3697 120.155 59.5649 121.61 58.347C123.066 57.129 124.167 55.5425 124.8 53.7532C125.433 51.964 125.573 50.0376 125.207 48.1755L118.566 54.8164C118.379 55.0036 118.157 55.152 117.913 55.2533C117.669 55.3546 117.407 55.4068 117.143 55.4068C116.878 55.4068 116.616 55.3546 116.372 55.2533C116.128 55.152 115.906 55.0036 115.719 54.8164L110.196 49.2927C110.009 49.1063 109.86 48.8848 109.759 48.641C109.658 48.3971 109.606 48.1356 109.606 47.8716C109.606 47.6075 109.658 47.3461 109.759 47.1022C109.86 46.8583 110.009 46.6369 110.196 46.4504L116.837 39.8051C114.974 39.4421 113.049 39.5858 111.261 40.2211C109.474 40.8563 107.89 41.9599 106.674 43.4165C105.459 44.873 104.657 46.6292 104.351 48.5017C104.046 50.3741 104.25 52.2941 104.94 54.0612L71.2751 86.9038C69.5079 86.216 67.5885 86.0151 65.7172 86.322C63.8459 86.6288 62.0912 87.4323 60.6363 88.6485C59.1813 89.8647 58.0794 91.449 57.4455 93.2363C56.8116 95.0235 56.6689 96.9481 57.0324 98.8092L63.6733 92.1683C63.8601 91.9812 64.082 91.8327 64.3262 91.7314C64.5705 91.6301 64.8323 91.5779 65.0967 91.5779C65.3611 91.5779 65.6229 91.6301 65.8672 91.7314C66.1114 91.8327 66.3333 91.9812 66.5201 92.1683L72.0438 97.692C72.2308 97.8784 72.3792 98.0999 72.4804 98.3438C72.5816 98.5876 72.6338 98.8491 72.6338 99.1131C72.6338 99.3772 72.5816 99.6386 72.4804 99.8825C72.3792 100.126 72.2308 100.348 72.0438 100.534L65.3894 107.166C67.2506 107.529 69.1751 107.386 70.9622 106.752C72.7493 106.118 74.3337 105.016 75.5501 103.562C76.7665 102.107 77.5704 100.353 77.8781 98.4816C78.1858 96.6105 77.9859 94.7045 77.2993 92.937Z" fill="white" stroke="#021746" stroke-miterlimit="10"/>
<path d="M74.7066 89.4917C74.4492 89.2337 74.3047 88.8841 74.3047 88.5197C74.3047 88.1553 74.4492 87.8057 74.7066 87.5477L104.975 58.1015C105.234 57.8439 105.584 57.6992 105.949 57.6992C106.314 57.6992 106.665 57.8439 106.924 58.1015V58.1015C107.181 58.3603 107.326 58.7106 107.326 59.0757C107.326 59.4409 107.181 59.7912 106.924 60.05L76.655 89.4917C76.3962 89.7493 76.0459 89.894 75.6808 89.894C75.3156 89.894 74.9653 89.7493 74.7066 89.4917V89.4917Z" fill="white" stroke="#021746" stroke-miterlimit="10"/>
<path d="M83.6845 66.7022L81.4219 68.9648L114.068 101.611L116.331 99.3488L83.6845 66.7022Z" fill="white" stroke="#021746" stroke-miterlimit="10"/>
<path d="M122.088 101.76L116.475 107.373L111.796 102.698C111.051 101.953 110.633 100.943 110.633 99.8895C110.633 98.836 111.051 97.8257 111.796 97.0807V97.0807C112.164 96.7121 112.602 96.4197 113.084 96.2202C113.565 96.0206 114.081 95.918 114.602 95.918C115.124 95.918 115.64 96.0206 116.121 96.2202C116.603 96.4197 117.04 96.7121 117.409 97.0807L122.088 101.76Z" fill="white" stroke="#021746" stroke-miterlimit="10"/>
<path d="M80.6376 60.3507L75.0664 65.9219L79.5916 70.4471L85.1628 64.8759L80.6376 60.3507Z" fill="white" stroke="#021746" stroke-miterlimit="10"/>
<path d="M55.8314 43.0276L57.7464 41.1126C58.1921 40.6669 58.7212 40.3134 59.3035 40.0722C59.8859 39.831 60.51 39.7068 61.1403 39.7068C61.7706 39.7068 62.3947 39.831 62.9771 40.0722C63.5594 40.3134 64.0885 40.6669 64.5342 41.1126L83.2481 59.8265C83.4325 60.0109 83.5361 60.261 83.5361 60.5217C83.5361 60.7825 83.4325 61.0325 83.2481 61.2169L75.9357 68.5293C75.7513 68.7137 75.5012 68.8173 75.2405 68.8173C74.9797 68.8173 74.7297 68.7137 74.5453 68.5293L55.8314 49.8154C54.9313 48.9153 54.4256 47.6945 54.4256 46.4215C54.4256 45.1486 54.9313 43.9278 55.8314 43.0276Z" fill="white" stroke="#021746" stroke-miterlimit="10"/>
<path d="M85.6853 63.3108L78.0253 70.9708C77.7373 71.2587 77.7374 71.7256 78.0253 72.0136L80.1173 74.1056C80.4052 74.3935 80.8721 74.3935 81.1601 74.1056L88.8201 66.4456C89.108 66.1576 89.108 65.6907 88.8201 65.4028L86.7281 63.3108C86.4402 63.0228 85.9733 63.0228 85.6853 63.3108Z" fill="white" stroke="#021746" stroke-miterlimit="10"/>
<path d="M76.9792 65.7484L75.4418 67.2902L57.0653 48.9137C56.8609 48.7092 56.7461 48.4319 56.7461 48.1428C56.7461 47.8537 56.8609 47.5764 57.0653 47.3719V47.3719C57.1663 47.2701 57.2864 47.1894 57.4187 47.1343C57.551 47.0792 57.6929 47.0508 57.8362 47.0508C57.9796 47.0508 58.1215 47.0792 58.2538 47.1343C58.3861 47.1894 58.5062 47.2701 58.6071 47.3719L76.9792 65.7484Z" fill="white" stroke="#021746" stroke-miterlimit="10"/>
<path d="M79.6053 63.1273L78.059 64.6691L59.6825 46.2926C59.4781 46.0881 59.3633 45.8108 59.3633 45.5217C59.3633 45.2326 59.4781 44.9553 59.6825 44.7508V44.7508C59.7835 44.649 59.9036 44.5683 60.0359 44.5132C60.1682 44.4581 60.3101 44.4297 60.4534 44.4297C60.5967 44.4297 60.7387 44.4581 60.871 44.5132C61.0033 44.5683 61.1234 44.649 61.2243 44.7508L79.6053 63.1273Z" fill="white" stroke="#021746" stroke-miterlimit="10"/>
<path d="M82.2303 60.5023L80.684 62.0307L62.3075 43.6676C62.1031 43.4631 61.9883 43.1858 61.9883 42.8967C61.9883 42.6076 62.1031 42.3303 62.3075 42.1258V42.1258C62.4085 42.024 62.5286 41.9433 62.6609 41.8882C62.7932 41.8331 62.9351 41.8047 63.0784 41.8047C63.2217 41.8047 63.3637 41.8331 63.496 41.8882C63.6283 41.9433 63.7484 42.024 63.8493 42.1258L82.2303 60.5023Z" fill="white" stroke="#021746" stroke-miterlimit="10"/>
<path d="M143.735 146.973H142.247L132.625 68.0232H134.118L143.735 146.973Z" fill="white" stroke="#021746" stroke-miterlimit="10"/>
<path d="M155.356 146.973H153.868L144.246 68.0232H145.739L155.356 146.973Z" fill="white" stroke="#021746" stroke-miterlimit="10"/>
<path d="M145.828 74.5643H134.213L133.914 72.1287H145.533L145.828 74.5643Z" fill="white" stroke="#021746" stroke-miterlimit="10"/>
<path d="M146.926 83.5565H135.311L135.016 81.1208H146.631L146.926 83.5565Z" fill="white" stroke="#021746" stroke-miterlimit="10"/>
<path d="M148.028 92.5486H136.408L136.113 90.113H147.728L148.028 92.5486Z" fill="white" stroke="#021746" stroke-miterlimit="10"/>
<path d="M149.117 101.546H137.503L137.203 99.11H148.818L149.117 101.546Z" fill="white" stroke="#021746" stroke-miterlimit="10"/>
<path d="M150.215 110.537H138.6L138.301 108.101H149.916L150.215 110.537Z" fill="white" stroke="#021746" stroke-miterlimit="10"/>
<path d="M151.312 119.529H139.697L139.402 117.094H151.017L151.312 119.529Z" fill="white" stroke="#021746" stroke-miterlimit="10"/>
<path d="M152.402 128.521H140.787L140.492 126.086H152.107L152.402 128.521Z" fill="white" stroke="#021746" stroke-miterlimit="10"/>
<path d="M153.504 137.518H141.885L141.59 135.082H153.205L153.504 137.518Z" fill="white" stroke="#021746" stroke-miterlimit="10"/>
<path d="M134.035 73.0857H135.555" stroke="#021746" stroke-width="0.5" stroke-miterlimit="10"/>
<path d="M134.395 73.8004H137.344" stroke="#021746" stroke-width="0.5" stroke-miterlimit="10"/>
<path d="M145.653 73.8005H143.508" stroke="#021746" stroke-width="0.5" stroke-miterlimit="10"/>
<path d="M146.724 82.4646H144.758" stroke="#021746" stroke-width="0.5" stroke-miterlimit="10"/>
<path d="M135.465 82.9138H140.023" stroke="#021746" stroke-width="0.5" stroke-miterlimit="10"/>
<path d="M136.27 91.3123H140.202" stroke="#021746" stroke-width="0.5" stroke-miterlimit="10"/>
<path d="M136.449 92.0271H138.594" stroke="#021746" stroke-width="0.5" stroke-miterlimit="10"/>
<path d="M149.042 100.156H146.633" stroke="#021746" stroke-width="0.5" stroke-miterlimit="10"/>
<path d="M148.87 100.871H144.848" stroke="#021746" stroke-width="0.5" stroke-miterlimit="10"/>
<path d="M152.371 127.608H148.684" stroke="#021746" stroke-width="0.5" stroke-miterlimit="10"/>
<path d="M140.641 126.937H142.875" stroke="#021746" stroke-width="0.5" stroke-miterlimit="10"/>
<path d="M148.124 127.608H145.219" stroke="#021746" stroke-width="0.5" stroke-miterlimit="10"/>
<path d="M141.754 136.211H144.882" stroke="#021746" stroke-width="0.5" stroke-miterlimit="10"/>
<path d="M142.426 136.996H146.001" stroke="#021746" stroke-width="0.5" stroke-miterlimit="10"/>
<path d="M138.852 109.73H139.857" stroke="#021746" stroke-width="0.5" stroke-miterlimit="10"/>
<path d="M149.8 109.511H146.113" stroke="#021746" stroke-width="0.5" stroke-miterlimit="10"/>
<path d="M56.6563 99.7653L54.8866 102.071L16.3906 72.0173L18.1648 69.7113L56.6563 99.7653Z" fill="#2E353A" stroke="#021746" stroke-width="1.09543" stroke-linecap="round" stroke-linejoin="round"/>
<path d="M16.3906 99.7653L18.1648 102.071L56.6563 72.0173L54.8866 69.7113L16.3906 99.7653Z" fill="#2E353A" stroke="#021746" stroke-width="1.09543" stroke-linecap="round" stroke-linejoin="round"/>
<path d="M56.6563 133.525L55.5614 136.497L16.3906 105.777L17.5123 102.778L56.6563 133.525Z" fill="#2E353A" stroke="#021746" stroke-width="1.09543" stroke-linecap="round" stroke-linejoin="round"/>
<path d="M16.3906 133.522L16.6588 137.008L56.6563 105.774L54.8866 103.472L16.3906 133.522Z" fill="#2E353A" stroke="#021746" stroke-width="1.09543" stroke-linecap="round" stroke-linejoin="round"/>
<path d="M17.2985 69.3943H15.7344V146.976H17.2985V69.3943Z" fill="#2E353A" stroke="#021746" stroke-width="1.09543" stroke-linecap="round" stroke-linejoin="round"/>
<path d="M56.8688 69.3943H55.3047V146.976H56.8688V69.3943Z" fill="#2E353A" stroke="#021746" stroke-width="1.09543" stroke-linecap="round" stroke-linejoin="round"/>
<path d="M49.125 99.7653L47.3509 102.071L8.85938 72.0173L10.6291 69.7113L49.125 99.7653Z" fill="white" stroke="#021746" stroke-width="1.09543" stroke-linecap="round" stroke-linejoin="round"/>
<path d="M8.85938 99.7653L10.6291 102.071L49.125 72.0173L47.3509 69.7113L8.85938 99.7653Z" fill="white" stroke="#021746" stroke-width="1.09543" stroke-linecap="round" stroke-linejoin="round"/>
<path d="M49.125 133.525L48.0257 136.497L8.85938 105.777L9.42247 102.778L49.125 133.525Z" fill="white" stroke="#021746" stroke-width="1.09543" stroke-linecap="round" stroke-linejoin="round"/>
<path d="M8.85938 133.522L9.12752 137.008L49.125 105.774L47.3509 103.472L8.85938 133.522Z" fill="white" stroke="#021746" stroke-width="1.09543" stroke-linecap="round" stroke-linejoin="round"/>
<path d="M9.75946 69.3943H8.19531V146.976H9.75946V69.3943Z" fill="white" stroke="#021746" stroke-width="1.09543" stroke-linecap="round" stroke-linejoin="round"/>
<path d="M49.3337 69.3946H47.7695V146.976H49.3337V69.3946Z" fill="white" stroke="#021746" stroke-width="1.09543" stroke-linecap="round" stroke-linejoin="round"/>
<path d="M51.3512 68.6794H6.1875V71.1374H51.3512V68.6794Z" fill="white" stroke="#021746" stroke-width="1.09543" stroke-linecap="round" stroke-linejoin="round"/>
<path d="M58.309 68.6794H45.7734V71.1374H58.309V68.6794Z" fill="#2E353A" stroke="#021746" stroke-width="1.09543" stroke-linecap="round" stroke-linejoin="round"/>
<path d="M51.3512 100.871H6.1875V103.329H51.3512V100.871Z" fill="white" stroke="#021746" stroke-width="1.09543" stroke-linecap="round" stroke-linejoin="round"/>
<path d="M58.309 100.871H45.7734V103.329H58.309V100.871Z" fill="#2E353A" stroke="#021746" stroke-width="1.09543" stroke-linecap="round" stroke-linejoin="round"/>
<path d="M107.629 146.974H104.094L108.809 119.351H112.348L107.629 146.974Z" fill="#2E353A" stroke="#021746" stroke-width="0.972732" stroke-miterlimit="10"/>
<path d="M114.703 146.974H118.243L113.523 119.351H109.988L114.703 146.974Z" fill="white" stroke="#021746" stroke-width="0.972732" stroke-miterlimit="10"/>
<path d="M157.824 146.974H154.289L159.004 119.351H162.539L157.824 146.974Z" fill="#2E353A" stroke="#021746" stroke-width="0.972732" stroke-miterlimit="10"/>
<path d="M164.898 146.974H168.438L163.719 119.351H160.184L164.898 146.974Z" fill="white" stroke="#021746" stroke-width="0.972732" stroke-miterlimit="10"/>
<path d="M167.375 111.363H99.9062V120.735H167.375V111.363Z" fill="#5F90FF" stroke="#021746" stroke-width="0.972732" stroke-miterlimit="10"/>
<path d="M169.023 111.363H101.555V120.735H169.023V111.363Z" fill="#5F90FF" stroke="#021746" stroke-width="0.972732" stroke-miterlimit="10"/>
<path d="M102.652 120.735H108.377L111.336 111.363H105.611L102.652 120.735Z" fill="#2E353A"/>
<path d="M125.321 111.363H119.591L116.633 120.735H122.362L125.321 111.363Z" fill="#2E353A"/>
<path d="M167.262 111.363H161.533L158.574 120.735H164.303L167.262 111.363Z" fill="#2E353A"/>
<path d="M153.281 111.363H147.556L144.598 120.735H150.322L153.281 111.363Z" fill="#2E353A"/>
<path d="M139.301 111.363H133.572L130.613 120.735H136.343L139.301 111.363Z" fill="#2E353A"/>
<path d="M168.652 115.523H157.488" stroke="#021746" stroke-miterlimit="10"/>
<path d="M168.452 117.09H166.691" stroke="#021746" stroke-miterlimit="10"/>
<path d="M101.266 116.699H112.429" stroke="#021746" stroke-miterlimit="10"/>
<path d="M101.457 114.933H115.561" stroke="#021746" stroke-miterlimit="10"/>
</svg>
