<svg width="93" height="70" viewBox="0 0 93 70" fill="none" xmlns="http://www.w3.org/2000/svg">
<g opacity="0.8" clip-path="url(#clip0)">
<path d="M65.6895 27.0996H57.8311V32.1521H65.6895V27.0996Z" fill="#960A2C"/>
<path d="M53.4449 35H45.5864V40.0525H53.4449V35Z" fill="#960A2C"/>
<path d="M88.6619 28.7533V18.0053H82.7224V11.0236H78.7018V18.0053H72.7623V28.7533H69.4727V4.59318H62.8021V2.29659H53.9385V0H45.1662V2.29659H36.8509V4.59318H29.632V28.6614H25.7942V17.9134H19.8547V10.9318H15.834V17.9134H9.8945V28.6614H6.05664V66.7848H14.8289V53.2808H20.8598V66.7848H44.4352V51.0761H54.6695V66.7848H68.9244V66.8766H77.6966V53.3727H83.7276V66.8766H92.4998V28.7533H88.6619ZM9.20917 33.3465H12.6815V36.1024H9.20917V33.3465ZM9.25486 41.063H12.7272V43.8189H9.25486V41.063ZM12.7729 51.5354H9.30054V48.7795H12.7729V51.5354ZM21.865 26.6404H13.8237V24.9869H21.865V26.6404ZM21.865 24.252H13.8237V22.5984H21.865V24.252ZM21.865 21.8635H13.8237V20.21H21.865V21.8635ZM23.0072 33.3465H26.4795V36.1024H23.0072V33.3465ZM23.0529 41.063H26.5252V43.8189H23.0529V41.063ZM26.5709 51.5354H23.0986V48.7795H26.5709V51.5354ZM40.7801 46.9423H34.3837V44.0945H40.7801V46.9423ZM40.7801 38.7664H34.3837V35.9186H40.7801V38.7664ZM40.7801 30.5906H34.3837V27.7428H40.7801V30.5906ZM40.7801 22.4147H34.3837V19.5669H40.7801V22.4147ZM40.7801 14.2388H34.3837V11.3911H40.7801V14.2388ZM52.7506 46.9423H46.3541V44.0945H52.7506V46.9423ZM52.7506 38.7664H46.3541V35.9186H52.7506V38.7664ZM52.7506 30.5906H46.3541V27.7428H52.7506V30.5906ZM52.7506 22.4147H46.3541V19.5669H52.7506V22.4147ZM52.7506 14.2388H46.3541V11.3911H52.7506V14.2388ZM64.721 46.9423H58.3246V44.0945H64.721V46.9423ZM64.721 38.7664H58.3246V35.9186H64.721V38.7664ZM64.721 30.5906H58.3246V27.7428H64.721V30.5906ZM64.721 22.4147H58.3246V19.5669H64.721V22.4147ZM64.721 14.2388H58.3246V11.3911H64.721V14.2388ZM72.0769 33.4383H75.5493V36.1942H72.0769V33.4383ZM72.1226 41.1549H75.595V43.9108H72.1226V41.1549ZM75.6406 51.6273H72.1683V48.8714H75.6406V51.6273ZM84.7327 26.7323H76.6915V25.0787H84.7327V26.7323ZM84.7327 24.3438H76.6915V22.6903H84.7327V24.3438ZM84.7327 21.9554H76.6915V20.3018H84.7327V21.9554ZM85.8749 33.4383H89.3473V36.1942H85.8749V33.4383ZM85.9206 41.1549H89.393V43.9108H85.9206V41.1549ZM89.4387 51.6273H85.9663V48.8714H89.4387V51.6273Z" fill="#F2F2F2"/>
<path d="M11.4653 57.4806C11.4398 57.844 11.3997 58.2505 11.3379 58.6776L12.455 57.432L12.4612 57.4529C12.3929 57.1532 12.2829 56.8646 12.1344 56.5957L12.1416 56.6154L11.4653 57.4806Z" fill="#960A2C"/>
<path d="M11.4697 57.4162L12.1248 56.5781C11.9854 56.3224 11.7839 56.1064 11.5389 55.9503C11.5269 55.9431 11.5148 55.9364 11.5027 55.9297C11.5063 56.0287 11.5235 56.6098 11.4697 57.4162Z" fill="#960A2C"/>
<path d="M10.8787 60.7027C10.8499 60.7908 10.8202 60.8773 10.7896 60.9623L12.4348 59.9925L12.4371 60.0168C12.4715 59.866 12.5001 59.7152 12.523 59.5645L10.8802 60.7137L10.8787 60.7027Z" fill="#960A2C"/>
<path d="M11.1074 59.8879L12.5892 58.6594L12.5934 58.6824C12.5986 58.2761 12.556 57.8707 12.4663 57.4746L11.3279 58.7439C11.2681 59.1439 11.1946 59.5253 11.1074 59.8879Z" fill="#960A2C"/>
<path d="M11.3027 58.7203L9.5297 56.7315L9.53919 56.709C9.37252 56.9449 9.22999 57.1971 9.11377 57.4618L11.137 59.6275C11.2064 59.3114 11.2605 59.0054 11.3027 58.7203Z" fill="#960A2C"/>
<path d="M9.09424 57.5046L9.09431 57.5047C9.09745 57.4975 9.10018 57.4896 9.10334 57.4824L9.09424 57.5046Z" fill="#960A2C"/>
<path d="M8.99586 57.75L8.98682 57.7725C8.98969 57.7648 8.99301 57.7577 8.99591 57.7501L8.99586 57.75Z" fill="#960A2C"/>
<path d="M11.1249 59.6794L9.09428 57.5059C9.05996 57.5849 9.02706 57.6662 8.99561 57.7498L11.0711 59.9093C11.0899 59.8322 11.1079 59.7556 11.1249 59.6794Z" fill="#960A2C"/>
<path d="M12.5273 59.5345C12.5677 59.2612 12.5897 58.9853 12.5932 58.709L11.0914 59.9541C11.0319 60.1956 10.9665 60.4277 10.895 60.6505L12.5241 59.5108L12.5273 59.5345Z" fill="#960A2C"/>
<path d="M8.7266 59.6894L10.3704 61.8453C10.5054 61.5829 10.6247 61.3126 10.7275 61.0358L8.72184 58.918C8.70197 59.1827 8.69976 59.4485 8.71524 59.7136L8.7266 59.6894Z" fill="#960A2C"/>
<path d="M11.4728 55.9285L11.4875 55.9219C11.1275 55.7285 10.7378 55.7493 10.3643 55.9453L11.4408 57.4153C11.4988 56.5428 11.4731 55.9372 11.4728 55.9285Z" fill="#960A2C"/>
<path d="M10.7359 61.1049C10.6416 61.3539 10.5338 61.5976 10.4131 61.8349L12.0665 60.9749L12.0682 60.9988C12.1927 60.7872 12.2902 60.5606 12.3581 60.3244C12.3843 60.2315 12.4083 60.1384 12.43 60.0449L10.7651 61.0263C10.7554 61.0525 10.7458 61.0789 10.7359 61.1049Z" fill="#960A2C"/>
<path d="M11.4363 57.4802L10.335 55.9765L10.3454 55.9551C10.0302 56.1384 9.7593 56.3897 9.55225 56.6908L11.3108 58.6634C11.3717 58.2411 11.4111 57.8394 11.4363 57.4802Z" fill="#960A2C"/>
<path d="M10.7458 60.988C10.8684 60.6518 10.9729 60.3092 11.0588 59.9617L8.97823 57.7969C8.9287 57.9321 8.8832 58.0727 8.84175 58.2188C8.78423 58.4283 8.74584 58.6426 8.72705 58.859L10.7442 60.989L10.7458 60.988Z" fill="#960A2C"/>
<path d="M12.8825 63.3228C12.6322 63.5863 12.3435 63.8737 12.0249 64.163L13.6756 63.92L13.6671 63.94C13.8046 63.6654 13.903 63.3726 13.9592 63.0703L13.9522 63.0901L12.8825 63.3228Z" fill="#960A2C"/>
<path d="M13.9095 62.1914C13.9048 62.1782 13.8998 62.1653 13.8948 62.1523C13.8347 62.2309 13.4793 62.6894 12.9263 63.2761L13.9625 63.0506C14.0174 62.7643 13.9992 62.4687 13.9095 62.1914Z" fill="#960A2C"/>
<path d="M10.3867 65.4277C10.3086 65.4771 10.2308 65.5247 10.1533 65.5705L12.0357 65.8785L12.0221 65.8987C12.1442 65.8046 12.2619 65.7068 12.3752 65.6054L10.3808 65.4372L10.3867 65.4277Z" fill="#960A2C"/>
<path d="M11.0791 64.9483L12.9998 64.9522L12.9884 64.9726C13.2501 64.6631 13.4745 64.3235 13.6568 63.9609L11.9747 64.2085C11.6748 64.4783 11.3763 64.7249 11.0791 64.9483Z" fill="#960A2C"/>
<path d="M10.4321 65.3987L12.4099 65.5654L12.3973 65.5858C12.6019 65.4012 12.7938 65.2029 12.9719 64.9923L11.0252 64.9883C10.8262 65.1361 10.6285 65.2729 10.4321 65.3987Z" fill="#960A2C"/>
<path d="M8.00914 66.3838C8.02314 66.3695 8.03797 66.354 8.05259 66.3389C8.45588 66.2743 8.84996 66.1611 9.22631 66.0018L9.28007 64.5688C9.29601 64.5324 9.31151 64.4956 9.32655 64.4586L9.26935 65.9837C9.53986 65.8681 9.80323 65.7364 10.0581 65.5892L9.87438 62.9253C9.88855 62.9179 9.9028 62.9104 9.91749 62.9026L10.1009 65.563L10.1027 65.5633C10.4105 65.383 10.7083 65.1862 10.995 64.9736L10.795 62.3522C10.8091 62.3417 10.8233 62.3316 10.8374 62.3209L11.0374 64.9422C11.1009 64.8949 11.1633 64.8474 11.2248 64.7996L11.0598 62.146C11.0739 62.1343 11.0881 62.1227 11.1022 62.1108L11.2673 64.7665C11.5212 64.5675 11.757 64.3665 11.9704 64.174L11.8666 61.5054L11.8882 61.4942C11.8145 61.5135 11.7396 61.5364 11.664 61.5614C11.8061 61.3983 11.9339 61.2232 12.046 61.0379L10.3767 61.9062C10.2612 62.1269 10.1312 62.3396 9.98771 62.543C9.95787 62.5713 9.92804 62.5996 9.89864 62.6292L9.90084 62.661C9.88721 62.6791 9.87366 62.6972 9.85988 62.715L9.85692 62.672C9.83584 62.6937 9.8153 62.7167 9.79447 62.739C10.0059 62.4737 10.1914 62.1886 10.3485 61.8875L8.71675 59.7474C8.72788 59.9387 8.74647 60.1312 8.7704 60.3222C8.61891 60.0746 8.43493 59.8486 8.22342 59.6504L8.23627 59.6669L7.85916 60.6999C7.94658 61.0535 8.03351 61.4525 8.106 61.8779L8.77616 60.3672C8.77922 60.3908 8.78246 60.4142 8.78568 60.4377L8.11714 61.9447C8.18329 62.3438 8.23064 62.7292 8.25921 63.1012L9.06161 61.8341C9.0662 61.8523 9.07078 61.8705 9.07536 61.8885L8.26432 63.1692C8.28196 63.4173 8.29107 63.6584 8.29163 63.8925L9.27247 62.5916C9.27771 62.6087 9.28282 62.6253 9.2879 62.6417L8.29668 63.9565L8.29186 63.9464C8.29158 64.0391 8.28992 64.1307 8.28687 64.221L9.39325 62.9687C9.39912 62.9861 9.40458 63.0022 9.40962 63.0169L8.28409 64.2908C8.28293 64.3188 8.28191 64.3469 8.28049 64.3747C8.26732 64.6409 8.23975 64.9061 8.1979 65.1692L8.30467 65.0605C8.28445 65.1027 8.26475 65.1443 8.24558 65.1853L8.18482 65.2472C8.17785 65.2874 8.16991 65.3267 8.16225 65.3662C8.13984 65.4157 8.11824 65.464 8.09745 65.5111C8.11751 65.4207 8.13623 65.3299 8.15221 65.2382L5.94238 63.7099C6.51891 65.1927 7.60457 66.6033 7.67407 66.6928C7.73049 66.5868 7.78176 66.4778 7.82882 66.3665C7.8425 66.3652 7.85617 66.3639 7.86984 66.3625C7.86419 66.3762 7.85833 66.3896 7.85257 66.4032C7.84568 66.4039 7.8387 66.405 7.83183 66.4057C7.83718 66.4072 7.8436 66.409 7.84943 66.4106C7.81627 66.4883 7.78191 66.5648 7.74506 66.6386C7.79329 66.595 7.86676 66.5261 7.95459 66.4386C8.47423 66.572 9.87411 66.8572 11.0727 66.4359L9.23626 66.0343C8.84325 66.2016 8.43103 66.319 8.00914 66.3838ZM9.29962 64.0476L9.34365 64.0028L9.34114 64.0699L9.2971 64.1148L9.29962 64.0476Z" fill="#960A2C"/>
<path d="M13.8727 62.1314L13.8882 62.1358C13.7337 61.756 13.4203 61.5221 13.0083 61.4336L12.9048 63.2561C13.503 62.6212 13.8675 62.1384 13.8727 62.1314Z" fill="#960A2C"/>
<path d="M10.0204 65.6473C9.78969 65.7786 9.55209 65.8972 9.30859 66.0025L11.1277 66.4003L11.1138 66.4198C11.3439 66.3368 11.5627 66.2247 11.7649 66.0864C11.8441 66.0316 11.9216 65.9752 11.9976 65.9172L10.0928 65.6055C10.0686 65.6195 10.0444 65.6337 10.0204 65.6473Z" fill="#960A2C"/>
<path d="M12.0131 64.1341C12.3279 63.8478 12.6131 63.5637 12.8604 63.3032L12.9662 61.4389L12.9878 61.4291C12.6287 61.3682 12.2607 61.388 11.9102 61.4872L12.0131 64.1341Z" fill="#960A2C"/>
<path d="M8.20942 59.6362C7.99826 59.4364 7.74013 59.2936 7.45918 59.2213C7.44555 59.2182 7.432 59.2155 7.41846 59.2129C7.45229 59.3059 7.64728 59.8532 7.8441 60.6368L8.20942 59.6362Z" fill="#960A2C"/>
<path d="M8.08584 61.9292L5.78819 60.5888L5.79029 60.5645C5.70432 60.8406 5.64633 61.1248 5.61719 61.4126L8.20721 62.8435C8.17597 62.5214 8.13335 62.2135 8.08584 61.9292Z" fill="#960A2C"/>
<path d="M5.61279 61.4624L5.61289 61.4624C5.61367 61.4543 5.61384 61.4456 5.61467 61.4375L5.61279 61.4624Z" fill="#960A2C"/>
<path d="M5.594 61.7246L5.59229 61.7495C5.59265 61.741 5.59367 61.7331 5.59406 61.7246L5.594 61.7246Z" fill="#960A2C"/>
<path d="M8.21208 62.897L5.61258 61.4609C5.60425 61.5468 5.59797 61.6343 5.59375 61.7236L8.23153 63.1324C8.22579 63.0532 8.21931 62.9748 8.21208 62.897Z" fill="#960A2C"/>
<path d="M8.25101 64.3108L5.69238 62.9199C5.75489 63.1779 5.83451 63.4314 5.93073 63.6786L5.93409 63.6521L8.16021 65.1917C8.20797 64.9001 8.23829 64.606 8.25101 64.3108Z" fill="#960A2C"/>
<path d="M7.38938 59.2208L7.40135 59.2099C6.99955 59.1379 6.6353 59.2788 6.34033 59.5813L7.81615 60.6447C7.603 59.797 7.39242 59.2289 7.38938 59.2208Z" fill="#960A2C"/>
<path d="M7.83185 60.7091L6.32219 59.6212L6.32543 59.5977C6.08203 59.8699 5.90169 60.1931 5.79736 60.5438L8.07631 61.8734C8.00434 61.4528 7.91831 61.0585 7.83185 60.7091Z" fill="#960A2C"/>
<path d="M8.25324 64.2591C8.26647 63.9012 8.26053 63.5429 8.23542 63.1858L5.59108 61.7734C5.58555 61.9174 5.58553 62.0653 5.59102 62.2171C5.60072 62.4342 5.63009 62.6499 5.67878 62.8616L8.25203 64.2605L8.25324 64.2591Z" fill="#960A2C"/>
<path d="M89.6845 57.2033C89.659 57.5667 89.619 57.9732 89.5571 58.4003L90.6743 57.1547L90.6804 57.1756C90.6121 56.8758 90.5021 56.5872 90.3537 56.3184L90.3608 56.3381L89.6845 57.2033Z" fill="#960A2C"/>
<path d="M89.6885 57.1408L90.3436 56.3027C90.2042 56.047 90.0026 55.831 89.7576 55.6749C89.7456 55.6678 89.7336 55.661 89.7215 55.6543C89.7251 55.7533 89.7422 56.3344 89.6885 57.1408Z" fill="#960A2C"/>
<path d="M89.098 60.4253C89.0692 60.5135 89.0395 60.6 89.0088 60.6849L90.654 59.7151L90.6563 59.7395C90.6907 59.5887 90.7193 59.4379 90.7422 59.2871L89.0995 60.4364L89.098 60.4253Z" fill="#960A2C"/>
<path d="M89.3267 59.6125L90.8084 58.384L90.8126 58.407C90.8178 58.0007 90.7752 57.5953 90.6856 57.1992L89.5471 58.4685C89.4873 58.8685 89.4138 59.2499 89.3267 59.6125Z" fill="#960A2C"/>
<path d="M89.5219 58.4449L87.7489 56.4561L87.7584 56.4336C87.5918 56.6695 87.4492 56.9217 87.333 57.1865L89.3563 59.352C89.4256 59.036 89.4797 58.73 89.5219 58.4449Z" fill="#960A2C"/>
<path d="M87.314 57.2295L87.314 57.2296C87.3172 57.2223 87.32 57.2143 87.3232 57.207L87.314 57.2295Z" fill="#960A2C"/>
<path d="M89.3447 59.404L87.314 57.2305C87.2797 57.3095 87.2468 57.3908 87.2153 57.4744L89.2908 59.6339C89.3097 59.5568 89.3276 59.4802 89.3447 59.404Z" fill="#960A2C"/>
<path d="M87.2146 57.4746L87.2056 57.4971C87.2084 57.4894 87.2118 57.4824 87.2147 57.4747L87.2146 57.4746Z" fill="#960A2C"/>
<path d="M90.7465 59.2591C90.7869 58.9858 90.809 58.71 90.8124 58.4336L89.3107 59.6787C89.2512 59.9202 89.1857 60.1523 89.1143 60.3751L90.7433 59.2354L90.7465 59.2591Z" fill="#960A2C"/>
<path d="M86.9458 59.414L88.5895 61.5699C88.7246 61.3075 88.8439 61.0372 88.9467 60.7604L86.9411 58.6426C86.9212 58.9073 86.919 59.1731 86.9345 59.4382L86.9458 59.414Z" fill="#960A2C"/>
<path d="M89.692 55.6531L89.7067 55.6465C89.3467 55.4531 88.957 55.4739 88.5835 55.6699L89.66 57.1399C89.718 56.2675 89.6924 55.6618 89.692 55.6531Z" fill="#960A2C"/>
<path d="M88.9552 60.8295C88.8608 61.0785 88.753 61.3222 88.6323 61.5595L90.2858 60.6995L90.2874 60.7234C90.412 60.5118 90.5094 60.2852 90.5773 60.0491C90.6036 59.9561 90.6275 59.863 90.6492 59.7695L88.9844 60.7509C88.9747 60.7771 88.9651 60.8036 88.9552 60.8295Z" fill="#960A2C"/>
<path d="M89.6555 57.2049L88.5543 55.7011L88.5646 55.6797C88.2494 55.863 87.9785 56.1143 87.7715 56.4154L89.5301 58.388C89.5909 57.9657 89.6303 57.564 89.6555 57.2049Z" fill="#960A2C"/>
<path d="M88.965 60.7126C89.0876 60.3764 89.1921 60.0338 89.2781 59.6863L87.1975 57.5215C87.1479 57.6567 87.1024 57.7974 87.061 57.9434C87.0035 58.1529 86.9651 58.3672 86.9463 58.5837L88.9634 60.7136L88.965 60.7126Z" fill="#960A2C"/>
<path d="M91.1017 63.0474C90.8515 63.3109 90.5628 63.5983 90.2441 63.8876L91.8948 63.6446L91.8863 63.6647C92.0239 63.39 92.1222 63.0972 92.1785 62.7949L92.1715 62.8147L91.1017 63.0474Z" fill="#960A2C"/>
<path d="M92.1288 61.916C92.1241 61.9028 92.1191 61.8899 92.114 61.877C92.054 61.9555 91.6985 62.414 91.1455 63.0006L92.1818 62.7752C92.2366 62.4889 92.2184 62.1933 92.1288 61.916Z" fill="#960A2C"/>
<path d="M88.6054 65.1523C88.5274 65.2018 88.4496 65.2493 88.3721 65.2951L90.2545 65.6031L90.2408 65.6233C90.363 65.5292 90.4807 65.4314 90.5939 65.33L88.5996 65.1618L88.6054 65.1523Z" fill="#960A2C"/>
<path d="M89.2983 64.6729L91.219 64.6768L91.2076 64.6972C91.4694 64.3877 91.6937 64.0481 91.876 63.6855L90.1939 63.9331C89.8941 64.2029 89.5955 64.4495 89.2983 64.6729Z" fill="#960A2C"/>
<path d="M88.6509 65.1233L90.6287 65.2901L90.616 65.3104C90.8206 65.1258 91.0126 64.9275 91.1906 64.7169L89.244 64.7129C89.045 64.8607 88.8473 64.9975 88.6509 65.1233Z" fill="#960A2C"/>
<path d="M86.2284 66.1084C86.2424 66.0941 86.2572 66.0787 86.2718 66.0635C86.6751 65.999 87.0692 65.8858 87.4455 65.7264L87.4993 64.2934C87.5152 64.257 87.5307 64.2202 87.5458 64.1833L87.4886 65.7083C87.7591 65.5928 88.0225 65.461 88.2773 65.3138L88.0936 62.6499C88.1078 62.6425 88.122 62.635 88.1367 62.6272L88.3202 65.2877L88.322 65.288C88.6297 65.1076 88.9275 64.9108 89.2142 64.6982L89.0142 62.0768C89.0284 62.0664 89.0425 62.0562 89.0567 62.0455L89.2567 64.6668C89.3201 64.6195 89.3826 64.572 89.444 64.5243L89.279 61.8706C89.2932 61.8589 89.3073 61.8473 89.3214 61.8354L89.4865 64.4911C89.7404 64.2921 89.9762 64.0911 90.1896 63.8986L90.0859 61.23L90.1074 61.2188C90.0337 61.2381 89.9588 61.2611 89.8833 61.286C90.0253 61.1229 90.1531 60.9478 90.2652 60.7625L88.596 61.6308C88.4804 61.8515 88.3505 62.0642 88.2069 62.2676C88.1771 62.296 88.1473 62.3242 88.1179 62.3538L88.1201 62.3856C88.1064 62.4037 88.0929 62.4219 88.0791 62.4396L88.0761 62.3966C88.0551 62.4184 88.0345 62.4413 88.0137 62.4637C88.2251 62.1983 88.4106 61.9132 88.5677 61.6122L86.936 59.472C86.9471 59.6633 86.9657 59.8559 86.9896 60.0468C86.8381 59.7992 86.6542 59.5732 86.4426 59.375L86.4555 59.3915L86.0784 60.4245C86.1658 60.7781 86.2527 61.1771 86.3252 61.6025L86.9954 60.0918C86.9984 60.1154 87.0017 60.1388 87.0049 60.1623L86.3364 61.6693C86.4025 62.0684 86.4499 62.4539 86.4784 62.8258L87.2808 61.5587C87.2854 61.5769 87.29 61.5952 87.2946 61.6131L86.4836 62.8938C86.5012 63.1419 86.5103 63.3831 86.5109 63.6171L87.4917 62.3162C87.497 62.3333 87.5021 62.3499 87.5071 62.3663L86.5159 63.6811L86.5111 63.671C86.5108 63.7637 86.5092 63.8553 86.5061 63.9456L87.6125 62.6933C87.6184 62.7107 87.6238 62.7268 87.6289 62.7415L86.5033 64.0154C86.5022 64.0434 86.5012 64.0716 86.4997 64.0993C86.4866 64.3655 86.459 64.6307 86.4171 64.8939L86.5239 64.7852C86.5037 64.8273 86.484 64.8689 86.4648 64.9099L86.4041 64.9718C86.3971 65.012 86.3892 65.0513 86.3815 65.0908C86.3591 65.1403 86.3375 65.1886 86.3167 65.2357C86.3368 65.1454 86.3555 65.0545 86.3714 64.9628L84.1616 63.4345C84.7382 64.9174 85.8238 66.3279 85.8933 66.4174C85.9497 66.3115 86.001 66.2024 86.0481 66.0911C86.0617 66.0898 86.0754 66.0886 86.0891 66.0871C86.0834 66.1008 86.0776 66.1142 86.0718 66.1278C86.0649 66.1285 86.0579 66.1296 86.0511 66.1303C86.0564 66.1318 86.0628 66.1336 86.0687 66.1352C86.0355 66.2129 86.0011 66.2894 85.9643 66.3632C86.0125 66.3196 86.086 66.2507 86.1738 66.1633C86.6935 66.2966 88.0934 66.5818 89.292 66.1605L87.4555 65.7589C87.0625 65.9262 86.6503 66.0436 86.2284 66.1084ZM87.5188 63.7722L87.5629 63.7274L87.5604 63.7946L87.5163 63.8394L87.5188 63.7722Z" fill="#960A2C"/>
<path d="M92.0919 61.856L92.1075 61.8604C91.9529 61.4806 91.6396 61.2467 91.2275 61.1582L91.124 62.9807C91.7222 62.3458 92.0867 61.863 92.0919 61.856Z" fill="#960A2C"/>
<path d="M88.2401 65.3719C88.0094 65.5032 87.7718 65.6218 87.5283 65.7271L89.3474 66.1249L89.3335 66.1444C89.5637 66.0614 89.7825 65.9493 89.9846 65.811C90.0638 65.7562 90.1414 65.6998 90.2173 65.6418L88.3125 65.3301C88.2884 65.3441 88.2642 65.3583 88.2401 65.3719Z" fill="#960A2C"/>
<path d="M90.2323 63.8587C90.5471 63.5724 90.8323 63.2883 91.0796 63.0278L91.1855 61.1635L91.207 61.1537C90.8479 61.0928 90.4799 61.1126 90.1294 61.2118L90.2323 63.8587Z" fill="#960A2C"/>
<path d="M86.4287 59.3608C86.2175 59.161 85.9594 59.0182 85.6784 58.9459C85.6648 58.9428 85.6512 58.9401 85.6377 58.9375C85.6715 59.0305 85.8665 59.5778 86.0633 60.3614L86.4287 59.3608Z" fill="#960A2C"/>
<path d="M86.3051 61.6538L84.0074 60.3134L84.0095 60.2891C83.9236 60.5652 83.8656 60.8494 83.8364 61.1372L86.4265 62.5681C86.3952 62.246 86.3526 61.9381 86.3051 61.6538Z" fill="#960A2C"/>
<path d="M83.8127 61.4473L83.811 61.4722C83.8114 61.4637 83.8124 61.4558 83.8128 61.4473L83.8127 61.4473Z" fill="#960A2C"/>
<path d="M83.8315 61.185L83.8316 61.1851C83.8324 61.1769 83.8326 61.1683 83.8334 61.1602L83.8315 61.185Z" fill="#960A2C"/>
<path d="M86.4313 62.6216L83.8318 61.1855C83.8235 61.2714 83.8172 61.3589 83.813 61.4482L86.4508 62.857C86.445 62.7778 86.4385 62.6994 86.4313 62.6216Z" fill="#960A2C"/>
<path d="M86.4703 64.0354L83.9116 62.6445C83.9741 62.9025 84.0538 63.156 84.15 63.4032L84.1533 63.3767L86.3795 64.9163C86.4272 64.6247 86.4576 64.3306 86.4703 64.0354Z" fill="#960A2C"/>
<path d="M85.6086 58.9454L85.6206 58.9345C85.2188 58.8625 84.8545 59.0034 84.5596 59.3059L86.0354 60.3693C85.8222 59.5216 85.6117 58.9536 85.6086 58.9454Z" fill="#960A2C"/>
<path d="M86.0506 60.4318L84.5409 59.3439L84.5442 59.3203C84.3008 59.5926 84.1204 59.9157 84.0161 60.2665L86.2951 61.596C86.2231 61.1755 86.1371 60.7812 86.0506 60.4318Z" fill="#960A2C"/>
<path d="M86.4725 63.9837C86.4857 63.6259 86.4798 63.2676 86.4547 62.9104L83.8103 61.498C83.8048 61.642 83.8048 61.7899 83.8103 61.9418C83.82 62.1588 83.8493 62.3746 83.898 62.5863L86.4713 63.9851L86.4725 63.9837Z" fill="#960A2C"/>
<path d="M6.05664 66.7852H92.4998V68.0286C92.4998 68.5515 92.2932 69.0531 91.9253 69.4229C91.5575 69.7926 91.0586 70.0004 90.5384 70.0004H8.01802C7.49783 70.0004 6.99895 69.7926 6.63112 69.4229C6.26329 69.0531 6.05664 68.5515 6.05664 68.0286V66.7852Z" fill="#2F2E41"/>
<path d="M92.4998 65.7734H6.05664V67.5188H92.4998V65.7734Z" fill="#3F3D56"/>
<path d="M73.0501 6.0599L74.0429 6.69282L73.4401 5.59105C73.6108 5.4541 73.8221 5.3783 74.0404 5.37563C74.0458 5.37563 74.0511 5.37567 74.0564 5.37577C74.1254 5.37688 74.1943 5.37176 74.2624 5.36046L74.5988 5.57494L74.4546 5.31131C74.693 5.22774 74.899 5.07056 75.0432 4.86224L75.6454 5.24615L75.265 4.5508C75.6171 4.12582 76.0918 3.86523 76.6142 3.86523C77.2404 3.86523 77.7982 4.23964 78.1583 4.82299C78.2648 4.99754 78.4153 5.14066 78.5945 5.23783C78.7738 5.335 78.9754 5.38275 79.179 5.37625C79.1902 5.37584 79.2014 5.37563 79.2127 5.37563C79.904 5.37563 80.4644 6.16363 80.4644 7.13567C80.4644 8.10772 79.904 8.89572 79.2127 8.89572C79.0606 8.89515 78.911 8.85749 78.7767 8.78598C78.5413 8.671 78.284 8.60879 78.0224 8.60365C77.7608 8.59851 77.5012 8.65056 77.2616 8.7562C77.0592 8.84766 76.8398 8.8952 76.6179 8.89571C76.3959 8.89623 76.1764 8.84971 75.9735 8.7592C75.7358 8.65557 75.4786 8.60454 75.2195 8.60958C74.9604 8.61461 74.7054 8.67559 74.4718 8.78838C74.3387 8.85837 74.1907 8.89517 74.0405 8.89572C73.3491 8.89572 72.7887 8.10772 72.7887 7.13567C72.7847 6.76072 72.8746 6.39077 73.0501 6.0599Z" fill="#F2F2F2"/>
<path d="M22.5399 11.2301L23.1714 11.6327L22.788 10.9318C22.8966 10.8447 23.031 10.7965 23.1699 10.7948C23.1733 10.7948 23.1767 10.7948 23.1801 10.7949C23.2239 10.7956 23.2678 10.7923 23.3111 10.7851L23.5251 10.9216L23.4334 10.7539C23.585 10.7007 23.716 10.6007 23.8078 10.4682L24.1909 10.7124L23.9488 10.2701C24.0508 10.1379 24.1806 10.0302 24.3291 9.95482C24.4775 9.87939 24.6408 9.83811 24.8071 9.83398C25.2054 9.83398 25.5603 10.0722 25.7894 10.4432C25.8571 10.5543 25.9528 10.6453 26.0668 10.7071C26.1809 10.7689 26.3091 10.7993 26.4386 10.7952C26.4457 10.7949 26.4529 10.7948 26.4601 10.7948C26.8998 10.7948 27.2563 11.296 27.2563 11.9144C27.2563 12.5327 26.8998 13.034 26.4601 13.034C26.3633 13.0336 26.2682 13.0097 26.1827 12.9642C26.033 12.891 25.8693 12.8515 25.7029 12.8482C25.5365 12.8449 25.3714 12.878 25.2189 12.9452C25.0901 13.0034 24.9506 13.0337 24.8094 13.034C24.6683 13.0343 24.5286 13.0047 24.3995 12.9471C24.2483 12.8812 24.0847 12.8488 23.9199 12.852C23.7551 12.8552 23.5929 12.894 23.4443 12.9657C23.3596 13.0102 23.2655 13.0336 23.1699 13.034C22.7301 13.034 22.3736 12.5327 22.3736 11.9144C22.3711 11.6759 22.4282 11.4405 22.5399 11.2301Z" fill="#F2F2F2"/>
<path d="M5.54379 13.3883L6.17533 13.7909L5.79189 13.09C5.90048 13.0029 6.03487 12.9547 6.17379 12.953C6.17718 12.953 6.18057 12.953 6.18395 12.9531C6.22783 12.9538 6.27169 12.9505 6.31499 12.9433L6.52901 13.0798L6.43726 12.9121C6.5889 12.8589 6.71995 12.7589 6.81168 12.6264L7.19475 12.8706L6.95275 12.4283C7.05466 12.2961 7.18455 12.1885 7.33299 12.113C7.48143 12.0376 7.64471 11.9963 7.81099 11.9922C8.20934 11.9922 8.56419 12.2304 8.79327 12.6014C8.86098 12.7125 8.95672 12.8035 9.07075 12.8653C9.18478 12.9271 9.31305 12.9575 9.44254 12.9534C9.44965 12.9531 9.4568 12.953 9.46396 12.953C9.90372 12.953 10.2602 13.4542 10.2602 14.0726C10.2602 14.6909 9.90372 15.1922 9.46396 15.1922C9.36725 15.1918 9.27208 15.1679 9.18661 15.1224C9.03691 15.0492 8.8732 15.0097 8.70679 15.0064C8.54038 15.0031 8.37526 15.0362 8.22283 15.1034C8.09405 15.1616 7.95453 15.1919 7.81334 15.1922C7.67216 15.1925 7.5325 15.1629 7.40345 15.1054C7.25221 15.0394 7.08864 15.007 6.92382 15.0102C6.75901 15.0134 6.59681 15.0522 6.44821 15.1239C6.36349 15.1684 6.26938 15.1918 6.17379 15.1922C5.73402 15.1922 5.37752 14.6909 5.37752 14.0726C5.37496 13.8341 5.43214 13.5987 5.54379 13.3883Z" fill="#F2F2F2"/>
<path d="M28.3447 54.8301L28.2344 54.941C28.2344 54.941 28.2711 56.1607 28.3079 56.4195C28.3447 56.6782 28.4917 57.1218 28.3814 57.4545C28.2711 57.7871 28.2344 58.0459 28.2711 58.0828C28.3079 58.1198 28.2344 58.2676 28.2344 58.2676L28.5285 58.0828L29.0065 56.9739L28.7859 55.7911L28.3447 54.8301Z" fill="#960A2C"/>
<path opacity="0.1" d="M28.3447 54.8301L28.2344 54.941C28.2344 54.941 28.2711 56.1607 28.3079 56.4195C28.3447 56.6782 28.4917 57.1218 28.3814 57.4545C28.2711 57.7871 28.2344 58.0459 28.2711 58.0828C28.3079 58.1198 28.2344 58.2676 28.2344 58.2676L28.5285 58.0828L29.0065 56.9739L28.7859 55.7911L28.3447 54.8301Z" fill="black"/>
<path d="M30.2928 66.3249C30.2928 66.3249 30.2928 65.9183 30.2193 65.8444C30.1458 65.7705 30.0355 65.5117 29.8884 65.5117C29.7413 65.5117 29.2266 65.6596 29.2266 65.6965C29.2308 65.8119 29.2054 65.9265 29.153 66.0292C29.0795 66.1401 28.675 66.5837 29.0795 66.6576C29.214 66.6798 29.3515 66.6749 29.484 66.6432C29.6166 66.6114 29.7415 66.5535 29.8516 66.4728C29.8884 66.4358 30.0355 66.3988 30.0722 66.4358C30.109 66.4728 30.2928 66.3249 30.2928 66.3249Z" fill="#960A2C"/>
<path d="M31.3228 65.66L31.5434 66.0666C31.5434 66.0666 31.6169 66.4362 31.7272 66.4732H31.8375C31.8375 66.4732 31.9478 66.8798 32.2052 66.8428C32.4625 66.8059 32.7567 66.658 32.7567 66.5841C32.7567 66.5102 32.7567 66.2884 32.6464 66.2145C32.4917 66.0875 32.3444 65.9517 32.2052 65.8079L32.0213 65.623L31.3228 65.66Z" fill="#960A2C"/>
<path d="M28.5012 52.1213C28.4305 52.1576 28.3694 52.2104 28.3232 52.2754C28.277 52.3403 28.247 52.4155 28.2356 52.4946C28.2152 52.7585 28.4747 53.0071 28.3912 53.2582C28.3438 53.4007 28.1962 53.493 28.1537 53.6371C28.1313 53.752 28.1481 53.8712 28.2013 53.9754C28.2594 54.1182 28.33 54.2555 28.4125 54.3857C28.5675 54.6304 28.7692 54.8624 28.8106 55.1495C28.8221 55.1997 28.8216 55.2519 28.8091 55.3018C28.7966 55.3518 28.7726 55.3981 28.7389 55.4369C28.8135 55.3801 28.8989 55.3393 28.9897 55.3169C29.3655 55.1907 29.7146 54.9952 30.0193 54.7405C30.1299 54.6623 30.2132 54.5509 30.2573 54.4223C30.3134 54.1952 30.142 53.9681 30.1584 53.7346C30.1689 53.5853 30.2547 53.4535 30.3032 53.3119C30.3454 53.1711 30.3588 53.0231 30.3427 52.8769C30.3266 52.7307 30.2812 52.5892 30.2094 52.4611C30.1499 52.3371 30.0659 52.2265 29.9626 52.1362C29.8593 52.0458 29.7388 51.9776 29.6084 51.9355C29.4078 51.8886 29.1986 51.8947 29.001 51.9532C28.8284 51.9892 28.6606 52.0456 28.5012 52.1213Z" fill="#2F2E41"/>
<path d="M28.708 54.1702C28.789 54.019 28.9089 53.8924 29.0551 53.8037C29.2014 53.715 29.3687 53.6674 29.5395 53.6659C30.1278 53.6659 30.0175 53.6289 30.0175 53.6289L29.8337 54.3682L29.466 54.7378L28.708 54.1702Z" fill="#960A2C"/>
<path d="M28.8589 53.3892C28.8589 53.3892 29.1898 53.9437 28.9692 54.1655C28.7486 54.3873 28.8589 54.609 28.8957 54.646C28.9324 54.683 29.9619 54.7569 29.9619 54.7569L29.9987 54.2394L30.109 53.7958C30.109 53.7958 29.5207 53.685 29.5943 53.4262C29.6678 53.1675 28.8589 53.3892 28.8589 53.3892Z" fill="#FBBEBE"/>
<path opacity="0.1" d="M28.8589 53.3892C28.8589 53.3892 29.1898 53.9437 28.9692 54.1655C28.7486 54.3873 28.8589 54.609 28.8957 54.646C28.9324 54.683 29.9619 54.7569 29.9619 54.7569L29.9987 54.2394L30.109 53.7958C30.109 53.7958 29.5207 53.685 29.5943 53.4262C29.6678 53.1675 28.8589 53.3892 28.8589 53.3892Z" fill="black"/>
<path d="M31.4328 58.6381C31.3935 58.765 31.3443 58.8886 31.2857 59.0077C31.249 59.0447 31.1387 58.749 31.1387 58.749L31.249 58.4902L31.4328 58.6381Z" fill="#FBBEBE"/>
<path d="M31.0102 56.9551L31.1572 57.8053H28.9512L29.0615 56.9551H31.0102Z" fill="#FBBEBE"/>
<path d="M29.264 53.6839C29.6498 53.6839 29.9626 53.3695 29.9626 52.9816C29.9626 52.5937 29.6498 52.2793 29.264 52.2793C28.8782 52.2793 28.5654 52.5937 28.5654 52.9816C28.5654 53.3695 28.8782 53.6839 29.264 53.6839Z" fill="#FBBEBE"/>
<path d="M29.4112 54.4242C29.4112 54.4242 29.0067 54.4612 29.0067 54.3873C29.0067 54.3133 28.97 54.0915 28.8964 54.1285C28.8229 54.1655 28.3449 54.2024 28.3817 54.3133C28.4185 54.4242 28.492 54.646 28.4184 54.646C28.3867 54.6525 28.3565 54.6655 28.3299 54.6841C28.3032 54.7027 28.2806 54.7265 28.2634 54.7542C28.2462 54.7819 28.2348 54.8127 28.2299 54.845C28.2249 54.8772 28.2265 54.9101 28.2346 54.9417C28.2714 55.1265 28.6758 56.2354 28.6758 56.2354C28.6758 56.2354 28.7126 56.6051 28.8229 56.7159C28.8678 56.7741 28.8921 56.8456 28.8921 56.9192C28.8921 56.9929 28.8678 57.0644 28.8229 57.1225C28.7494 57.1965 29.0067 57.2704 29.117 57.4183C29.2273 57.5661 30.073 57.4552 30.1098 57.4183C30.1465 57.3813 31.0289 57.3813 31.1025 57.3074C31.176 57.2334 31.0657 57.0117 31.0657 57.0117C31.0657 57.0117 31.0289 56.679 31.0657 56.5681C31.1025 56.4572 30.9186 54.646 30.8083 54.5351C30.698 54.4242 31.1392 54.0916 31.1392 54.0916C31.1392 54.0916 31.0657 53.7959 30.5877 53.7589C30.5877 53.7589 30.4407 53.5371 30.2936 53.5371C30.1465 53.5371 29.8272 53.7091 29.8272 53.7091C29.8272 53.7091 29.7421 54.2025 29.6318 54.2394C29.5446 54.2824 29.4689 54.3457 29.4112 54.4242Z" fill="#960A2C"/>
<path d="M30.8817 53.9805L31.1391 54.0914C31.1391 54.0914 31.8744 56.3831 31.8009 56.8266C31.7274 57.2702 31.5435 58.7857 31.4332 58.7857C31.3229 58.7857 31.1023 58.5639 31.1023 58.5639V58.1943C31.1023 58.1203 30.992 57.8986 31.0655 57.8986C31.1391 57.8986 31.2494 57.8246 31.1758 57.7507C31.1023 57.6768 31.0288 57.5659 31.1023 57.455C31.1758 57.3441 31.2126 57.3071 31.1758 57.1963C31.1391 57.0854 31.0655 56.9745 31.1391 56.9006C31.2126 56.8266 30.9552 56.457 30.9552 56.457L30.5508 54.8306L30.6243 54.1653L30.8817 53.9805Z" fill="#960A2C"/>
<path d="M31.0285 57.492C31.0285 57.492 29.6313 57.3811 29.4475 57.3811C29.2636 57.3811 28.8512 57.207 28.8512 57.207C28.8512 57.207 27.7929 58.2682 28.1606 60.0055C28.5283 61.7427 28.6018 63.8866 28.8224 64.515C28.9724 64.963 29.0951 65.4197 29.1901 65.8826C29.1901 65.8826 29.5578 65.2173 30.2564 65.9566C30.2564 65.9566 30.3299 65.4021 30.2196 65.1803C30.1093 64.9585 29.9622 63.7757 29.9622 63.7757C29.9622 63.7757 29.7049 61.8906 29.7049 61.6688C29.7049 61.447 29.5578 59.5619 29.5946 59.5249C29.6313 59.488 29.8152 60.9665 29.8519 61.2253C29.8887 61.484 29.999 63.48 30.1093 63.7018C30.2196 63.9236 30.7344 65.6978 31.0285 65.8087C31.3226 65.9196 32.3154 65.7717 32.2786 65.6978C32.2418 65.6239 31.9845 65.2173 31.9109 65.1064L31.6168 64.6628L30.9182 62.2602L31.2491 59.3401C31.2491 59.3401 31.4329 57.455 31.0285 57.492Z" fill="#2F2E41"/>
<path d="M29.6894 52.8898H28.7935C28.7555 52.8898 28.7188 52.8762 28.6899 52.8513C28.661 52.8265 28.6418 52.7921 28.6359 52.7544L28.5469 52.1875H29.944L29.8191 52.784C29.8129 52.8139 29.7966 52.8407 29.7729 52.86C29.7493 52.8793 29.7198 52.8898 29.6894 52.8898Z" fill="#2F2E41"/>
<path d="M75.8604 52.7148H77.2738V54.7448C77.0882 54.7448 76.9044 54.7081 76.7329 54.6367C76.5614 54.5653 76.4056 54.4606 76.2744 54.3286C76.1431 54.1967 76.039 54.04 75.9679 53.8676C75.8969 53.6952 75.8604 53.5105 75.8604 53.3238V52.7148Z" fill="#2F2E41"/>
<path d="M75.036 64.6074L74.9351 65.115H75.6418L75.6754 64.6074H75.036Z" fill="#A0616A"/>
<path d="M75.0361 65.013C75.0361 65.013 74.9015 64.9115 74.8341 64.9791C74.7668 65.0468 74.5313 66.3663 74.4976 66.4001C74.4639 66.434 73.4543 66.9415 73.6899 66.9753C73.9255 67.0091 74.8341 67.043 74.9688 66.9753C75.1034 66.9076 75.4736 66.2648 75.4736 66.2648V66.84H75.5409C75.5409 66.84 75.6082 66.231 75.7765 66.0618C75.9447 65.8926 75.6419 65.3175 75.6419 65.3175C75.6419 65.3175 75.7092 64.9453 75.6755 64.9453C75.6419 64.9453 75.0361 65.013 75.0361 65.013Z" fill="#960A2C"/>
<path d="M77.1225 64.252L77.0215 64.7595H77.7283L77.7619 64.252H77.1225Z" fill="#A0616A"/>
<path d="M76.3149 60.9521C76.3149 60.9521 76.6515 61.9671 76.7188 62.0687C76.7861 62.1702 77.0217 64.0648 77.0217 64.0648C77.0217 64.0648 76.7861 64.437 77.089 64.4708C77.3919 64.5047 77.2573 64.4032 77.4592 64.4708C77.5141 64.4917 77.573 64.4995 77.6314 64.4936C77.6898 64.4878 77.746 64.4684 77.7957 64.437C77.7957 64.437 77.8967 64.234 77.8294 64.1663C77.7621 64.0987 77.8967 62.3393 77.8967 62.3393L77.6948 61.7303L77.5265 59.8018C77.5265 59.8018 77.7284 59.2943 77.6275 59.159C77.5265 59.0236 77.19 59.2605 77.19 59.2605L76.3149 60.9521Z" fill="#2F2E41"/>
<path d="M75.8773 58.3145C75.8773 58.3145 75.7763 59.3971 75.709 59.4648C75.6417 59.5325 74.9013 61.4271 74.9013 61.4271C74.9013 61.4271 74.6994 61.664 74.7667 62.5437C74.834 63.4233 75.0023 64.303 75.0023 64.303C75.0023 64.303 74.8676 64.8105 75.1032 64.8105C75.3388 64.8105 75.4398 64.6752 75.5407 64.7767C75.6417 64.8782 75.709 64.7767 75.7427 64.709C75.7763 64.6413 75.9109 64.4045 75.9109 64.3368C75.9109 64.2692 76.0456 62.5437 76.0456 62.5437C76.0456 62.5437 77.1562 60.0738 77.2571 59.9385C77.3581 59.8031 77.9302 59.0588 77.8966 58.5513L75.8773 58.3145Z" fill="#2F2E41"/>
<path d="M76.7185 53.7472C77.1088 53.7472 77.4252 53.4291 77.4252 53.0367C77.4252 52.6443 77.1088 52.3262 76.7185 52.3262C76.3281 52.3262 76.0117 52.6443 76.0117 53.0367C76.0117 53.4291 76.3281 53.7472 76.7185 53.7472Z" fill="#A0616A"/>
<path d="M76.584 53.6443C76.584 53.6443 76.8532 54.2533 76.8869 54.4225C76.9205 54.5916 77.56 54.0841 77.56 54.0841C77.56 54.0841 77.2234 53.5089 77.3244 53.2383L76.584 53.6443Z" fill="#A0616A"/>
<path d="M77.6611 53.9835C77.6611 53.9835 77.1562 53.6113 76.786 54.3895C76.4158 55.1677 76.3149 55.1338 76.3149 55.1338C76.3149 55.1338 75.8773 55.2692 76.012 56.2165C76.1466 57.1638 75.5744 58.4157 75.81 58.4833C76.0456 58.551 78.2332 58.9232 78.2332 58.6525C78.2332 58.3818 78.0313 57.333 78.1995 56.6902C78.3678 56.0473 77.964 53.8143 77.6611 53.9835Z" fill="#3F3D56"/>
<path d="M77.156 54.1523C77.156 54.1523 76.7521 54.7614 76.7858 55.235C76.8195 55.7087 76.8195 56.0132 76.8195 56.0132C76.8195 56.0132 76.1464 59.2612 76.281 59.2612C76.4156 59.2612 76.8195 59.4304 76.8531 59.3289C76.8868 59.2274 77.7281 57.1635 77.7281 57.1635C77.7281 57.1635 77.9301 55.0997 77.6945 54.626C77.4589 54.1523 77.156 54.1523 77.156 54.1523Z" fill="#3F3D56"/>
<path d="M76.3484 59.1602C76.3484 59.1602 76.0118 60.3105 76.483 60.3443C76.9542 60.3782 76.6849 59.2278 76.6849 59.2278L76.3484 59.1602Z" fill="#A0616A"/>
<path d="M77.2443 64.4948C77.2443 64.4948 77.1264 64.4059 77.0674 64.4652C77.0085 64.5244 76.8022 65.68 76.7727 65.7096C76.7432 65.7392 75.859 66.1837 76.0654 66.2133C76.2717 66.2429 77.0674 66.2725 77.1853 66.2133C77.3032 66.154 77.6274 65.5911 77.6274 65.5911V66.0948H77.6863C77.6863 66.0948 77.7453 65.5614 77.8926 65.4133C78.04 65.2652 77.7748 64.7615 77.7748 64.7615C77.7748 64.7615 77.8337 64.4355 77.8042 64.4355C77.7748 64.4355 77.2443 64.4948 77.2443 64.4948Z" fill="#960A2C"/>
<path d="M76.3693 52.5703C76.3918 52.5428 76.4212 52.5218 76.4545 52.5097C76.4856 52.5041 76.5176 52.5068 76.5473 52.5178C76.7584 52.5797 76.9414 52.7135 77.065 52.8962C77.089 52.9428 77.1251 52.982 77.1693 53.0097C77.1982 53.0184 77.2264 53.0292 77.2537 53.042C77.3324 53.0943 77.2854 53.2155 77.2402 53.2987C77.1244 53.5126 77.0709 53.7551 77.0859 53.9982C77.0849 54.0405 77.0973 54.082 77.1213 54.1168C77.1594 54.1522 77.2092 54.1722 77.2611 54.1729C77.4245 54.1935 77.5891 54.2024 77.7537 54.1994C77.9147 54.1965 78.0935 54.1735 78.1978 54.0501C78.31 53.9175 78.2924 53.7143 78.2194 53.5564C78.1464 53.3985 78.0278 53.2666 77.9435 53.1145C77.8635 52.9537 77.8004 52.7851 77.7552 52.6113C77.6968 52.3894 77.6029 52.1786 77.4769 51.9872C77.4134 51.8919 77.3309 51.8107 77.2348 51.7487C77.1387 51.6868 77.0309 51.6454 76.9182 51.6271C76.6124 51.5928 76.3305 51.7821 76.0848 51.9681C75.8088 52.177 75.5152 52.4354 75.493 52.782C75.4751 53.0628 75.6428 53.3168 75.7304 53.584C75.8656 53.9964 75.809 54.4445 75.7509 54.8749C76.0001 54.7248 76.282 54.5164 76.2657 54.2249C76.2546 54.0282 76.107 53.8712 76.0151 53.6972C75.7624 53.2187 76.0505 52.8979 76.3693 52.5703Z" fill="#2F2E41"/>
<path d="M86.3078 56.0277C86.5217 55.6524 86.6322 55.2266 86.628 54.794C86.628 53.6792 85.9412 52.7754 85.0941 52.7754C84.2469 52.7754 83.5602 53.6792 83.5602 54.794C83.5559 55.2266 83.6665 55.6524 83.8803 56.0277C83.6704 56.4046 83.5602 56.8293 83.5602 57.2613C83.5602 57.6933 83.6704 58.118 83.8803 58.4949C83.6704 58.8718 83.5602 59.2966 83.5602 59.7285C83.5602 60.1605 83.6704 60.5853 83.8803 60.9622C83.6704 61.3391 83.5602 61.7638 83.5602 62.1958C83.5602 62.6278 83.6704 63.0525 83.8803 63.4294C83.6665 63.8047 83.5559 64.2305 83.5602 64.663C83.5602 65.7779 84.2469 66.6817 85.0941 66.6817C85.9412 66.6817 86.628 65.7779 86.628 64.663C86.6322 64.2305 86.5217 63.8047 86.3078 63.4294C86.5177 63.0525 86.628 62.6278 86.628 62.1958C86.628 61.7638 86.5177 61.3391 86.3078 60.9622C86.5177 60.5853 86.628 60.1605 86.628 59.7285C86.628 59.2966 86.5177 58.8718 86.3078 58.4949C86.5177 58.118 86.628 57.6933 86.628 57.2613C86.628 56.8293 86.5177 56.4046 86.3078 56.0277Z" fill="#3F3D56"/>
<path d="M85.0939 54.3459C85.9411 54.3459 86.6278 53.4421 86.6278 52.3273C86.6278 51.2124 85.9411 50.3086 85.0939 50.3086C84.2468 50.3086 83.5601 51.2124 83.5601 52.3273C83.5601 53.4421 84.2468 54.3459 85.0939 54.3459Z" fill="#3F3D56"/>
<path d="M85.0939 51.8791C85.9411 51.8791 86.6278 50.9753 86.6278 49.8605C86.6278 48.7456 85.9411 47.8418 85.0939 47.8418C84.2468 47.8418 83.5601 48.7456 83.5601 49.8605C83.5601 50.9753 84.2468 51.8791 85.0939 51.8791Z" fill="#3F3D56"/>
<path d="M90.8361 32.9751C91.0456 32.7069 91.2365 32.4244 91.4073 32.1297L87.3769 31.4643L91.7359 31.4969C92.154 30.5822 92.3822 29.5914 92.4063 28.5851C92.4304 27.5788 92.25 26.5781 91.8762 25.6442L86.0281 28.6941L91.4214 24.7085C90.9161 23.8307 90.2365 23.067 89.4248 22.4647C88.6131 21.8625 87.6867 21.4348 86.7034 21.2082C85.7201 20.9816 84.7009 20.961 83.7094 21.1477C82.7178 21.3343 81.7751 21.7242 80.9399 22.2931C80.1048 22.862 79.3951 23.5977 78.8551 24.4544C78.3152 25.311 77.9564 26.2703 77.8013 27.2724C77.6461 28.2745 77.6979 29.298 77.9534 30.2791C78.2089 31.2602 78.6626 32.1779 79.2862 32.9751C78.9596 33.3925 78.6786 33.8441 78.4483 34.3221L83.68 37.0546L78.1015 35.1724C77.7099 36.3364 77.613 37.5803 77.8199 38.7914C78.0268 40.0025 78.5307 41.1427 79.2862 42.1087C78.4338 43.1982 77.9035 44.5069 77.756 45.8851C77.6085 47.2633 77.8498 48.6555 78.4522 49.9023C79.0546 51.1492 79.9939 52.2005 81.1626 52.936C82.3313 53.6715 83.6823 54.0616 85.0611 54.0616C86.44 54.0616 87.791 53.6715 88.9597 52.936C90.1284 52.2005 91.0677 51.1492 91.6701 49.9023C92.2725 48.6555 92.5138 47.2633 92.3663 45.8851C92.2188 44.5069 91.6885 43.1982 90.8361 42.1087C91.8547 40.8067 92.4084 39.1983 92.4084 37.5419C92.4084 35.8854 91.8547 34.2771 90.8361 32.9751V32.9751Z" fill="#F2F2F2"/>
<path d="M77.7139 37.5424C77.7113 39.1993 78.2654 40.8085 79.2862 42.1093C78.4338 43.1988 77.9035 44.5075 77.756 45.8857C77.6085 47.2639 77.8498 48.656 78.4522 49.9029C79.0546 51.1497 79.9939 52.201 81.1626 52.9365C82.3313 53.6721 83.6823 54.0621 85.0611 54.0621C86.44 54.0621 87.791 53.6721 88.9597 52.9365C90.1284 52.201 91.0677 51.1497 91.6701 49.9029C92.2725 48.656 92.5138 47.2639 92.3663 45.8857C92.2188 44.5075 91.6885 43.1988 90.8361 42.1093C91.8208 40.8525 77.7139 36.7134 77.7139 37.5424Z" fill="#F2F2F2"/>
<path d="M90.8361 32.9751C91.0456 32.7069 91.2365 32.4244 91.4073 32.1297L87.3769 31.4643L91.7359 31.4969C92.154 30.5822 92.3822 29.5914 92.4063 28.5851C92.4304 27.5788 92.25 26.5781 91.8762 25.6442L86.0281 28.6941L91.4214 24.7085C90.9161 23.8307 90.2365 23.067 89.4248 22.4647C88.6131 21.8625 87.6867 21.4348 86.7034 21.2082C85.7201 20.9816 84.7009 20.961 83.7094 21.1477C82.7178 21.3343 81.7751 21.7242 80.9399 22.2931C80.1048 22.862 79.3951 23.5977 78.8551 24.4544C78.3152 25.311 77.9564 26.2703 77.8013 27.2724C77.6461 28.2745 77.6979 29.298 77.9534 30.2791C78.2089 31.2602 78.6626 32.1779 79.2862 32.9751C78.9596 33.3925 78.6786 33.8441 78.4483 34.3221L83.68 37.0546L78.1015 35.1724C77.7099 36.3364 77.613 37.5803 77.8199 38.7914C78.0268 40.0025 78.5307 41.1427 79.2862 42.1087C78.4338 43.1982 77.9035 44.5069 77.756 45.8851C77.6085 47.2633 77.8498 48.6555 78.4522 49.9023C79.0546 51.1492 79.9939 52.2005 81.1626 52.936C82.3313 53.6715 83.6823 54.0616 85.0611 54.0616C86.44 54.0616 87.791 53.6715 88.9597 52.936C90.1284 52.2005 91.0677 51.1492 91.6701 49.9023C92.2725 48.6555 92.5138 47.2633 92.3663 45.8851C92.2188 44.5069 91.6885 43.1982 90.8361 42.1087C91.8547 40.8067 92.4084 39.1983 92.4084 37.5419C92.4084 35.8854 91.8547 34.2771 90.8361 32.9751V32.9751Z" fill="#57B894"/>
<path opacity="0.1" d="M77.7139 37.5424C77.7113 39.1993 78.2654 40.8085 79.2862 42.1093C78.4338 43.1988 77.9035 44.5075 77.756 45.8857C77.6085 47.2639 77.8498 48.656 78.4522 49.9029C79.0546 51.1497 79.9939 52.201 81.1626 52.9365C82.3313 53.6721 83.6823 54.0621 85.0611 54.0621C86.44 54.0621 87.791 53.6721 88.9597 52.9365C90.1284 52.201 91.0677 51.1497 91.6701 49.9029C92.2725 48.656 92.5138 47.2639 92.3663 45.8857C92.2188 44.5075 91.6885 43.1988 90.8361 42.1093C91.8208 40.8525 77.7139 36.7134 77.7139 37.5424Z" fill="black"/>
<path d="M9.09391 56.0277C9.30778 55.6524 9.41829 55.2266 9.41406 54.794C9.41406 53.6792 8.72732 52.7754 7.88019 52.7754C7.03305 52.7754 6.34631 53.6792 6.34631 54.794C6.34208 55.2266 6.45259 55.6524 6.66646 56.0277C6.45654 56.4046 6.34631 56.8293 6.34631 57.2613C6.34631 57.6933 6.45654 58.118 6.66646 58.4949C6.45654 58.8718 6.34631 59.2966 6.34631 59.7285C6.34631 60.1605 6.45654 60.5853 6.66646 60.9622C6.45654 61.3391 6.34631 61.7638 6.34631 62.1958C6.34631 62.6278 6.45654 63.0525 6.66646 63.4294C6.45259 63.8047 6.34208 64.2305 6.34631 64.663C6.34631 65.7779 7.03305 66.6817 7.88019 66.6817C8.72732 66.6817 9.41406 65.7779 9.41406 64.663C9.41829 64.2305 9.30778 63.8047 9.09391 63.4294C9.30383 63.0525 9.41406 62.6278 9.41406 62.1958C9.41406 61.7638 9.30383 61.3391 9.09391 60.9622C9.30383 60.5853 9.41406 60.1605 9.41406 59.7285C9.41406 59.2966 9.30383 58.8718 9.09391 58.4949C9.30383 58.118 9.41406 57.6933 9.41406 57.2613C9.41406 56.8293 9.30383 56.4046 9.09391 56.0277Z" fill="#3F3D56"/>
<path d="M7.88007 54.3459C8.7272 54.3459 9.41394 53.4421 9.41394 52.3273C9.41394 51.2124 8.7272 50.3086 7.88007 50.3086C7.03293 50.3086 6.34619 51.2124 6.34619 52.3273C6.34619 53.4421 7.03293 54.3459 7.88007 54.3459Z" fill="#3F3D56"/>
<path d="M7.88007 51.8791C8.7272 51.8791 9.41394 50.9753 9.41394 49.8605C9.41394 48.7456 8.7272 47.8418 7.88007 47.8418C7.03293 47.8418 6.34619 48.7456 6.34619 49.8605C6.34619 50.9753 7.03293 51.8791 7.88007 51.8791Z" fill="#3F3D56"/>
<path d="M13.6222 32.9751C13.8318 32.7069 14.0226 32.4244 14.1934 32.1297L10.1631 31.4643L14.522 31.4969C14.9402 30.5822 15.1683 29.5914 15.1924 28.5851C15.2166 27.5788 15.0362 26.5781 14.6623 25.6442L8.81427 28.6941L14.2076 24.7085C13.7023 23.8307 13.0226 23.067 12.2109 22.4647C11.3992 21.8625 10.4729 21.4348 9.48955 21.2082C8.50625 20.9816 7.48706 20.961 6.49549 21.1477C5.50392 21.3343 4.5612 21.7242 3.72606 22.2931C2.89092 22.862 2.18126 23.5977 1.64127 24.4544C1.10129 25.311 0.74255 26.2703 0.587411 27.2724C0.432272 28.2745 0.484054 29.298 0.73953 30.2791C0.995007 31.2602 1.44871 32.1779 2.07236 32.9751C1.74572 33.3925 1.46478 33.8441 1.23443 34.3221L6.46615 37.0546L0.887677 35.1724C0.495984 36.3364 0.399184 37.5803 0.606036 38.7914C0.812889 40.0025 1.31686 41.1427 2.07236 42.1087C1.21992 43.1982 0.689645 44.5069 0.542157 45.8851C0.39467 47.2633 0.635925 48.6555 1.23834 49.9023C1.84075 51.1492 2.78001 52.2005 3.94873 52.936C5.11745 53.6715 6.46846 54.0616 7.84729 54.0616C9.22612 54.0616 10.5771 53.6715 11.7458 52.936C12.9146 52.2005 13.8538 51.1492 14.4562 49.9023C15.0586 48.6555 15.2999 47.2633 15.1524 45.8851C15.0049 44.5069 14.4747 43.1982 13.6222 42.1087C14.6408 40.8067 15.1946 39.1983 15.1946 37.5419C15.1946 35.8854 14.6408 34.2771 13.6222 32.9751L13.6222 32.9751Z" fill="#F2F2F2"/>
<path d="M0.500009 37.5424C0.497472 39.1993 1.05152 40.8085 2.07236 42.1093C1.21992 43.1988 0.689647 44.5075 0.54216 45.8857C0.394673 47.2639 0.635928 48.656 1.23834 49.9029C1.84076 51.1497 2.78002 52.201 3.94873 52.9365C5.11745 53.6721 6.46846 54.0621 7.84729 54.0621C9.22612 54.0621 10.5771 53.6721 11.7458 52.9365C12.9146 52.201 13.8538 51.1497 14.4562 49.9029C15.0587 48.656 15.2999 47.2639 15.1524 45.8857C15.0049 44.5075 14.4747 43.1988 13.6222 42.1093C14.607 40.8525 0.500009 36.7134 0.500009 37.5424Z" fill="#F2F2F2"/>
<path d="M13.6222 32.9751C13.8318 32.7069 14.0226 32.4244 14.1934 32.1297L10.1631 31.4643L14.522 31.4969C14.9402 30.5822 15.1683 29.5914 15.1924 28.5851C15.2166 27.5788 15.0362 26.5781 14.6623 25.6442L8.81427 28.6941L14.2076 24.7085C13.7023 23.8307 13.0226 23.067 12.2109 22.4647C11.3992 21.8625 10.4729 21.4348 9.48955 21.2082C8.50625 20.9816 7.48706 20.961 6.49549 21.1477C5.50392 21.3343 4.5612 21.7242 3.72606 22.2931C2.89092 22.862 2.18126 23.5977 1.64127 24.4544C1.10129 25.311 0.74255 26.2703 0.587411 27.2724C0.432272 28.2745 0.484054 29.298 0.73953 30.2791C0.995007 31.2602 1.44871 32.1779 2.07236 32.9751C1.74572 33.3925 1.46478 33.8441 1.23443 34.3221L6.46615 37.0546L0.887677 35.1724C0.495984 36.3364 0.399184 37.5803 0.606036 38.7914C0.812889 40.0025 1.31686 41.1427 2.07236 42.1087C1.21992 43.1982 0.689645 44.5069 0.542157 45.8851C0.39467 47.2633 0.635925 48.6555 1.23834 49.9023C1.84075 51.1492 2.78001 52.2005 3.94873 52.936C5.11745 53.6715 6.46846 54.0616 7.84729 54.0616C9.22612 54.0616 10.5771 53.6715 11.7458 52.936C12.9146 52.2005 13.8538 51.1492 14.4562 49.9023C15.0586 48.6555 15.2999 47.2633 15.1524 45.8851C15.0049 44.5069 14.4747 43.1982 13.6222 42.1087C14.6408 40.8067 15.1946 39.1983 15.1946 37.5419C15.1946 35.8854 14.6408 34.2771 13.6222 32.9751L13.6222 32.9751Z" fill="#57B894"/>
<path opacity="0.1" d="M0.500009 37.5424C0.497472 39.1993 1.05152 40.8085 2.07236 42.1093C1.21992 43.1988 0.689647 44.5075 0.54216 45.8857C0.394673 47.2639 0.635928 48.656 1.23834 49.9029C1.84076 51.1497 2.78002 52.201 3.94873 52.9365C5.11745 53.6721 6.46846 54.0621 7.84729 54.0621C9.22612 54.0621 10.5771 53.6721 11.7458 52.9365C12.9146 52.201 13.8538 51.1497 14.4562 49.9029C15.0587 48.656 15.2999 47.2639 15.1524 45.8857C15.0049 44.5075 14.4747 43.1988 13.6222 42.1093C14.607 40.8525 0.500009 36.7134 0.500009 37.5424Z" fill="black"/>
<path d="M53.4487 32.5703L49.8031 36.2353L48.0758 34.4989L47.4033 35.1749L49.8008 37.5851L54.1212 33.2463L53.4487 32.5703Z" fill="#57B894"/>
<path d="M65.0536 24.2109L61.4081 27.8759L59.6807 26.1395L59.0083 26.8155L61.4058 29.2258L65.7262 24.887L65.0536 24.2109Z" fill="#57B894"/>
</g>
<defs>
<clipPath id="clip0">
<rect width="92" height="70" fill="white" transform="translate(0.5)"/>
</clipPath>
</defs>
</svg>
