<svg width="101" height="77" viewBox="0 0 101 77" fill="none" xmlns="http://www.w3.org/2000/svg">
<g opacity="0.8" clip-path="url(#clip0)">
<path d="M14.6133 10.4824H14.3848V29.499H14.6133V10.4824Z" fill="#F2F2F2"/>
<path d="M22.268 10.4824H22.0396V29.499H22.268V10.4824Z" fill="#F2F2F2"/>
<path d="M99.3695 38.1209C102.115 53.8476 100.442 69.3147 87.8179 74.5883C75.1943 79.862 59.8991 72.0852 53.6553 57.2185C47.4114 42.3518 59.7374 34.4615 65.2068 20.7511C76.3136 -7.09064 90.8422 -10.718 99.3695 38.1209Z" fill="#F2F2F2"/>
<path d="M88.9024 64.6651C89.3148 64.6651 89.6491 64.3317 89.6491 63.9205C89.6491 63.5092 89.3148 63.1758 88.9024 63.1758C88.4901 63.1758 88.1558 63.5092 88.1558 63.9205C88.1558 64.3317 88.4901 64.6651 88.9024 64.6651Z" fill="#FF6584"/>
<path d="M92.6746 67.8008H92.446V76.2797H92.6746V67.8008Z" fill="#3F3D56"/>
<path d="M92.5604 69.0016C93.2244 69.0016 93.7626 68.4648 93.7626 67.8026C93.7626 67.1403 93.2244 66.6035 92.5604 66.6035C91.8964 66.6035 91.3582 67.1403 91.3582 67.8026C91.3582 68.4648 91.8964 69.0016 92.5604 69.0016Z" fill="#3F3D56"/>
<path d="M92.5607 73.0268C92.5607 73.0268 92.389 69.3427 88.8682 69.771L92.5607 73.0268Z" fill="#3F3D56"/>
<path d="M39.2308 10.3691H4.72729V10.597H39.2308V10.3691Z" fill="#F2F2F2"/>
<path d="M39.2308 20.9668H4.72729V21.1947H39.2308V20.9668Z" fill="#F2F2F2"/>
<path d="M39.2308 29.3984H4.72729V29.6263H39.2308V29.3984Z" fill="#F2F2F2"/>
<path d="M37.8026 39.7109H7.06934V39.9389H37.8026V39.7109Z" fill="#3F3D56"/>
<path d="M5.29845 41.7043C4.91431 41.7043 4.5388 41.5906 4.21939 41.3778C3.89999 41.1649 3.65105 40.8624 3.50405 40.5085C3.35704 40.1545 3.31858 39.765 3.39352 39.3893C3.46846 39.0135 3.65345 38.6683 3.92507 38.3974C4.1967 38.1265 4.54278 37.942 4.91954 37.8673C5.29629 37.7926 5.68682 37.8309 6.04172 37.9775C6.39662 38.1241 6.69995 38.3724 6.91337 38.691C7.12679 39.0095 7.2407 39.384 7.2407 39.7672C7.24012 40.2807 7.03531 40.7731 6.67119 41.1363C6.30707 41.4994 5.81339 41.7037 5.29845 41.7043ZM5.29845 38.058C4.9595 38.058 4.62817 38.1582 4.34634 38.346C4.06452 38.5338 3.84486 38.8008 3.71515 39.1131C3.58544 39.4254 3.55151 39.7691 3.61763 40.1006C3.68376 40.4322 3.84698 40.7367 4.08665 40.9758C4.32632 41.2148 4.63168 41.3776 4.96411 41.4435C5.29655 41.5095 5.64113 41.4756 5.95427 41.3463C6.26742 41.2169 6.53507 40.9978 6.72338 40.7167C6.91169 40.4357 7.0122 40.1052 7.0122 39.7672C7.01169 39.314 6.83098 38.8796 6.5097 38.5591C6.18841 38.2387 5.75281 38.0585 5.29845 38.058Z" fill="#3F3D56"/>
<path d="M14.6164 29.5117H14.3879V39.7668H14.6164V29.5117Z" fill="#3F3D56"/>
<path d="M22.2712 21.0801H22.0427V39.7672H22.2712V21.0801Z" fill="#3F3D56"/>
<path d="M30.0403 10.4824H29.8118V39.7666H30.0403V10.4824Z" fill="#3F3D56"/>
<path d="M14.499 41.43C15.4195 41.43 16.1657 40.6858 16.1657 39.7677C16.1657 38.8497 15.4195 38.1055 14.499 38.1055C13.5785 38.1055 12.8323 38.8497 12.8323 39.7677C12.8323 40.6858 13.5785 41.43 14.499 41.43Z" fill="#960A2C"/>
<path d="M22.2075 41.43C23.128 41.43 23.8742 40.6858 23.8742 39.7677C23.8742 38.8497 23.128 38.1055 22.2075 38.1055C21.287 38.1055 20.5408 38.8497 20.5408 39.7677C20.5408 40.6858 21.287 41.43 22.2075 41.43Z" fill="#960A2C"/>
<path d="M29.916 41.43C30.8365 41.43 31.5827 40.6858 31.5827 39.7677C31.5827 38.8497 30.8365 38.1055 29.916 38.1055C28.9955 38.1055 28.2493 38.8497 28.2493 39.7677C28.2493 40.6858 28.9955 41.43 29.916 41.43Z" fill="#960A2C"/>
<path d="M29.9765 12.0792C30.8598 12.0792 31.576 11.365 31.576 10.4839C31.576 9.60289 30.8598 8.88867 29.9765 8.88867C29.0931 8.88867 28.377 9.60289 28.377 10.4839C28.377 11.365 29.0931 12.0792 29.9765 12.0792Z" fill="#960A2C"/>
<path d="M29.9349 22.6632C30.8183 22.6632 31.5344 21.9489 31.5344 21.0679C31.5344 20.1869 30.8183 19.4727 29.9349 19.4727C29.0516 19.4727 28.3354 20.1869 28.3354 21.0679C28.3354 21.9489 29.0516 22.6632 29.9349 22.6632Z" fill="#960A2C"/>
<path d="M22.2074 22.6749C23.0908 22.6749 23.8069 21.9607 23.8069 21.0796C23.8069 20.1986 23.0908 19.4844 22.2074 19.4844C21.324 19.4844 20.6079 20.1986 20.6079 21.0796C20.6079 21.9607 21.324 22.6749 22.2074 22.6749Z" fill="#960A2C"/>
<path d="M22.1659 31.0948C23.0493 31.0948 23.7654 30.3806 23.7654 29.4995C23.7654 28.6185 23.0493 27.9043 22.1659 27.9043C21.2825 27.9043 20.5664 28.6185 20.5664 29.4995C20.5664 30.3806 21.2825 31.0948 22.1659 31.0948Z" fill="#960A2C"/>
<path d="M14.5529 31.1065C15.4362 31.1065 16.1524 30.3923 16.1524 29.5113C16.1524 28.6302 15.4362 27.916 14.5529 27.916C13.6695 27.916 12.9534 28.6302 12.9534 29.5113C12.9534 30.3923 13.6695 31.1065 14.5529 31.1065Z" fill="#960A2C"/>
<path d="M1.98525 11.9646C2.80553 11.9646 3.4705 11.3014 3.4705 10.4833C3.4705 9.66516 2.80553 9.00195 1.98525 9.00195C1.16497 9.00195 0.5 9.66516 0.5 10.4833C0.5 11.3014 1.16497 11.9646 1.98525 11.9646Z" fill="#F2F2F2"/>
<path d="M1.98525 22.447C2.80553 22.447 3.4705 21.7838 3.4705 20.9657C3.4705 20.1476 2.80553 19.4844 1.98525 19.4844C1.16497 19.4844 0.5 20.1476 0.5 20.9657C0.5 21.7838 1.16497 22.447 1.98525 22.447Z" fill="#F2F2F2"/>
<path d="M1.98525 30.9939C2.80553 30.9939 3.4705 30.3307 3.4705 29.5126C3.4705 28.6945 2.80553 28.0312 1.98525 28.0312C1.16497 28.0312 0.5 28.6945 0.5 29.5126C0.5 30.3307 1.16497 30.9939 1.98525 30.9939Z" fill="#F2F2F2"/>
<path d="M73.3413 11.3988C73.3413 11.3988 75.501 14.1586 75.2311 16.1107C74.9611 18.0628 79.6855 13.4182 79.6855 13.4182C79.6855 13.4182 78.0657 10.0526 78.9431 8.43711C79.8205 6.82162 73.3413 11.3988 73.3413 11.3988Z" fill="#FFB9B9"/>
<path d="M80.9006 67.2676C80.9006 67.2676 83.7353 70.364 83.2628 71.0371C82.7904 71.7102 74.4889 74.2681 73.5441 74.1334C72.5992 73.9988 72.1267 73.3257 72.4642 73.1238C72.8017 72.9218 74.9614 71.7775 74.9614 71.7775L76.7837 69.6908C76.7837 69.6908 78.1335 68.9504 78.1335 68.5465C78.1335 68.1426 80.9006 67.2676 80.9006 67.2676Z" fill="#2F2E41"/>
<path d="M76.1086 70.7012C76.1086 70.7012 75.0287 72.4513 74.8262 72.5186C74.6238 72.5859 75.8386 75.0091 75.8386 75.0091L78.6733 74.1341L80.2256 72.8552L79.8881 71.105L76.1086 70.7012Z" fill="#FFB9B9"/>
<path d="M73.2065 37.3125L71.8567 43.3033C71.8567 43.3033 67.1998 53.7367 70.4394 55.5541L77.526 69.0839L81.3055 67.4011L74.9613 53.5348L77.8634 37.5817L73.2065 37.3125Z" fill="#D0CDE1"/>
<path opacity="0.1" d="M73.2065 37.3125L71.8567 43.3033C71.8567 43.3033 67.1998 53.7367 70.4394 55.5541L77.526 69.0839L81.3055 67.4011L74.9613 53.5348L77.8634 37.5817L73.2065 37.3125Z" fill="black"/>
<path d="M73.6788 38.2554H72.994C72.9407 40.3257 73.0568 42.3968 73.3414 44.4482C73.8138 47.8811 75.0287 55.7566 75.0287 55.7566C75.0287 55.7566 74.8937 57.2375 75.2986 57.7087C75.7036 58.1799 75.7711 57.574 75.8386 58.651C75.906 59.728 76.5472 67.2161 76.5472 67.2161C76.5472 67.2161 76.9859 68.7479 76.5135 69.0845C76.041 69.421 75.0962 71.2384 75.7711 71.5077C76.446 71.7769 81.1029 72.1135 81.3054 71.9116C81.5079 71.7096 81.3054 59.0549 81.3054 59.0549C81.3054 59.0549 81.1704 56.4971 81.0354 56.3624C80.9004 56.2278 80.293 54.4104 80.4955 54.0065C80.698 53.6026 80.563 52.391 80.563 52.1891C80.563 51.9871 79.9555 52.1891 80.4955 51.314C81.0354 50.439 81.1029 43.4385 81.1029 43.4385C81.1029 43.4385 84.005 38.9959 83.1276 37.8516L73.6788 38.2554Z" fill="#D0CDE1"/>
<path d="M75.2313 12.4087C77.6914 12.4087 79.6857 10.4196 79.6857 7.96605C79.6857 5.51246 77.6914 3.52344 75.2313 3.52344C72.7712 3.52344 70.7769 5.51246 70.7769 7.96605C70.7769 10.4196 72.7712 12.4087 75.2313 12.4087Z" fill="#FFB9B9"/>
<path d="M79.6855 12.6777C79.6855 12.6777 76.9858 13.3509 75.9059 14.9663L74.9611 15.1683V16.1107C74.9611 16.1107 73.2063 21.6976 73.6112 24.1208C74.0162 26.5441 73.6112 31.2559 72.9363 32.5348C72.2614 33.8138 72.0589 34.083 72.3964 34.6215C72.7338 35.16 73.2063 36.9775 72.8688 37.7852C72.5314 38.5929 72.8688 39.4007 75.9734 39.6026C79.078 39.8046 83.465 39.8046 83.465 38.7276C83.465 37.6506 83.195 34.6215 83.465 33.8138C83.7349 33.006 83.8699 32.4675 83.7349 31.7271C83.6 30.9867 84.0049 22.7073 84.0049 22.7073C84.0049 22.7073 84.0724 14.4279 79.6855 12.6777Z" fill="#2F2E41"/>
<path d="M73.3417 33.4766L69.6297 38.9962C69.6297 38.9962 65.7151 42.5637 67.1325 44.1792C68.5498 45.7947 72.2618 39.4674 72.2618 39.4674L76.3113 34.8901L73.3417 33.4766Z" fill="#FFB9B9"/>
<path d="M75.7037 72.8536C75.7037 72.8536 75.5687 71.9785 75.0963 71.9785C74.6238 71.9785 71.4517 74.1325 71.4517 74.1325C71.4517 74.1325 67.0971 76.0009 68.9357 76.1155C70.7637 76.2295 80.4281 76.4884 80.4956 76.1519C80.5631 75.8153 80.6981 72.4963 80.2256 72.5067C79.7532 72.517 75.9737 73.2575 75.9737 73.2575L75.7037 72.8536Z" fill="#2F2E41"/>
<path d="M75.5479 5.67067C75.3896 5.74846 75.2152 5.78777 75.0388 5.78539C74.8567 5.79571 74.6394 5.78448 74.5426 5.63037C74.4968 5.52896 74.4756 5.41822 74.4806 5.30711C74.4615 5.16443 74.4136 5.02711 74.3398 4.90342C74.266 4.77973 74.1678 4.67225 74.0511 4.58747C73.9345 4.50269 73.8019 4.44237 73.6612 4.41016C73.5205 4.37795 73.3748 4.3745 73.2327 4.40004C73.2521 4.62253 73.3199 4.83812 73.4316 5.03169C73.2343 5.09846 73.0242 5.11892 72.8177 5.09151C72.6112 5.06409 72.4138 4.98953 72.2409 4.87363L72.1723 5.78034C71.9302 5.89574 71.62 5.91981 71.4089 5.75464C71.1977 5.58948 71.1808 5.20185 71.4197 5.0798C71.1247 5.01845 70.7639 4.88663 70.7422 4.58687C70.7224 4.31336 71.0135 4.11317 71.0671 3.8442C71.1109 3.62483 70.9903 3.3864 71.0756 3.17957C71.1877 2.90785 71.5947 2.83809 71.6764 2.55578C71.718 2.412 71.6581 2.25822 71.6724 2.10926C71.7098 1.71924 72.2015 1.55731 72.5937 1.57948C72.9859 1.60164 73.4139 1.70552 73.7471 1.49798C73.9087 1.39736 74.0215 1.23629 74.1635 1.10964C74.3597 0.941769 74.6038 0.839475 74.8614 0.817137C75.1189 0.7948 75.377 0.853543 75.5994 0.985106C75.7571 1.08294 75.8948 1.21851 76.0707 1.27797C76.4307 1.39966 76.8063 1.16941 77.1827 1.11634C77.3203 1.09282 77.4615 1.10074 77.5957 1.1395C77.7298 1.17825 77.8534 1.24683 77.9571 1.34009C78.0578 1.43666 78.1238 1.56369 78.1446 1.70146C78.1655 1.83923 78.1401 1.98001 78.0725 2.10194C78.2933 2.06474 78.5273 2.02876 78.7354 2.11125C78.9436 2.19374 79.1026 2.44226 79.0063 2.64392C78.9705 2.69679 78.9422 2.75436 78.9223 2.81497C78.9028 2.93229 79.0161 3.0326 79.1304 3.06624C79.2448 3.09988 79.3689 3.09359 79.4809 3.13446C79.9435 3.30332 79.8325 4.04093 80.1966 4.37187C80.3216 4.46246 80.4536 4.54297 80.5914 4.61262C80.7722 4.73764 80.9045 4.92078 80.9661 5.13142C81.0277 5.34206 81.015 5.56742 80.93 5.76981C80.857 5.931 80.7347 6.08484 80.7495 6.26109C80.7701 6.5083 81.0357 6.6437 81.2221 6.80796C81.3921 6.96434 81.5084 7.17019 81.5543 7.39624C81.6003 7.6223 81.5736 7.85705 81.4781 8.06712C81.3067 8.42356 80.9357 8.69376 80.898 9.08725C80.8817 9.25829 80.9332 9.42906 80.9303 9.60085C80.9194 9.75966 80.8727 9.91397 80.7938 10.0523C80.7148 10.1906 80.6056 10.3094 80.4742 10.3998C80.2099 10.5784 79.9121 10.702 79.5987 10.7631C79.4516 10.7982 79.276 10.8532 79.2404 10.9999C79.1982 11.1737 79.3927 11.3319 79.3726 11.5097C79.3599 11.5869 79.3171 11.656 79.2535 11.7019C78.9902 11.9072 78.5736 11.7312 78.4126 11.439C78.2516 11.1469 78.2722 10.7929 78.2971 10.4605L78.3879 9.25168C78.4162 8.87557 78.4135 8.42893 78.106 8.20928C77.7662 7.96644 77.2712 8.16304 76.8868 7.99894C76.4864 7.82797 76.3427 7.32757 76.3589 6.8934C76.375 6.45923 76.4998 6.02438 76.428 5.59577C76.3391 5.06464 75.8655 4.70767 75.3872 5.05186C75.8075 4.99475 75.8801 5.47589 75.5479 5.67067Z" fill="#2F2E41"/>
<path opacity="0.1" d="M79.2808 15.9073C79.2808 15.9073 76.5811 16.9842 76.5811 19.2729C76.5811 21.5615 76.7161 24.5905 76.2437 25.6002C75.7712 26.6099 75.3663 26.9465 75.6363 27.7542C75.9062 28.562 76.3787 28.4273 75.6363 29.0331C74.8938 29.639 74.9613 28.6293 74.8938 29.639C74.8264 30.6486 75.5688 30.7833 74.8938 31.2544C74.2189 31.7256 72.4641 33.6104 73.2066 34.2162C73.949 34.822 75.9062 36.7741 76.5811 36.0336C77.2561 35.2932 77.5935 33.4084 78.5384 33.5431C79.4833 33.6777 79.6183 33.745 79.4833 33.0719C79.3483 32.3988 78.7409 32.3988 79.5508 32.1968C80.3607 31.9949 80.6981 32.4661 80.4282 31.7929C80.1582 31.1198 79.9557 30.8506 80.4957 30.1101C81.0356 29.3697 81.3056 29.1678 81.2381 28.4273C81.1706 27.6869 82.7229 21.023 82.7229 21.023C82.7229 21.023 83.1953 15.3688 79.2808 15.9073Z" fill="black"/>
<path opacity="0.1" d="M78.5381 15.7744C78.5381 15.7744 75.8385 16.8514 75.8385 19.1401C75.8385 21.4287 75.9734 24.4577 75.501 25.4674C75.0286 26.4771 74.6236 26.8137 74.8936 27.6214C75.1635 28.4292 75.636 28.2945 74.8936 28.9003C74.1512 29.5062 74.2187 28.4965 74.1512 29.5061C74.0837 30.5158 74.8261 30.6505 74.1512 31.1216C73.4762 31.5928 71.7215 33.4776 72.4639 34.0834C73.2063 34.6892 75.1635 36.6413 75.8385 35.9008C76.5134 35.1604 76.8508 33.2756 77.7957 33.4103C78.7406 33.5449 78.8756 33.6122 78.7406 32.9391C78.6056 32.266 77.9982 32.266 78.8081 32.064C79.618 31.8621 79.9554 32.3333 79.6855 31.6601C79.4155 30.987 79.213 30.7178 79.753 29.9773C80.2929 29.2369 80.5629 29.035 80.4954 28.2945C80.4279 27.5541 81.9802 20.8902 81.9802 20.8902C81.9802 20.8902 82.4526 15.2359 78.5381 15.7744Z" fill="black"/>
<path d="M78.8758 15.5713C78.8758 15.5713 76.1761 16.6483 76.1761 18.9369C76.1761 21.2255 76.3111 24.2546 75.8386 25.2643C75.3662 26.274 74.9612 26.6105 75.2312 27.4183C75.5012 28.226 75.9736 28.0914 75.2312 28.6972C74.4888 29.303 74.5563 28.2933 74.4888 29.303C74.4213 30.3127 75.1637 30.4473 74.4888 30.9185C73.8139 31.3897 72.0591 33.2744 72.8015 33.8803C73.5439 34.4861 75.5012 36.4381 76.1761 35.6977C76.851 34.9573 77.1885 33.0725 78.1333 33.2071C79.0782 33.3418 79.2132 33.4091 79.0782 32.736C78.9432 32.0628 78.3358 32.0628 79.1457 31.8609C79.9556 31.659 80.2931 32.1301 80.0231 31.457C79.7531 30.7839 79.5507 30.5146 80.0906 29.7742C80.6305 29.0338 80.9005 28.8318 80.833 28.0914C80.7655 27.351 82.3178 20.687 82.3178 20.687C82.3178 20.687 82.7903 15.0328 78.8758 15.5713Z" fill="#2F2E41"/>
<path d="M93.7281 76.2305H32.0332" stroke="#3F3D56" stroke-width="2" stroke-miterlimit="10"/>
<path d="M42.4296 54.4668H34.4321V55.2126H42.4296V54.4668Z" fill="#3F3D56"/>
<path d="M42.4296 56.1445H34.4321V56.8903H42.4296V56.1445Z" fill="#3F3D56"/>
<path d="M42.4296 57.8223H34.4321V58.5681H42.4296V57.8223Z" fill="#3F3D56"/>
<path d="M46.9462 76.2829C45.0178 76.2786 43.1241 75.7718 41.4526 74.8128C39.7811 73.8538 38.3898 72.4759 37.4166 70.8155L37.3589 70.7167L46.8603 65.2534V54.2988L46.9748 54.2992C49.8953 54.3068 52.6934 55.4702 54.7544 57.5338C56.8155 59.5975 57.971 62.3926 57.9672 65.3053C57.9634 68.2181 56.8006 71.0102 54.7341 73.0685C52.6677 75.1268 49.8667 76.2829 46.9462 76.2829ZM37.6724 70.7995C38.6355 72.4125 40.0049 73.7462 41.6446 74.6683C43.2843 75.5904 45.1372 76.0688 47.0195 76.0559C48.9018 76.0431 50.7481 75.5395 52.375 74.5952C54.0018 73.6509 55.3528 72.2986 56.2938 70.6726C57.2347 69.0466 57.733 67.2035 57.739 65.3261C57.745 63.4488 57.2587 61.6025 56.3282 59.9705C55.3977 58.3386 54.0555 56.9777 52.4347 56.0229C50.814 55.0682 48.971 54.5528 47.0888 54.5279V65.3851L47.0316 65.418L37.6724 70.7995Z" fill="#2F2E41"/>
<path d="M46.9463 69.4282C49.2366 69.4282 51.0933 67.5764 51.0933 65.2922C51.0933 63.008 49.2366 61.1562 46.9463 61.1562C44.656 61.1562 42.7993 63.008 42.7993 65.2922C42.7993 67.5764 44.656 69.4282 46.9463 69.4282Z" fill="#960A2C"/>
<path d="M46.9463 67.3543C48.0887 67.3543 49.0147 66.4307 49.0147 65.2914C49.0147 64.1521 48.0887 63.2285 46.9463 63.2285C45.804 63.2285 44.8779 64.1521 44.8779 65.2914C44.8779 66.4307 45.804 67.3543 46.9463 67.3543Z" fill="#2F2E41"/>
<path d="M40.5601 9.10352H37.8181V11.8382H40.5601V9.10352Z" fill="#960A2C"/>
<path d="M40.5601 19.5859H37.8181V22.3207H40.5601V19.5859Z" fill="#960A2C"/>
<path d="M40.5601 28.1328H37.8181V30.8675H40.5601V28.1328Z" fill="#960A2C"/>
<path d="M40.6744 41.2361H37.7039V38.2734H40.6744V41.2361ZM37.9324 41.0082H40.4459V38.5013H37.9324V41.0082Z" fill="#3F3D56"/>
</g>
<defs>
<clipPath id="clip0">
<rect width="100" height="76.3441" fill="white" transform="translate(0.5)"/>
</clipPath>
</defs>
</svg>
