<svg width="93" height="74" viewBox="0 0 93 74" fill="none" xmlns="http://www.w3.org/2000/svg">
<g clip-path="url(#clip0)">
<g opacity="0.5">
<path opacity="0.5" d="M66.2065 0.0102115C65.8458 0.0044016 65.3904 0.107043 65.112 0.617348C64.5666 1.62053 65.4443 2.60725 64.9918 3.67627C64.8631 3.96718 64.6604 4.21736 64.4047 4.40058C63.9673 4.72303 63.5214 4.81889 63.0792 5.01159C62.548 5.22806 62.1085 5.62924 61.838 6.14452C61.5689 6.70114 61.4775 7.3301 61.5767 7.94269C61.6638 8.4772 61.8692 8.90133 62.0387 9.35838C62.2445 9.92435 62.3933 10.5103 62.4828 11.1072C62.5334 11.3855 62.548 11.6693 62.5263 11.9515C62.4768 12.311 62.3915 12.6644 62.2716 13.006L61.2983 16.1231C61.1582 16.5292 61.0537 16.9472 60.9859 17.3722C60.9432 17.8159 60.9559 18.2633 61.0237 18.7036C61.1298 19.6158 61.2481 20.5647 61.6704 21.1351C62.0927 21.7054 62.9211 21.7422 63.5271 20.9337C64.1037 20.159 64.2523 18.9874 64.7806 18.1449C65.6129 16.8164 66.944 16.9316 67.8359 15.6873C68.688 14.4943 68.6748 12.7727 69.2097 11.3047C69.5884 10.2531 70.2512 9.36806 70.6981 8.34648C71.3428 6.87367 71.4905 5.21978 71.2662 3.91448C71.0657 2.76701 70.5707 1.69464 69.8318 0.80714C69.5553 0.464354 69.2542 0.145777 68.8708 0.0324832C68.4627 -0.0914618 68.0556 0.226147 67.6352 0.255196C67.1495 0.280373 66.696 0.0179581 66.2065 0.0102115Z" fill="#960A2C"/>
<path opacity="0.5" d="M68.4939 0.0195312C68.4939 0.0195312 66.1459 13.9294 62.2451 21.524" stroke="#535461" stroke-width="2" stroke-miterlimit="10"/>
<path opacity="0.5" d="M65.0854 0.681641C65.0854 0.681641 67.9504 3.68343 66.8541 7.83172" stroke="#535461" stroke-width="2" stroke-miterlimit="10"/>
<path opacity="0.5" d="M61.7083 6.45117C61.7083 6.45117 66.7499 8.50595 66.0834 10.8415" stroke="#535461" stroke-width="2" stroke-miterlimit="10"/>
<path opacity="0.5" d="M71.2814 3.88281C71.2814 3.88281 69.0337 4.81918 66.7046 8.44457" stroke="#535461" stroke-width="2" stroke-miterlimit="10"/>
<path opacity="0.5" d="M67.8027 15.7027C67.8027 15.7027 66.2812 16.243 65.5039 12.8945" stroke="#535461" stroke-width="2" stroke-miterlimit="10"/>
<path opacity="0.5" d="M61.4734 16.0211C61.4734 16.0211 64.4009 16.42 64.8364 15.0527" stroke="#535461" stroke-width="2" stroke-miterlimit="10"/>
</g>
<g opacity="0.5">
<path opacity="0.5" d="M10.0834 17.2266C9.88081 17.5326 9.71418 17.9771 9.97928 18.4951C10.5 19.5119 11.7877 19.3027 12.4135 20.2759C12.5807 20.5455 12.6739 20.8562 12.6833 21.1754C12.707 21.7264 12.5404 22.1602 12.4542 22.6453C12.3404 23.2174 12.4272 23.8122 12.6994 24.3254C13.0066 24.8604 13.4702 25.2834 14.0249 25.5348C14.5097 25.7536 14.9717 25.8098 15.4357 25.9163C16.0112 26.0513 16.5717 26.246 17.1086 26.4973C17.3638 26.6067 17.6038 26.75 17.8225 26.9234C18.0893 27.1628 18.3313 27.4295 18.5449 27.7193L20.5588 30.2621C20.8146 30.6049 21.0998 30.9238 21.4109 31.215C21.7503 31.4949 22.1231 31.7296 22.5205 31.9131C23.3243 32.3227 24.1651 32.742 24.8629 32.6946C25.5607 32.6471 26.0454 31.9586 25.715 30.9961C25.4026 30.0801 24.522 29.3083 24.1225 28.3943C23.4929 26.9534 24.3175 25.8766 23.7902 24.4338C23.2846 23.0472 21.8672 22.1176 20.9621 20.851C20.3126 19.9466 19.9509 18.8989 19.3611 17.9548C18.509 16.5991 17.2402 15.5621 16.0473 15.0372C14.999 14.579 13.8505 14.4139 12.7193 14.5589C12.2876 14.6073 11.8625 14.6896 11.5557 14.954C11.23 15.2348 11.2717 15.7596 11.0596 16.1324C10.8229 16.5682 10.3589 16.8122 10.0834 17.2266Z" fill="#960A2C"/>
<path opacity="0.5" d="M11.3474 15.2773C11.3474 15.2773 21.4289 24.917 25.4944 32.4224" stroke="#535461" stroke-width="2" stroke-miterlimit="10"/>
<path opacity="0.5" d="M10.0181 18.5535C10.0181 18.5535 14.0467 17.7527 16.835 20.9646" stroke="#535461" stroke-width="2" stroke-miterlimit="10"/>
<path opacity="0.5" d="M12.8813 24.6055C12.8813 24.6055 17.3313 21.4226 18.8708 23.274" stroke="#535461" stroke-width="2" stroke-miterlimit="10"/>
<path opacity="0.5" d="M16.0359 15.0195C16.0359 15.0195 15.5672 17.4558 17.2535 21.4356" stroke="#535461" stroke-width="2" stroke-miterlimit="10"/>
<path opacity="0.5" d="M23.7872 24.4707C23.7872 24.4707 23.3934 26.0684 20.2273 24.8939" stroke="#535461" stroke-width="2" stroke-miterlimit="10"/>
<path opacity="0.5" d="M20.574 30.0579C20.574 30.0579 22.5064 27.7737 21.6278 26.6523" stroke="#535461" stroke-width="2" stroke-miterlimit="10"/>
</g>
<path d="M8.18897 6.04506C7.71557 6.61734 7.27247 7.40943 7.62089 8.19086C8.2969 9.72178 10.7766 8.9752 11.6618 10.4025C11.9269 10.8295 11.9629 11.3515 11.9014 11.8172C11.7821 12.7284 11.3408 13.5021 11.036 14.3349C10.7311 15.1676 10.573 16.1747 11.0028 17.0539C11.4166 17.905 12.2886 18.4425 13.1331 18.6565C13.9777 18.8705 14.8241 18.822 15.6677 18.8501C16.6699 18.8903 17.665 19.0403 18.6359 19.2975C19.0631 19.3917 19.4729 19.5551 19.8497 19.7817C20.2805 20.0634 20.6289 20.4769 20.9697 20.8836L23.9995 24.4945C24.4019 24.9786 24.8128 25.4628 25.3117 25.8182C25.8874 26.2278 26.5426 26.436 27.1873 26.6364C28.5744 27.0702 30.0277 27.5079 31.3532 27.2106C32.6788 26.9133 33.7912 25.6177 33.4599 24.1178C33.1446 22.6895 31.7225 21.6767 31.2434 20.2774C30.486 18.0726 32.3559 16.0275 31.7944 13.7839C31.2567 11.6323 28.8726 10.5226 27.5471 8.70116C26.6003 7.39587 26.2273 5.76328 25.3998 4.37471C24.2078 2.37416 22.1286 1.04659 20.0504 0.543067C17.9722 0.0395403 15.8826 0.282588 13.9379 0.784178C13.1142 0.998177 12.2905 1.26834 11.6372 1.80285C10.9432 2.37125 10.8627 3.23306 10.3571 3.9196C9.77106 4.71943 8.82711 5.26944 8.18897 6.04506Z" fill="#960A2C"/>
<path d="M11.1382 2.4043C11.1382 2.4043 27.2024 15.3314 32.6077 26.5697" stroke="#535461" stroke-width="2" stroke-miterlimit="10"/>
<path d="M7.67188 8.27548C7.67188 8.27548 15.4706 5.692 19.7482 10.1773" stroke="#535461" stroke-width="2" stroke-miterlimit="10"/>
<path d="M11.251 17.4678C11.251 17.4678 20.54 10.7864 22.888 13.3922" stroke="#535461" stroke-width="2" stroke-miterlimit="10"/>
<path d="M20.0174 0.513672C20.0174 0.513672 18.4163 4.71521 20.3961 10.8224" stroke="#535461" stroke-width="2" stroke-miterlimit="10"/>
<path d="M31.7623 13.8574C31.7623 13.8574 30.5494 16.6394 24.9548 15.6662" stroke="#535461" stroke-width="2" stroke-miterlimit="10"/>
<path d="M24.0732 24.1618C24.0732 24.1618 28.3783 19.7579 27.0623 18.1582" stroke="#535461" stroke-width="2" stroke-miterlimit="10"/>
<path opacity="0.1" d="M46.5 74.0006C71.9051 74.0006 92.5 72.2197 92.5 70.0228C92.5 67.8259 71.9051 66.0449 46.5 66.0449C21.0949 66.0449 0.5 67.8259 0.5 70.0228C0.5 72.2197 21.0949 74.0006 46.5 74.0006Z" fill="#960A2C"/>
<path d="M82.2111 38.6585C82.0151 38.0717 81.732 37.328 81.5085 37.1528C81.4949 37.1415 81.48 37.1321 81.464 37.1247H81.4366V36.3994L80.9083 36.4856C80.8243 36.2236 80.761 35.9552 80.7189 35.6828C80.7698 35.735 80.8346 35.7705 80.9052 35.785C80.9758 35.7994 81.049 35.7922 81.1156 35.7642C81.1071 35.7497 81.0995 35.7342 81.0919 35.7187L81.1156 35.708C81.0324 35.558 80.9884 35.3886 80.9878 35.2161C80.992 35.0586 81.0165 34.9023 81.0607 34.7513C81.1554 34.4172 81.3154 34.1054 81.4044 33.7694C81.4612 33.5533 81.488 33.33 81.4839 33.1061C81.4868 32.7267 81.4025 32.3519 81.2378 32.0119C81.1961 31.9138 81.131 31.8279 81.0484 31.7621C80.974 31.7199 80.8976 31.6818 80.8193 31.6479C80.6879 31.5574 80.5748 31.442 80.486 31.308C80.1107 30.8405 79.6082 30.4974 79.0421 30.3222C78.8946 30.2659 78.7346 30.2528 78.5801 30.2845C78.2251 30.3813 78.0963 30.8316 77.8085 31.0678C77.5547 31.276 77.2063 31.2973 76.8872 31.367C76.5682 31.4368 76.2472 31.5752 76.0294 31.827C75.8794 32.0025 75.7975 32.2281 75.7994 32.4612C75.7906 32.5701 75.8094 32.6795 75.8538 32.7788C75.8982 32.8782 75.9669 32.9642 76.0531 33.0287C76.1514 33.0946 76.2627 33.1374 76.3791 33.1542C76.4955 33.1709 76.614 33.1611 76.7263 33.1255C76.6385 33.4355 76.6144 33.7606 76.6553 34.0805C76.6963 34.4005 76.8014 34.7083 76.9642 34.9847C77.127 35.2611 77.3439 35.5002 77.6013 35.6868C77.8586 35.8734 78.151 36.0036 78.4599 36.0692L78.5214 36.1825C78.7117 36.5448 78.8561 36.9304 78.9512 37.33C78.4646 37.6117 77.9334 37.8761 77.6125 37.9013C77.5995 38.0296 77.5761 38.1565 77.5424 38.2808C77.4674 38.5926 77.3232 38.8825 77.1211 39.1281C76.6846 39.6297 74.7219 43.4217 74.7219 43.4217C74.7219 43.4217 74.6604 43.5727 74.5591 43.8303C73.3405 43.9833 71.3513 44.2041 70.7965 44.0908L68.6189 41.9721C68.6189 41.9721 67.9145 42.5221 67.976 43.1902L67.5888 42.8087C67.5888 42.8087 65.5172 44.4258 68.7884 45.4852L73.7657 46.0758C73.2923 47.539 72.8492 49.2422 72.9864 50.1689H73.0272C73.1223 50.1688 73.2172 50.1614 73.3112 50.1466L73.3027 50.3113L72.8208 59.093C72.8208 59.093 72.7119 60.71 74.1841 61.4343C74.1841 61.4343 75.983 66.8424 75.2748 67.4563C75.2748 67.4563 75.3591 67.5018 75.5011 67.5648L74.0213 68.9059C74.0213 68.9059 72.9306 69.1848 72.3313 69.1286C72.2259 69.1138 72.119 69.1392 72.0308 69.2C71.9426 69.2607 71.8794 69.3525 71.8531 69.4579C71.8531 69.4695 71.8531 69.4811 71.8475 69.4927V69.5072C71.8475 69.5189 71.8475 69.5305 71.8475 69.5431C71.8475 69.5557 71.8475 69.5518 71.8475 69.5566C71.8475 69.5615 71.8475 69.577 71.8475 69.5876C71.8475 69.5983 71.8475 69.5963 71.8475 69.6002C71.8475 69.6041 71.8475 69.6244 71.8541 69.636V69.6496C71.8572 69.6625 71.8613 69.6754 71.8664 69.6883L71.8711 69.6999C71.8759 69.7125 71.8815 69.7251 71.8882 69.7377V69.7464C71.8948 69.759 71.9024 69.7706 71.9099 69.7832L71.9166 69.7939C71.9254 69.8068 71.9352 69.8197 71.9459 69.8326L71.9544 69.8423C71.9658 69.8558 71.9781 69.8684 71.9904 69.881L71.9961 69.8858L72.0368 69.9217L72.0453 69.9285C72.0605 69.941 72.0775 69.9527 72.0946 69.9643L72.1059 69.972C72.1239 69.9837 72.1429 69.9953 72.1627 70.0059H72.1713L72.2328 70.0369H72.2413L72.3133 70.066L72.3284 70.0718L72.407 70.0979H72.4203L72.5064 70.1212H72.5131L72.6077 70.1405H72.6267L72.7289 70.156H72.7488L72.8643 70.1676C73.0887 70.1851 73.3907 70.1918 73.7401 70.1899C73.7401 70.1899 73.7401 70.1986 73.7401 70.2035C73.7401 70.2083 73.7401 70.2238 73.7401 70.2344V70.247C73.7401 70.2587 73.7401 70.2712 73.7467 70.2829V70.2964C73.7499 70.3093 73.754 70.3222 73.759 70.3352L73.7638 70.3468C73.7685 70.3594 73.7742 70.3719 73.7808 70.3845V70.3932C73.7874 70.4058 73.795 70.4175 73.8026 70.43L73.8092 70.4407C73.818 70.4536 73.8278 70.4665 73.8386 70.4794L73.8471 70.4891C73.8584 70.5027 73.8708 70.5153 73.8831 70.5278L73.8887 70.5327L73.9295 70.5685L73.938 70.5753C73.9531 70.5879 73.9702 70.5995 73.9872 70.6111L73.9995 70.6189C74.0175 70.6305 74.0364 70.6421 74.0563 70.6528H74.0648L74.1264 70.6837H74.1349L74.2069 70.7128L74.222 70.7186L74.3006 70.7448H74.3139L74.4 70.768H74.4066L74.5013 70.7874H74.5203L74.6225 70.8028H74.6424L74.7579 70.8145C76.1781 70.9258 80.7 70.5918 80.7 70.5918V70.5792V70.5627C80.7445 70.3468 80.9622 69.0918 80.1897 68.1642C80.2124 68.14 80.2351 68.1138 80.2559 68.0867C80.2559 68.0867 79.6566 67.0274 79.9833 66.6923C80.3099 66.3573 78.3481 60.559 78.3481 60.559C78.3481 60.559 77.3124 58.8867 77.9117 56.9907C78.511 55.0948 77.8568 53.0322 77.8568 53.0322C77.8568 53.0322 79.2864 52.5975 79.3158 50.7974C79.3158 50.7431 79.3158 50.687 79.3158 50.6298C79.3471 50.6344 79.3788 50.6364 79.4104 50.6356C79.4306 50.6371 79.4509 50.6371 79.471 50.6356C79.471 50.6356 79.1984 49.6325 79.526 48.9072C79.8535 48.1819 80.5617 48.851 81.216 45.8967C81.6894 43.7586 82.106 41.2991 82.3001 40.1023C82.384 39.6207 82.3535 39.1255 82.2111 38.6585ZM69.7692 44.9313L69.2722 44.4471C69.4369 44.5168 69.6196 44.5856 69.8242 44.6514L71.6988 44.8741C70.8618 44.9516 70.0845 44.9952 69.7692 44.9313Z" fill="url(#paint0_linear)"/>
<path d="M74.5147 44.6496C74.5147 44.6496 70.6584 45.1977 69.8545 45.0369L67.7082 42.9492C67.7082 42.9492 65.6725 44.5382 68.8869 45.5782L74.8896 46.2957L74.5147 44.6496Z" fill="#FDC2CC"/>
<path opacity="0.05" d="M74.5147 44.6496C74.5147 44.6496 70.6584 45.1977 69.8545 45.0369L67.7082 42.9492C67.7082 42.9492 65.6725 44.5382 68.8869 45.5782L74.8896 46.2957L74.5147 44.6496Z" fill="black"/>
<path d="M75.9074 66.8867L74.0327 68.5852C74.0327 68.5852 72.9619 68.8592 72.3721 68.804C71.7822 68.7488 71.5152 69.7355 72.908 69.8449C74.3007 69.9544 78.7459 69.6261 78.7459 69.6261C78.7459 69.6261 79.1748 67.8734 77.8891 66.8867H75.9074Z" fill="#47465A"/>
<path opacity="0.05" d="M75.9074 66.8867L74.0327 68.5852C74.0327 68.5852 72.9619 68.8592 72.3721 68.804C71.7822 68.7488 71.5152 69.7355 72.908 69.8449C74.3007 69.9544 78.7459 69.6261 78.7459 69.6261C78.7459 69.6261 79.1748 67.8734 77.8891 66.8867H75.9074Z" fill="black"/>
<path opacity="0.3" d="M78.8133 68.8672C78.8101 69.0668 78.7876 69.2657 78.7461 69.4608C78.7461 69.4608 74.2961 69.789 72.9081 69.6796C72.2387 69.6273 71.9538 69.3717 71.9026 69.1267C71.842 69.4075 72.0844 69.7793 72.9081 69.8442C74.3009 69.9536 78.7461 69.6254 78.7461 69.6254C78.7982 69.3763 78.8208 69.1218 78.8133 68.8672Z" fill="white"/>
<path d="M78.1028 35.8287C78.1028 35.8287 79.2815 37.5272 78.8526 38.6775C78.4238 39.8279 81.1022 37.472 81.1022 37.472C81.1022 37.472 80.2454 35.9382 80.6733 34.2949L78.1028 35.8287Z" fill="#FDC2CC"/>
<path d="M77.782 67.5449L75.9073 69.2453C75.9073 69.2453 74.8365 69.5193 74.2467 69.4641C73.6568 69.4089 73.3889 70.3937 74.7825 70.5041C76.1762 70.6145 80.6205 70.2853 80.6205 70.2853C80.6205 70.2853 81.0494 68.5326 79.7636 67.5459L77.782 67.5449Z" fill="#47465A"/>
<path d="M78.3181 67.1604C78.0388 67.5128 77.6449 67.6445 77.2331 67.6687C76.2967 67.7142 75.2656 67.1604 75.2656 67.1604C75.9615 66.5581 74.1948 61.2439 74.1948 61.2439C72.749 60.5322 72.856 58.9432 72.856 58.9432L73.3294 50.3184L73.4478 48.1522L74.9475 47.2207L76.13 48.1484L77.251 49.0286C77.3239 49.3084 77.3708 49.5947 77.3912 49.8836C77.5209 51.8967 75.9653 52.3702 75.9653 52.3702C75.9653 52.3702 76.6082 54.3969 76.0193 56.259C75.4304 58.1211 76.4482 59.7643 76.4482 59.7643C76.4482 59.7643 78.3768 65.461 78.0577 65.7902C77.7386 66.1194 78.3181 67.1604 78.3181 67.1604Z" fill="#565171"/>
<path opacity="0.05" d="M78.3181 67.1604C78.0388 67.5128 77.6449 67.6445 77.2331 67.6687C76.2967 67.7142 75.2656 67.1604 75.2656 67.1604C75.9615 66.5581 74.1948 61.2439 74.1948 61.2439C72.749 60.5322 72.856 58.9432 72.856 58.9432L73.3294 50.3184L73.4478 48.1522L74.9475 47.2207L76.13 48.1484L77.251 49.0286C77.3239 49.3084 77.3708 49.5947 77.3912 49.8836C77.5209 51.8967 75.9653 52.3702 75.9653 52.3702C75.9653 52.3702 76.6082 54.3969 76.0193 56.259C75.4304 58.1211 76.4482 59.7643 76.4482 59.7643C76.4482 59.7643 78.3768 65.461 78.0577 65.7902C77.7386 66.1194 78.3181 67.1604 78.3181 67.1604Z" fill="black"/>
<path d="M80.1926 67.8176C79.2818 68.968 77.1402 67.8176 77.1402 67.8176C77.1838 67.7771 77.2164 67.7257 77.2348 67.6685C77.6278 66.5762 75.9093 61.3541 75.9093 61.3541C74.4636 60.6423 74.2998 58.9439 74.2998 58.9439L73.9211 50.1661L73.8718 49.0293L76.1252 48.1491L76.8173 47.8789L79.1209 49.6839C79.2206 50.0571 79.2703 50.4425 79.2686 50.8294C79.2402 52.6004 77.8389 53.0275 77.8389 53.0275C77.8389 53.0275 78.4818 55.0542 77.8929 56.9162C77.304 58.7783 78.3218 60.4216 78.3218 60.4216C78.3218 60.4216 80.2504 66.1182 79.9313 66.4474C79.6122 66.7766 80.1926 67.8176 80.1926 67.8176Z" fill="#565171"/>
<path opacity="0.1" d="M79.2687 50.8326C78.8057 50.7648 77.8684 50.1944 77.3865 49.8846C77.2028 49.7664 77.0854 49.6909 77.0854 49.6909C77.0854 49.6909 76.6035 48.3217 75.3177 49.3627C74.8996 49.7095 74.4275 49.9822 73.9212 50.1693C73.7275 50.2393 73.5278 50.2906 73.3247 50.3223L73.4431 48.1561L74.9428 47.2246L76.1253 48.1523L76.8174 47.8821L79.121 49.6851C79.2209 50.059 79.2706 50.445 79.2687 50.8326Z" fill="black"/>
<path d="M82.1677 40.3232C81.9784 41.4988 81.5675 43.9147 81.1026 46.016C80.4597 48.9209 79.7638 48.2615 79.4419 48.9742C79.12 49.6869 79.388 50.6726 79.388 50.6726C78.8521 50.7278 77.0844 49.5223 77.0844 49.5223C77.0844 49.5223 76.6025 48.1531 75.3167 49.194C74.031 50.235 73.0132 50.1798 73.0132 50.1798C72.7453 48.3719 74.7269 43.5516 74.7269 43.5516C74.7269 43.5516 76.6574 39.8265 77.0816 39.3336C77.2801 39.0921 77.4217 38.8072 77.4953 38.5009C77.5282 38.3788 77.551 38.254 77.5635 38.128C78.2594 38.0729 79.974 36.8692 79.974 36.8692L81.3128 36.6504V37.3621C81.3283 37.3693 81.343 37.3784 81.3563 37.3892C81.5769 37.5616 81.8543 38.2927 82.0465 38.8688C82.2033 39.336 82.245 39.8356 82.1677 40.3232Z" fill="#F68080"/>
<path opacity="0.1" d="M81.1024 38.0739C81.1024 38.0739 79.7097 36.9236 77.6211 40.6487C75.5325 44.3738 75.0505 43.7706 75.0505 43.7706C75.0505 43.7706 75.4794 45.4167 75.2645 45.743C75.2645 45.743 76.7103 45.6336 77.2462 45.743C77.782 45.8525 81.1024 41.5793 81.1024 41.5793C81.1024 41.5793 82.8171 39.1691 81.1024 38.0739Z" fill="black"/>
<path opacity="0.1" d="M81.0495 37.8539C81.0495 37.8539 79.6568 36.7084 77.5681 40.4287C75.4795 44.1489 74.9985 43.5515 74.9985 43.5515C74.9985 43.5515 76.6573 45.4136 77.1932 45.5201C77.7291 45.6266 81.0495 41.3563 81.0495 41.3563C81.0495 41.3563 82.7623 38.95 81.0495 37.8539Z" fill="black"/>
<path opacity="0.1" d="M75.2154 45.3881C75.2372 44.9823 75.0876 44.2687 75.0015 43.8988C75.3272 43.8552 75.5326 43.8262 75.5326 43.8262L75.9113 45.4723L75.2154 45.3881Z" fill="black"/>
<path opacity="0.1" d="M80.7275 34.4043L78.157 35.9352C78.2652 36.097 78.3651 36.2644 78.4562 36.4368C78.6045 36.4677 78.7555 36.4833 78.9068 36.4833C79.5933 36.4833 79.9133 35.7464 80.327 35.2506C80.3005 34.8555 80.613 34.8459 80.7275 34.4043Z" fill="black"/>
<path d="M78.8538 36.3769C80.0963 36.3769 81.1034 35.3468 81.1034 34.0761C81.1034 32.8055 80.0963 31.7754 78.8538 31.7754C77.6114 31.7754 76.6042 32.8055 76.6042 34.0761C76.6042 35.3468 77.6114 36.3769 78.8538 36.3769Z" fill="#FDC2CC"/>
<path opacity="0.1" d="M76.0077 32.2137C76.2347 31.9757 76.5298 31.8173 76.8503 31.7615C77.1628 31.6928 77.5055 31.6715 77.7555 31.471C78.0395 31.2396 78.1645 30.8 78.5129 30.7022C78.6645 30.671 78.8215 30.6838 78.9664 30.739C79.5232 30.9107 80.0175 31.2478 80.3866 31.7073C80.4736 31.839 80.5845 31.9524 80.7133 32.0414C80.7903 32.0747 80.8655 32.1122 80.9386 32.1537C81.0188 32.2184 81.0819 32.3027 81.1223 32.3987C81.3735 32.9174 81.4314 33.5118 81.2851 34.071C81.198 34.4012 81.0408 34.7072 80.9481 35.0393C80.8553 35.3714 80.8316 35.7404 81.002 36.0338C80.8373 36.1199 80.629 36.0115 80.5286 35.8546C80.4283 35.6978 80.3942 35.5041 80.3393 35.323C80.2321 34.9668 80.0314 34.6476 79.7589 34.4002C79.5904 34.2472 79.2855 34.1446 79.1709 34.3421C79.1255 34.4186 79.1283 34.5154 79.0895 34.5948C79.0128 34.7498 78.7913 34.7808 78.6445 34.6917C78.5031 34.5918 78.4037 34.441 78.3662 34.2695C78.1456 33.5065 77.7697 33.0262 76.9715 33.3525C76.6742 33.4745 76.3239 33.5568 76.038 33.3476C75.6612 33.0717 75.7379 32.5255 76.0077 32.2137Z" fill="black"/>
<path d="M76.0077 32.1571C76.2347 31.919 76.5298 31.7607 76.8503 31.7049C77.1628 31.6361 77.5055 31.6148 77.7555 31.4144C78.0395 31.183 78.1645 30.7434 78.5129 30.6456C78.6645 30.6144 78.8215 30.6271 78.9664 30.6823C79.5232 30.8541 80.0175 31.1911 80.3866 31.6507C80.4736 31.7824 80.5845 31.8958 80.7133 31.9847C80.7903 32.0181 80.8655 32.0556 80.9386 32.0971C81.0188 32.1618 81.0819 32.246 81.1223 32.342C81.3735 32.8607 81.4314 33.4552 81.2851 34.0143C81.198 34.3445 81.0408 34.6505 80.9481 34.9827C80.8553 35.3148 80.8316 35.6837 81.002 35.9771C80.8373 36.0633 80.629 35.9548 80.5286 35.798C80.4283 35.6411 80.3942 35.4474 80.3393 35.2664C80.2321 34.9102 80.0314 34.591 79.7589 34.3436C79.5904 34.1906 79.2855 34.0879 79.1709 34.2855C79.1255 34.362 79.1283 34.4588 79.0895 34.5382C79.0128 34.6931 78.7913 34.7241 78.6445 34.635C78.5031 34.5352 78.4037 34.3844 78.3662 34.2128C78.1456 33.4498 77.7697 32.9695 76.9715 33.2958C76.6742 33.4179 76.3239 33.5002 76.038 33.291C75.6612 33.016 75.7379 32.4708 76.0077 32.1571Z" fill="#B96B6B"/>
<path opacity="0.05" d="M81.361 37.3863H80.2722C80.2722 37.3863 78.1296 38.4815 78.0766 38.4272C78.0406 38.3904 77.7092 38.4534 77.499 38.4989C77.5319 38.3768 77.5547 38.2521 77.5672 38.1261C78.2631 38.0709 79.9777 36.8673 79.9777 36.8673L81.3165 36.6484V37.3602C81.3323 37.3669 81.3473 37.3757 81.361 37.3863Z" fill="black"/>
<path opacity="0.3" d="M80.688 69.5254C80.6849 69.725 80.6623 69.9239 80.6208 70.119C80.6208 70.119 76.1709 70.4472 74.7829 70.3378C74.1135 70.2855 73.8285 70.0299 73.7774 69.7849C73.7168 70.0657 73.9592 70.4375 74.7829 70.5024C76.1756 70.6118 80.6208 70.2836 80.6208 70.2836C80.673 70.0345 80.6955 69.78 80.688 69.5254Z" fill="white"/>
<g opacity="0.05">
<path opacity="0.05" d="M74.8092 49.1385C74.0868 49.7195 73.4477 49.9626 73.0283 50.0594C73.0283 50.1001 73.0359 50.1407 73.0416 50.1795C73.0416 50.1795 74.0594 50.2347 75.3451 49.1937C75.5442 49.0192 75.7796 48.8933 76.0334 48.8257C75.756 48.6892 75.3527 48.6979 74.8092 49.1385Z" fill="black"/>
<path opacity="0.05" d="M82.0778 38.868C81.8884 38.287 81.6044 37.5608 81.3875 37.3884C81.3742 37.3776 81.3595 37.3685 81.344 37.3613C81.344 37.3613 80.9009 37.3768 80.9151 37.3884C81.1357 37.5608 81.3497 38.2367 81.5419 38.8128C81.6968 39.2799 81.7368 39.7787 81.6583 40.2653C81.469 41.4409 81.0581 43.8568 80.5932 45.9581C79.9503 48.8631 79.2544 48.2036 78.9325 48.9163C78.6693 49.4973 78.8009 50.2661 78.8577 50.5247C79.0868 50.6215 79.2856 50.6825 79.4144 50.669C79.4144 50.669 79.1465 49.6832 79.4684 48.9705C79.7903 48.2579 80.4862 48.9153 81.1291 46.0123C81.5939 43.912 82.003 41.4951 82.1942 40.3196C82.2725 39.8333 82.2325 39.3348 82.0778 38.868Z" fill="black"/>
</g>
<path d="M27.4087 69.3227C27.4087 69.3227 26.1779 69.4098 25.411 68.0639C25.2622 67.792 25.0865 67.5367 24.8864 67.3018C24.6408 66.89 24.5132 66.4159 24.5181 65.9336C24.5607 64.9342 23.5411 59.4574 23.5411 59.4574C23.5411 59.4574 23.6689 57.3707 22.6482 56.0683C21.9769 55.2104 21.0112 52.7508 20.4289 51.1706C20.4681 51.2062 20.5153 51.2314 20.5662 51.2441L20.5426 51.1076L20.5662 51.1134L20.2689 49.4179C19.8307 48.9024 19.4614 48.3296 19.1707 47.7146L19.2388 47.7001L20.1411 47.5064C20.1411 47.5064 21.6077 45.3761 21.6976 44.3265L21.8169 44.3323H21.9855C23.8516 44.2906 26.0482 44.5501 26.0482 44.5501C26.0482 44.5434 26.0377 44.5163 26.0264 44.4736C25.9694 44.2627 25.9254 44.0483 25.8948 43.8316L25.979 43.8258L26.8141 43.7687C26.8141 43.7687 29.7037 40.4658 28.6414 39.8567C27.5791 39.2476 26.4742 42.5951 26.4742 42.5951L26.1173 42.6619L26.0226 42.6803C26.0321 42.6658 26.0415 42.6522 26.0529 42.6387C26.0643 42.6251 21.335 42.4218 20.6126 41.2482C20.6126 41.2482 18.5297 39.5526 18.4454 38.4226C18.4 37.8232 18.0326 37.5046 17.6965 37.3381C17.4394 37.2128 17.1548 37.1584 16.8709 37.1803L15.8957 37.249L15.9648 37.3749H15.9373C15.8762 37.2315 15.825 37.084 15.784 36.9333H15.8039C15.7972 36.9024 15.7906 36.8714 15.7849 36.8365C16.0838 36.7644 16.3654 36.6316 16.6132 36.4462C16.861 36.2607 17.0698 36.0262 17.2274 35.7567C17.385 35.4872 17.4881 35.1881 17.5306 34.8771C17.5732 34.566 17.5542 34.2495 17.4749 33.9461C17.5694 33.9586 17.6653 33.956 17.759 33.9383C18.1169 33.8628 18.3716 33.491 18.381 33.1172C18.381 33.093 18.381 33.0688 18.381 33.0446C18.381 33.0446 18.381 33.0349 18.381 33.03C18.3775 32.8428 18.3332 32.6587 18.2513 32.4912C18.1694 32.3237 18.052 32.1769 17.9076 32.0617C17.7126 31.8961 17.4806 31.778 17.3036 31.594C17.0934 31.3742 16.9788 31.0798 16.815 30.8194C16.5419 30.391 16.1367 30.0682 15.6637 29.9024C15.3115 29.7804 14.8807 29.7668 14.6109 30.0282C14.4717 30.1628 14.3912 30.3555 14.2322 30.4688C14.0078 30.6325 13.7029 30.5841 13.4283 30.617C12.9303 30.677 12.4929 31.0401 12.2733 31.502C12.1386 31.7937 12.0736 32.114 12.0839 32.4365C12.0809 32.6578 12.1067 32.8786 12.1606 33.093C12.2136 33.307 12.2922 33.5132 12.3499 33.7253C12.4692 34.1668 12.4967 34.6316 12.634 35.0684C12.727 35.3914 12.9123 35.6787 13.1661 35.8934L13.1254 36.0735C13.0989 36.0793 12.4371 36.2245 11.9788 37.2471C11.6171 38.0527 10.3939 38.8855 9.85609 39.2215C9.75576 39.2843 9.66867 39.3669 9.59991 39.4645C9.53114 39.562 9.48208 39.6727 9.4556 39.7899C9.40395 40.0269 9.38106 40.2695 9.38743 40.5122C9.37796 41.0361 9.48211 41.7604 9.8968 42.6793C10.8322 44.7661 11.512 45.6811 11.512 45.6811C11.512 45.6811 11.5641 46.3202 11.5669 46.9942C11.5669 47.4958 11.531 47.9954 11.4268 48.2453C11.3388 48.4563 11.3113 48.9957 11.3132 49.6106C11.3132 50.791 11.4268 52.3316 11.4268 52.3316C11.4268 52.3316 11.7516 52.3945 12.2553 52.47L12.5687 58.1047C12.608 58.787 12.394 59.4593 11.9693 59.9871C11.7487 60.264 11.4941 60.5107 11.2119 60.7211C10.3191 61.3728 8.40655 68.2411 8.40655 68.2411C8.40655 68.2411 8.50123 68.2469 8.65461 68.2595L8.06665 69.9366C8.06665 69.9366 10.4147 71.7764 11.8444 71.2738C11.9971 71.223 12.1573 71.1997 12.3178 71.2051C12.6018 71.2051 13.203 70.9775 12.8669 70.6764C12.2562 70.1303 11.5243 69.3033 11.0348 68.7281C11.081 68.751 11.1253 68.7775 11.1674 68.8075V68.794L11.1873 68.8075C11.1873 68.8075 11.192 68.7398 11.2024 68.6303L11.1816 68.6236C11.2252 68.1713 11.3615 67.0345 11.6332 66.8951C11.9731 66.7208 14.4802 61.6362 14.4802 61.6362L16.9873 55.0293C16.9873 55.0293 18.9851 58.5501 20.6846 59.1582V60.6272C20.6846 60.6272 21.62 64.974 21.9599 65.4523C22.2998 65.9307 21.9599 67.8431 21.9599 67.8431C22.0271 67.9218 22.1041 67.9912 22.189 68.0493L21.9173 69.6248C21.9173 69.6248 23.8724 69.5376 27.1872 70.5815C27.1957 70.5834 28.471 70.0199 27.4087 69.3227ZM19.5882 46.5865L19.1744 46.6921L19.093 46.7134C19.0845 46.6611 19.0788 46.6301 19.0788 46.6301C18.9841 46.6736 18.8824 46.6989 18.7787 46.7047C18.632 46.2294 18.5473 45.7365 18.5268 45.2386C18.5268 45.2386 18.2863 44.2345 18.2731 43.423C18.2778 43.1064 18.3242 42.8304 18.4416 42.6745L18.5798 42.6861L18.6745 42.783L18.6812 42.7897L18.7304 42.8353L18.7815 42.8827L18.79 42.8904L18.8459 42.9398L18.8554 42.9485L18.9122 42.9979L18.9179 43.0028L18.9813 43.056L18.9955 43.0676L19.0627 43.1228H19.0684L19.1347 43.1761L19.1498 43.1877L19.2227 43.2448L19.2379 43.2565L19.3079 43.3088L19.3202 43.3175L19.3998 43.3756L19.4187 43.3891L19.502 43.4482L19.5096 43.453L19.591 43.5082L19.6109 43.5218L19.699 43.5789L19.7179 43.5905L19.8003 43.6419L19.8154 43.6515L19.9101 43.7077L19.9328 43.7213L20.0275 43.7774H20.0351L20.1298 43.8287L20.1534 43.8413L20.2538 43.8927L20.2746 43.9023L20.3693 43.9469L20.3873 43.9556L20.4924 44.0021L20.5179 44.0127L20.6278 44.0573C19.9366 44.8116 19.5882 46.5865 19.5882 46.5865Z" fill="url(#paint1_linear)"/>
<path d="M9.10631 67.2227L8.31763 69.4721C8.31763 69.4721 10.4773 71.1657 11.8804 70.8151C12.0918 70.7614 12.3071 70.7258 12.5242 70.7086C12.8149 70.6863 13.3148 70.4704 13.0062 70.1944C12.0101 69.3036 10.6827 67.6487 10.6827 67.6487L9.10631 67.2227Z" fill="#4F4D59"/>
<path d="M22.2178 67.0087L21.8447 69.1729C21.8447 69.1729 23.7535 69.0877 26.9896 70.1064C26.9896 70.1064 28.2346 69.5545 27.197 68.8757C27.197 68.8757 25.9936 68.9609 25.2466 67.6449C24.4995 66.329 24.0432 66.4994 24.0432 66.4994L22.2178 67.0087Z" fill="#4F4D59"/>
<path d="M12.3424 51.3084L12.7078 57.893C12.747 58.5947 12.5194 59.2848 12.0725 59.8189C11.8705 60.0642 11.6404 60.2836 11.3871 60.4726C10.516 61.1087 8.64893 67.8134 8.64893 67.8134C8.64893 67.8134 10.765 67.9402 11.3454 68.3653C11.3454 68.3653 11.4694 66.6679 11.8018 66.4984C12.1341 66.329 14.5815 61.3663 14.5815 61.3663L17.0309 54.9125C17.0309 54.9125 18.9813 58.35 20.641 58.9436V60.3864C20.641 60.3864 21.5537 64.6296 21.8861 65.0963C22.2184 65.563 21.8861 67.4299 21.8861 67.4299C21.8861 67.4299 22.8404 68.6607 25.0389 67.3447C25.0389 67.3447 24.3335 66.5381 24.3761 65.562C24.4187 64.586 23.4218 59.2399 23.4218 59.2399C23.4218 59.2399 23.5458 57.2064 22.5507 55.9302C21.5556 54.6539 19.8949 49.7804 19.8949 49.7804L18.7531 47.2676L12.3424 51.3084Z" fill="#787C9C"/>
<g opacity="0.1">
<path opacity="0.1" d="M9.044 67.8163C9.044 67.8163 10.9111 61.1117 11.7821 60.4755C12.0499 60.2752 12.292 60.0413 12.5026 59.7793C12.9289 59.2524 13.1431 58.5794 13.102 57.8968L12.7365 51.3123L18.8537 47.4525L18.7704 47.2695L12.3616 51.3094L12.727 57.8939C12.7697 58.5766 12.5568 59.2503 12.1315 59.7783C11.9208 60.0404 11.6788 60.2743 11.411 60.4745C10.5399 61.1107 8.67285 67.8153 8.67285 67.8153C8.67285 67.8153 10.7889 67.9422 11.3693 68.3673C11.3693 68.3673 11.3741 68.3014 11.3845 68.194C10.5664 67.9083 9.044 67.8163 9.044 67.8163Z" fill="black"/>
<path opacity="0.1" d="M22.2801 67.4354C22.2801 67.4354 22.6124 65.5685 22.2801 65.1018C21.9477 64.635 21.0312 60.3909 21.0312 60.3909V58.9481C19.3753 58.3545 17.4249 54.9141 17.4249 54.9141L17.28 55.3014C17.8424 56.2135 19.3431 58.4784 20.661 58.95V60.3928C20.661 60.3928 21.5737 64.636 21.9061 65.1027C22.2384 65.5694 21.9061 67.4364 21.9061 67.4364C21.9061 67.4364 22.369 68.0319 23.3916 67.9515C22.6294 67.8895 22.2801 67.4354 22.2801 67.4354Z" fill="black"/>
</g>
<path d="M26.6171 43.9253L25.8019 43.9805L25.3721 44.0095V42.9444L25.9401 42.8398L26.2895 42.7749C26.2895 42.7749 27.3679 39.5078 28.4056 40.1014C29.4433 40.695 26.6171 43.9253 26.6171 43.9253Z" fill="#714B4F"/>
<path d="M13.5458 35.1855C13.5458 35.1855 13.0061 37.3071 12.8404 38.6231C12.6747 39.939 16.6986 38.8778 16.6986 38.8778C16.6986 38.8778 15.1639 36.9682 16.0359 35.9495L13.5458 35.1855Z" fill="#714B4F"/>
<path d="M17.9068 44.0118L17.9901 44.8185L16.7044 44.7332L15.4129 43.5848L14.1272 39.8955L13.2978 38.5805L12.6748 37.7749L12.9238 36.7988C12.9238 36.7988 13.0374 36.8957 13.2296 37.0506C13.8611 37.5454 15.3438 38.5728 16.4269 38.2891C16.4771 38.2763 16.5264 38.2604 16.5746 38.2416L18.1908 41.0836L17.9068 44.0118Z" fill="#E6E6F0"/>
<path opacity="0.1" d="M13.255 36.543C13.255 36.543 12.5923 36.6698 12.135 37.6885C11.7837 38.4719 10.5993 39.2794 10.07 39.6116C9.9691 39.6747 9.88159 39.7579 9.81264 39.8562C9.74369 39.9544 9.6947 40.0659 9.66856 40.1839C9.56158 40.668 9.52086 41.5686 10.1022 42.8661C11.0149 44.8996 11.6786 45.7943 11.6786 45.7943C11.6786 45.7943 11.8443 47.8278 11.5953 48.4252C11.3463 49.0227 11.5953 52.2869 11.5953 52.2869C11.5953 52.2869 15.9505 53.1351 17.4039 52.2869C18.8572 51.4386 18.6489 48.1706 18.6489 48.1706C18.6489 48.1706 20.018 51.1375 20.516 51.2256L20.2253 49.5708C20.2253 49.5708 18.6072 47.7881 18.5211 45.497C18.5211 45.497 18.0231 43.418 18.4378 42.8661C18.4378 42.8661 25.4497 43.4607 25.8644 42.9513C25.8644 42.9513 21.2592 42.7393 20.5539 41.5957C20.5539 41.5957 18.5211 39.9408 18.4378 38.8379C18.4256 38.631 18.3621 38.4307 18.2533 38.2558C18.1445 38.081 17.9939 37.9374 17.8157 37.8386C17.5335 37.6745 17.2096 37.6006 16.886 37.6265L15.9487 37.6924C15.9487 37.6924 17.5667 40.6206 17.4834 41.0021C17.4001 41.3836 17.5667 44.4813 17.5667 44.4813C17.5667 44.4813 15.7034 40.362 14.8769 39.8953C14.0503 39.4286 13.0931 37.5123 13.0931 37.5123L13.2588 36.5439" fill="black"/>
<path opacity="0.1" d="M17.9068 44.0118L17.9901 44.8185L16.7044 44.7332L15.4129 43.5848L14.1272 39.8955L13.2978 38.5805L12.6748 37.7749L12.9238 36.7988C12.9238 36.7988 13.0374 36.8957 13.2296 37.0506L13.1728 37.3876C13.1728 37.3876 14.1272 39.3039 14.9566 39.7706C15.786 40.2373 17.653 44.3537 17.653 44.3537C17.653 44.3537 17.4874 41.255 17.5697 40.8745C17.6265 40.615 16.8994 39.1848 16.4269 38.291C16.4771 38.2782 16.5264 38.2624 16.5746 38.2436L18.1908 41.0836L17.9068 44.0118Z" fill="black"/>
<path opacity="0.1" d="M25.8002 43.9825L25.3704 44.0115V42.9464L25.9384 42.8418C25.7387 43.112 25.7453 43.5845 25.8002 43.9825Z" fill="black"/>
<path d="M13.255 36.418C13.255 36.418 12.5923 36.5448 12.135 37.5635C11.7837 38.3469 10.5993 39.1544 10.07 39.4866C9.9691 39.5497 9.88159 39.6329 9.81264 39.7312C9.74369 39.8294 9.6947 39.9409 9.66856 40.0589C9.56158 40.543 9.52086 41.4436 10.1022 42.7411C11.0149 44.7746 11.6786 45.6693 11.6786 45.6693C11.6786 45.6693 11.8443 47.7028 11.5953 48.3002C11.3463 48.8977 11.5953 52.1619 11.5953 52.1619C11.5953 52.1619 15.9505 53.0102 17.4039 52.1619C18.8572 51.3137 18.6489 48.0378 18.6489 48.0378C18.6489 48.0378 20.018 51.0086 20.516 51.0929L20.2253 49.438C20.2253 49.438 18.6072 47.6553 18.5211 45.3643C18.5211 45.3643 18.0231 43.2853 18.4378 42.7334C18.4378 42.7334 20.0558 44.516 21.8813 44.4763C23.7067 44.4366 25.8644 44.6884 25.8644 44.6884C25.8644 44.6884 25.4497 43.3327 25.8644 42.8215C25.8644 42.8215 21.2592 42.6094 20.5539 41.4658C20.5539 41.4658 18.5211 39.811 18.4378 38.708C18.4256 38.5012 18.3621 38.3008 18.2533 38.126C18.1445 37.9512 17.9939 37.8076 17.8157 37.7087C17.5335 37.5446 17.2096 37.4708 16.886 37.4967L15.9487 37.5625C15.9487 37.5625 17.5705 40.4849 17.4872 40.8722C17.4039 41.2596 17.5705 44.3514 17.5705 44.3514C17.5705 44.3514 15.7034 40.2341 14.8769 39.7674C14.0503 39.3007 13.0893 37.3863 13.0893 37.3863L13.255 36.418Z" fill="#787C9C"/>
<path opacity="0.1" d="M12.3427 40.873C12.3427 40.873 13.3387 44.3106 13.9191 44.7347C14.4995 45.1588 18.0263 47.323 19.0639 46.8137C19.0639 46.8137 19.313 48.087 18.9399 48.3833C18.9399 48.3833 15.0713 48.2284 15.0401 48.2139C15.0401 48.2139 12.5093 47.874 12.0946 46.6016C11.6799 45.3293 11.1819 43.1641 11.1819 43.1641L12.3427 40.873Z" fill="black"/>
<path d="M17.6541 44.7542C17.7341 44.7542 17.799 44.6593 17.799 44.5421C17.799 44.425 17.7341 44.3301 17.6541 44.3301C17.5741 44.3301 17.5093 44.425 17.5093 44.5421C17.5093 44.6593 17.5741 44.7542 17.6541 44.7542Z" fill="#BA7855"/>
<path d="M18.0687 46.2386C18.1487 46.2386 18.2136 46.1436 18.2136 46.0265C18.2136 45.9094 18.1487 45.8145 18.0687 45.8145C17.9887 45.8145 17.9238 45.9094 17.9238 46.0265C17.9238 46.1436 17.9887 46.2386 18.0687 46.2386Z" fill="#BA7855"/>
<g opacity="0.1">
<path opacity="0.1" d="M11.8862 52.1153C11.8862 52.1153 11.6372 48.8482 11.8862 48.2537C12.1352 47.6591 11.9695 45.6228 11.9695 45.6228C11.9695 45.6228 11.3068 44.7319 10.3931 42.6946C9.8118 41.397 9.85346 40.4965 9.9595 40.0123C9.98575 39.8942 10.0349 39.7828 10.104 39.6845C10.1731 39.5862 10.2608 39.5031 10.3619 39.44C10.8911 39.1079 12.0756 38.3003 12.4259 37.5169C12.6834 36.9427 13.0063 36.6513 13.2401 36.507L13.2562 36.4102C13.2562 36.4102 12.5935 36.537 12.1362 37.5557C11.7849 38.339 10.6005 39.1466 10.0722 39.4788C9.97109 39.5418 9.8834 39.6249 9.81429 39.7232C9.74517 39.8215 9.69603 39.933 9.66978 40.051C9.5628 40.5352 9.52208 41.4357 10.1034 42.7333C11.0161 44.7668 11.6798 45.6615 11.6798 45.6615C11.6798 45.6615 11.8455 47.695 11.5965 48.2924C11.3475 48.8899 11.5965 52.1541 11.5965 52.1541C11.5965 52.1541 14.7086 52.7602 16.5492 52.4358C14.6878 52.6615 11.8862 52.1153 11.8862 52.1153Z" fill="black"/>
<path opacity="0.1" d="M17.4876 40.872C17.4308 41.1335 17.4876 42.6711 17.534 43.6123C17.7347 44.0316 17.8606 44.3086 17.8606 44.3086C17.8606 44.3086 17.695 41.2099 17.7773 40.8294C17.8559 40.4663 16.3988 37.8034 16.2539 37.5371L15.9519 37.5584C15.9519 37.5584 17.5709 40.4847 17.4876 40.872Z" fill="black"/>
<path opacity="0.1" d="M22.176 44.4344C20.3506 44.477 18.7325 42.6914 18.7325 42.6914C18.6836 42.7608 18.6479 42.839 18.6274 42.9219C19.1008 43.3779 20.4264 44.508 21.8854 44.4712C23.7108 44.4286 25.8685 44.6832 25.8685 44.6832C25.8685 44.6832 25.86 44.6552 25.8467 44.6067C24.6272 44.4797 23.4018 44.4221 22.176 44.4344Z" fill="black"/>
<path opacity="0.1" d="M18.9399 47.998C18.9399 47.998 18.957 48.2634 18.9475 48.6613C19.3793 49.5328 20.1651 51.0357 20.5164 51.0957L20.4548 50.7471C19.8489 49.9734 18.9399 47.998 18.9399 47.998Z" fill="black"/>
</g>
<path d="M20.1016 47.5756L19.2201 47.7692L18.5251 47.9193L18.8982 46.8542L19.1576 46.7874L19.5619 46.6847C19.5619 46.6847 20.1432 43.7139 21.3049 43.9269C22.4667 44.14 20.1016 47.5756 20.1016 47.5756Z" fill="#714B4F"/>
<path opacity="0.1" d="M19.2201 47.7651L18.5251 47.9152L18.8982 46.85L19.1576 46.7832C19.2156 47.1069 19.2366 47.4364 19.2201 47.7651Z" fill="black"/>
<path d="M12.3427 40.7852C12.3427 40.7852 13.3387 44.2227 13.9191 44.6468C14.4995 45.0709 18.0263 47.2351 19.0639 46.7258C19.0639 46.7258 19.313 47.9991 18.9399 48.2954C18.9399 48.2954 15.0713 48.1405 15.0401 48.126C15.0401 48.126 12.5093 47.7861 12.0946 46.5137C11.6799 45.2414 11.1819 43.0762 11.1819 43.0762L12.3427 40.7852Z" fill="#787C9C"/>
<path opacity="0.1" d="M13.5878 35.2695C13.5878 35.2695 13.5035 35.6017 13.3909 36.0849C13.6211 36.5295 13.988 36.8842 14.435 37.0942C14.882 37.3042 15.3841 37.3579 15.8639 37.2468C15.7645 36.8111 15.7863 36.3753 16.0779 36.0297L13.5878 35.2695Z" fill="black"/>
<path d="M15.3307 37.2208C16.5679 37.2208 17.5708 36.195 17.5708 34.9297C17.5708 33.6644 16.5679 32.6387 15.3307 32.6387C14.0935 32.6387 13.0906 33.6644 13.0906 34.9297C13.0906 36.195 14.0935 37.2208 15.3307 37.2208Z" fill="#714B4F"/>
<path opacity="0.1" d="M17.2754 34.2996C17.4381 34.3457 17.6084 34.3563 17.7753 34.3305C18.1247 34.2569 18.3737 33.8938 18.3822 33.5288C18.3787 33.3459 18.3355 33.1661 18.2555 33.0025C18.1756 32.8388 18.0611 32.6954 17.9202 32.5827C17.7308 32.421 17.5036 32.3058 17.3303 32.1257C17.1249 31.9117 17.0132 31.6231 16.857 31.3714C16.5893 30.9527 16.1923 30.6377 15.7293 30.4766C15.3856 30.3575 14.9653 30.344 14.7011 30.5996C14.5657 30.7303 14.4862 30.9192 14.3347 31.0295C14.115 31.1893 13.8177 31.1419 13.5498 31.1738C13.3069 31.212 13.077 31.3108 12.8803 31.4614C12.6837 31.6121 12.5263 31.8099 12.4222 32.0376C12.2187 32.4987 12.1798 33.0181 12.3123 33.5055C12.3644 33.7137 12.4402 33.9161 12.496 34.1233C12.6125 34.5552 12.6399 35.0084 12.7744 35.4344C12.9088 35.8605 13.1862 36.2769 13.6057 36.4027C13.5725 35.9251 13.6647 35.4471 13.8727 35.018C13.9071 34.9246 13.9747 34.8478 14.062 34.8031C14.1369 34.7834 14.2153 34.7834 14.2902 34.8031C14.8155 34.8827 15.3515 34.7717 15.8051 34.4893C15.9641 34.3925 16.2122 34.0526 16.3826 34.0187C16.6004 33.979 17.0482 34.2473 17.2754 34.2996Z" fill="black"/>
<path d="M17.2753 34.2136C17.4379 34.2598 17.6083 34.2704 17.7752 34.2446C18.1245 34.171 18.3736 33.8079 18.3821 33.4428C18.3786 33.26 18.3353 33.0802 18.2554 32.9165C18.1755 32.7529 18.0609 32.6095 17.92 32.4968C17.7307 32.3351 17.5035 32.2199 17.3302 32.0397C17.1247 31.8257 17.013 31.5372 16.8568 31.2854C16.5891 30.8668 16.1922 30.5518 15.7292 30.3907C15.3855 30.2716 14.9651 30.258 14.7009 30.5137C14.5655 30.6444 14.486 30.8332 14.3345 30.9436C14.1149 31.1034 13.8176 31.0559 13.5496 31.0879C13.3068 31.1261 13.0768 31.2248 12.8802 31.3755C12.6835 31.5261 12.5261 31.724 12.422 31.9516C12.2194 32.4116 12.1806 32.9295 12.3122 33.4157C12.3643 33.6239 12.44 33.8263 12.4959 34.0335C12.6123 34.4654 12.6398 34.9186 12.7742 35.3446C12.9087 35.7707 13.1861 36.1871 13.6055 36.313C13.5723 35.8353 13.6645 35.3573 13.8725 34.9282C13.9069 34.8348 13.9745 34.758 14.0619 34.7133C14.1367 34.6936 14.2152 34.6936 14.29 34.7133C14.8153 34.793 15.3513 34.6819 15.8049 34.3995C15.964 34.3027 16.212 33.9628 16.3824 33.9289C16.6002 33.8931 17.048 34.1623 17.2753 34.2136Z" fill="#503F43"/>
<path d="M70.8543 10.4414H21.9287V70.2836H70.8543V10.4414Z" fill="#FAFBFC"/>
<path d="M70.8543 10.4414H21.9287V12.47H70.8543V10.4414Z" fill="#7983A6"/>
<path d="M28.5403 34.8281H64.2429" stroke="#7983A6" stroke-miterlimit="10"/>
<g opacity="0.5">
<path opacity="0.5" d="M28.5403 30.8555H29.1084" stroke="#7983A6" stroke-miterlimit="10"/>
<path opacity="0.5" d="M30.2236 30.8555H63.1172" stroke="#7983A6" stroke-miterlimit="10" stroke-dasharray="11.78 11.78"/>
<path opacity="0.5" d="M63.6748 30.8555H64.2429" stroke="#7983A6" stroke-miterlimit="10"/>
</g>
<g opacity="0.5">
<path opacity="0.5" d="M28.5403 26.8828H29.1084" stroke="#7983A6" stroke-miterlimit="10"/>
<path opacity="0.5" d="M30.2236 26.8828H63.1172" stroke="#7983A6" stroke-miterlimit="10" stroke-dasharray="11.78 11.78"/>
<path opacity="0.5" d="M63.6748 26.8828H64.2429" stroke="#7983A6" stroke-miterlimit="10"/>
</g>
<g opacity="0.5">
<path opacity="0.5" d="M28.5403 22.9102H29.1084" stroke="#7983A6" stroke-miterlimit="10"/>
<path opacity="0.5" d="M30.2236 22.9102H63.1172" stroke="#7983A6" stroke-miterlimit="10" stroke-dasharray="11.78 11.78"/>
<path opacity="0.5" d="M63.6748 22.9102H64.2429" stroke="#7983A6" stroke-miterlimit="10"/>
</g>
<g opacity="0.5">
<path opacity="0.5" d="M28.5403 18.9375H29.1084" stroke="#7983A6" stroke-miterlimit="10"/>
<path opacity="0.5" d="M30.2236 18.9375H63.1172" stroke="#7983A6" stroke-miterlimit="10" stroke-dasharray="11.78 11.78"/>
<path opacity="0.5" d="M63.6748 18.9375H64.2429" stroke="#7983A6" stroke-miterlimit="10"/>
</g>
<g opacity="0.3">
<path opacity="0.3" d="M32.8794 26.8828H30.3174V34.8279H32.8794V26.8828Z" fill="#960A2C"/>
</g>
<path d="M40.0276 22.8672H37.4656V34.8695H40.0276V22.8672Z" fill="#960A2C"/>
<g opacity="0.3">
<path opacity="0.3" d="M47.1768 30.8125H44.6147V34.9114H47.1768V30.8125Z" fill="#960A2C"/>
</g>
<path d="M54.3252 18.8105H51.7632V34.8701H54.3252V18.8105Z" fill="#960A2C"/>
<g opacity="0.3">
<path opacity="0.3" d="M61.4736 22.6992H58.9116V34.8284H61.4736V22.6992Z" fill="#960A2C"/>
</g>
<path d="M31.5984 37.3205C31.9633 37.3205 32.2592 37.0179 32.2592 36.6446C32.2592 36.2714 31.9633 35.9688 31.5984 35.9688C31.2334 35.9688 30.9375 36.2714 30.9375 36.6446C30.9375 37.0179 31.2334 37.3205 31.5984 37.3205Z" fill="#960A2C"/>
<path d="M38.7885 37.3205C39.1535 37.3205 39.4494 37.0179 39.4494 36.6446C39.4494 36.2714 39.1535 35.9688 38.7885 35.9688C38.4236 35.9688 38.1277 36.2714 38.1277 36.6446C38.1277 37.0179 38.4236 37.3205 38.7885 37.3205Z" fill="#960A2C"/>
<path d="M45.9782 37.3205C46.3432 37.3205 46.6391 37.0179 46.6391 36.6446C46.6391 36.2714 46.3432 35.9688 45.9782 35.9688C45.6133 35.9688 45.3174 36.2714 45.3174 36.6446C45.3174 37.0179 45.6133 37.3205 45.9782 37.3205Z" fill="#960A2C"/>
<path d="M53.1685 37.3205C53.5334 37.3205 53.8293 37.0179 53.8293 36.6446C53.8293 36.2714 53.5334 35.9688 53.1685 35.9688C52.8035 35.9688 52.5076 36.2714 52.5076 36.6446C52.5076 37.0179 52.8035 37.3205 53.1685 37.3205Z" fill="#960A2C"/>
<path d="M60.3581 37.3205C60.7231 37.3205 61.019 37.0179 61.019 36.6446C61.019 36.2714 60.7231 35.9688 60.3581 35.9688C59.9931 35.9688 59.6973 36.2714 59.6973 36.6446C59.6973 37.0179 59.9931 37.3205 60.3581 37.3205Z" fill="#960A2C"/>
<path d="M28.5403 60.3535H64.2429" stroke="#7983A6" stroke-miterlimit="10"/>
<g opacity="0.5">
<path opacity="0.5" d="M28.5403 56.3809H29.1084" stroke="#7983A6" stroke-miterlimit="10"/>
<path opacity="0.5" d="M30.2236 56.3809H63.1172" stroke="#7983A6" stroke-miterlimit="10" stroke-dasharray="11.78 11.78"/>
<path opacity="0.5" d="M63.6748 56.3809H64.2429" stroke="#7983A6" stroke-miterlimit="10"/>
</g>
<g opacity="0.5">
<path opacity="0.5" d="M28.5403 52.4082H29.1084" stroke="#7983A6" stroke-miterlimit="10"/>
<path opacity="0.5" d="M30.2236 52.4082H63.1172" stroke="#7983A6" stroke-miterlimit="10" stroke-dasharray="11.78 11.78"/>
<path opacity="0.5" d="M63.6748 52.4082H64.2429" stroke="#7983A6" stroke-miterlimit="10"/>
</g>
<g opacity="0.5">
<path opacity="0.5" d="M28.5403 48.4355H29.1084" stroke="#7983A6" stroke-miterlimit="10"/>
<path opacity="0.5" d="M30.2236 48.4355H63.1172" stroke="#7983A6" stroke-miterlimit="10" stroke-dasharray="11.78 11.78"/>
<path opacity="0.5" d="M63.6748 48.4355H64.2429" stroke="#7983A6" stroke-miterlimit="10"/>
</g>
<g opacity="0.5">
<path opacity="0.5" d="M28.5403 44.4629H29.1084" stroke="#7983A6" stroke-miterlimit="10"/>
<path opacity="0.5" d="M30.2236 44.4629H63.1172" stroke="#7983A6" stroke-miterlimit="10" stroke-dasharray="11.78 11.78"/>
<path opacity="0.5" d="M63.6748 44.4629H64.2429" stroke="#7983A6" stroke-miterlimit="10"/>
</g>
<path d="M32.8794 52.4082H30.3174V60.3533H32.8794V52.4082Z" fill="#960A2C"/>
<path d="M40.0276 52.3652H37.4656V60.3945H40.0276V52.3652Z" fill="#960A2C"/>
<path d="M47.1768 56.3379H44.6147V60.4368H47.1768V56.3379Z" fill="#960A2C"/>
<path d="M54.3252 44.3359H51.7632V60.3955H54.3252V44.3359Z" fill="#960A2C"/>
<path d="M71.2256 34.8613H68.6636V46.9905H71.2256V34.8613Z" fill="#960A2C"/>
<g opacity="0.7">
<path opacity="0.7" d="M31.5984 62.8459C31.9633 62.8459 32.2592 62.5433 32.2592 62.17C32.2592 61.7967 31.9633 61.4941 31.5984 61.4941C31.2334 61.4941 30.9375 61.7967 30.9375 62.17C30.9375 62.5433 31.2334 62.8459 31.5984 62.8459Z" fill="#960A2C"/>
</g>
<g opacity="0.7">
<path opacity="0.7" d="M38.7885 62.8459C39.1535 62.8459 39.4494 62.5433 39.4494 62.17C39.4494 61.7967 39.1535 61.4941 38.7885 61.4941C38.4236 61.4941 38.1277 61.7967 38.1277 62.17C38.1277 62.5433 38.4236 62.8459 38.7885 62.8459Z" fill="#960A2C"/>
</g>
<g opacity="0.7">
<path opacity="0.7" d="M45.9782 62.8459C46.3432 62.8459 46.6391 62.5433 46.6391 62.17C46.6391 61.7967 46.3432 61.4941 45.9782 61.4941C45.6133 61.4941 45.3174 61.7967 45.3174 62.17C45.3174 62.5433 45.6133 62.8459 45.9782 62.8459Z" fill="#960A2C"/>
</g>
<g opacity="0.7">
<path opacity="0.7" d="M53.1685 62.8459C53.5334 62.8459 53.8293 62.5433 53.8293 62.17C53.8293 61.7967 53.5334 61.4941 53.1685 61.4941C52.8035 61.4941 52.5076 61.7967 52.5076 62.17C52.5076 62.5433 52.8035 62.8459 53.1685 62.8459Z" fill="#960A2C"/>
</g>
<g opacity="0.7">
<path opacity="0.7" d="M60.3581 62.8459C60.7231 62.8459 61.019 62.5433 61.019 62.17C61.019 61.7967 60.7231 61.4941 60.3581 61.4941C59.9931 61.4941 59.6973 61.7967 59.6973 62.17C59.6973 62.5433 59.9931 62.8459 60.3581 62.8459Z" fill="#960A2C"/>
</g>
<path d="M18.3045 70.0648C18.478 69.9201 18.6044 69.725 18.6671 69.5051C18.7144 69.2824 18.6216 69.0161 18.4133 68.9348C18.1804 68.8438 17.9314 69.0084 17.743 69.1759C17.5546 69.3434 17.3378 69.5332 17.0907 69.4974C17.2177 69.3796 17.3127 69.2302 17.3665 69.0638C17.4202 68.8973 17.4309 68.7194 17.3974 68.5475C17.3867 68.4762 17.3573 68.4092 17.3122 68.3538C17.1825 68.2124 16.9486 68.2734 16.7934 68.3848C16.301 68.7392 16.1638 69.4228 16.1609 70.0387C16.1117 69.8169 16.1533 69.5855 16.1514 69.3608C16.1496 69.1362 16.089 68.8767 15.9015 68.7586C15.7852 68.6947 15.6547 68.663 15.5228 68.6666C15.3012 68.6578 15.0551 68.6811 14.9036 68.8467C14.7142 69.052 14.7644 69.3976 14.9282 69.6213C15.092 69.845 15.34 69.9893 15.5692 70.1461C15.7528 70.2578 15.9094 70.4104 16.0274 70.5925C16.0413 70.6178 16.0527 70.6444 16.0615 70.6719H17.4486C17.7593 70.51 18.0472 70.3057 18.3045 70.0648Z" fill="#960A2C"/>
<path d="M85.7161 68.9047C85.8896 68.76 86.0161 68.5648 86.0787 68.345C86.1261 68.1223 86.0333 67.856 85.825 67.7746C85.5921 67.6836 85.3431 67.8482 85.1546 68.0157C84.9662 68.1833 84.7494 68.373 84.5023 68.3372C84.6293 68.2195 84.7243 68.0701 84.7781 67.9036C84.8318 67.7371 84.8425 67.5593 84.8091 67.3873C84.7984 67.316 84.7689 67.2491 84.7238 67.1936C84.5941 67.0523 84.3603 67.1133 84.205 67.2246C83.7127 67.579 83.5754 68.2627 83.5725 68.8785C83.5233 68.6568 83.565 68.4253 83.5631 68.2007C83.5612 67.976 83.5006 67.7165 83.3131 67.5984C83.1969 67.5345 83.0663 67.5028 82.9344 67.5064C82.7129 67.4977 82.4667 67.5209 82.3152 67.6865C82.1258 67.8918 82.176 68.2375 82.3398 68.4612C82.5036 68.6848 82.7517 68.8291 82.9808 68.986C83.1644 69.0976 83.3211 69.2502 83.439 69.4324C83.4529 69.4576 83.4643 69.4842 83.4731 69.5118H84.8602C85.171 69.3498 85.4589 69.1456 85.7161 68.9047Z" fill="#960A2C"/>
<path d="M75.9074 45.4677L75.2153 45.3854L69.9132 44.755C66.6951 43.715 68.7307 42.1309 68.7307 42.1309L70.8733 44.2127C71.4915 44.3396 73.9153 44.0443 75.0013 43.9019C75.327 43.8583 75.5325 43.8293 75.5325 43.8293L75.9074 45.4677Z" fill="#FDC2CC"/>
<path d="M81.1024 37.9685C81.1024 37.9685 79.7097 36.8181 77.6211 40.5432C75.5325 44.2684 75.0505 43.6651 75.0505 43.6651C75.0505 43.6651 75.4794 45.3113 75.2645 45.6376C75.2645 45.6376 76.7103 45.5282 77.2462 45.6376C77.782 45.747 81.1024 41.4738 81.1024 41.4738C81.1024 41.4738 82.8171 39.0607 81.1024 37.9685Z" fill="#F68080"/>
</g>
<defs>
<linearGradient id="paint0_linear" x1="74.6556" y1="70.8813" x2="74.6556" y2="30.267" gradientUnits="userSpaceOnUse">
<stop stop-color="#808080" stop-opacity="0.25"/>
<stop offset="0.54" stop-color="#808080" stop-opacity="0.12"/>
<stop offset="1" stop-color="#808080" stop-opacity="0.1"/>
</linearGradient>
<linearGradient id="paint1_linear" x1="6333.71" y1="33462.8" x2="6333.71" y2="15642.7" gradientUnits="userSpaceOnUse">
<stop stop-color="#808080" stop-opacity="0.25"/>
<stop offset="0.54" stop-color="#808080" stop-opacity="0.12"/>
<stop offset="1" stop-color="#808080" stop-opacity="0.1"/>
</linearGradient>
<clipPath id="clip0">
<rect width="92" height="74" fill="white" transform="translate(0.5)"/>
</clipPath>
</defs>
</svg>
