<svg width="63" height="58" viewBox="0 0 63 58" fill="none" xmlns="http://www.w3.org/2000/svg">
<path d="M0.761905 52.5714C1.18269 52.5714 1.52381 52.2303 1.52381 51.8095C1.52381 51.3887 1.18269 51.0476 0.761905 51.0476C0.341116 51.0476 0 51.3887 0 51.8095C0 52.2303 0.341116 52.5714 0.761905 52.5714Z" fill="#2D4356"/>
<path d="M4.19041 51.0476H3.04755C2.84548 51.0476 2.65169 51.1279 2.5088 51.2708C2.36592 51.4136 2.28564 51.6074 2.28564 51.8095C2.28564 52.0116 2.36592 52.2054 2.5088 52.3483C2.65169 52.4911 2.84548 52.5714 3.04755 52.5714H4.19041C4.39248 52.5714 4.58627 52.4911 4.72915 52.3483C4.87204 52.2054 4.95231 52.0116 4.95231 51.8095C4.95231 51.6074 4.87204 51.4136 4.72915 51.2708C4.58627 51.1279 4.39248 51.0476 4.19041 51.0476Z" fill="#2D4356"/>
<path d="M60.9524 51.0476H59.8095C59.6074 51.0476 59.4136 51.1279 59.2708 51.2708C59.1279 51.4136 59.0476 51.6074 59.0476 51.8095C59.0476 52.0116 59.1279 52.2054 59.2708 52.3483C59.4136 52.4911 59.6074 52.5714 59.8095 52.5714H60.9524C61.1544 52.5714 61.3482 52.4911 61.4911 52.3483C61.634 52.2054 61.7143 52.0116 61.7143 51.8095C61.7143 51.6074 61.634 51.4136 61.4911 51.2708C61.3482 51.1279 61.1544 51.0476 60.9524 51.0476Z" fill="#2D4356"/>
<path d="M45.011 54.0953H41.8461C41.6546 54.1106 41.4759 54.1975 41.3455 54.3387C41.2152 54.4799 41.1428 54.665 41.1428 54.8572C41.1428 55.0493 41.2152 55.2344 41.3455 55.3756C41.4759 55.5168 41.6546 55.6037 41.8461 55.6191H45.011C45.2025 55.6037 45.3812 55.5168 45.5116 55.3756C45.6419 55.2344 45.7143 55.0493 45.7143 54.8572C45.7143 54.665 45.6419 54.4799 45.5116 54.3387C45.3812 54.1975 45.2025 54.1106 45.011 54.0953Z" fill="#2D4356"/>
<path d="M22.1538 54.0953H18.9889C18.7974 54.1106 18.6187 54.1975 18.4883 54.3387C18.358 54.4799 18.2856 54.665 18.2856 54.8572C18.2856 55.0493 18.358 55.2344 18.4883 55.3756C18.6187 55.5168 18.7974 55.6037 18.9889 55.6191H22.1538C22.3453 55.6037 22.5241 55.5168 22.6544 55.3756C22.7847 55.2344 22.8571 55.0493 22.8571 54.8572C22.8571 54.665 22.7847 54.4799 22.6544 54.3387C22.5241 54.1975 22.3453 54.1106 22.1538 54.0953V54.0953Z" fill="#2D4356"/>
<path d="M39.6191 54.0953H24.381C24.179 54.0953 23.9852 54.1755 23.8423 54.3184C23.6994 54.4613 23.6191 54.6551 23.6191 54.8572C23.6191 55.0593 23.6994 55.253 23.8423 55.3959C23.9852 55.5388 24.179 55.6191 24.381 55.6191H30.4534V56.381H27.4287C27.2266 56.381 27.0328 56.4613 26.8899 56.6041C26.747 56.747 26.6668 56.9408 26.6668 57.1429C26.6668 57.345 26.747 57.5388 26.8899 57.6816C27.0328 57.8245 27.2266 57.9048 27.4287 57.9048H36.9525C37.1545 57.9048 37.3483 57.8245 37.4912 57.6816C37.6341 57.5388 37.7144 57.345 37.7144 57.1429C37.7144 56.9408 37.6341 56.747 37.4912 56.6041C37.3483 56.4613 37.1545 56.381 36.9525 56.381H33.5468V55.6191H39.6191C39.8212 55.6191 40.015 55.5388 40.1579 55.3959C40.3008 55.253 40.381 55.0593 40.381 54.8572C40.381 54.6551 40.3008 54.4613 40.1579 54.3184C40.015 54.1755 39.8212 54.0953 39.6191 54.0953Z" fill="#2D4356"/>
<path d="M57.4176 51.0477H56.3809V45.3557C56.3809 42.8189 53.7395 41.7608 53.6543 41.7281L50.2856 40.2627V38.5502C50.8152 37.5765 51.1303 36.5007 51.2097 35.3952C51.2317 35.2058 51.2574 35.0157 51.283 34.8256C51.4562 33.5414 51.6526 32.0864 50.7148 30.8033C50.3883 30.3474 49.9853 29.9515 49.5237 29.6332V28.5938C49.5237 26.057 46.8822 24.9988 46.7972 24.9662L43.4285 23.5006V21.7881C43.958 20.8143 44.2731 19.7385 44.3526 18.6329C44.3746 18.4437 44.4002 18.2536 44.4259 18.0635C44.5991 16.7796 44.7955 15.3245 43.8576 14.0414C43.5218 13.5367 43.0799 13.1114 42.5629 12.795C42.0459 12.4785 41.4661 12.2786 40.864 12.2091L40.863 12.209C40.5342 12.1835 40.2038 12.1844 39.8751 12.2116C39.2772 12.2839 38.702 12.4849 38.1892 12.8007C37.6763 13.1165 37.2379 13.5396 36.9041 14.041C35.9663 15.3243 36.1627 16.7793 36.336 18.0631C36.3617 18.2534 36.3874 18.4437 36.4093 18.6329C36.4937 19.7285 36.8085 20.794 37.3333 21.7595V23.5008L33.9919 24.9549C33.218 25.2836 32.5348 25.7941 32.0003 26.4431C31.4732 25.8004 30.7992 25.2939 30.0353 24.9662L26.6666 23.5006V21.7881C27.1961 20.8143 27.5112 19.7385 27.5907 18.6329C27.6127 18.4437 27.6383 18.2536 27.664 18.0635C27.8372 16.7796 28.0336 15.3245 27.0957 14.0414C26.7599 13.5367 26.318 13.1114 25.801 12.795C25.284 12.4785 24.7042 12.2786 24.102 12.2091L24.1011 12.209C23.7723 12.1835 23.4419 12.1844 23.1132 12.2116C22.5153 12.2839 21.9401 12.4849 21.4272 12.8007C20.9144 13.1165 20.476 13.5396 20.1422 14.041C19.2044 15.3243 19.4008 16.7793 19.5741 18.0631C19.5998 18.2534 19.6255 18.4437 19.6474 18.6329C19.7318 19.7285 20.0466 20.794 20.5714 21.7595V23.5008L17.23 24.9549C17.1177 24.9988 14.4761 26.057 14.4761 28.5938V29.6326C14.0145 29.951 13.6115 30.3469 13.2851 30.8029C12.3472 32.0862 12.5436 33.5414 12.717 34.8252C12.7427 35.0153 12.7683 35.2058 12.7903 35.3948C12.8746 36.4904 13.1895 37.5559 13.7142 38.5214V40.2627L10.3729 41.7169C10.2603 41.7608 7.61898 42.8189 7.61898 45.3557V51.0477H6.58229C6.4739 51.0335 6.36373 51.0426 6.25915 51.0744C6.15457 51.1062 6.05798 51.16 5.97583 51.2321C5.89368 51.3042 5.82786 51.393 5.78277 51.4926C5.73768 51.5922 5.71436 51.7002 5.71436 51.8096C5.71436 51.9189 5.73768 52.0269 5.78277 52.1265C5.82786 52.2261 5.89368 52.3149 5.97583 52.387C6.05798 52.4591 6.15457 52.5129 6.25915 52.5447C6.36373 52.5765 6.4739 52.5856 6.58229 52.5715H57.4176C57.526 52.5856 57.6361 52.5765 57.7407 52.5447C57.8453 52.5129 57.9419 52.4591 58.024 52.387C58.1062 52.3149 58.172 52.2261 58.2171 52.1265C58.2622 52.0269 58.2855 51.9189 58.2855 51.8096C58.2855 51.7002 58.2622 51.5922 58.2171 51.4926C58.172 51.393 58.1062 51.3042 58.024 51.2321C57.9419 51.16 57.8453 51.1062 57.7407 51.0744C57.6361 51.0426 57.526 51.0335 57.4176 51.0477V51.0477ZM49.4843 31.7021C50.0604 32.4904 49.9272 33.4781 49.7728 34.6217C49.746 34.8215 49.719 35.0209 49.696 35.2196C49.4246 37.5626 48.7499 38.6124 47.369 38.8434C47.2914 38.8603 47.2112 38.8617 47.1331 38.8475C45.7525 38.628 45.049 37.5432 44.7802 35.2196C44.7572 35.0209 44.7302 34.8211 44.7032 34.621C44.5488 33.4777 44.4155 32.4902 44.9919 31.7017C45.2001 31.3713 45.479 31.0911 45.8084 30.8813C46.1378 30.6715 46.5096 30.5373 46.8971 30.4883C46.9709 30.4803 47.1091 30.4762 47.2453 30.4762C47.371 30.4762 47.4947 30.4796 47.5647 30.4867C47.9548 30.5339 48.3296 30.6674 48.6617 30.8777C48.9937 31.0879 49.2748 31.3696 49.4843 31.7021V31.7021ZM38.1348 14.9398C38.343 14.6094 38.6218 14.3292 38.9512 14.1194C39.2806 13.9096 39.6525 13.7754 40.0399 13.7264C40.1138 13.7184 40.252 13.7143 40.3881 13.7143C40.5139 13.7143 40.6376 13.7177 40.7075 13.7248C41.0977 13.772 41.4725 13.9055 41.8045 14.1158C42.1366 14.326 42.4176 14.6077 42.6272 14.9402C43.2034 15.7285 43.0701 16.716 42.9157 17.8596C42.8887 18.0594 42.8619 18.259 42.8388 18.4576C42.5675 20.8005 41.893 21.8505 40.5111 22.0815C40.4338 22.0985 40.3539 22.0999 40.276 22.0858C38.8954 21.8661 38.1917 20.7811 37.9231 18.4575C37.9 18.2588 37.8731 18.059 37.8461 17.8593C37.6917 16.7158 37.5583 15.7283 38.1348 14.9398ZM32.7618 28.5938C32.7618 27.1044 34.5302 26.3808 34.5725 26.3635L38.3991 24.6987C38.5352 24.6395 38.651 24.5419 38.7324 24.4177C38.8137 24.2936 38.8571 24.1485 38.8571 24.0001V23.2069C39.2273 23.3968 39.6256 23.5264 40.0368 23.5907C40.1494 23.6092 40.2634 23.6187 40.3775 23.6191C40.5064 23.6184 40.6349 23.6069 40.7618 23.5847C41.1593 23.5194 41.5447 23.3944 41.9047 23.2137V24.0001C41.9047 24.1485 41.948 24.2936 42.0294 24.4178C42.1107 24.5419 42.2266 24.6395 42.3627 24.6987L46.2166 26.3749C46.2345 26.3818 47.9999 27.0869 47.9999 28.5938V29.0152C47.9075 28.9991 47.8159 28.9809 47.7211 28.971L47.7202 28.9709C47.3913 28.9454 47.061 28.9463 46.7323 28.9735C46.1343 29.0458 45.5592 29.2468 45.0463 29.5626C44.5334 29.8784 44.0951 30.3015 43.7613 30.8029C42.8234 32.0862 43.0198 33.5414 43.1932 34.8252C43.2189 35.0153 43.2445 35.2058 43.2665 35.3948C43.3508 36.4904 43.6657 37.5559 44.1904 38.5214V40.2627L41.0134 41.6455C41.3942 42.0107 41.723 42.4266 41.9904 42.8814L45.2563 41.4606C45.3923 41.4014 45.5082 41.3038 45.5895 41.1797C45.6709 41.0555 45.7142 40.9104 45.7142 40.762V39.9689C46.0845 40.1589 46.4827 40.2884 46.8939 40.3527C47.0066 40.3712 47.1206 40.3807 47.2349 40.381C47.3636 40.3803 47.4921 40.3689 47.619 40.3468C48.0165 40.2815 48.4018 40.1564 48.7618 39.9757V40.762C48.7618 40.9104 48.8052 41.0555 48.8865 41.1797C48.9679 41.3038 49.0837 41.4014 49.2198 41.4606L53.0738 43.1366C53.0916 43.1437 54.8571 43.849 54.8571 45.3557V51.0477H41.1428V45.3557C41.1428 42.8189 38.5014 41.7608 38.4162 41.7281L35.0475 40.2627V38.5502C35.5771 37.5765 35.8922 36.5007 35.9717 35.3952C35.9936 35.2058 36.0193 35.0157 36.0449 34.8256C36.2181 33.5414 36.4145 32.0864 35.4767 30.8033C35.1651 30.3403 34.7646 29.9439 34.2986 29.6369C33.8326 29.33 33.3102 29.1186 32.7618 29.0152V28.5938ZM24.3809 51.0477V45.3557C24.3809 43.8665 26.1493 43.1425 26.1915 43.1254L30.0182 41.4606C30.1542 41.4014 30.2701 41.3038 30.3514 41.1796C30.4328 41.0555 30.4761 40.9104 30.4761 40.762V39.9689C30.8464 40.1589 31.2446 40.2884 31.6558 40.3527C31.7685 40.3712 31.8825 40.3807 31.9968 40.381C32.1255 40.3803 32.254 40.3689 32.3809 40.3468C32.7784 40.2815 33.1637 40.1564 33.5237 39.9757V40.762C33.5237 40.9104 33.5671 41.0555 33.6484 41.1797C33.7298 41.3038 33.8456 41.4014 33.9817 41.4606L37.8357 43.1366C37.8535 43.1437 39.619 43.849 39.619 45.3557V51.0477H24.3809ZM32.0072 30.4763C32.1329 30.4763 32.2566 30.4796 32.3266 30.4867C32.7167 30.5339 33.0915 30.6674 33.4236 30.8777C33.7556 31.0879 34.0366 31.3696 34.2462 31.7021C34.8223 32.4904 34.6891 33.4781 34.5347 34.6217C34.5079 34.8215 34.4809 35.0209 34.4579 35.2196C34.1865 37.5626 33.5118 38.6124 32.1309 38.8434C32.0533 38.8603 31.9731 38.8617 31.895 38.8475C30.5144 38.628 29.8109 37.5432 29.5421 35.2196C29.5191 35.0209 29.4921 34.8211 29.4651 34.621C29.3107 33.4777 29.1774 32.4902 29.7538 31.7017C29.962 31.3713 30.2409 31.0911 30.5703 30.8813C30.8997 30.6715 31.2715 30.5373 31.659 30.4883C31.7328 30.4803 31.871 30.4763 32.0072 30.4763ZM21.3729 14.9398C21.5811 14.6094 21.8599 14.3292 22.1893 14.1194C22.5187 13.9096 22.8906 13.7754 23.278 13.7264C23.3519 13.7184 23.4901 13.7143 23.6262 13.7143C23.752 13.7143 23.8757 13.7177 23.9456 13.7248C24.3358 13.772 24.7106 13.9055 25.0426 14.1158C25.3747 14.326 25.6557 14.6077 25.8653 14.9402C26.4415 15.7285 26.3082 16.716 26.1538 17.8596C26.1268 18.0594 26.1 18.259 26.0769 18.4576C25.8056 20.8005 25.1311 21.8505 23.7492 22.0815C23.6719 22.0985 23.592 22.0999 23.5141 22.0858C22.1335 21.8661 21.4298 20.7811 21.1612 18.4575C21.1381 18.2588 21.1112 18.059 21.0842 17.8593C20.9298 16.7158 20.7964 15.7283 21.3729 14.9398ZM14.5157 31.7017C14.7239 31.3713 15.0028 31.0911 15.3322 30.8813C15.6616 30.6715 16.0334 30.5373 16.4209 30.4883C16.4947 30.4803 16.6329 30.4763 16.7691 30.4763C16.8948 30.4763 17.0185 30.4796 17.0885 30.4867C17.4787 30.5339 17.8534 30.6674 18.1855 30.8777C18.5176 31.0879 18.7986 31.3696 19.0081 31.7021C19.5842 32.4904 19.451 33.4781 19.2966 34.6217C19.2698 34.8215 19.2429 35.0209 19.2198 35.2196C18.9484 37.5626 18.2737 38.6124 16.8928 38.8434C16.8152 38.8603 16.7351 38.8617 16.6569 38.8475C15.2764 38.628 14.5729 37.5432 14.3041 35.2196C14.281 35.0209 14.254 34.8211 14.2271 34.621C14.0727 33.4778 13.9393 32.4902 14.5157 31.7017ZM9.14279 45.3557C9.14279 43.8665 10.9112 43.1425 10.9534 43.1254L14.7801 41.4606C14.9161 41.4014 15.032 41.3038 15.1133 41.1796C15.1947 41.0555 15.238 40.9104 15.238 40.762V39.9689C15.6083 40.1589 16.0065 40.2884 16.4177 40.3527C16.5304 40.3712 16.6444 40.3807 16.7587 40.381C16.8874 40.3803 17.0159 40.3689 17.1428 40.3468C17.5403 40.2815 17.9256 40.1564 18.2856 39.9757V40.762C18.2856 40.9104 18.329 41.0555 18.4103 41.1797C18.4917 41.3038 18.6075 41.4014 18.7436 41.4606L22.0103 42.8812C22.2781 42.4264 22.6073 42.0106 22.9886 41.6456L19.8095 40.2627V38.5502C20.339 37.5765 20.6541 36.5007 20.7336 35.3952C20.7555 35.2058 20.7812 35.0157 20.8068 34.8256C20.98 33.5414 21.1765 32.0864 20.2386 30.8033C19.9027 30.2986 19.4609 29.8733 18.9439 29.5569C18.4269 29.2405 17.8471 29.0405 17.2449 28.971L17.244 28.9709C16.9151 28.9454 16.5848 28.9463 16.2561 28.9735C16.169 28.9829 16.085 29.0005 15.9999 29.0153V28.5938C15.9999 27.1044 17.7683 26.3808 17.8106 26.3635L21.6372 24.6987C21.7733 24.6395 21.8891 24.5419 21.9705 24.4177C22.0518 24.2936 22.0952 24.1485 22.0952 24.0001V23.2069C22.4654 23.3968 22.8637 23.5264 23.2749 23.5907C23.3875 23.6092 23.5015 23.6187 23.6156 23.6191C23.7445 23.6184 23.873 23.6069 23.9999 23.5847C24.3974 23.5194 24.7827 23.3944 25.1428 23.2137V24.0001C25.1428 24.1485 25.1861 24.2936 25.2675 24.4178C25.3488 24.5419 25.4647 24.6395 25.6007 24.6987L29.4547 26.3749C29.4726 26.3818 31.238 27.0869 31.238 28.5938V29.0153C30.6897 29.1186 30.1673 29.3298 29.7012 29.6366C29.2352 29.9435 28.8347 30.3399 28.5232 30.8029C27.5853 32.0862 27.7817 33.5413 27.9551 34.8252C27.9808 35.0153 28.0064 35.2058 28.0284 35.3948C28.1127 36.4904 28.4276 37.5559 28.9523 38.5214V40.2627L25.611 41.7169C25.4984 41.7608 22.8571 42.8189 22.8571 45.3557V51.0477H9.14279V45.3557Z" fill="#2D4356"/>
<path d="M2.28568 20.9524C2.51172 20.9524 2.73268 20.8854 2.92062 20.7598C3.10856 20.6342 3.25504 20.4557 3.34154 20.2469C3.42804 20.0381 3.45068 19.8083 3.40658 19.5866C3.36248 19.3649 3.25363 19.1613 3.0938 19.0014C2.93397 18.8416 2.73033 18.7327 2.50864 18.6886C2.28695 18.6445 2.05716 18.6672 1.84833 18.7537C1.6395 18.8402 1.46101 18.9867 1.33543 19.1746C1.20985 19.3625 1.14282 19.5835 1.14282 19.8095C1.14317 20.1125 1.26369 20.403 1.47794 20.6173C1.69219 20.8315 1.98268 20.9521 2.28568 20.9524V20.9524ZM2.28568 19.2381C2.3987 19.2381 2.50918 19.2716 2.60315 19.3344C2.69712 19.3972 2.77036 19.4865 2.81361 19.5909C2.85686 19.6953 2.86818 19.8102 2.84613 19.921C2.82408 20.0319 2.76966 20.1337 2.68974 20.2136C2.60983 20.2935 2.50801 20.3479 2.39716 20.37C2.28631 20.392 2.17142 20.3807 2.067 20.3375C1.96259 20.2942 1.87334 20.221 1.81055 20.127C1.74776 20.033 1.71425 19.9226 1.71425 19.8095C1.7144 19.658 1.77465 19.5128 1.88178 19.4056C1.98891 19.2985 2.13417 19.2383 2.28568 19.2381Z" fill="#2D4356"/>
<path d="M62.0954 15.11C61.9447 15.11 61.7974 15.1547 61.6721 15.2384C61.5468 15.3221 61.4492 15.4411 61.3915 15.5803C61.3338 15.7195 61.3187 15.8727 61.3481 16.0205C61.3775 16.1683 61.4501 16.3041 61.5567 16.4106C61.6632 16.5172 61.799 16.5898 61.9468 16.6192C62.0946 16.6486 62.2478 16.6335 62.387 16.5758C62.5262 16.5181 62.6452 16.4205 62.7289 16.2952C62.8126 16.1699 62.8573 16.0226 62.8573 15.8719C62.8571 15.6699 62.7767 15.4762 62.6339 15.3334C62.4911 15.1906 62.2974 15.1102 62.0954 15.11V15.11ZM62.0954 16.2528C62.0201 16.2528 61.9464 16.2305 61.8838 16.1886C61.8211 16.1468 61.7723 16.0873 61.7435 16.0177C61.7146 15.9481 61.7071 15.8715 61.7218 15.7976C61.7365 15.7237 61.7728 15.6558 61.826 15.6025C61.8793 15.5492 61.9472 15.513 62.0211 15.4983C62.095 15.4836 62.1716 15.4911 62.2412 15.5199C62.3108 15.5488 62.3703 15.5976 62.4122 15.6602C62.454 15.7229 62.4764 15.7965 62.4764 15.8719C62.4763 15.9729 62.4361 16.0697 62.3647 16.1412C62.2932 16.2126 62.1964 16.2527 62.0954 16.2528Z" fill="#2D4356"/>
<path d="M4.86835 2.53857C4.71766 2.53857 4.57035 2.58326 4.44506 2.66698C4.31976 2.7507 4.22211 2.86969 4.16444 3.00891C4.10678 3.14813 4.09169 3.30132 4.12109 3.44912C4.15048 3.59691 4.22305 3.73267 4.3296 3.83923C4.43616 3.94578 4.57192 4.01835 4.71971 4.04774C4.86751 4.07714 5.0207 4.06205 5.15992 4.00439C5.29914 3.94672 5.41813 3.84907 5.50185 3.72377C5.58557 3.59848 5.63026 3.45117 5.63026 3.30048C5.63002 3.09848 5.54968 2.90482 5.40684 2.76199C5.26401 2.61915 5.07035 2.53881 4.86835 2.53857V2.53857ZM4.86835 3.68143C4.79301 3.68143 4.71935 3.65909 4.6567 3.61723C4.59406 3.57537 4.54523 3.51587 4.5164 3.44626C4.48756 3.37665 4.48002 3.30006 4.49472 3.22616C4.50942 3.15226 4.5457 3.08438 4.59898 3.03111C4.65225 2.97783 4.72013 2.94155 4.79403 2.92685C4.86793 2.91215 4.94452 2.91969 5.01413 2.94852C5.08374 2.97736 5.14324 3.02619 5.1851 3.08883C5.22696 3.15148 5.2493 3.22513 5.2493 3.30048C5.2492 3.40148 5.20903 3.49832 5.13761 3.56974C5.06619 3.64116 4.96935 3.68133 4.86835 3.68143Z" fill="#2D4356"/>
<path d="M46.0112 0C45.8605 0 45.7132 0.044685 45.5879 0.128404C45.4626 0.212123 45.3649 0.331117 45.3073 0.470336C45.2496 0.609556 45.2345 0.76275 45.2639 0.910545C45.2933 1.05834 45.3659 1.1941 45.4724 1.30065C45.579 1.40721 45.7147 1.47977 45.8625 1.50917C46.0103 1.53857 46.1635 1.52348 46.3027 1.46581C46.442 1.40815 46.561 1.31049 46.6447 1.1852C46.7284 1.0599 46.7731 0.912595 46.7731 0.761905C46.7729 0.559906 46.6925 0.366247 46.5497 0.223412C46.4068 0.0805771 46.2132 0.000230892 46.0112 0V0ZM46.0112 1.14286C45.9358 1.14286 45.8622 1.12051 45.7995 1.07865C45.7369 1.0368 45.6881 0.977299 45.6592 0.907689C45.6304 0.838079 45.6228 0.761482 45.6375 0.687585C45.6522 0.613687 45.6885 0.545808 45.7418 0.492531C45.7951 0.439254 45.863 0.402971 45.9369 0.388272C46.0108 0.373573 46.0873 0.381117 46.157 0.409951C46.2266 0.438784 46.2861 0.487611 46.3279 0.550259C46.3698 0.612906 46.3921 0.686559 46.3921 0.761905C46.392 0.862909 46.3519 0.959747 46.2804 1.03117C46.209 1.10259 46.1122 1.14276 46.0112 1.14286Z" fill="#2D4356"/>
<path d="M17.4398 7.49091C17.4398 7.34022 17.3951 7.19291 17.3114 7.06762C17.2277 6.94232 17.1087 6.84467 16.9695 6.787C16.8303 6.72933 16.6771 6.71425 16.5293 6.74364C16.3815 6.77304 16.2457 6.84561 16.1392 6.95216C16.0326 7.05871 15.9601 7.19447 15.9307 7.34227C15.9013 7.49006 15.9163 7.64326 15.974 7.78248C16.0317 7.9217 16.1293 8.04069 16.2546 8.12441C16.3799 8.20813 16.5272 8.25281 16.6779 8.25281C16.8799 8.25258 17.0736 8.17224 17.2164 8.0294C17.3593 7.88657 17.4396 7.69291 17.4398 7.49091V7.49091ZM16.297 7.49091C16.297 7.41556 16.3193 7.34191 16.3612 7.27926C16.403 7.21662 16.4625 7.16779 16.5321 7.13895C16.6017 7.11012 16.6783 7.10258 16.7522 7.11728C16.8261 7.13198 16.894 7.16826 16.9473 7.22153C17.0006 7.27481 17.0369 7.34269 17.0516 7.41659C17.0663 7.49049 17.0587 7.56708 17.0299 7.63669C17.001 7.7063 16.9522 7.7658 16.8896 7.80766C16.8269 7.84952 16.7533 7.87186 16.6779 7.87186C16.5769 7.87176 16.4801 7.83159 16.4087 7.76017C16.3372 7.68875 16.2971 7.59191 16.297 7.49091V7.49091Z" fill="#2D4356"/>
<path d="M35.5016 6.3524L36.0681 5.60725L35.7104 5.40497L35.347 6.23887H35.3348L34.9656 5.41068L34.6015 5.61944L35.1622 6.34668V6.35849L34.2856 6.24497V6.6503L35.1679 6.53716V6.54935L34.6015 7.27621L34.9413 7.49106L35.3291 6.6503H35.3409L35.6982 7.48497L36.0738 7.27049L35.5016 6.55506V6.54325L36.4015 6.6503V6.24497L35.5016 6.36421V6.3524Z" fill="#2D4356"/>
<path d="M25.3986 1.42095L25.0725 1.83962L25.2679 1.96343L25.4915 1.47924H25.498L25.7041 1.96L25.9205 1.83619L25.591 1.42438V1.41752L26.109 1.47924V1.24609L25.591 1.31466V1.30781L25.917 0.878854L25.711 0.761902L25.5018 1.24228H25.4946L25.282 0.76533L25.0725 0.885711L25.3951 1.30438V1.31124L24.8904 1.24609V1.47924L25.3986 1.41409V1.42095Z" fill="#2D4356"/>
<path d="M48.1916 10.168V9.77067L47.3094 9.88762V9.87581L47.8648 9.14515L47.5139 8.94629L47.1574 9.76457H47.1455L46.7833 8.952L46.4259 9.15657L46.976 9.8701V9.88191L46.1162 9.77067V10.168L46.9817 10.0571V10.069L46.4259 10.7821L46.7593 10.9928L47.1398 10.168H47.1513L47.5021 10.9867L47.8705 10.7764L47.3094 10.0747V10.0629L48.1916 10.168Z" fill="#E5E5E5"/>
<path d="M59.1322 2.76155L59.6115 2.13145L59.309 1.96002L59.0016 2.66593H58.9913L58.6785 1.96497L58.3707 2.14136L58.845 2.75697V2.76688L58.1033 2.67088V3.01374L58.8499 2.91812V2.9284L58.3707 3.54326L58.6579 3.72497L58.9863 3.01374H58.9962L59.2987 3.72002L59.6164 3.53831L59.1322 2.93297V2.92307L59.8937 3.01374V2.67088L59.1322 2.77183V2.76155Z" fill="#2D4356"/>
<path d="M23.6156 23.619C23.5016 23.6186 23.3878 23.6092 23.2752 23.5908C20.164 23.0958 19.7752 19.7366 19.6476 18.6328C19.6257 18.4436 19.6 18.2535 19.5743 18.0632C19.401 16.7796 19.2045 15.3244 20.142 14.0409C20.4759 13.5396 20.9142 13.1165 21.4271 12.8007C21.94 12.4849 22.5151 12.2839 23.113 12.2115C23.4418 12.1844 23.7722 12.1835 24.1011 12.2089L24.1022 12.2091C24.7044 12.2786 25.2842 12.4785 25.8012 12.795C26.3182 13.1114 26.76 13.5367 27.0959 14.0413C28.0334 15.324 27.8374 16.7785 27.6644 18.0618C27.6387 18.2524 27.6127 18.4431 27.5907 18.6326C27.4505 19.8463 27.077 23.0698 23.9999 23.5846C23.873 23.6068 23.7445 23.6183 23.6156 23.619V23.619ZM23.6264 13.7143C23.4899 13.7143 23.3519 13.7184 23.2778 13.7264C22.8904 13.7753 22.5186 13.9095 22.1891 14.1193C21.8597 14.3291 21.5809 14.6093 21.3727 14.9397C20.7964 15.7282 20.93 16.716 21.0844 17.8594C21.1112 18.0591 21.138 18.2587 21.161 18.4574C21.43 20.7811 22.1339 21.8661 23.5141 22.0857C23.5919 22.0999 23.6719 22.0985 23.7492 22.0815C25.1313 21.8504 25.8057 20.8004 26.0773 18.4576C26.1 18.2585 26.1272 18.0584 26.154 17.8583C26.308 16.7152 26.4412 15.728 25.8653 14.9401C25.6558 14.6076 25.3748 14.326 25.0428 14.1158C24.7108 13.9056 24.3361 13.772 23.946 13.7249C23.876 13.7176 23.7522 13.7143 23.6264 13.7143Z" fill="#2D4356"/>
<path d="M40.3776 23.619C40.2636 23.6186 40.1497 23.6092 40.0372 23.5908C36.926 23.0958 36.5372 19.7366 36.4096 18.6328C36.3876 18.4436 36.362 18.2535 36.3363 18.0632C36.1629 16.7796 35.9665 15.3244 36.904 14.0409C37.2378 13.5396 37.6762 13.1165 38.1891 12.8007C38.7019 12.4849 39.2771 12.2839 39.875 12.2115C40.2038 12.1844 40.5342 12.1835 40.8631 12.2089L40.8642 12.2091C41.4664 12.2786 42.0461 12.4785 42.5631 12.795C43.0802 13.1114 43.522 13.5367 43.8579 14.0413C44.7954 15.324 44.5993 16.7785 44.4263 18.0617C44.4007 18.2524 44.3746 18.4431 44.3527 18.6326C44.2124 19.8463 43.8389 23.0697 40.7619 23.5846C40.635 23.6068 40.5064 23.6183 40.3776 23.619V23.619ZM40.3884 13.7143C40.2518 13.7143 40.1138 13.7184 40.0398 13.7264C39.6523 13.7753 39.2805 13.9095 38.9511 14.1193C38.6217 14.3291 38.3429 14.6093 38.1347 14.9397C37.5584 15.7282 37.692 16.716 37.8463 17.8594C37.8731 18.0591 37.8999 18.2587 37.923 18.4574C38.192 20.7811 38.8958 21.8661 40.276 22.0857C40.3539 22.0999 40.4338 22.0985 40.5112 22.0815C41.8932 21.8504 42.5677 20.8004 42.8393 18.4576C42.862 18.2585 42.8891 18.0584 42.9159 17.8583C43.0699 16.7152 43.2031 15.728 42.6272 14.9401C42.4178 14.6076 42.1368 14.326 41.8048 14.1158C41.4728 13.9056 41.0981 13.772 40.708 13.7249C40.638 13.7176 40.5141 13.7143 40.3884 13.7143V13.7143Z" fill="#2D4356"/>
<path d="M47.2352 40.3809C47.121 40.3806 47.0071 40.3712 46.8944 40.3527C43.7832 39.8575 43.3944 36.4985 43.2668 35.3947C43.2449 35.2057 43.2192 35.0156 43.1932 34.8251C43.0202 33.5413 42.8238 32.0863 43.7613 30.8032C44.095 30.3018 44.5334 29.8786 45.0462 29.5628C45.5591 29.2469 46.1343 29.0459 46.7322 28.9736C47.061 28.946 47.3914 28.9451 47.7203 28.971H47.7215C48.3237 29.0404 48.9035 29.2403 49.4205 29.5569C49.9376 29.8734 50.3794 30.2988 50.7151 30.8035C51.6523 32.0859 51.4566 33.5405 51.2836 34.8236C51.2579 35.0145 51.2319 35.205 51.2099 35.3947C51.0697 36.6086 50.6962 39.8318 47.6191 40.3467C47.4923 40.3688 47.3639 40.3802 47.2352 40.3809V40.3809ZM47.246 30.4762C47.1091 30.4762 46.97 30.4803 46.8985 30.4884C46.5108 30.5372 46.1387 30.6713 45.8091 30.881C45.4794 31.0908 45.2003 31.3711 44.9919 31.7016C44.4156 32.4903 44.5492 33.478 44.7036 34.6213C44.7304 34.821 44.7572 35.0208 44.7802 35.2195C45.0492 37.5431 45.7531 38.628 47.1333 38.8474C47.2114 38.8616 47.2916 38.8602 47.3691 38.8434C48.7505 38.6123 49.4249 37.5625 49.6965 35.2195C49.7192 35.0204 49.7464 34.8203 49.7732 34.6201C49.9272 33.4773 50.0604 32.4899 49.4845 31.702C49.275 31.3694 48.994 31.0877 48.6619 30.8775C48.3298 30.6672 47.955 30.5337 47.5648 30.4866C47.4964 30.4795 47.3721 30.4762 47.246 30.4762V30.4762Z" fill="#2D4356"/>
<path d="M16.3653 29.9917L16.3653 29.9917C16.468 29.9799 16.6326 29.9762 16.7697 29.9762C16.8967 29.9762 17.0435 29.9793 17.1399 29.9892L17.1484 29.9901L17.1484 29.9902C17.6125 30.0462 18.0582 30.205 18.4531 30.455C18.8432 30.702 19.174 31.0319 19.4221 31.4211C19.778 31.915 19.904 32.4597 19.9258 33.0081C19.947 33.5399 19.8703 34.1087 19.7959 34.6609L19.7924 34.6865C19.7903 34.7022 19.7882 34.7179 19.7861 34.7336C19.7613 34.9188 19.7373 35.0981 19.717 35.2761L19.7169 35.277C19.5782 36.4735 19.3306 37.4129 18.8934 38.0936C18.4387 38.8016 17.8008 39.196 16.9859 39.3347C16.8501 39.3625 16.7103 39.3645 16.5737 39.3405C15.7517 39.2086 15.1057 38.806 14.6442 38.0946C14.2 37.4097 13.945 36.467 13.8073 35.2771L16.3653 29.9917ZM16.3653 29.9917L16.3599 29.9923C15.8988 30.0503 15.4564 30.2097 15.0643 30.4592C14.6771 30.7056 14.3485 31.0338 14.1017 31.4207M16.3653 29.9917L14.1017 31.4207M14.1017 31.4207C13.7456 31.915 13.6196 32.46 13.5978 33.0087C13.5768 33.5407 13.6536 34.1097 13.7282 34.6619L13.7317 34.6877C13.7317 34.6878 13.7317 34.6879 13.7317 34.6879C13.7586 34.8883 13.7848 35.0836 13.8072 35.277L14.1017 31.4207ZM16.4993 39.8593L16.4967 39.8589C15.1459 39.6439 14.3879 38.821 13.9357 37.8845C13.4743 36.9291 13.3512 35.8905 13.2872 35.3373L13.2872 35.337C13.2646 35.1426 13.2383 34.9481 13.2123 34.7579C13.0355 33.4452 12.8865 32.1961 13.6887 31.0981L13.6951 31.0893L13.7012 31.0802C13.9949 30.6389 14.3807 30.2665 14.8321 29.9885C15.2809 29.7121 15.7839 29.5356 16.307 29.471C16.6038 29.4466 16.902 29.446 17.1989 29.469C17.725 29.5312 18.2313 29.7067 18.6832 29.9833C19.1382 30.2618 19.527 30.6363 19.8225 31.0805L19.8286 31.0897L19.8351 31.0986C20.6371 32.1959 20.4886 33.445 20.3117 34.7568L20.3117 34.757C20.3093 34.7753 20.3068 34.7938 20.3043 34.8122C20.2812 34.984 20.2573 35.1608 20.2369 35.3372L20.2369 35.3373C20.1664 35.9476 20.0438 36.9781 19.5896 37.9147C19.1459 38.8296 18.4008 39.6292 17.0603 39.8535L17.0603 39.8535L17.057 39.8541C16.9583 39.8713 16.8584 39.8803 16.7582 39.8809C16.6715 39.8806 16.5849 39.8734 16.4993 39.8593Z" fill="#2D4356" stroke="black"/>
<path d="M31.9969 40.3809C31.8828 40.3806 31.7688 40.3712 31.6562 40.3527C28.5449 39.8575 28.1562 36.4985 28.0286 35.3947C28.0066 35.2057 27.9809 35.0156 27.9549 34.8251C27.7819 33.5413 27.5855 32.0863 28.523 30.8032C28.8567 30.3018 29.2951 29.8786 29.808 29.5628C30.3208 29.2469 30.896 29.0459 31.494 28.9736C31.8227 28.946 32.1532 28.9451 32.4821 28.971H32.4832C33.0854 29.0404 33.6652 29.2403 34.1823 29.5569C34.6993 29.8734 35.1411 30.2988 35.4769 30.8035C36.414 32.0859 36.2183 33.5405 36.0453 34.8236C36.0196 35.0145 35.9936 35.205 35.9716 35.3947C35.8314 36.6086 35.4579 39.8318 32.3809 40.3467C32.2541 40.3688 32.1256 40.3802 31.9969 40.3809V40.3809ZM32.0077 30.4762C31.8708 30.4762 31.7317 30.4803 31.6603 30.4884C31.2725 30.5372 30.9005 30.6713 30.5708 30.881C30.2411 31.0908 29.962 31.3711 29.7536 31.7016C29.1774 32.4903 29.3109 33.478 29.4653 34.6213C29.4921 34.821 29.5189 35.0208 29.542 35.2195C29.8109 37.5431 30.5148 38.628 31.895 38.8474C31.9731 38.8616 32.0533 38.8602 32.1309 38.8434C33.5122 38.6123 34.1867 37.5625 34.4583 35.2195C34.4809 35.0204 34.5081 34.8203 34.5349 34.6201C34.6889 33.4773 34.8221 32.4899 34.2462 31.702C34.0367 31.3694 33.7557 31.0877 33.4236 30.8775C33.0916 30.6672 32.7168 30.5337 32.3266 30.4866C32.2581 30.4795 32.1338 30.4762 32.0077 30.4762V30.4762Z" fill="#2D4356"/>
</svg>
