<svg width="62" height="63" viewBox="0 0 62 63" fill="none" xmlns="http://www.w3.org/2000/svg">
<path d="M0.79126 58.5671L1.38538 59.1613M3.00566 58.5671L2.41154 59.1613M1.38538 60.1874L0.79126 60.7815M2.41154 60.1874L3.00566 60.7815" stroke="#2D4356"/>
<path d="M8.20806 20.324C7.13551 18.9779 6.49438 17.2726 6.49438 15.418C6.49438 11.0663 10.023 7.53772 14.3746 7.53772M22.2549 15.418C22.2549 19.187 19.609 22.3377 16.0738 23.115L22.2549 15.418Z" stroke="#2D4356"/>
<path fill-rule="evenodd" clip-rule="evenodd" d="M34.9808 12.83C39.8543 10.1359 45.9883 11.9032 48.6817 16.7767C51.3751 21.6496 49.6084 27.7836 44.735 30.4776C39.8621 33.1711 33.7275 31.4038 31.034 26.5309C28.3406 21.6574 30.1079 15.5234 34.9808 12.83ZM36.2576 15.1402C39.8549 13.1517 44.3831 14.4563 46.3715 18.0535C48.3599 21.6508 47.0554 26.179 43.4581 28.1674C39.8609 30.1559 35.3327 28.8513 33.3442 25.2541C31.3558 21.6562 32.6603 17.1286 36.2576 15.1402Z" stroke="#2D4356"/>
<path d="M47.3791 32.7462L45.25 33.923C44.7813 34.1821 44.6114 34.772 44.8704 35.2407L51.7386 47.6669C51.9976 48.1356 52.5876 48.3055 53.0563 48.0465L55.1854 46.8697C55.6541 46.6106 55.8241 46.0206 55.565 45.5519L48.6969 33.1258C48.4378 32.6571 47.8478 32.4872 47.3791 32.7462Z" stroke="#2D4356"/>
<path d="M44.7351 30.4777L46.3144 33.335" stroke="#2D4356"/>
<path d="M49.6802 34.9065L47.314 36.214" stroke="#2D4356"/>
<g filter="url(#filter0_d)">
<path d="M39.4247 22.0299L56.2481 7.59082M5.51099 43.0121L22.2464 28.088L27.0307 32.7934L30.8865 29.445L5.51099 43.0121Z" stroke="#2D4356"/>
</g>
<path d="M24.4253 57.124V48.0061H29.8802V57.124" stroke="#2D4356"/>
<path d="M14.3186 57.1239V52.1877H19.773V57.1239" stroke="#2D4356"/>
<path d="M34.5325 57.124V38.7375H39.9874V57.124" stroke="#2D4356"/>
<path d="M50.1501 7.89029L56.248 7.59082L55.4291 13.52" stroke="#2D4356"/>
<path d="M7.85181 57.124H51.072" stroke="#2D4356"/>
<path d="M14.3474 39.9373H27.6573" stroke="#2D4356"/>
<path d="M14.3474 42.4053H23.8871" stroke="#2D4356"/>
<path d="M14.3474 44.8728H21.836" stroke="#2D4356"/>
<path d="M7.42773 26.6948C7.81638 25.5397 8.91244 24.7016 10.1941 24.7016H10.7249V23.6489C10.3923 23.3169 10.0681 23.0108 9.97655 22.5191C9.87773 21.9846 9.79398 20.8831 9.78313 19.5388C9.75662 16.317 15.0224 16.317 14.9959 19.5388C14.9844 20.8831 14.9013 21.9846 14.8018 22.5191C14.7102 23.0108 14.3861 23.3169 14.0535 23.6489V24.7016H14.5843C15.8665 24.7016 16.962 25.5397 17.3506 26.6948" stroke="#2D4356"/>
<path fill-rule="evenodd" clip-rule="evenodd" d="M14.3745 6.02771C19.5607 6.02771 23.7648 10.2324 23.7648 15.418H14.3745V6.02771Z" stroke="#2D4356"/>
<path d="M27.5181 6.43811H35.7201" stroke="#2D4356"/>
<path d="M27.5181 8.90613H32.1921" stroke="#2D4356"/>
<path d="M2.41154 2.62028L3.00566 3.2144M0.79126 1L1.38538 1.59412L0.79126 1ZM3.00566 1L2.41154 1.59412L3.00566 1ZM1.38538 2.62028L0.79126 3.2144L1.38538 2.62028Z" stroke="#2D4356"/>
<path d="M2.41154 31.4369L3.00566 32.0317M0.79126 29.8167L1.38538 30.4114L0.79126 29.8167ZM3.00566 29.8167L2.41154 30.4114L3.00566 29.8167ZM1.38538 31.4369L0.79126 32.0317L1.38538 31.4369Z" stroke="#2D4356"/>
<path d="M1.89794 17.7926C2.58614 17.7926 3.14403 17.2347 3.14403 16.5465C3.14403 15.8583 2.58614 15.3004 1.89794 15.3004C1.20975 15.3004 0.651855 15.8583 0.651855 16.5465C0.651855 17.2347 1.20975 17.7926 1.89794 17.7926Z" stroke="#2D4356"/>
<path d="M1.89794 47.2716C2.58614 47.2716 3.14403 46.7137 3.14403 46.0255C3.14403 45.3373 2.58614 44.7794 1.89794 44.7794C1.20975 44.7794 0.651855 45.3373 0.651855 46.0255C0.651855 46.7137 1.20975 47.2716 1.89794 47.2716Z" stroke="#2D4356"/>
<path d="M31.3927 2.62028L31.9875 3.2144M29.7725 1L30.3672 1.59412L29.7725 1ZM31.9875 1L31.3927 1.59412L31.9875 1ZM30.3672 2.62028L29.7725 3.2144L30.3672 2.62028Z" stroke="#2D4356"/>
<path d="M59.9582 2.62028L60.5529 3.2144M58.3379 1L58.9326 1.59412L58.3379 1ZM60.5529 1L59.9582 1.59412L60.5529 1ZM58.9326 2.62028L58.3379 3.2144L58.9326 2.62028Z" stroke="#2D4356"/>
<path d="M59.9582 29.2611L60.5529 29.8553M58.3379 27.6409L58.9326 28.235L58.3379 27.6409ZM60.5529 27.6409L59.9582 28.235L60.5529 27.6409ZM58.9326 29.2611L58.3379 29.8553L58.9326 29.2611Z" stroke="#2D4356"/>
<path d="M59.9582 55.776L60.5529 56.3708M58.3379 54.1558L58.9326 54.7505L58.3379 54.1558ZM60.5529 54.1558L59.9582 54.7505L60.5529 54.1558ZM58.9326 55.776L58.3379 56.3708L58.9326 55.776Z" stroke="#2D4356"/>
<path d="M44.9314 50.6531C45.6196 50.6531 46.1775 50.0952 46.1775 49.407C46.1775 48.7188 45.6196 48.1609 44.9314 48.1609C44.2432 48.1609 43.6853 48.7188 43.6853 49.407C43.6853 50.0952 44.2432 50.6531 44.9314 50.6531Z" stroke="#2D4356"/>
<path d="M59.4453 42.2156C60.1335 42.2156 60.6914 41.6577 60.6914 40.9695C60.6914 40.2813 60.1335 39.7234 59.4453 39.7234C58.7571 39.7234 58.1992 40.2813 58.1992 40.9695C58.1992 41.6577 58.7571 42.2156 59.4453 42.2156Z" stroke="#2D4356"/>
<path d="M59.4453 20.7746C60.1335 20.7746 60.6914 20.2168 60.6914 19.5286C60.6914 18.8404 60.1335 18.2825 59.4453 18.2825C58.7571 18.2825 58.1992 18.8404 58.1992 19.5286C58.1992 20.2168 58.7571 20.7746 59.4453 20.7746Z" stroke="#2D4356"/>
<defs>
<filter id="filter0_d" x="1.17822" y="7.21143" width="59.3955" height="44.2417" filterUnits="userSpaceOnUse" color-interpolation-filters="sRGB">
<feFlood flood-opacity="0" result="BackgroundImageFix"/>
<feColorMatrix in="SourceAlpha" type="matrix" values="0 0 0 0 0 0 0 0 0 0 0 0 0 0 0 0 0 0 127 0"/>
<feOffset dy="4"/>
<feGaussianBlur stdDeviation="2"/>
<feColorMatrix type="matrix" values="0 0 0 0 0 0 0 0 0 0 0 0 0 0 0 0 0 0 0.25 0"/>
<feBlend mode="normal" in2="BackgroundImageFix" result="effect1_dropShadow"/>
<feBlend mode="normal" in="SourceGraphic" in2="effect1_dropShadow" result="shape"/>
</filter>
</defs>
</svg>
