<svg width="19" height="50" viewBox="0 0 19 50" fill="none" xmlns="http://www.w3.org/2000/svg">
<g clip-path="url(#clip0)">
<path fill-rule="evenodd" clip-rule="evenodd" d="M4.3855 5.92706L7.83345 5.92706L7.83345 0.0489233L9.4786 0.0489232L9.4786 5.92706L13.9131 5.92706L13.9131 0.048923L15.5583 0.0489229L15.5583 7.61719L2.74036 7.61719L2.74036 4.52995e-05L4.3855 4.52276e-05L4.3855 5.92706Z" fill="white"/>
<path fill-rule="evenodd" clip-rule="evenodd" d="M4.3855 16.0343L8.164 16.0343L8.17926 14.0921C8.20825 13.4927 8.13338 12.8929 7.95804 12.3196C7.8293 11.9764 7.59484 11.6842 7.2893 11.4861C6.97904 11.283 6.61629 11.1774 6.24678 11.1826C5.88514 11.1769 5.53036 11.2828 5.22969 11.4861C4.93786 11.6766 4.71208 11.9545 4.58384 12.281C4.39567 12.7544 4.38042 13.539 4.38042 14.0432L4.3855 16.0343ZM9.79644 13.557L15.5557 9.04485L15.5557 11.1466L9.80661 15.6639L9.80661 16.0343L15.5557 16.0343L15.5557 17.7244L2.74036 17.7244L2.74036 15.0079C2.74036 14.4213 2.74036 13.8323 2.78358 13.2457C2.79745 12.8715 2.84082 12.4991 2.91326 12.1318C3.07368 11.3747 3.48118 10.6943 4.07021 10.1999C4.68517 9.69377 5.45945 9.42809 6.25187 9.45131C6.91782 9.43877 7.57369 9.61714 8.14366 9.9658C8.69776 10.3165 9.13185 10.8311 9.38706 11.4398C9.65009 12.1188 9.78881 12.8406 9.79644 13.5699L9.79644 13.557Z" fill="white"/>
<path fill-rule="evenodd" clip-rule="evenodd" d="M5.30089 36.4959L6.31798 37.8259L6.14762 37.9597C5.49871 38.4561 4.97578 39.1015 4.62198 39.8427C4.26327 40.6014 4.07981 41.4327 4.08546 42.2737C4.07789 43.2083 4.3138 44.1284 4.76946 44.9414C5.1971 45.7313 5.83021 46.3879 6.60023 46.8399C7.38785 47.295 8.28181 47.5277 9.18873 47.5139C9.86335 47.5321 10.5343 47.4077 11.1587 47.1486C11.783 46.8894 12.3471 46.5013 12.8147 46.009C13.2974 45.5046 13.6749 44.9072 13.9248 44.2523C14.1746 43.5973 14.2917 42.8982 14.2691 42.1965C14.2811 41.3848 14.1106 40.5809 13.7706 39.8456C13.4305 39.1103 12.9298 38.4628 12.3061 37.9519L12.1536 37.8182L13.1503 36.4882L13.3232 36.6245C14.1364 37.266 14.786 38.0952 15.2175 39.0427C15.6681 40.0578 15.8912 41.1611 15.871 42.2737C15.871 44.3754 15.2226 46.2354 13.6334 47.6245C12.3691 48.7245 10.7465 49.3111 9.07939 49.2709C8.19729 49.2884 7.32125 49.12 6.50701 48.7763C5.69276 48.4326 4.95815 47.9212 4.34991 47.2746C3.02515 45.8984 2.43269 44.2057 2.43269 42.2892C2.41605 41.1579 2.65797 40.038 3.13957 39.0169C3.59551 38.0603 4.28082 37.2343 5.13307 36.6142L5.30089 36.4959Z" fill="white"/>
<path fill-rule="evenodd" clip-rule="evenodd" d="M3.26677 27.6106C3.26677 26.4403 3.60976 25.2964 4.25238 24.3234C4.895 23.3504 5.80837 22.592 6.87701 22.1442C7.94564 21.6964 9.12154 21.5792 10.256 21.8075C11.3905 22.0358 12.4325 22.5993 13.2504 23.4268C14.0683 24.2543 14.6253 25.3085 14.851 26.4563C15.0766 27.604 14.9608 28.7936 14.5182 29.8748C14.0755 30.9559 13.3259 31.88 12.3642 32.5301C11.4024 33.1803 10.2717 33.5273 9.11505 33.5273C7.56399 33.5273 6.07645 32.9039 4.97969 31.7943C3.88292 30.6847 3.26677 29.1798 3.26677 27.6106ZM1.1919 27.6106C1.19089 26.0219 1.65579 24.4686 2.52774 23.1473C3.3997 21.826 4.63951 20.7962 6.09026 20.1881C7.541 19.58 9.13745 19.421 10.6775 19.7313C12.2176 20.0415 13.6321 20.8071 14.742 21.931C15.8518 23.0549 16.6071 24.4867 16.9123 26.0451C17.2175 27.6035 17.0588 29.2185 16.4564 30.6856C15.8539 32.1527 14.8348 33.4061 13.528 34.287C12.2211 35.1678 10.6854 35.6367 9.11505 35.6341C7.01321 35.6314 4.99833 34.785 3.51281 33.2806C2.0273 31.7763 1.19257 29.737 1.1919 27.6106Z" fill="white"/>
<path d="M0.126465 27.4125L0.126465 27.801L1.19441 27.801L1.19441 27.4125L0.126465 27.4125Z" fill="white"/>
<path d="M17.0586 27.4125L17.0586 27.801L18.1265 27.801L18.1265 27.4125L17.0586 27.4125Z" fill="white"/>
<path fill-rule="evenodd" clip-rule="evenodd" d="M8.93445 27.4124L8.93445 23.4045C7.8987 23.4521 6.91791 23.8896 6.18453 24.6311C5.45115 25.3726 5.0181 26.3646 4.97034 27.4124L8.93445 27.4124Z" fill="white"/>
<path fill-rule="evenodd" clip-rule="evenodd" d="M8.93446 27.8009L4.97034 27.8009C5.01862 28.8488 5.45176 29.8408 6.18498 30.5825C6.91819 31.3243 7.89866 31.7626 8.93446 31.8114L8.93446 27.8009Z" fill="white"/>
<path fill-rule="evenodd" clip-rule="evenodd" d="M9.31836 27.4124L13.2799 27.4124C13.2334 26.3646 12.801 25.3723 12.068 24.6306C11.3349 23.889 10.3541 23.4516 9.31836 23.4045L9.31836 27.4124Z" fill="white"/>
<path fill-rule="evenodd" clip-rule="evenodd" d="M9.31836 27.8009L9.31836 31.8114C10.3541 31.7631 11.3346 31.325 12.0675 30.583C12.8004 29.841 13.2328 28.8488 13.2799 27.8009L9.31836 27.8009Z" fill="white"/>
<path d="M8.93445 35.6316L8.93445 36.712L9.3184 36.712L9.3184 35.6316L8.93445 35.6316Z" fill="white"/>
<path d="M8.93445 18.5014L8.93445 19.5818L9.3184 19.5818L9.3184 18.5014L8.93445 18.5014Z" fill="white"/>
</g>
<defs>
<clipPath id="clip0">
<rect width="49.2632" height="18" fill="white" transform="translate(0.126465 49.2632) rotate(-90)"/>
</clipPath>
</defs>
</svg>
