<svg width="24" height="24" viewBox="0 0 24 24" fill="none" xmlns="http://www.w3.org/2000/svg">
<path d="M8.77987 11.8461C9.15698 12.3918 9.04424 11.9371 9.04424 22.8147C9.04424 23.7881 10.1548 24.3452 10.9375 23.763C14.2822 21.2413 14.9504 21.0229 14.9504 19.8434C14.9504 11.9166 14.8581 12.3624 15.2148 11.8461L20.6462 4.45306H3.34856L8.77987 11.8461Z" fill="black"/>
<path d="M22.6979 0.602812C22.5038 0.231094 22.1232 0 21.7042 0H2.29059C1.38567 0 0.853215 1.0208 1.37231 1.7625C1.37657 1.76962 1.31339 1.68314 2.31543 3.04688H21.6793C22.5332 1.8847 23.104 1.38258 22.6979 0.602812Z" fill="black"/>
</svg>
