<svg width="168" height="146" viewBox="0 0 168 146" fill="none" xmlns="http://www.w3.org/2000/svg">
<path d="M158.479 56.82C151.482 49.6848 139.758 48.8869 130.642 44.2092C114.952 36.159 108.87 17.828 94.5956 7.78478C85.5947 1.44393 73.405 -1.01368 62.5153 0.376481C47.056 2.34825 32.5122 11.9021 28.1464 25.9101C26.893 29.9891 26.4448 34.2426 26.8231 38.4677C27.5194 46.8193 29.4696 55.2774 27.6309 63.48C25.6038 72.5197 19.2262 80.1478 15.4142 88.691C10.6676 99.33 10.0291 111.246 12.0408 122.587C13.4256 130.325 16.1874 138.138 21.9495 143.904C22.3881 144.34 22.8381 144.755 23.3035 145.163H86.2332C90.1798 140.521 93.157 135.027 96.6459 130.151C105.385 117.888 119.379 109.143 134.661 105.04C141.508 103.203 148.924 102.11 154.425 97.9256C160.087 93.6239 162.687 86.7582 163.811 80.0734C165.176 71.9664 164.449 62.8949 158.479 56.82Z" fill="#407BFF"/>
<path opacity="0.7" d="M158.479 56.82C151.482 49.6848 139.758 48.8869 130.642 44.2092C114.952 36.159 108.87 17.828 94.5956 7.78478C85.5947 1.44393 73.405 -1.01368 62.5153 0.376481C47.056 2.34825 32.5122 11.9021 28.1464 25.9101C26.893 29.9891 26.4448 34.2426 26.8231 38.4677C27.5194 46.8193 29.4696 55.2774 27.6309 63.48C25.6038 72.5197 19.2262 80.1478 15.4142 88.691C10.6676 99.33 10.0291 111.246 12.0408 122.587C13.4256 130.325 16.1874 138.138 21.9495 143.904C22.3881 144.34 22.8381 144.755 23.3035 145.163H86.2332C90.1798 140.521 93.157 135.027 96.6459 130.151C105.385 117.888 119.379 109.143 134.661 105.04C141.508 103.203 148.924 102.11 154.425 97.9256C160.087 93.6239 162.687 86.7582 163.811 80.0734C165.176 71.9664 164.449 62.8949 158.479 56.82Z" fill="white"/>
<path d="M26.9648 105.723L26.9648 144.672" stroke="#383F42" stroke-opacity="0.99" stroke-linecap="round" stroke-linejoin="round"/>
<path d="M27.2812 101.281V104.459" stroke="#383F42" stroke-opacity="0.99" stroke-linecap="round" stroke-linejoin="round"/>
<path d="M100.724 144.889V93.4141H27.2812V99.4783" stroke="#383F42" stroke-opacity="0.99" stroke-linecap="round" stroke-linejoin="round"/>
<path d="M90.8594 96.4336H96.7369V142.359" stroke="#383F42" stroke-opacity="0.99" stroke-linecap="round" stroke-linejoin="round"/>
<path d="M32.5273 144.673V96.4492H87.2424" stroke="#383F42" stroke-opacity="0.99" stroke-linecap="round" stroke-linejoin="round"/>
<path d="M34.0859 90.5547H35.9515" stroke="#383F42" stroke-opacity="0.99" stroke-linecap="round" stroke-linejoin="round"/>
<path d="M38.6299 90.5547H102.406V93.3953H25.6016V90.5547H32.8985" stroke="#383F42" stroke-opacity="0.99" stroke-linecap="round" stroke-linejoin="round"/>
<path d="M117.607 89.1517L116.688 94.6344" stroke="#383F42" stroke-opacity="0.99" stroke-linecap="round" stroke-linejoin="round"/>
<path d="M111.988 66.6485H116.423C117.036 66.6466 117.642 66.7676 118.199 67.0028C118.756 67.2381 119.251 67.5821 119.65 68.0111C120.049 68.44 120.341 68.9437 120.508 69.4873C120.675 70.0309 120.712 70.6014 120.616 71.1594L118.108 86.1533" stroke="#383F42" stroke-opacity="0.99" stroke-linecap="round" stroke-linejoin="round"/>
<path d="M107.477 66.6484H110.719" stroke="#383F42" stroke-opacity="0.99" stroke-linecap="round" stroke-linejoin="round"/>
<path d="M88.8125 87.203L91.6936 69.9643C91.8456 69.0402 92.3526 68.1971 93.1221 67.5885C93.8916 66.98 94.8725 66.6464 95.8863 66.6484H105.168" stroke="#383F42" stroke-opacity="0.99" stroke-linecap="round" stroke-linejoin="round"/>
<path d="M85.5938 106.432L87.0362 97.7969" stroke="#383F42" stroke-opacity="0.99" stroke-linecap="round" stroke-linejoin="round"/>
<path d="M102 117.451H106.412C108.515 117.454 110.538 116.702 112.051 115.355" stroke="#383F42" stroke-opacity="0.99" stroke-linecap="round" stroke-linejoin="round"/>
<path d="M77.6836 117.449H93.0583" stroke="#383F42" stroke-opacity="0.99" stroke-linecap="round" stroke-linejoin="round"/>
<path d="M71.3281 116.169C72.669 117.006 74.2517 117.452 75.8709 117.449" stroke="#383F42" stroke-opacity="0.99" stroke-linecap="round" stroke-linejoin="round"/>
<path d="M95.4413 106.434H70.7733C69.9694 106.434 69.1984 106.728 68.63 107.252C68.0615 107.776 67.7422 108.487 67.7422 109.228V109.937C67.7402 111.626 68.3585 113.266 69.4962 114.59" stroke="#383F42" stroke-opacity="0.99" stroke-linecap="round" stroke-linejoin="round"/>
<path d="M114.318 108.175C114.091 107.66 113.702 107.219 113.202 106.909C112.702 106.599 112.113 106.434 111.51 106.434H107.129" stroke="#383F42" stroke-opacity="0.99" stroke-linecap="round" stroke-linejoin="round"/>
<path d="M95.4971 119.51H84.9421L82.7227 117.449" stroke="#383F42" stroke-opacity="0.99" stroke-linecap="round" stroke-linejoin="round"/>
<path d="M87.9803 119.508H94.3156V126.331C94.3156 126.502 94.2418 126.666 94.1105 126.787C93.9792 126.908 93.8012 126.976 93.6155 126.976H88.6688C88.4832 126.976 88.3051 126.908 88.1738 126.787C88.0425 126.666 87.9688 126.502 87.9688 126.331V119.508H87.9803Z" stroke="#383F42" stroke-opacity="0.99" stroke-linecap="round" stroke-linejoin="round"/>
<path d="M93.126 126.977H89.1641V135.388H93.126V126.977Z" stroke="#383F42" stroke-opacity="0.99" stroke-linecap="round" stroke-linejoin="round"/>
<path d="M72.9805 140.568C79.585 136.514 89.1629 135.386 89.1629 135.386" stroke="#383F42" stroke-opacity="0.99" stroke-linecap="round" stroke-linejoin="round"/>
<path d="M95.4807 139.357C88.7993 138.453 82.1486 139.814 75.8633 141.307" stroke="#383F42" stroke-opacity="0.99" stroke-linecap="round" stroke-linejoin="round"/>
<path d="M106.409 141.312C104.87 140.957 103.332 140.635 101.793 140.344" stroke="#383F42" stroke-opacity="0.99" stroke-linecap="round" stroke-linejoin="round"/>
<path d="M102 137.363C104.574 138.135 107.03 139.207 109.308 140.555" stroke="#383F42" stroke-opacity="0.99" stroke-linecap="round" stroke-linejoin="round"/>
<path d="M93.1211 135.387C93.9558 135.493 94.7867 135.631 95.6098 135.784" stroke="#383F42" stroke-opacity="0.99" stroke-linecap="round" stroke-linejoin="round"/>
<path d="M73.7544 145.148C75.1268 145.148 76.2393 144.123 76.2393 142.857C76.2393 141.592 75.1268 140.566 73.7544 140.566C72.3821 140.566 71.2695 141.592 71.2695 142.857C71.2695 144.123 72.3821 145.148 73.7544 145.148Z" stroke="#383F42" stroke-opacity="0.99" stroke-linecap="round" stroke-linejoin="round"/>
<path d="M111.36 142.857C111.36 143.31 111.215 143.753 110.942 144.13C110.669 144.507 110.28 144.8 109.826 144.974C109.372 145.147 108.873 145.193 108.391 145.104C107.909 145.016 107.466 144.798 107.118 144.477C106.771 144.157 106.534 143.749 106.438 143.304C106.342 142.86 106.392 142.399 106.58 141.981C106.768 141.562 107.086 141.204 107.495 140.953C107.904 140.701 108.384 140.566 108.876 140.566C109.535 140.566 110.167 140.808 110.633 141.237C111.099 141.667 111.36 142.25 111.36 142.857V142.857Z" stroke="#383F42" stroke-opacity="0.99" stroke-linecap="round" stroke-linejoin="round"/>
<path d="M105.849 112.775L107.799 100.593C107.89 100.025 108.178 99.4988 108.62 99.0945C109.063 98.6903 109.636 98.4296 110.254 98.3518L119.316 97.2028C119.653 97.1608 119.962 97.0075 120.185 96.7714C120.409 96.5353 120.532 96.2324 120.532 95.9191C120.532 95.5748 120.383 95.2447 120.119 95.0013C119.855 94.7578 119.497 94.6211 119.124 94.6211H117.97L108.992 95.8978C107.922 96.0562 106.937 96.5305 106.186 97.2493C105.434 97.9682 104.955 98.8927 104.822 99.8839L102.945 113.09C102.929 113.206 102.939 113.323 102.976 113.434C103.012 113.545 103.074 113.647 103.157 113.735C103.24 113.822 103.342 113.892 103.457 113.94C103.572 113.988 103.696 114.012 103.822 114.012" stroke="#383F42" stroke-opacity="0.99" stroke-linecap="round" stroke-linejoin="round"/>
<path d="M119.315 97.2156L116.957 108.78C117.27 108.78 117.569 108.894 117.791 109.098C118.012 109.301 118.137 109.577 118.138 109.865V112.075C118.138 112.437 118.061 112.796 117.91 113.13C117.76 113.465 117.539 113.769 117.261 114.024C116.983 114.28 116.653 114.483 116.29 114.622C115.927 114.76 115.538 114.831 115.145 114.83H104.125" stroke="#383F42" stroke-opacity="0.99" stroke-linecap="round" stroke-linejoin="round"/>
<path d="M117.753 97.4102L115.302 108.528H108.859" stroke="#383F42" stroke-opacity="0.99" stroke-linecap="round" stroke-linejoin="round"/>
<path d="M70.8062 99.8673L70.1484 104.509" stroke="#383F42" stroke-opacity="0.99" stroke-linecap="round" stroke-linejoin="round"/>
<path d="M73.1055 104.97L73.8055 100.593C73.8957 100.025 74.1839 99.4991 74.6265 99.0948C75.0691 98.6906 75.6423 98.4299 76.2597 98.3521L85.3221 97.2031" stroke="#383F42" stroke-opacity="0.99" stroke-linecap="round" stroke-linejoin="round"/>
<path d="M52.7343 73.1753L56.2655 88.3607C56.34 88.6766 56.5294 88.9596 56.8022 89.1628C57.075 89.3659 57.4149 89.4771 57.7656 89.4778H84.0184C84.1743 89.4781 84.3282 89.446 84.4687 89.384C84.6093 89.322 84.7329 89.2316 84.8305 89.1195C84.928 89.0075 84.9969 88.8766 85.0321 88.7367C85.0674 88.5967 85.068 88.4512 85.0339 88.311L81.3566 73.1221C81.2798 72.8081 81.0895 72.5275 80.8168 72.3265C80.5442 72.1254 80.2056 72.0158 79.8564 72.0156H53.7498C53.5948 72.0156 53.4417 72.0475 53.3018 72.1091C53.162 72.1708 53.0388 72.2605 52.9414 72.3717C52.844 72.4829 52.7749 72.6128 52.7391 72.7518C52.7032 72.8909 52.7016 73.0356 52.7343 73.1753Z" stroke="#383F42" stroke-opacity="0.99" stroke-linecap="round" stroke-linejoin="round"/>
<path d="M67.8814 79.0195H65.8504L65.2734 80.6969L66.7313 82.3744H68.7623L69.3392 80.6969L67.8814 79.0195Z" stroke="#383F42" stroke-opacity="0.99" stroke-linecap="round" stroke-linejoin="round"/>
<path d="M86.3203 88.4492H96.7445V88.9705C96.7435 89.2201 96.6352 89.4591 96.4435 89.6353C96.2517 89.8114 95.992 89.9103 95.7213 89.9103H95.4521" stroke="#383F42" stroke-opacity="0.99" stroke-linecap="round" stroke-linejoin="round"/>
<path d="M74.2626 9.31174V120.093C74.2626 120.348 74.1528 120.593 73.9574 120.773C73.762 120.953 73.4969 121.054 73.2206 121.054H2.04198C1.76563 121.054 1.5006 120.953 1.30519 120.773C1.10978 120.593 1 120.348 1 120.093V9.31174C1 9.05696 1.10978 8.81261 1.30519 8.63245C1.5006 8.4523 1.76563 8.35108 2.04198 8.35108H24.5461C24.8385 8.35108 25.1189 8.45818 25.3256 8.6488C25.5324 8.83942 25.6486 9.09796 25.6486 9.36754V11.6954C25.6486 11.965 25.7647 12.2235 25.9715 12.4142C26.1782 12.6048 26.4587 12.7119 26.7511 12.7119H48.5158C48.8082 12.7119 49.0886 12.6048 49.2954 12.4142C49.5022 12.2235 49.6183 11.965 49.6183 11.6954V9.36754C49.6183 9.09796 49.7345 8.83942 49.9412 8.6488C50.148 8.45818 50.4284 8.35108 50.7208 8.35108H73.2033C73.3416 8.34897 73.4789 8.37225 73.6073 8.41958C73.7358 8.46691 73.8527 8.53734 73.9513 8.62675C74.0499 8.71617 74.1282 8.82279 74.1816 8.94039C74.2351 9.05799 74.2626 9.18423 74.2626 9.31174V9.31174Z" fill="white" stroke="#383F42" stroke-opacity="0.99" stroke-linecap="round" stroke-linejoin="round"/>
<path d="M74.2626 19.2766H1V29.4531H74.2626V19.2766Z" fill="#BFBFBF" stroke="#383F42" stroke-opacity="0.99" stroke-linecap="round" stroke-linejoin="round"/>
<path d="M66.0195 23.1133H68.7823" stroke="#383F42" stroke-opacity="0.99" stroke-linecap="round" stroke-linejoin="round"/>
<path d="M66.0195 24.2891H68.7823" stroke="#383F42" stroke-opacity="0.99" stroke-linecap="round" stroke-linejoin="round"/>
<path d="M66.0195 25.4609H68.7823" stroke="#383F42" stroke-opacity="0.99" stroke-linecap="round" stroke-linejoin="round"/>
<path d="M8.67456 24.2891H6.33984" stroke="#383F42" stroke-opacity="0.99" stroke-linecap="round" stroke-linejoin="round"/>
<path d="M7.41771 25.5913L6.00391 24.2878L7.41771 22.9844" stroke="#383F42" stroke-opacity="0.99" stroke-linecap="round" stroke-linejoin="round"/>
<path d="M61.9453 23.1129H58.4648V25.4567H61.9453V23.1129Z" stroke="#383F42" stroke-opacity="0.99" stroke-linecap="round" stroke-linejoin="round"/>
<path d="M58.4648 23.1129L60.2029 24.2848L61.9453 23.1129" stroke="#383F42" stroke-opacity="0.99" stroke-linecap="round" stroke-linejoin="round"/>
<path d="M53.9672 25.9115H51.6238L51.3125 23.1133H54.2785L53.9672 25.9115Z" stroke="#383F42" stroke-opacity="0.99" stroke-linecap="round" stroke-linejoin="round"/>
<path d="M52.2109 23.1106V22.6602H53.3826V23.1106" stroke="#383F42" stroke-opacity="0.99" stroke-linecap="round" stroke-linejoin="round"/>
<path d="M74.2626 112.969V120.092C74.2631 120.218 74.2367 120.343 74.1848 120.459C74.1329 120.576 74.0566 120.682 73.9602 120.771C73.8638 120.86 73.7492 120.931 73.623 120.979C73.4968 121.028 73.3615 121.053 73.2249 121.053H2.04198C1.76563 121.053 1.5006 120.951 1.30519 120.771C1.10978 120.591 1 120.347 1 120.092V112.969H74.2626Z" fill="#407BFF" stroke="#383F42" stroke-opacity="0.99" stroke-linecap="round" stroke-linejoin="round"/>
<path d="M19.5898 38.0273H49.4137" stroke="#383F42" stroke-opacity="0.99" stroke-linecap="round" stroke-linejoin="round"/>
<path d="M14.1116 41.3758C16.1174 41.0757 17.4795 39.3332 17.1539 37.484C16.8283 35.6347 14.9384 34.379 12.9326 34.6791C10.9268 34.9793 9.56472 36.7218 9.89031 38.571C10.2159 40.4202 12.1058 41.676 14.1116 41.3758Z" fill="#407BFF" stroke="#383F42" stroke-opacity="0.99" stroke-linecap="round" stroke-linejoin="round"/>
<path d="M15.0216 40.1484C14.7968 40.1484 14.1569 39.694 14.3731 39.3233C14.5892 38.9526 15.0216 38.3387 15.0216 38.3387C15.2117 37.9933 15.318 37.6138 15.3329 37.2266C15.4237 36.6486 15.0648 35.6641 13.517 35.6641C11.9692 35.6641 11.606 36.6486 11.6968 37.2266C11.7117 37.6138 11.8179 37.9933 12.0081 38.3387C12.0081 38.3387 12.4404 38.9526 12.6609 39.3233C12.8814 39.694 12.2286 40.1484 12.0081 40.1484C11.6465 40.2228 11.2933 40.3282 10.9531 40.4633C10.9531 40.4633 12.4361 41.424 13.517 41.424C14.5979 41.424 16.0809 40.4633 16.0809 40.4633C15.7394 40.3277 15.3847 40.2222 15.0216 40.1484V40.1484Z" fill="white" fill-opacity="0.99"/>
<path d="M1 83.0227H74.2626" stroke="#383F42" stroke-opacity="0.99" stroke-linecap="round" stroke-linejoin="round"/>
<path d="M74.2626 101.567H1V112.967H74.2626V101.567Z" fill="#BFBFBF" stroke="#383F42" stroke-opacity="0.99" stroke-linecap="round" stroke-linejoin="round"/>
<path d="M58.1827 87.3008H64.2357C64.8033 87.3008 65.3477 87.5087 65.749 87.8787C66.1504 88.2487 66.3758 88.7506 66.3758 89.2739V94.8544C66.3758 95.3777 66.1504 95.8796 65.749 96.2496C65.3477 96.6197 64.8033 96.8275 64.2357 96.8275H58.1827C57.6163 96.8275 57.073 96.6201 56.6725 96.2508C56.2719 95.8815 56.0469 95.3807 56.0469 94.8584V89.2779C56.0458 89.0186 56.1002 88.7617 56.207 88.5219C56.3138 88.282 56.471 88.064 56.6694 87.8803C56.8678 87.6966 57.1037 87.5509 57.3634 87.4514C57.6231 87.352 57.9015 87.3008 58.1827 87.3008V87.3008Z" fill="#407BFF" stroke="#383F42" stroke-opacity="0.99" stroke-linecap="round" stroke-linejoin="round"/>
<path d="M59.6269 91.32L61.0797 89.9807C61.2286 89.8432 61.4055 89.7341 61.6003 89.6596C61.795 89.5852 62.0038 89.5469 62.2146 89.5469C62.4254 89.5469 62.6341 89.5852 62.8289 89.6596C63.0236 89.7341 63.2005 89.8432 63.3495 89.9807V89.9807C63.651 90.2587 63.8204 90.6358 63.8204 91.029C63.8204 91.4222 63.651 91.7993 63.3495 92.0774L60.9845 94.2578C60.8849 94.3497 60.7667 94.4227 60.6365 94.4724C60.5063 94.5222 60.3667 94.5478 60.2258 94.5478C60.0848 94.5478 59.9452 94.5222 59.815 94.4724C59.6848 94.4227 59.5666 94.3497 59.467 94.2578V94.2578C59.2679 94.072 59.1562 93.8213 59.1562 93.5602C59.1563 93.299 59.2679 93.0484 59.467 92.8626L61.7152 90.7899C61.8093 90.7032 61.9368 90.6545 62.0698 90.6545C62.2027 90.6545 62.3302 90.7032 62.4243 90.7899C62.4713 90.8325 62.5087 90.8834 62.5342 90.9395C62.5597 90.9956 62.5729 91.0559 62.5729 91.1167C62.5729 91.1776 62.5597 91.2378 62.5342 91.2939C62.5087 91.35 62.4713 91.4009 62.4243 91.4436L61.2094 92.5597" stroke="white" stroke-opacity="0.99" stroke-width="0.5" stroke-linecap="round" stroke-linejoin="round"/>
<path d="M10 47H65" stroke="#383F42" stroke-opacity="0.99" stroke-linecap="round" stroke-linejoin="round"/>
<path d="M10 51H65" stroke="#383F42" stroke-opacity="0.99" stroke-linecap="round" stroke-linejoin="round"/>
<path d="M10 55H65" stroke="#383F42" stroke-opacity="0.99" stroke-linecap="round" stroke-linejoin="round"/>
<path d="M10 59H65" stroke="#383F42" stroke-opacity="0.99" stroke-linecap="round" stroke-linejoin="round"/>
<path d="M10 63H65" stroke="#383F42" stroke-opacity="0.99" stroke-linecap="round" stroke-linejoin="round"/>
<path d="M10 67H56" stroke="#383F42" stroke-opacity="0.99" stroke-linecap="round" stroke-linejoin="round"/>
<path d="M19.5016 104.387H11.6932C10.9005 104.387 10.2578 104.979 10.2578 105.71V108.763C10.2578 109.494 10.9005 110.087 11.6932 110.087H19.5016C20.2943 110.087 20.937 109.494 20.937 108.763V105.71C20.937 104.979 20.2943 104.387 19.5016 104.387Z" stroke="#383F42" stroke-opacity="0.99" stroke-linecap="round" stroke-linejoin="round"/>
<path d="M17.2097 108.391V107.993C17.2097 107.86 17.1814 107.729 17.1264 107.607C17.0715 107.485 16.9909 107.373 16.8893 107.28C16.7877 107.186 16.6672 107.112 16.5344 107.061C16.4017 107.01 16.2595 106.984 16.1158 106.984H14.3086" stroke="#383F42" stroke-opacity="0.99" stroke-linecap="round" stroke-linejoin="round"/>
<path d="M14.9732 107.884L13.9961 106.983L14.9732 106.082" stroke="#383F42" stroke-opacity="0.99" stroke-linecap="round" stroke-linejoin="round"/>
<path d="M41.7984 104.387H33.9901C33.1974 104.387 32.5547 104.979 32.5547 105.71V108.763C32.5547 109.494 33.1974 110.087 33.9901 110.087H41.7984C42.5912 110.087 43.2339 109.494 43.2339 108.763V105.71C43.2339 104.979 42.5912 104.387 41.7984 104.387Z" stroke="#383F42" stroke-opacity="0.99" stroke-linecap="round" stroke-linejoin="round"/>
<path d="M40.0261 108.391V107.993C40.0261 107.725 39.9109 107.469 39.7057 107.28C39.5006 107.091 39.2224 106.984 38.9322 106.984H37.125" stroke="#383F42" stroke-opacity="0.99" stroke-linecap="round" stroke-linejoin="round"/>
<path d="M37.7779 107.884L36.8008 106.983L37.7779 106.082" stroke="#383F42" stroke-opacity="0.99" stroke-linecap="round" stroke-linejoin="round"/>
<path d="M36.7627 107.884L35.7812 106.983L36.7627 106.082" stroke="#383F42" stroke-opacity="0.99" stroke-linecap="round" stroke-linejoin="round"/>
<path d="M56.7992 110.09H64.6076C65.4003 110.09 66.043 109.498 66.043 108.767V105.714C66.043 104.983 65.4003 104.39 64.6076 104.39H56.7992C56.0065 104.39 55.3638 104.983 55.3638 105.714V108.767C55.3638 109.498 56.0065 110.09 56.7992 110.09Z" stroke="#383F42" stroke-opacity="0.99" stroke-linecap="round" stroke-linejoin="round"/>
<path d="M59.0938 108.391V107.993C59.0938 107.725 59.209 107.469 59.4141 107.28C59.6193 107.091 59.8975 106.984 60.1876 106.984H61.9949" stroke="#383F42" stroke-opacity="0.99" stroke-linecap="round" stroke-linejoin="round"/>
<path d="M61.3281 107.884L62.3053 106.983L61.3281 106.082" stroke="#383F42" stroke-opacity="0.99" stroke-linecap="round" stroke-linejoin="round"/>
<path d="M74.2626 9.3044V19.2697H1V9.3044C1 9.04962 1.10978 8.80528 1.30519 8.62512C1.5006 8.44496 1.76563 8.34375 2.04198 8.34375H24.5461C24.8385 8.34375 25.1189 8.45084 25.3256 8.64146C25.5324 8.83209 25.6486 9.09063 25.6486 9.36021V11.6881C25.6486 11.9577 25.7647 12.2162 25.9715 12.4068C26.1782 12.5975 26.4587 12.7045 26.7511 12.7045H48.5158C48.8082 12.7045 49.0886 12.5975 49.2954 12.4068C49.5022 12.2162 49.6183 11.9577 49.6183 11.6881V9.36419C49.6183 9.09461 49.7345 8.83607 49.9412 8.64545C50.148 8.45483 50.4284 8.34774 50.7208 8.34774H73.2033C73.3415 8.34454 73.479 8.36694 73.6077 8.41364C73.7364 8.46033 73.8536 8.53035 73.9523 8.61956C74.0511 8.70877 74.1295 8.81535 74.1828 8.93299C74.236 9.05062 74.2632 9.17692 74.2626 9.3044V9.3044Z" fill="#407BFF" stroke="#383F42" stroke-opacity="0.99" stroke-linecap="round" stroke-linejoin="round"/>
<path d="M97.4102 51.2734V52.16" stroke="#383F42" stroke-opacity="0.99" stroke-linecap="round" stroke-linejoin="round"/>
<path d="M97.4102 53.8867V84.0483" stroke="#383F42" stroke-opacity="0.99" stroke-linecap="round" stroke-linejoin="round" stroke-dasharray="4.86 4.86"/>
<path d="M97.4148 84.9062V85.7928H96.4531" stroke="#383F42" stroke-opacity="0.99" stroke-linecap="round" stroke-linejoin="round"/>
<path d="M94.6416 85.793H73.8086" stroke="#383F42" stroke-opacity="0.99" stroke-linecap="round" stroke-linejoin="round" stroke-dasharray="4.71 4.71"/>
<path d="M72.903 85.7927H71.9414" stroke="#383F42" stroke-opacity="0.99" stroke-linecap="round" stroke-linejoin="round"/>
<path d="M143.049 138.12C143.049 138.12 143.153 140.843 142.138 141.776C141.122 142.709 141.53 145.145 141.53 145.145H150.712L150.966 142.592L149.427 137.496L143.049 138.12Z" fill="#757575" stroke="#383F42" stroke-opacity="0.99" stroke-linecap="round" stroke-linejoin="round"/>
<path d="M120.528 137.496C120.528 137.496 121.539 139.957 117.785 141.149C114.031 142.34 111.8 142.34 111.496 144.302V145.146H119.516L122.047 144.397L122.859 145.146H127.325L127.829 143.649L127.129 138.748L120.528 137.496Z" fill="#757575" stroke="#383F42" stroke-opacity="0.99" stroke-linecap="round" stroke-linejoin="round"/>
<path d="M121.189 70.3624L119.289 80.051C119.289 80.051 118.189 94.5058 118.319 100.535C118.45 106.563 120.731 133.845 120.581 134.934C120.431 136.023 119.216 137.214 119.289 137.392C119.362 137.569 119.75 138.959 119.75 138.959L127.293 139.956L128.34 138.129C128.34 138.129 127.009 136.565 127.293 136.09C127.73 135.149 128.08 134.175 128.34 133.179C128.494 132.526 129.971 95.5307 129.971 95.5307C129.971 95.5307 140.356 132.143 140.356 133.53C140.356 134.916 142.03 136.47 142.03 136.47L141.449 139.246L142.799 140.601C142.799 140.601 146.703 138.966 150.557 140.601L150.354 137.839L149.2 136.455L149.503 134.523C149.503 134.523 147.938 119.522 146.211 112.408C144.484 105.294 143.372 81.5546 142.899 79.8453C142.426 78.1359 140.849 69.4297 140.849 69.4297L121.189 70.3624Z" fill="#383F42" fill-opacity="0.99"/>
<path d="M109.924 19.2266H84.8981C83.6341 19.2266 82.6094 20.1713 82.6094 21.3366V48.1576C82.6094 49.323 83.6341 50.2677 84.8981 50.2677H109.924C111.188 50.2677 112.212 49.323 112.212 48.1576V21.3366C112.212 20.1713 111.188 19.2266 109.924 19.2266Z" fill="#407BFF" stroke="#383F42" stroke-opacity="0.99" stroke-linecap="round" stroke-linejoin="round"/>
<path d="M103.841 26.0391H89.082V45.5191H103.841V26.0391Z" fill="white"/>
<path opacity="0.4" d="M103.841 26.0391H89.082V45.5191H103.841V26.0391Z" fill="#407BFF"/>
<path d="M103.841 26.0391H89.082V45.5191H103.841V26.0391Z" stroke="#383F42" stroke-opacity="0.99" stroke-linecap="round" stroke-linejoin="round"/>
<path d="M103.356 23.286L88.8828 25.95L93.0194 45.053L107.493 42.3891L103.356 23.286Z" fill="white" stroke="#383F42" stroke-opacity="0.99" stroke-linecap="round" stroke-linejoin="round"/>
<path d="M89.9648 25.6555C90.0734 25.4143 90.257 25.2081 90.4925 25.063C90.728 24.9178 91.0048 24.8402 91.2881 24.8398V24.8398C91.6665 24.8398 92.0295 24.9785 92.2971 25.2252C92.5648 25.4719 92.7151 25.8066 92.7151 26.1555V28.9004C92.7151 29.133 92.6152 29.3562 92.4371 29.521C92.259 29.6859 92.0174 29.779 91.765 29.7799C91.512 29.7799 91.2694 29.6872 91.0905 29.5223C90.9116 29.3574 90.8111 29.1337 90.8111 28.9004V26.2938C90.8111 26.1847 90.8581 26.0801 90.9418 26.003C91.0255 25.9258 91.1389 25.8825 91.2573 25.8825V25.8825C91.3159 25.8825 91.3739 25.8931 91.428 25.9138C91.4822 25.9345 91.5314 25.9648 91.5728 26.003C91.6142 26.0412 91.6471 26.0865 91.6695 26.1364C91.6919 26.1863 91.7035 26.2398 91.7035 26.2938V27.6946" stroke="#383F42" stroke-opacity="0.99" stroke-width="1.5" stroke-linecap="round" stroke-linejoin="round"/>
<path d="M112.808 55.3571C112.808 57.2651 109.731 57.8396 109.731 57.8396C104.1 53.0768 102.83 47.2254 100.092 46.2962C99.8439 46.209 99.6157 46.0803 99.4185 45.9168C98.8669 45.4089 98.4485 44.7915 98.1953 44.1117L101.838 43.4414C102.002 42.5667 102.334 41.726 102.819 40.959C103.084 40.6044 102.7 39.81 102.25 38.9092C102.171 38.7243 102.147 38.5234 102.18 38.3271C102.213 38.1309 102.302 37.9462 102.438 37.7921C103.291 38.434 103.965 39.2548 104.404 40.1859C104.961 41.5583 104.404 44.7961 106.046 46.3849C108.989 49.2432 109.431 49.0801 112.201 51.2788C112.547 52.6167 112.751 53.9827 112.808 55.3571Z" fill="#FFB573"/>
<path opacity="0.4" d="M99.4185 45.905C98.8669 45.3971 98.4485 44.7797 98.1953 44.0999L101.838 43.4297C101.736 43.9587 101.736 44.5001 101.838 45.0291C101.953 45.444 100.526 45.4476 99.4185 45.905Z" fill="#407BFF"/>
<path d="M122.963 40.9492V53.3898C122.963 53.3898 121.209 54.9856 119.305 56.6666C117.27 58.4646 115.074 60.3583 114.647 60.5108C113.835 60.8016 112.212 59.6562 112.212 59.6562C111.3 60.2165 110.385 59.0249 110.385 59.0249C109.473 59.8867 108.557 58.4398 109.677 56.9432C110.796 55.4467 112.212 51.2691 112.212 51.2691C112.277 51.206 112.356 51.1558 112.443 51.1215C112.531 51.0872 112.625 51.0696 112.719 51.0696C112.814 51.0696 112.908 51.0872 112.995 51.1215C113.083 51.1558 113.161 51.206 113.227 51.2691C113.227 51.2691 120.209 42.1656 122.963 40.9492Z" fill="#407BFF"/>
<path opacity="0.2" d="M122.964 46.2773V53.3949C122.964 53.3949 121.21 54.9907 119.306 56.6717C118.504 55.8914 117.946 54.9258 117.691 53.8772C117.464 52.3948 119.364 53.4658 119.364 53.4658C117.995 52.1962 119.595 46.3731 119.676 47.3625C119.745 48.1605 119.968 49.8946 120.06 50.5223C119.876 48.2881 122.307 46.5291 122.964 46.2773Z" fill="black" fill-opacity="0.7"/>
<path d="M122.963 40.9492V53.3898C122.963 53.3898 121.209 54.9856 119.305 56.6666C117.27 58.4646 115.074 60.3583 114.647 60.5108C113.835 60.8016 112.212 59.6562 112.212 59.6562C111.3 60.2165 110.385 59.0249 110.385 59.0249C109.473 59.8867 108.557 58.4398 109.677 56.9432C110.796 55.4467 112.212 51.2691 112.212 51.2691C112.277 51.206 112.356 51.1558 112.443 51.1215C112.531 51.0872 112.625 51.0696 112.719 51.0696C112.814 51.0696 112.908 51.0872 112.995 51.1215C113.083 51.1558 113.161 51.206 113.227 51.2691C113.227 51.2691 120.209 42.1656 122.963 40.9492Z" stroke="#383F42" stroke-opacity="0.99" stroke-linecap="round" stroke-linejoin="round"/>
<path d="M141.632 70.3301C142.382 71.4543 121.73 71.9366 120.306 71.0394C120.136 70.9357 119.991 70.7989 119.883 70.6387C119.237 69.6705 120.306 68.2307 120.306 68.2307C120.306 68.2307 120.126 48.4315 122.964 40.9523C125.704 40.6755 128.46 40.557 131.215 40.5976C133.058 40.6224 135.096 40.7182 137.204 40.9523C138.743 41.1083 140.612 41.3991 142.47 41.7183C145.574 42.2573 148.625 42.8886 149.813 43.1368L150.356 43.2538C150.356 43.2538 140.882 69.2095 141.632 70.3301Z" fill="#407BFF"/>
<path opacity="0.2" d="M129.778 45.0306C129.778 45.0306 128.397 42.878 130.698 40.9523C130.856 40.8183 131.029 40.6994 131.213 40.5977C133.056 40.6225 135.094 40.7182 137.202 40.9523C138.741 41.1083 140.61 41.3991 142.468 41.7183L134.202 45.7469L132.486 44.1334L129.778 45.0306Z" fill="black" fill-opacity="0.7"/>
<path opacity="0.2" d="M141.627 70.3304C142.377 71.4546 121.725 71.9369 120.302 71.0397C120.131 70.9359 119.987 70.7992 119.879 70.6389C123.979 71.3269 134.111 70.4616 136.861 69.4367C140.131 68.2239 142.035 62.7235 140.993 63.2838C139.95 63.8441 136.481 63.4966 139.104 62.3015C141.727 61.1064 144.643 57.1912 144.643 57.1912C144.643 57.1912 142.797 52.2724 143.404 51.2724C143.847 50.5383 144.416 51.8965 144.689 52.6909C144.224 50.6695 145.885 48.6516 145.885 48.6516L149.824 43.1406L150.367 43.2577C150.367 43.2577 140.877 69.2098 141.627 70.3304Z" fill="black" fill-opacity="0.7"/>
<path d="M141.632 70.3301C142.382 71.4543 121.73 71.9366 120.306 71.0394C120.136 70.9357 119.991 70.7989 119.883 70.6387C119.237 69.6705 120.306 68.2307 120.306 68.2307C120.306 68.2307 120.126 48.4315 122.964 40.9523C125.704 40.6755 128.46 40.557 131.215 40.5976C133.058 40.6224 135.096 40.7182 137.204 40.9523C138.743 41.1083 140.612 41.3991 142.47 41.7183C145.574 42.2573 148.625 42.8886 149.813 43.1368L150.356 43.2538C150.356 43.2538 140.882 69.2095 141.632 70.3301Z" stroke="#383F42" stroke-opacity="0.99" stroke-linecap="round" stroke-linejoin="round"/>
<path d="M140.474 41.2802C140.474 41.2802 132.781 44.1173 130.27 41.1526C130.698 41.175 131.126 41.0974 131.513 40.9269C131.9 40.7565 132.235 40.4986 132.485 40.1773C132.88 39.6134 133.095 38.9583 133.104 38.2871C133.139 37.6592 133.095 37.0298 132.974 36.4111C132.677 34.7479 140.251 35.8224 140.251 35.8224C140.251 35.8224 138.624 40.4433 140.474 41.2802Z" fill="#FFB573" stroke="#383F42" stroke-opacity="0.99" stroke-linecap="round" stroke-linejoin="round"/>
<path d="M135.923 37.6289C135.923 37.6289 134.6 39.7319 132.488 40.1787C132.883 39.6148 133.098 38.9597 133.108 38.2885C134.538 37.9055 135.923 37.6289 135.923 37.6289Z" fill="#383F42" fill-opacity="0.99"/>
<path d="M140.251 35.4408C142.394 32.5151 145.66 20.9682 135.124 23.2237C129.885 24.3443 130.562 30.671 130.562 30.671L128.758 32.7314L130.25 33.8981L130.189 35.2706L130.696 35.4373C130.696 35.4373 130.25 38.7744 130.696 38.9836C131.512 39.3666 136.87 38.7637 136.87 37.5651" fill="#FFB573"/>
<path d="M140.251 35.4408C142.394 32.5151 145.66 20.9682 135.124 23.2237C129.885 24.3443 130.562 30.671 130.562 30.671L128.758 32.7314L130.25 33.8981L130.189 35.2706L130.696 35.4373C130.696 35.4373 130.25 38.7744 130.696 38.9836C131.512 39.3666 136.87 38.7637 136.87 37.5651" stroke="#383F42" stroke-opacity="0.99" stroke-linecap="round" stroke-linejoin="round"/>
<path d="M130.699 35.4414C131.578 35.5429 132.467 35.5572 133.35 35.484C133.152 35.8049 132.839 36.0518 132.464 36.1814C132.089 36.311 131.677 36.3152 131.299 36.1932" stroke="#383F42" stroke-opacity="0.99" stroke-linecap="round" stroke-linejoin="round"/>
<path d="M131.453 28.1373C131.453 28.1373 133.242 27.9742 134.088 29.0842" stroke="#383F42" stroke-opacity="0.99" stroke-linecap="round" stroke-linejoin="round"/>
<path d="M132.517 30.6736C132.517 31.0034 132.371 31.2693 132.194 31.2693C132.017 31.2693 131.871 31.0034 131.871 30.6736C131.871 30.3437 132.013 30.0742 132.194 30.0742C132.375 30.0742 132.517 30.3437 132.517 30.6736Z" fill="#383F42" fill-opacity="0.99"/>
<path d="M143.512 24.9821C141.815 23.3685 134.553 21.0031 132.487 21.9784C129.456 23.0423 130.272 26.0956 130.272 26.0956L130.699 25.0317C130.699 25.0317 130.922 25.9325 132.487 26.4751V25.8013C133.477 26.1748 134.548 26.3291 135.615 26.2517L135.284 25.7978C135.693 25.8835 136.095 25.9949 136.488 26.1311C135.334 28.1171 136.638 29.5214 136.638 29.5214V32.2095C136.638 32.2095 138.176 33.5962 138.611 34.9934C138.701 35.3717 138.903 35.7195 139.195 35.9977C139.487 36.2758 139.858 36.4733 140.265 36.568C143.604 34.6813 145.296 26.6808 143.512 24.9821Z" fill="#383F42" fill-opacity="0.99"/>
<path d="M136.281 32.6064C136.281 32.6064 137.931 30.5566 138.782 30.8828C139.632 31.2091 139.851 33.0993 139.405 33.9646C138.958 34.8299 137.351 36.596 136.997 35.9399" fill="#FFB573"/>
<path d="M136.281 32.6064C136.281 32.6064 137.931 30.5566 138.782 30.8828C139.632 31.2091 139.851 33.0993 139.405 33.9646C138.958 34.8299 137.351 36.596 136.997 35.9399" stroke="#383F42" stroke-opacity="0.99" stroke-linecap="round" stroke-linejoin="round"/>
<path d="M113.227 51.2734C113.955 53.6165 113.955 56.1011 113.227 58.4441" stroke="#383F42" stroke-opacity="0.99" stroke-linecap="round" stroke-linejoin="round"/>
<path d="M110.387 59.0298C110.387 59.0298 111.925 56.8559 112.214 55.3594" stroke="#383F42" stroke-opacity="0.99" stroke-linecap="round" stroke-linejoin="round"/>
<path d="M130.695 42.5041L131.465 45.0291C131.465 45.0291 126.93 59.0052 126.422 63.0268L127.437 64.4453L129.361 63.1083C129.361 63.1083 131.261 49.3485 132.492 45.5079L134.827 42.5928L133.353 42.458L130.695 42.5041Z" fill="#383F42" fill-opacity="0.99"/>
<path d="M131.883 40.1794L132.775 41.8888L140.468 40.1794L142.461 41.7186L134.083 45.0308L132.767 42.6051L130.263 44.2294C130.263 44.2294 128.421 40.4312 131.883 40.1794Z" fill="#407BFF" stroke="#383F42" stroke-opacity="0.99" stroke-linecap="round" stroke-linejoin="round"/>
<path d="M149.724 63.8438C147.69 65.5517 145.923 67.5114 144.473 69.6668C142.419 72.894 139.299 76.1212 137.699 76.9617C137.699 76.9617 137.853 79.8377 139.83 81.4513C139.83 81.4513 152.839 70.8123 154.447 67.4929C156.055 64.1736 149.724 63.8438 149.724 63.8438Z" fill="#FFB573" stroke="#383F42" stroke-opacity="0.99" stroke-linecap="round" stroke-linejoin="round"/>
<path d="M150.353 43.2539C152.787 44.3178 156.122 63.2943 156.222 65.9221C156.249 66.7626 154.411 68.5819 154.411 68.5819C154.411 68.5819 154.441 70.2132 153.311 70.355C153.311 70.355 149.949 67.1633 147.106 65.9363C147.044 65.7928 147.023 65.6368 147.046 65.4837C147.069 65.3306 147.136 65.1858 147.238 65.0636C147.341 64.9413 147.476 64.846 147.631 64.7869C147.786 64.7279 147.955 64.7072 148.122 64.727L145.918 55.8611C143.556 48.5557 148.529 44.8675 148.529 44.8675" fill="#407BFF"/>
<path d="M150.353 43.2539C152.787 44.3178 156.122 63.2943 156.222 65.9221C156.249 66.7626 154.411 68.5819 154.411 68.5819C154.411 68.5819 154.441 70.2132 153.311 70.355C153.311 70.355 149.949 67.1633 147.106 65.9363C147.044 65.7928 147.023 65.6368 147.046 65.4837C147.069 65.3306 147.136 65.1858 147.238 65.0636C147.341 64.9413 147.476 64.846 147.631 64.7869C147.786 64.7279 147.955 64.7072 148.122 64.727L145.918 55.8611C143.556 48.5557 148.529 44.8675 148.529 44.8675" stroke="#383F42" stroke-opacity="0.99" stroke-linecap="round" stroke-linejoin="round"/>
<path d="M148.121 64.7344C148.121 64.7344 151.468 64.9684 153.295 67.4934" stroke="#383F42" stroke-opacity="0.99" stroke-linecap="round" stroke-linejoin="round"/>
<path d="M132.954 73.6389C135.019 73.5711 137.076 73.3637 139.108 73.0183L138.947 71.3125C136.895 71.5977 134.827 71.7824 132.754 71.8657C132.812 72.348 132.9 73.114 132.954 73.6389Z" fill="#757575" stroke="#383F42" stroke-opacity="0.99" stroke-linecap="round" stroke-linejoin="round"/>
<path d="M139.861 72.886C140.245 72.8115 140.63 72.73 141.015 72.6448L140.738 71.0312C140.738 71.0312 140.376 71.1057 139.699 71.2121L139.861 72.886Z" fill="#757575" stroke="#383F42" stroke-opacity="0.99" stroke-linecap="round" stroke-linejoin="round"/>
<path d="M131.887 71.8924C128.869 71.9804 125.848 71.8963 122.84 71.6406L122.621 73.1762C125.722 73.5643 128.851 73.7315 131.98 73.6762L131.887 71.8924Z" fill="#757575" stroke="#383F42" stroke-opacity="0.99" stroke-linecap="round" stroke-linejoin="round"/>
<path d="M122.227 71.5853L121.458 71.5109L121.254 72.9826C121.254 72.9826 121.531 73.0287 122.023 73.0961L122.227 71.5853Z" fill="#757575" stroke="#383F42" stroke-opacity="0.99" stroke-linecap="round" stroke-linejoin="round"/>
<path d="M128.261 73.798L124.914 73.6916L125.168 71.7305L128.514 71.8369L128.261 73.798Z" fill="#BFBFBF" stroke="#383F42" stroke-opacity="0.99" stroke-linecap="round" stroke-linejoin="round"/>
<path d="M111.906 144.398H119.057L122.403 143.742L123.827 144.398H126.769" stroke="#383F42" stroke-opacity="0.99" stroke-linecap="round" stroke-linejoin="round"/>
<path d="M141.934 144.398H150" stroke="#383F42" stroke-opacity="0.99" stroke-linecap="round" stroke-linejoin="round"/>
<path d="M142.949 141.324C142.949 141.324 146.442 140.015 148.581 140.891" stroke="#383F42" stroke-opacity="0.99" stroke-linecap="round" stroke-linejoin="round"/>
<path d="M135.372 49.7383L140.992 50.2667L139.677 55.7068L136.707 56.0543L134.199 54.5861L134.819 50.2667" stroke="#383F42" stroke-opacity="0.99" stroke-linecap="round" stroke-linejoin="round"/>
<path d="M149.341 50.2695C149.341 50.2695 146.93 51.1384 146.676 54.5251" stroke="#383F42" stroke-opacity="0.99" stroke-linecap="round" stroke-linejoin="round"/>
<path d="M119.363 48.3398C119.363 48.3398 119.636 51.9465 120.794 53.897" stroke="#383F42" stroke-opacity="0.99" stroke-linecap="round" stroke-linejoin="round"/>
<path d="M121.746 68.5327C121.746 68.5327 131.563 67.8447 134.44 65.3906" stroke="#383F42" stroke-opacity="0.99" stroke-linecap="round" stroke-linejoin="round"/>
<path d="M143.938 52.3911C143.938 52.3911 144.553 54.6537 145.768 55.3559" stroke="#383F42" stroke-opacity="0.99" stroke-linecap="round" stroke-linejoin="round"/>
<g opacity="0.2">
<path opacity="0.2" d="M125.977 76.1594C125.977 76.1594 125.85 82.745 126.408 83.5713C126.966 84.3976 127.297 84.5536 127.297 84.5536" stroke="white" stroke-linecap="round" stroke-linejoin="round"/>
<path opacity="0.2" d="M127.301 75.7681C127.301 75.7681 127.328 85.6659 128.516 88.964" stroke="white" stroke-linecap="round" stroke-linejoin="round"/>
<path opacity="0.2" d="M136.867 75.0581C136.867 75.0581 136.994 80.2889 140.998 82.5834" stroke="white" stroke-linecap="round" stroke-linejoin="round"/>
<path opacity="0.2" d="M142.188 80.9214C142.188 80.9214 142.342 86.3615 142.188 87.4821C142.034 88.6028 143.027 93.8939 143.027 96.0891C143.027 98.2843 143.861 101.724 143.861 102.494" stroke="white" stroke-linecap="round" stroke-linejoin="round"/>
<path opacity="0.2" d="M128.875 90.6597C128.875 90.6597 134.699 92.3938 135.933 92.1881" stroke="white" stroke-linecap="round" stroke-linejoin="round"/>
<path opacity="0.2" d="M128.874 91.8243C128.266 91.342 123.623 93.4876 123.016 93.2429" stroke="white" stroke-linecap="round" stroke-linejoin="round"/>
<path opacity="0.2" d="M128.874 93.2769C128.721 93.518 124.155 99.3695 123.547 98.724" stroke="white" stroke-linecap="round" stroke-linejoin="round"/>
<path opacity="0.2" d="M129.633 92.5151C129.633 92.5151 134.464 96.9551 135.93 97.4445" stroke="white" stroke-linecap="round" stroke-linejoin="round"/>
<path opacity="0.2" d="M142.949 135.874C142.949 135.874 146.45 132.912 146.83 132.295C147.211 131.678 143.484 130.976 143.484 130.976" stroke="white" stroke-linecap="round" stroke-linejoin="round"/>
<path opacity="0.2" d="M143.859 137.497C143.859 137.497 146.448 136.653 148.121 137.394" stroke="white" stroke-linecap="round" stroke-linejoin="round"/>
<path opacity="0.2" d="M122.18 134.371C122.18 134.371 125.526 132.471 125.453 131.339" stroke="white" stroke-linecap="round" stroke-linejoin="round"/>
<path opacity="0.2" d="M126.767 135.116C126.767 135.116 122.863 137.102 121.72 137.092C120.578 137.081 124.84 138.553 125.905 138.344" stroke="white" stroke-linecap="round" stroke-linejoin="round"/>
</g>
<path d="M99.0492 31.9762L98.3617 29.4105L94.5886 30.4215C94.3245 30.4923 94.1914 30.7504 94.2571 30.9956L96.6027 39.7493C96.6735 40.0134 96.9127 40.1515 97.1768 40.0808L103.516 38.3823C103.761 38.3166 103.918 38.0723 103.847 37.8082L102.189 31.6202L99.6233 32.3077C99.3592 32.3785 99.12 32.2404 99.0492 31.9762ZM100.722 33.6916L100.06 35.7494L101.667 37.2195C101.802 37.3451 101.739 37.5641 101.57 37.6096L100.909 37.7865C100.815 37.8118 100.729 37.7943 100.672 37.7289C100.112 37.1509 99.6436 36.6092 99.6436 36.6092C99.5873 36.9276 99.556 37.0371 99.2943 38.098C99.2768 38.1835 99.2165 38.2604 99.1222 38.2856L98.4808 38.4575C98.2921 38.508 98.1233 38.3309 98.1772 38.1547L98.8579 36.0918L97.2319 34.6268C97.0971 34.5011 97.1598 34.2821 97.3484 34.2316L97.9899 34.0597C98.0842 34.0344 98.1698 34.0519 98.2277 34.1173C98.9659 34.9103 98.7719 34.6388 99.2695 35.2131C99.2695 35.2131 99.3271 34.9753 99.6049 33.7483C99.6224 33.6627 99.6878 33.6047 99.7821 33.5795L100.442 33.4025C100.607 33.3382 100.776 33.5154 100.722 33.6916ZM101.997 30.9033C101.967 30.7901 101.88 30.6921 101.779 30.618L99.4347 29.2645C99.3202 29.2143 99.1918 29.1881 99.0786 29.2184L98.9654 29.2487L99.6125 31.6636L102.027 31.0165L101.997 30.9033Z" fill="#217346"/>
<path d="M12.5 90.125V88H9.375C9.15625 88 9 88.1719 9 88.375V95.625C9 95.8438 9.15625 96 9.375 96H14.625C14.8281 96 15 95.8438 15 95.625V90.5H12.875C12.6562 90.5 12.5 90.3438 12.5 90.125ZM13.4375 91.7969L12.5 93.25L13.4375 94.7188C13.5156 94.8438 13.4219 95 13.2812 95H12.7344C12.6562 95 12.5938 94.9688 12.5625 94.9062C12.25 94.3438 12 93.8281 12 93.8281C11.8906 94.0625 11.8438 94.1406 11.4219 94.9062C11.3906 94.9688 11.3281 95.0156 11.25 95.0156H10.7188C10.5625 95.0156 10.4688 94.8438 10.5469 94.7188L11.5 93.2656L10.5469 91.7969C10.4688 91.6719 10.5625 91.5156 10.7188 91.5156H11.25C11.3281 91.5156 11.3906 91.5469 11.4219 91.6094C11.8281 92.375 11.7344 92.125 12 92.6719C12 92.6719 12.0938 92.5 12.5625 91.6094C12.5938 91.5469 12.6562 91.5156 12.7344 91.5156H13.2812C13.4219 91.5 13.5156 91.6719 13.4375 91.7969ZM15 89.9062C15 89.8125 14.9531 89.7188 14.8906 89.6406L13.3594 88.1094C13.2812 88.0469 13.1875 88 13.0938 88H13V90H15V89.9062Z" fill="#407BFF"/>
<path d="M112.808 55.3571C112.808 57.2651 109.731 57.8396 109.731 57.8396C104.1 53.0768 102.83 47.2254 100.092 46.2962C99.8439 46.209 99.6157 46.0803 99.4185 45.9168C98.8669 45.4089 98.4485 44.7915 98.1953 44.1117L101.838 43.4414C102.002 42.5667 102.334 41.726 102.819 40.959C103.084 40.6044 102.7 39.81 102.25 38.9092C102.171 38.7243 102.147 38.5234 102.18 38.3271C102.213 38.1309 102.302 37.9462 102.438 37.7921C103.291 38.434 103.965 39.2548 104.404 40.1859C104.961 41.5583 104.404 44.7961 106.046 46.3849C108.989 49.2432 109.431 49.0801 112.201 51.2788C112.547 52.6167 112.751 53.9827 112.808 55.3571Z" stroke="#383F42" stroke-opacity="0.99" stroke-linecap="round" stroke-linejoin="round"/>
<path d="M5.63672 145.149H167" stroke="#383F42" stroke-opacity="0.99" stroke-linecap="round" stroke-linejoin="round"/>
</svg>
