<svg xmlns="http://www.w3.org/2000/svg" fill="none" width="180" height="107" viewBox="0 0 180 107"><path d="M166.438 54.65h-16.001a2.003 2.003 0 0 1-2.002-2.005V30.467c0-1.107.896-2.005 2.002-2.005h10.148l7.855 8.108v16.075a2.003 2.003 0 0 1-2.002 2.005" fill="#fff"/><path d="M160.585 28.462v6.242c0 1.03.834 1.865 1.862 1.865h5.993l-7.855-8.107z" fill="#F3F2F1"/><path d="M160.667 35.252s-.079 1.514 1.642 2.011c.064.02.131.033.197.045.783.14 5.934 1.058 5.934.939V36.57h-5.993s-1.497-.051-1.78-1.318" fill="#9D9D9D"/><path d="M166.438 54.65c-.001-.01.12.002.346-.041a1.982 1.982 0 0 0 1.624-1.838c.01-.647-.001-1.397-.001-2.235l-.024-13.966.016.04-7.862-8.102.048.02-5.856.003h-3.84c-.261.004-.523-.013-.769.029a1.934 1.934 0 0 0-1.61 1.77c-.013.355-.003.726-.006 1.087l-.001 2.163-.001 4.23-.004 7.995-.003 3.723-.001 1.783-.001.871c.004.29-.019.576.037.844a1.952 1.952 0 0 0 1.644 1.55c.255.032.526.016.787.02l3.02.005 9.115.022 2.478.013.644.006c.146.003.22.008.22.008s-.074.004-.22.007l-.644.007-2.478.012-9.115.022-3.02.005c-.263-.004-.525.013-.802-.02a2.064 2.064 0 0 1-1.741-1.635c-.06-.29-.036-.58-.041-.866l-.001-.87-.002-1.784-.003-3.723-.004-7.995-.001-4.23v-2.163c.003-.365-.008-.723.007-1.097a2.073 2.073 0 0 1 1.725-1.896c.27-.045.533-.026.791-.03h3.84l5.856.002h.028l.019.02 7.85 8.114.016.017v.023l-.025 13.966c-.005.84.002 1.585-.014 2.238-.04.666-.4 1.16-.745 1.438a1.988 1.988 0 0 1-1.188.438h-.088" fill="#9D9D9D"/><path d="M168.44 36.57c0 .005-.053.01-.154.014l-.441.013-1.624.021-2.408.015h-1.423a1.923 1.923 0 0 1-1.392-.654 1.946 1.946 0 0 1-.393-.694c-.084-.25-.094-.524-.088-.765l.004-1.425.015-2.411.022-1.626.013-.441a.603.603 0 0 1 .014-.155c.005 0 .009.053.014.155l.013.441.021 1.626.015 2.411.004 1.425c-.031.487.108.988.449 1.368.333.381.817.6 1.293.61l1.419.008 2.408.015 1.624.022.441.013c.101.004.154.01.154.014m-8.157-2.538c0 .038-1.891.07-4.221.07-2.332 0-4.222-.032-4.222-.07 0-.038 1.89-.069 4.222-.069 2.33 0 4.221.031 4.221.069zm4.005 3.114c0 .038-2.787.069-6.224.069-3.438 0-6.224-.031-6.224-.07 0-.037 2.786-.068 6.224-.068 3.437 0 6.224.03 6.224.069zm0 3.114c0 .037-2.787.068-6.224.068-3.438 0-6.224-.03-6.224-.069 0-.038 2.786-.069 6.224-.069 3.437 0 6.224.031 6.224.07zm0 3.113c0 .038-2.787.07-6.224.07-3.438 0-6.224-.032-6.224-.07 0-.038 2.786-.069 6.224-.069 3.437 0 6.224.03 6.224.069zm0 3.114c0 .038-2.787.069-6.224.069-3.438 0-6.224-.031-6.224-.07 0-.037 2.786-.068 6.224-.068 3.437 0 6.224.03 6.224.069zm0 3.84c0 .038-2.787.069-6.224.069-3.438 0-6.224-.03-6.224-.069 0-.038 2.786-.07 6.224-.07 3.437 0 6.224.032 6.224.07z" fill="#9D9D9D"/><path d="M157.321 50.327h-11.358c-.617 0-1.116-.5-1.116-1.118v-3.88c0-.617.499-1.117 1.116-1.117h11.358c.617 0 1.117.5 1.117 1.118v3.88c0 .617-.5 1.117-1.117 1.117" fill="#9D9D9D"/><path d="M147.443 48.078c.458 0 .758-.274.758-.717 0-.442-.3-.716-.758-.716h-.488v1.433h.488zm-1.022-1.872h1.048c.755 0 1.273.456 1.273 1.155 0 .7-.518 1.156-1.273 1.156h-1.048v-2.311zm4.562 1.155c0-.439-.31-.739-.722-.739s-.722.3-.722.74c0 .438.31.739.722.739s.722-.3.722-.74zm-1.985 0c0-.686.534-1.194 1.263-1.194.725 0 1.262.505 1.262 1.194 0 .69-.537 1.195-1.262 1.195-.729 0-1.263-.508-1.263-1.195zm2.782 0c0-.696.534-1.194 1.253-1.194.398 0 .731.145.949.409l-.343.317a.741.741 0 0 0-.58-.271c-.432 0-.739.304-.739.74 0 .435.307.739.739.739a.734.734 0 0 0 .58-.274l.343.317c-.218.267-.551.412-.953.412-.715 0-1.249-.498-1.249-1.195zm3.968 1.156-.557-.803-.547.803h-.613l.854-1.176-.811-1.135h.606l.531.75.521-.75h.577l-.804 1.116.859 1.195h-.616m-8.303 34.768-12.117 21.22-23.972.346a1.453 1.453 0 0 0-1.429 1.374l24.38.069.916-.031 30.526.06 6.168-10.653 7.88-11.308a1.116 1.116 0 0 0-.918-1.755l-30.471.117a1.115 1.115 0 0 0-.963.561z" fill="#fff"/><path d="M179.801 83.411c0 .005-.049.01-.146.016l-.428.015-1.648.028-6.062.048-20 .044h-1.455a1.2 1.2 0 0 0-1.11.525l-1.358 2.45-2.573 4.651-4.373 7.867-2.97 5.291-.821 1.43-.22.369a.53.53 0 0 1-.084.12.487.487 0 0 1 .057-.135l.194-.383.771-1.459 2.887-5.338 4.316-7.899c.816-1.485 1.672-3.043 2.558-4.659l1.365-2.47c.282-.452.854-.706 1.361-.662h1.455l20 .044 6.062.048 1.648.029c.173.006.314.01.428.015.097.005.146.01.146.015" fill="#9D9D9D"/><path d="M158.32 94.079c-.539.598-.551 1.467-.028 1.94.523.472 1.385.37 1.924-.228.539-.599.552-1.467.029-1.94-.524-.473-1.385-.371-1.925.228z" fill="#fff"/><path d="M4.046 83.685v12.69H1.93v1.377h2.116v8.494h39.552v-7.729h-2.93v-1.683h2.93V94.31H44.9v-1.148h-1.546v-9.476H4.046z" fill="#F3F2F1"/><path d="M33.095 83.722v22.382h10.503v-7.728h-2.93v-1.542l2.93.052v-2.525l1.327.002-.025-1.305-1.546-.038v-9.335l-10.26.037" fill="#9D9D9D"/><path d="M33.843 97.57c0 .078-7.157.14-15.983.14-8.83 0-15.985-.062-15.985-.14 0-.077 7.155-.14 15.985-.14 8.826 0 15.983.063 15.983.14zm0-1.289c0 .078-7.157.14-15.983.14-8.83 0-15.985-.062-15.985-.14 0-.078 7.155-.14 15.985-.14 8.826 0 15.983.062 15.983.14zm2.053-3.469c0 .078-7.157.14-15.983.14-8.83 0-15.985-.062-15.985-.14 0-.078 7.155-.14 15.985-.14 8.826 0 15.983.062 15.983.14zm.198 9.454c0 .077-7.157.14-15.984.14-8.83 0-15.985-.063-15.985-.14 0-.078 7.156-.141 15.985-.141 8.827 0 15.984.063 15.984.141z" fill="#9D9D9D"/><path d="M136.028 29.668h-15.631a1.957 1.957 0 0 1-1.956-1.958V6.045c0-1.082.876-1.958 1.956-1.958h9.913l7.674 7.92V27.71a1.957 1.957 0 0 1-1.956 1.958" fill="#fff"/><path d="M130.31 4.087v6.097a1.82 1.82 0 0 0 1.819 1.822h5.855l-7.674-7.92" fill="#F3F2F1"/><path d="M130.39 10.719s-.077 1.479 1.604 1.965c.064.018.128.032.193.043.765.137 5.797 1.034 5.797.918v-1.639h-5.855s-1.462-.05-1.739-1.287" fill="#9D9D9D"/><path d="M136.028 29.668c0-.009.118.002.338-.04a1.939 1.939 0 0 0 1.587-1.795c.009-.632-.002-1.365-.002-2.183l-.024-13.644.016.04-7.68-7.913.047.02-5.72.002h-3.752c-.254.004-.51-.013-.75.028a1.89 1.89 0 0 0-1.571 1.727c-.014.347-.004.71-.007 1.063v2.113l-.001 4.131-.004 7.81-.003 3.638-.002 1.742-.001.851c.005.283-.018.562.036.824a1.91 1.91 0 0 0 1.605 1.512c.25.032.514.017.769.021l2.951.005 8.904.021 2.42.013.63.007c.142.003.214.007.214.007s-.072.005-.214.007l-.63.007-2.42.013-8.904.022-2.951.004c-.257-.004-.513.014-.783-.019a2.021 2.021 0 0 1-1.703-1.598c-.058-.283-.034-.567-.04-.846l-.001-.85-.001-1.743a81609.168 81609.168 0 0 1-.007-11.447l-.001-4.132-.001-2.113c.004-.357-.007-.706.008-1.072a2.023 2.023 0 0 1 1.686-1.854c.264-.044.52-.025.772-.03h.76l2.992.001 5.72.002h.028l.02.02 7.668 7.926.016.017v.023l-.025 13.644c-.005.82.002 1.548-.014 2.186a1.968 1.968 0 0 1-.728 1.405 1.94 1.94 0 0 1-1.16.427c-.058.002-.087 0-.087 0" fill="#9D9D9D"/><path d="M137.984 12.006c0 .005-.052.01-.15.014l-.431.013-1.587.022-2.352.014-1.391.001a1.878 1.878 0 0 1-1.36-.64 1.871 1.871 0 0 1-.384-.679c-.083-.243-.093-.512-.086-.748l.004-1.39.015-2.356.021-1.588.013-.432a.715.715 0 0 1 .014-.15c.005 0 .009.051.014.15l.013.432.022 1.588.015 2.355.004 1.391c-.031.477.106.965.438 1.337.324.371.798.585 1.261.595l1.387.007 2.352.015 1.587.022.431.013c.098.005.15.01.15.014zm-7.969-2.479c0 .038-1.846.07-4.123.07-2.278 0-4.124-.032-4.124-.07 0-.038 1.846-.069 4.124-.069 2.277 0 4.123.031 4.123.07zm3.913 3.042c0 .038-2.722.069-6.08.069s-6.08-.03-6.08-.069c0-.038 2.722-.069 6.08-.069s6.08.03 6.08.069zm0 3.041c0 .039-2.722.07-6.08.07s-6.08-.031-6.08-.07c0-.037 2.722-.068 6.08-.068s6.08.03 6.08.069zm0 3.042c0 .038-2.722.07-6.08.07s-6.08-.032-6.08-.07c0-.038 2.722-.069 6.08-.069s6.08.031 6.08.07zm0 3.042c0 .038-2.722.069-6.08.069s-6.08-.031-6.08-.07c0-.037 2.722-.068 6.08-.068s6.08.03 6.08.069zm0 3.751c0 .039-2.722.07-6.08.07s-6.08-.031-6.08-.07c0-.038 2.722-.069 6.08-.069s6.08.031 6.08.07z" fill="#9D9D9D"/><path d="M127.097 25.445h-11.045c-.616 0-1.116-.5-1.116-1.117V20.59c0-.618.5-1.118 1.116-1.118h11.045c.616 0 1.116.5 1.116 1.117v3.739c0 .617-.5 1.117-1.116 1.117z" fill="#9D9D9D"/><path d="M119.599 22.24c0-.249-.161-.394-.48-.394h-.425v.783h.425c.319 0 .48-.145.48-.39zm.528 0c0 .502-.377.815-.979.815h-.454v.622h-.522V21.42h.976c.602 0 .979.313.979.82m1.368 1.008c.448 0 .741-.267.741-.7 0-.431-.293-.699-.741-.699h-.476v1.4h.476zm-.998-1.828h1.024c.737 0 1.243.445 1.243 1.129 0 .683-.506 1.128-1.243 1.128h-1.024V21.42zm3.181.42v.596h1.043v.419h-1.043v.822h-.522V21.42h1.704v.42h-1.182m-66.6-1.665h8.445V5.602h-8.445v14.573zm-23.558.232h6.669V2.214H33.52v18.193z" fill="#fff"/><path d="M33.443 3.528c0-.055 1.525-.101 3.406-.101 1.88 0 3.405.046 3.405.101 0 .056-1.524.102-3.405.102-1.881 0-3.406-.046-3.406-.102zm.37.863c0-.056 1.442-.101 3.22-.101 1.78 0 3.221.045 3.221.101 0 .056-1.442.102-3.22.102-1.78 0-3.222-.046-3.222-.102zm2.851 12.429c-.056 0-.101-2.41-.101-5.382 0-2.973.045-5.383.101-5.383.056 0 .101 2.41.101 5.383 0 2.972-.045 5.382-.101 5.382zm-3.144 1.663c0-.055 1.462-.1 3.264-.1 1.804 0 3.265.045 3.265.1 0 .057-1.461.102-3.264.102-1.803 0-3.265-.045-3.265-.102zm0 .781c0-.055 1.498-.101 3.346-.101 1.849 0 3.347.046 3.347.101 0 .056-1.498.102-3.346.102s-3.347-.046-3.347-.102z" fill="#FAFAF9"/><path d="M40.184 20.407h5.357V.247h-5.357v20.16z" fill="#9D9D9D"/><path d="M40.15 9.506c.019-.022.333.201.83.574.551.42 1.208.918 1.933 1.468l1.93 1.473c.492.38.79.623.774.646-.016.023-.344-.179-.858-.53a48.72 48.72 0 0 1-1.969-1.427 48.593 48.593 0 0 1-1.9-1.518c-.474-.402-.757-.665-.74-.686m-.023-3.156c.037-.043 1.264.95 2.741 2.218 1.478 1.268 2.646 2.33 2.61 2.373-.036.042-1.263-.95-2.741-2.22-1.477-1.267-2.646-2.33-2.61-2.371z" fill="#FAFAF9"/><path d="M16.903 20.421h2.563V1.216h-2.563v19.205z" fill="#fff"/><path d="M17.01 3.833c0 .066.537.12 1.2.12.663 0 1.2-.054 1.2-.12 0-.067-.537-.121-1.2-.121-.663 0-1.2.054-1.2.12zm-.053-.419c0 .067.538.121 1.2.121.664 0 1.201-.054 1.201-.12 0-.067-.537-.121-1.2-.121-.663 0-1.201.054-1.201.12zm.052 15.522c0 .067.538.121 1.2.121.664 0 1.201-.054 1.201-.121s-.537-.12-1.2-.12c-.663 0-1.2.053-1.2.12zm-.052-.418c0 .067.538.12 1.2.12.664 0 1.201-.053 1.201-.12s-.537-.12-1.2-.12c-.663 0-1.201.053-1.201.12zm1.305-2.509c.067 0 .12-2.2.12-4.912 0-2.713-.053-4.913-.12-4.913s-.12 2.2-.12 4.913.053 4.912.12 4.912z" fill="#FAFAF9"/><path d="M28.385 20.298h5.125V1.093h-5.125v19.205z" fill="#9D9D9D"/><path d="M32.068 20.544a.431.431 0 0 0 .06-.104 5.57 5.57 0 0 0 .518-1.622c.082-.576.105-1.349-.3-2.113a2.813 2.813 0 0 0-.907-1.003c-.403-.266-.93-.437-1.477-.35-.272.046-.54.16-.763.353a1.01 1.01 0 0 0-.367.81c.014.322.198.613.438.814.24.204.549.343.874.372.65.076 1.324-.198 1.816-.662.51-.457.822-1.14.901-1.846.085-.71-.028-1.445-.265-2.142-.24-.697-.63-1.386-1.257-1.872a2.056 2.056 0 0 0-1.106-.437 1.435 1.435 0 0 0-1.151.41.936.936 0 0 0-.263.6 1.1 1.1 0 0 0 .176.628c.23.37.623.607 1.034.707.838.18 1.711-.152 2.257-.758.552-.607.797-1.403.88-2.162.076-.764.02-1.533-.221-2.241-.234-.706-.698-1.34-1.324-1.705-.611-.372-1.386-.494-2.035-.214-.322.131-.608.428-.663.783-.064.347.031.7.234.968.43.542 1.166.632 1.726.457.577-.178 1.018-.566 1.362-.968a4.363 4.363 0 0 0 1.022-2.633 4.225 4.225 0 0 0-.474-2.087 4.184 4.184 0 0 0-.805-1.088 3.098 3.098 0 0 0-.267-.23.446.446 0 0 0-.099-.068c-.034.025.56.385 1.087 1.428.251.518.465 1.218.423 2.039a4.241 4.241 0 0 1-1.017 2.528c-.334.384-.76.745-1.285.9-.507.158-1.165.056-1.514-.399a1.04 1.04 0 0 1-.19-.807c.048-.285.264-.51.544-.628.57-.242 1.275-.137 1.837.21.575.339.999.92 1.22 1.589.225.667.279 1.409.203 2.14-.08.728-.316 1.473-.821 2.027-.49.546-1.292.844-2.026.684-.359-.088-.694-.294-.883-.6-.199-.3-.192-.691.057-.936.239-.248.61-.368.96-.335.356.021.696.17.98.387.572.44.951 1.093 1.18 1.757.232.671.34 1.374.264 2.042-.074.667-.356 1.29-.825 1.717-.454.432-1.07.683-1.65.618-.564-.047-1.114-.477-1.148-.996a.827.827 0 0 1 .3-.667c.19-.169.43-.275.673-.318.494-.084.982.065 1.364.31.383.25.677.585.874.94.395.716.392 1.469.324 2.034a6.097 6.097 0 0 1-.324 1.298c-.105.288-.17.437-.16.441zm-12.644-.238h8.891V2.816h-8.89v17.49z" fill="#FAFAF9"/><path d="M19.73 5.722c0 .067 1.926.121 4.302.121 2.378 0 4.304-.054 4.304-.12 0-.067-1.926-.121-4.303-.121s-4.303.054-4.303.12zm-.11 1.326c0 .067 1.901.121 4.247.121 2.347 0 4.248-.054 4.248-.121s-1.901-.12-4.248-.12c-2.346 0-4.248.053-4.248.12zm-.287 11.28c0 .068 2.004.122 4.474.122s4.474-.054 4.474-.121-2.003-.12-4.474-.12c-2.47 0-4.473.053-4.473.12zm.12-1.558c0 .067 1.952.121 4.359.121s4.358-.054 4.358-.12c0-.067-1.95-.121-4.358-.121-2.407 0-4.358.054-4.358.12" fill="#9D9D9D"/><path d="M45.537 20.175h5.125V.97h-5.125v19.205z" fill="#fff"/><path d="M49.22 20.421a.44.44 0 0 0 .06-.104 5.576 5.576 0 0 0 .518-1.622c.082-.576.105-1.348-.3-2.113a2.807 2.807 0 0 0-.908-1.004c-.402-.265-.928-.436-1.476-.349-.272.046-.54.16-.763.353a1.01 1.01 0 0 0-.367.81c.014.322.198.612.438.814.24.203.549.343.874.372.65.076 1.324-.198 1.816-.662.51-.457.822-1.14.901-1.846.084-.71-.028-1.445-.265-2.143-.24-.697-.631-1.385-1.257-1.871a2.057 2.057 0 0 0-1.106-.437 1.436 1.436 0 0 0-1.151.41.936.936 0 0 0-.264.6c-.01.226.063.445.177.628.23.37.623.607 1.034.707.838.18 1.711-.152 2.257-.757.552-.608.797-1.404.88-2.163.076-.764.02-1.533-.221-2.241-.234-.706-.698-1.34-1.324-1.706-.611-.371-1.386-.493-2.036-.213-.322.131-.607.428-.662.783-.064.346.031.7.233.968.43.542 1.166.632 1.727.457.577-.178 1.018-.566 1.362-.968a4.362 4.362 0 0 0 1.022-2.634 4.226 4.226 0 0 0-.474-2.086 4.184 4.184 0 0 0-.806-1.088 3.07 3.07 0 0 0-.266-.23.426.426 0 0 0-.1-.068c-.033.024.56.385 1.088 1.428a4.18 4.18 0 0 1 .423 2.038 4.239 4.239 0 0 1-1.017 2.529c-.334.384-.76.745-1.285.9-.508.158-1.165.056-1.514-.399a1.039 1.039 0 0 1-.19-.808c.047-.284.264-.51.544-.628.57-.242 1.275-.136 1.837.21.575.34.999.921 1.22 1.59.225.667.279 1.409.203 2.14-.08.727-.316 1.473-.821 2.027-.49.546-1.292.844-2.026.683-.359-.087-.695-.293-.883-.598-.199-.3-.193-.692.057-.937.238-.248.61-.368.96-.335.356.021.696.17.98.386.572.44.951 1.094 1.18 1.758.231.671.34 1.374.264 2.042-.075.666-.356 1.29-.826 1.716-.453.433-1.069.683-1.65.619-.563-.047-1.112-.478-1.147-.996a.827.827 0 0 1 .3-.667c.19-.169.43-.275.673-.318.494-.084.982.065 1.364.31.382.25.678.585.873.94.396.715.392 1.469.325 2.034a6.102 6.102 0 0 1-.324 1.297c-.105.29-.17.438-.16.442z" fill="#FAFAF9"/><path d="M9.782 20.175h7.121V0h-7.12v20.174m40.879 0h6.66V2.215h-6.66v17.96" fill="#9D9D9D"/><path d="M57.489 11.172c.03-.033.338.393 1.059.753.357.18.815.33 1.34.372a3.45 3.45 0 0 0 1.662-.289c.562-.24 1.078-.55 1.6-.73.515-.187 1.037-.242 1.45-.132.415.102.698.327.842.51.148.185.173.319.165.321-.017.009-.067-.11-.224-.268a1.571 1.571 0 0 0-.814-.423c-.383-.084-.864-.02-1.356.168-.497.182-1.002.491-1.584.74-.58.26-1.21.344-1.758.29a3.626 3.626 0 0 1-1.39-.431 3.07 3.07 0 0 1-.776-.596c-.158-.169-.224-.28-.216-.285m-.15 1.777c.03-.033.338.394 1.059.754a3.68 3.68 0 0 0 1.34.372 3.452 3.452 0 0 0 1.662-.29c.562-.24 1.078-.549 1.6-.73.516-.187 1.037-.242 1.451-.132.414.102.697.327.841.51.148.186.173.32.165.321-.017.01-.067-.11-.224-.268a1.579 1.579 0 0 0-.814-.423c-.383-.084-.864-.02-1.356.168-.496.182-1.002.491-1.584.741-.58.26-1.21.344-1.758.29a3.62 3.62 0 0 1-1.39-.432 3.07 3.07 0 0 1-.776-.596c-.158-.168-.224-.279-.216-.285m.11-5.753c0-.056 1.834-.1 4.095-.1 2.263 0 4.096.044 4.096.1 0 .056-1.833.102-4.096.102-2.261 0-4.095-.046-4.095-.102zm-3.017-2.088c-.014.032-.222-.15-.58-.048-.167.049-.364.17-.45.374-.092.199-.02.469.17.651.19.183.462.245.657.145.2-.094.313-.296.356-.465.087-.362-.102-.562-.07-.578.006-.007.065.024.127.124.062.098.113.27.084.48a.822.822 0 0 1-.414.607c-.269.15-.646.065-.88-.167-.24-.225-.34-.599-.2-.873a.82.82 0 0 1 .588-.438.727.727 0 0 1 .483.065c.102.058.136.116.13.123zm-.43 13.27c-.056 0-.102-2.518-.102-5.623 0-3.107.046-5.624.102-5.624.055 0 .1 2.517.1 5.624 0 3.105-.045 5.622-.1 5.622z" fill="#FAFAF9"/><path d="M72.48 24.012H3.552v-3.94H72.48v3.94" fill="#fff"/><path d="M72.48 24.012h-6.018v-3.94h6.018v3.94z" fill="#9D9D9D"/><path d="m75.947 19.771-.336 27.116c-.058 4.611.8 11.396 8.084 11.154 6.305-.687 7.978-6.663 8.027-10.966.023-2.042.047-3.744.063-3.953 0 0 6.901-.564 7.484-7.39.281-3.298.309-10.14.262-16.33-.05-6.647-5.199-12.138-11.82-12.622l-.658-.049c-7.129-.103-11.2 5.901-11.106 13.04" fill="#F8A58D"/><path d="M91.784 43.122s-4.319-.062-8.692-3.28c0 0 1.804 5.149 8.657 5.031l.035-1.751z" fill="#1D2B4D"/><path d="M87.876 22.2c-.135.138-.922-.497-2.065-.527-1.14-.048-1.994.53-2.115.383-.058-.066.082-.318.455-.58.367-.26.987-.506 1.698-.482.711.025 1.302.311 1.638.597.344.287.456.547.39.609m-.241 2.365c-.019.489-.447.876-.957.866-.509-.01-.908-.413-.89-.901.02-.489.448-.877.957-.867.51.01.908.413.89.902zm3.101 5.59c0-.06.66-.125 1.726-.183.27-.008.527-.043.585-.223.077-.189-.014-.486-.12-.807l-.643-2.1c-.888-2.987-1.51-5.435-1.39-5.47.121-.035.939 2.358 1.826 5.345l.608 2.11c.08.311.229.67.063 1.062a.674.674 0 0 1-.469.36c-.175.04-.327.032-.46.03-1.067-.02-1.726-.064-1.726-.124M87.39 17.9c-.11.254-1.024.063-2.12.119-1.095.033-1.994.298-2.12.054-.057-.117.113-.35.486-.576.368-.227.946-.425 1.603-.452.656-.026 1.245.124 1.628.32.386.195.572.414.523.535m10.847 2.119c-.12.207-1.011-.023-2.09-.056-1.08-.053-1.977.105-2.091-.111-.05-.103.128-.288.504-.453.373-.164.95-.29 1.598-.264.647.027 1.22.198 1.588.392.371.194.544.393.491.492" fill="#17282F"/><path d="M76.135 24.87c-.112-.058-4.586-1.73-4.778 2.951-.192 4.682 4.542 3.909 4.556 3.775.013-.134.222-6.726.222-6.726" fill="#F8A58D"/><path d="M74.557 29.763c-.02-.015-.084.054-.224.112a.817.817 0 0 1-.61-.013c-.486-.202-.87-1.004-.858-1.848a2.7 2.7 0 0 1 .276-1.159c.157-.337.388-.567.638-.6.25-.048.42.108.472.242.057.134.024.226.048.235.013.012.103-.074.074-.269a.521.521 0 0 0-.172-.301.615.615 0 0 0-.445-.137c-.362.01-.7.328-.881.69-.2.363-.33.815-.336 1.294-.008.944.438 1.847 1.105 2.07.326.1.604.012.75-.093.15-.11.179-.214.163-.223" fill="#1D2B4D"/><path d="M89.634 33.397c.051-.119-.865-.394-1.509-1.254-.322-.424-.507-.885-.647-1.223-.136-.34-.24-.553-.29-.537-.047.015-.036.245.04.615.077.365.237.888.6 1.37a2.8 2.8 0 0 0 1.195.915c.357.145.599.154.611.114m18.949-20.122a1.104 1.104 0 0 0-.518-.646c-.534-.316-1.149-.273-1.743-.283a9.833 9.833 0 0 1-5.126-1.56A22.995 22.995 0 0 0 98.81 7.89c-2.067-2.134-3.767-3.586-5.525-4.295-2.275-.917-6.08-1.288-8.451-.665-2.372.623-4.502 2.55-4.832 4.983-1.33-1.126-3.327-1.116-4.947-.464l-.041-.018c-1.804.644-2.83 2.553-3.362 4.395-.532 1.842-.76 3.813-1.733 5.464-.204.345-.446.76-.268 1.118.137.278.49.393.796.348.307-.046.579-.215.84-.381l-.604 1.447a4.26 4.26 0 0 0 1.963-.13c.383 1.722.84 3.69 1.284 4.857.754-.002 1.444.052 1.91.471.631.569.914 1.64 1.964 1.233.534-.207 1.022-1.33 1.2-1.875a26.675 26.675 0 0 0 1.153-11.276 8.546 8.546 0 0 1 2.64-1.909l-.08.073c1.905-.663 4.06-1.315 5.868-.419 1.402.695 2.226 2.152 3.274 3.314 1.987 2.203 4.667 3.4 7.629 3.528.1 1.922-.061 4.64.04 6.561l1.615-3.079.001.016c.132-.226.242-.453.347-.68l.037-.07-.001-.008c.168-.366.328-.732.54-1.094l.018.017c1.041.918 2.573-.486 1.753-1.606a2.705 2.705 0 0 0-.58-.584c.475.447 1.184.661 1.807.47.624-.192 1.107-.824 1.053-1.474-.037-.445-.354-.842-.754-1.017a4.27 4.27 0 0 0 2.431-.537c.48-.274.951-.726.788-1.33z" fill="#17282F"/><path d="M82.148 8.698c.013.018-.286.18-.684.626-.395.444-.838 1.217-1.047 2.268a8.646 8.646 0 0 0-.174 1.735c-.003.629.048 1.302.096 2.012.046.71.096 1.459.05 2.239a7.78 7.78 0 0 1-.153 1.181c-.086.39-.188.811-.481 1.146a1.029 1.029 0 0 1-.962.324 1.531 1.531 0 0 1-.867-.49c-.438-.512-.548-1.163-.657-1.736l.144.017c-.234.515-.474 1.024-.83 1.43-.35.41-.834.68-1.327.724a1.312 1.312 0 0 1-.703-.123 1.138 1.138 0 0 1-.477-.471 1.174 1.174 0 0 1-.145-.606.849.849 0 0 1 .219-.53l.072.064c-.526.6-1.08.922-1.465 1.1-.193.09-.349.143-.454.177a.725.725 0 0 1-.162.04.832.832 0 0 1 .153-.065c.102-.042.253-.103.44-.199.373-.19.91-.52 1.415-1.116l.072.064c-.23.244-.243.671-.045 1.015.099.17.242.328.431.417.189.092.414.127.638.104.452-.045.904-.299 1.23-.688.337-.388.57-.883.8-1.4l.098-.218.045.236c.11.573.226 1.197.626 1.659.199.222.476.386.775.438a.867.867 0 0 0 .818-.274c.256-.29.361-.69.444-1.072a7.75 7.75 0 0 0 .153-1.157c.047-.767 0-1.512-.042-2.22-.044-.71-.09-1.387-.081-2.023.005-.637.08-1.23.196-1.759.227-1.064.695-1.846 1.11-2.284.42-.44.731-.585.731-.585m21.095 6.644a.242.242 0 0 1-.055.047l-.17.124a2.276 2.276 0 0 1-.289.185c-.118.068-.252.15-.415.22-.633.3-1.649.6-2.918.525-1.258-.071-2.768-.517-4.116-1.522-1.362-.98-2.558-2.426-3.535-4.08-.496-.827-.901-1.675-1.347-2.458-.442-.783-.931-1.507-1.523-2.078-.585-.575-1.265-1-1.965-1.195a3.325 3.325 0 0 0-1.036-.119 3.664 3.664 0 0 0-.949.182 3.94 3.94 0 0 0-2.191 1.857c-.31.628-.328 1.03-.352 1.024-.003 0-.001-.025.005-.072.01-.056.02-.125.033-.21a3.4 3.4 0 0 1 .258-.77c.161-.315.4-.685.764-1.036a3.99 3.99 0 0 1 1.447-.9c.3-.102.63-.176.978-.198.348-.012.717.01 1.078.115.728.196 1.43.63 2.032 1.216.61.582 1.11 1.319 1.557 2.107.451.788.856 1.634 1.347 2.453.97 1.642 2.149 3.071 3.485 4.043a7.677 7.677 0 0 0 4.037 1.528c1.248.088 2.252-.189 2.886-.47.638-.284.942-.538.954-.518" fill="#33535F"/><path d="M103.864 12.342c.005.009-.082.069-.245.17a5.262 5.262 0 0 1-.724.368 7.027 7.027 0 0 1-1.146.377c-.444.1-.941.175-1.467.195a8.064 8.064 0 0 1-1.475-.1 7.038 7.038 0 0 1-1.169-.303 5.265 5.265 0 0 1-.746-.321c-.17-.09-.26-.145-.255-.155.013-.027.39.167 1.036.369.323.103.716.194 1.156.264.443.063.933.1 1.448.086a8.705 8.705 0 0 0 1.439-.178 8.024 8.024 0 0 0 1.137-.338c.632-.243.996-.46 1.011-.434" fill="#33535F"/><path d="M98.289 22.63c-.136.139-.923-.496-2.066-.527-1.14-.047-1.994.53-2.114.383-.06-.065.082-.317.454-.58.367-.26.987-.506 1.698-.482.711.026 1.302.312 1.638.597.344.287.456.548.39.61m-1.165 2.266c-.018.489-.447.876-.957.867-.508-.01-.907-.414-.889-.902.018-.489.447-.877.956-.867.51.01.909.414.89.902z" fill="#17282F"/><path d="M139.723 49.862c0-1.984-1.892-1.984-1.892-1.984-.722-.948-1.533-.603-1.533-.603l-3.065 2.07c-.45.776-3.425 3.708-3.425 3.708-.811-.604-.811-1.811-1.783-3.277-.972-1.466-3.174-1.294-3.174-1.294s1.712 3.88 1.893 6.296c.18 2.415-1.317 9.15-1.317 9.15l8.664 2.438s.547-3.695 1.518-3.993c1.169-.359 1.819-2.085 1.819-2.085 1.263-2.563 3.828-6.286 4.188-8.184.361-1.897-1.893-2.242-1.893-2.242" fill="#F8A58D"/><path d="M75.292 45.573c5.519 3.472 11.08 4.779 16.713 2.53l8.468 2.166 8.33 55.733-48.844.424 2.406-12.944 6.056-46.51 6.871-1.399" fill="#33535F"/><path d="M100.473 50.269s6.585 2.738 9.099 7.535c2.514 4.797 6.553 18.261 6.553 18.261l7.442-13.684 13.811 3.535s-10.28 28.393-12.861 30.979c-2.826 2.83-10.526 5.683-14.296 3.481-3.77-2.202-4.537-10.562-4.537-10.562l-5.211-39.545" fill="#33535F"/><path d="M100.927 73.58c-.038 0-.069-2.476-.069-5.529 0-3.054.031-5.529.069-5.529.038 0 .069 2.475.069 5.53 0 3.052-.031 5.528-.069 5.528zm2.578-20.127c.019.009-.114.354-.321.913a42.72 42.72 0 0 0-.752 2.206c-.268.87-.48 1.667-.625 2.246-.144.579-.229.939-.249.935-.01-.002 0-.094.025-.26a13.6 13.6 0 0 1 .13-.697c.121-.586.318-1.39.588-2.265.27-.873.561-1.648.792-2.2.115-.277.214-.498.287-.649.072-.15.116-.232.125-.229" fill="#17282F"/><path d="m67.527 67.843 1.528-21s-11.497 1.068-15.3 9.19C50.547 62.878 41.697 83.47 40.75 86.287c-2.78 8.267 1.563 19.632 19.464 18.973l2.04-11.238 5.272-26.179" fill="#33535F"/><path d="M54.654 96.365a1.368 1.368 0 0 1 .094-.201l.292-.566 1.096-2.066.367-.683c.13-.236.28-.492.526-.677.245-.185.568-.26.883-.254.319.003.637.072.953.154a9.76 9.76 0 0 1 1.924.728c.319.163.634.352.924.59l.106.093a.342.342 0 0 1 .09.142c.035.098.05.194.059.289.02.19.017.38.012.57-.027.76-.122 1.49-.216 2.196a71.457 71.457 0 0 1-.312 2.027 152.015 152.015 0 0 1-.618 3.416l-.45 2.296-.123.624c-.028.142-.041.218-.046.217-.005 0 0-.077.019-.221.02-.145.052-.357.097-.63l.407-2.304c.173-.972.38-2.13.589-3.418a75.02 75.02 0 0 0 .303-2.025c.093-.703.185-1.434.213-2.182a4.4 4.4 0 0 0-.012-.552 1.068 1.068 0 0 0-.05-.255.202.202 0 0 0-.055-.09l-.1-.088a4.994 4.994 0 0 0-.898-.574 9.745 9.745 0 0 0-1.895-.726 3.947 3.947 0 0 0-.922-.156c-.3-.008-.592.06-.815.225-.223.164-.37.405-.5.636l-.374.679-1.135 2.045-.315.553c-.073.125-.114.19-.118.188" fill="#17282F"/><path d="M46.34 86.389c0-.005.047-.006.136-.004l.386.015c.334.016.819.045 1.416.1.598.056 1.31.14 2.088.304a10.68 10.68 0 0 1 2.456.815 9.645 9.645 0 0 1 2.16 1.427c.59.539 1.046 1.113 1.312 1.66.268.544.379 1.032.397 1.369.025.168.005.3.008.388a.498.498 0 0 1-.011.135c-.016 0-.01-.187-.05-.517-.034-.33-.158-.804-.43-1.33-.271-.53-.726-1.085-1.31-1.61a9.808 9.808 0 0 0-2.136-1.398 10.944 10.944 0 0 0-2.422-.815 20.27 20.27 0 0 0-2.072-.331c-.594-.068-1.077-.111-1.41-.144l-.384-.04a.501.501 0 0 1-.133-.024" fill="#17282F"/><path d="M58.642 85.329c.017.007-.088.324-.286.826-.197.503-.49 1.189-.827 1.939-.328.731-.625 1.393-.863 1.92-.22.493-.357.797-.375.79-.017-.008.088-.325.286-.827.197-.503.49-1.189.827-1.94l.862-1.92c.22-.491.357-.795.376-.788M65.004 68.8c-.038 0-.069-1.331-.069-2.973s.031-2.973.07-2.973c.037 0 .068 1.331.068 2.973s-.03 2.973-.069 2.973z" fill="#17282F"/><path d="M51.355 100.673a.628.628 0 0 1-.49-.206c-.217-.257-.159-.64-.072-.965.821-3.083 2.848-5.818 5.845-6.886a5.187 5.187 0 0 0-.136.233l-.366.683-1.096 2.066-.162.313c-.778 1.31-1.578 2.557-2.39 3.857-.183.294-.377.598-.673.777a.91.91 0 0 1-.46.128" fill="#20353D"/><path d="m54.878 95.91.162-.312 1.096-2.066.366-.683c.043-.077.087-.156.136-.233l.05-.018a48.573 48.573 0 0 1-1.81 3.313" fill="#0F191D"/><path d="M56.19 90.507c-.274-.486-.69-.987-1.208-1.46a9.645 9.645 0 0 0-2.16-1.428 10.7 10.7 0 0 0-2.456-.815 18.359 18.359 0 0 0-2.087-.304 32.11 32.11 0 0 0-1.418-.1l-.385-.015-.066-.001c-.045 0-.07.002-.07.005 0 .005.046.013.134.024l.361.038a15.6 15.6 0 0 0-.746-.018c-.972 0-1.904.098-2.7.347.207-.68 1.292-1.157 2.236-1.355a8.363 8.363 0 0 1 1.724-.197c.127 0 .254.004.38.011 1.806.11 3.626.487 5.207 1.368 1.46.813 2.67 2.315 3.253 3.9" fill="#20353D"/><path d="M56.29 90.801c-1.25-2.005-3.071-3.277-5.312-3.767-1.202-.263-2.688-.515-4.143-.583l-.361-.038a.506.506 0 0 1-.133-.024c0-.003.024-.005.07-.005h.065l.386.016c.334.016.819.045 1.416.1.598.056 1.31.14 2.088.304a10.7 10.7 0 0 1 2.456.815 9.648 9.648 0 0 1 2.16 1.427c.519.474.934.975 1.207 1.46a6.756 6.756 0 0 1 .1.295" fill="#0F191D"/><path d="M56.291 90.803a.11.11 0 0 1-.002-.002v-.004l.002.006z" fill="#0F191D"/><path d="M63.313 59.858c-.01.002-.046-.116-.105-.331a15.832 15.832 0 0 0-.274-.903 14.943 14.943 0 0 0-1.278-2.826 14.92 14.92 0 0 0-1.846-2.49c-.27-.294-.495-.525-.656-.679-.159-.156-.244-.246-.238-.253.006-.007.104.07.275.214.172.142.41.364.69.65.56.571 1.271 1.432 1.894 2.488a13.199 13.199 0 0 1 1.252 2.866c.114.385.192.7.233.92.043.22.062.342.053.344" fill="#17282F"/><path d="m67.536 106.418-12.811-30.95c-.585-1.413.148-2.558 1.638-2.558h2.577c1.052 0 1.769-.58 1.836-1.485l.086-1.138c.068-.906.786-1.486 1.839-1.486h12.247c.955 0 2.033.478 2.836 1.256l.994.965c.803.778 1.88 1.256 2.834 1.256H97.21c1.49 0 3.157 1.145 3.725 2.557l12.7 31.583h-46.1z" fill="#4C73CC"/><path d="M113.636 106.418H81.528c.323-.001.8-.004 1.318-.009l30.79.009z" fill="#CC4341"/><path d="M81.435 106.418h-13.9l-.023-.057-5.204-12.572-.003-.008-7.58-18.313a2.455 2.455 0 0 1-.202-.93c-.001-.953.696-1.627 1.84-1.627h2.577c1.052 0 1.769-.58 1.836-1.486l.086-1.138c.068-.906.786-1.486 1.839-1.486h12.247c.955 0 2.033.478 2.836 1.256l.994.965c.803.778 1.88 1.256 2.834 1.256H97.21c1.25 0 2.627.808 3.373 1.903H67.777a1.8 1.8 0 0 0-1.299.552h-4.283c-1.121 0-1.926 1.236-1.608 2.468l4.831 18.706 2.291 8.968c.019.072.04.143.066.21l-.172 1.122-.067.197 12.26.004c.546.008 1.092.009 1.639.01" fill="#1D2B4D"/><path d="m65.418 95.906-4.831-18.705c-.319-1.232.487-2.468 1.608-2.468h37.872c.749 0 1.407.569 1.613 1.393l7.033 28.156c.309 1.236-.185 1.978-1.307 1.964l-38.105.011c-.738-.009-1.384-.57-1.592-1.382l-2.29-8.969z" fill="#9D9D9D"/><path d="m68.035 105.572-2.058-29.459a1.806 1.806 0 0 1 1.8-1.932h39.24v31.391H68.036z" fill="#fff"/><path d="m67.596 106.246 4.669-30.369a2.173 2.173 0 0 1 2.133-1.696h39.695c1.569 0 2.625 1.577 2.004 2.993l-8.571 27.792-39.93 1.28z" fill="#FAFAF9"/><path d="m67.536 106.404 9.627-28.442c.4-1.185 1.474-1.977 2.677-1.977h40.923c1.319 0 2.248 1.351 1.827 2.656l-8.954 27.777-46.1-.014z" fill="#4C73CC"/><path d="M81.48 106.418h-.045.094-.048z" fill="#A7A9A8"/><path d="M81.528 106.418h-.093c-.547-.001-1.093-.002-1.64-.01l3.051.001c-.517.005-.995.008-1.318.009z" fill="#862B2C"/><path d="M68.37 101.208c-.01-.729.125-1.479.335-2.175l-.334 2.175" fill="#979999"/><path d="M68.722 102.898c-.238-.523-.343-1.1-.351-1.69l.334-2.175.01-.032a11.911 11.911 0 0 1 3.003-4.952l-2.996 8.849z" fill="#A4A6A5"/><path d="m82.846 106.409-3.05-.001c-2.753-.038-5.485-.227-8.068-1.187-1.023-.379-2.058-.885-2.691-1.775a3.316 3.316 0 0 1-.315-.548l2.996-8.85a11.654 11.654 0 0 1 1.994-1.587c1.276-.803 2.818-1.48 3.372-2.885l.212-.156c.766.9.398 2.34-.38 3.228-.778.89-1.867 1.438-2.763 2.208-.896.77-1.631 1.953-1.305 3.089.291 1.014 1.31 1.62 2.273 2.05a21.012 21.012 0 0 0 9.943 1.766c.713-.048 2.257-.119 2.257-.119.738.612.86 2.303.303 3.084-.606.85-.938 1.375-1.944 1.649 0 0-1.541.021-2.834.034z" fill="#4C73CC"/><path d="m87.321 101.642-10.673-1.606-4.144-2.388c-.546-.314-.92-.877-.952-1.507l-.002-.036c-.032-.787.448-1.502 1.173-1.808 1.314-.555 3.397-1.293 4.285-2.85 1.277-2.24 0-2.704 0-2.704l-8.913 3.567-6.309 4.3-1.27 7.17 8.804 2.879s9.81.554 12.516.25c2.707-.305 2.707-1.567 2.707-1.567.502-.157 1.519-1.051 1.518-1.883 1.314-1.234 1.26-1.817 1.26-1.817z" fill="#F8A58D"/><path d="M73.67 104.729c.003-.013.16.018.44.083.278.068.684.158 1.187.259a25.88 25.88 0 0 0 3.97.474c1.563.059 2.978-.04 3.996-.164.509-.06.92-.118 1.203-.164.284-.044.443-.062.445-.05.003.013-.15.054-.432.12-.28.067-.69.144-1.2.222a21.721 21.721 0 0 1-8.009-.313 15.29 15.29 0 0 1-1.179-.315c-.275-.087-.425-.141-.421-.152zm.974-1.653c.004-.012.163.019.447.085.283.069.695.158 1.206.257 1.021.199 2.448.396 4.035.446a27.352 27.352 0 0 0 4.056-.186c.517-.062.934-.122 1.222-.168.288-.045.449-.064.451-.051.003.012-.153.054-.438.12-.284.068-.7.147-1.218.227-1.033.16-2.48.288-4.079.24a21.846 21.846 0 0 1-4.055-.502c-.51-.115-.92-.224-1.198-.314-.28-.088-.432-.142-.428-.154" fill="#1D2B4D"/><path d="m137.594 63.545-18.964 3.75a2.42 2.42 0 0 1-2.842-1.907l-5.184-26.283a2.422 2.422 0 0 1 1.904-2.846l12.027-2.378 11.205 7.767 3.758 19.051a2.422 2.422 0 0 1-1.904 2.846" fill="#fff"/><path d="m124.535 33.88 1.459 7.398a2.25 2.25 0 0 0 2.642 1.774l7.104-1.404-11.205-7.767z" fill="#F3F2F1"/><path d="M126.219 41.908s.261 1.813 2.416 2c.082.006.164.007.245.006.96-.018 7.28-.138 7.252-.278l-.392-1.988-7.103 1.405s-1.786.29-2.418-1.145" fill="#9D9D9D"/><path d="M137.594 63.545s.034-.012.102-.03a2.425 2.425 0 0 0 1.278-.812 2.405 2.405 0 0 0 .521-1.848c-.139-.769-.328-1.655-.523-2.648l-3.288-16.548.023.036-11.209-7.76.05.01-6.94 1.375-3.63.719-.921.182c-.308.066-.622.106-.906.214a2.354 2.354 0 0 0-1.503 2.49c.066.427.165.863.246 1.292l.505 2.564.987 5.012 1.866 9.476.867 4.413.415 2.115.203 1.032c.073.341.113.686.242.993a2.368 2.368 0 0 0 2.322 1.458c.313-.022.629-.104.94-.16l3.58-.704 10.807-2.114 2.939-.569c.334-.063.59-.11.765-.144.173-.032.262-.044.262-.044s-.088.022-.259.058l-.763.158-2.934.593-10.798 2.158-3.579.713c-.312.056-.62.139-.953.163a2.46 2.46 0 0 1-.985-.14 2.486 2.486 0 0 1-1.45-1.382c-.137-.327-.176-.677-.25-1.014a421.16 421.16 0 0 0-.204-1.033L115 61.706l-.873-4.412-1.873-9.475a27278.26 27278.26 0 0 0-1.495-7.575c-.082-.434-.178-.856-.248-1.302-.06-.45.013-.918.201-1.333a2.492 2.492 0 0 1 1.39-1.303c.308-.115.623-.154.929-.22l.921-.182 3.63-.718 6.94-1.37.028-.006.023.017 11.2 7.774.019.013.004.023 3.241 16.557c.191.995.374 1.878.508 2.655a2.43 2.43 0 0 1-.545 1.876 2.398 2.398 0 0 1-1.302.798 2.058 2.058 0 0 1-.104.022" fill="#17282F"/><path d="M135.74 41.648a.958.958 0 0 1-.18.05l-.52.116-1.92.401-2.851.579-1.687.334a2.325 2.325 0 0 1-2.416-1.173c-.156-.276-.232-.594-.281-.883l-.329-1.688-.549-2.86-.359-1.932-.091-.526a.913.913 0 0 1-.022-.185.887.887 0 0 1 .05.18l.116.521.401 1.922a2042.894 2042.894 0 0 1 .915 4.542c.052.297.121.579.27.843a2.182 2.182 0 0 0 2.273 1.106l1.684-.326 2.857-.55c.803-.148 1.457-.27 1.928-.358l.526-.09a.927.927 0 0 1 .185-.023m-10.261-1.095c.007.037-2.227.51-4.989 1.057-2.764.546-5.009.959-5.017.921-.007-.037 2.226-.51 4.99-1.057 2.762-.546 5.008-.959 5.016-.921m5.475 2.75c.007.038-3.29.722-7.363 1.527-4.075.806-7.382 1.429-7.39 1.391-.007-.037 3.289-.72 7.363-1.526s7.382-1.428 7.39-1.391zm.727 3.691c.008.037-3.289.72-7.362 1.526-4.075.806-7.383 1.429-7.39 1.391-.007-.037 3.289-.72 7.363-1.526 4.073-.806 7.382-1.428 7.389-1.391zm-14.024 6.608c-.008-.038 3.289-.721 7.362-1.527 4.075-.805 7.383-1.428 7.39-1.39.008.036-3.288.72-7.363 1.526-4.073.805-7.382 1.428-7.389 1.39m15.48.773c.008.037-3.289.721-7.362 1.526-4.075.806-7.383 1.43-7.39 1.392-.008-.038 3.288-.72 7.363-1.527 4.073-.805 7.382-1.428 7.389-1.39zm.728 3.69c.008.038-3.289.721-7.362 1.527-4.075.806-7.383 1.428-7.39 1.39-.008-.036 3.288-.72 7.363-1.526 4.073-.805 7.382-1.428 7.389-1.39" fill="#17282F"/><path d="m126.006 60.513-13.917 2.753a1.115 1.115 0 0 1-1.311-.88l-.997-5.054a1.117 1.117 0 0 1 .879-1.313l13.917-2.753a1.115 1.115 0 0 1 1.311.88l.997 5.054a1.118 1.118 0 0 1-.879 1.313" fill="#4C73CC"/><path d="M115.626 59.791c.543-.107.834-.502.731-1.027-.103-.524-.523-.779-1.066-.67l-.578.113.335 1.698.578-.114zm-1.649-1.979 1.243-.245c.895-.178 1.614.241 1.778 1.07.163.83-.343 1.491-1.238 1.668l-1.243.246-.54-2.739zm5.676.3c-.102-.52-.54-.803-1.028-.707-.488.097-.786.525-.683 1.046.103.52.541.803 1.029.707.488-.097.785-.525.682-1.046zm-2.352.465c-.16-.813.354-1.54 1.217-1.712.86-.17 1.615.303 1.776 1.12.161.818-.357 1.543-1.217 1.712-.863.172-1.615-.306-1.776-1.12m3.297-.652c-.162-.825.354-1.54 1.206-1.71.472-.093.901.001 1.221.263l-.333.456a.895.895 0 0 0-.751-.185c-.511.101-.804.533-.702 1.05.102.516.536.804 1.048.703a.89.89 0 0 0 .624-.46l.48.295c-.195.367-.556.618-1.033.712-.847.167-1.597-.298-1.76-1.124" fill="#fff"/><path d="M134.611 43.985s1.4-1.775 2.479-.782c1.078.993.767 1.504-.258 3.073 0 0 2.289-.12 1.555 2.234 0 0 2.281-.252 2.062 1.675 0 0 1.723 1.688.827 2.776-.896 1.088-4.145 3.052-4.966 2.714-.821-.338-.827-1.502-.827-1.502s-.976-.44-1.246-.955c-.269-.515.193-1.237.193-1.237s-.822-.842-1.026-1.077c-.204-.235.111-1.327.111-1.327l1.314-1.277s-1.809.788-2.186.487c-.377-.3-.802-.56-.399-1.107.404-.548 1.839-1.774 1.839-1.774l.528-1.92z" fill="#F8A58D"/><path d="M135.666 54.307c-.02-.023.222-.28.593-.72.372-.43.899-1.07 1.671-1.533.756-.463 1.451-.836 1.878-1.21.438-.361.609-.678.641-.66.022.007-.107.366-.537.775-.419.419-1.124.825-1.865 1.28-.745.446-1.268 1.043-1.675 1.452-.401.416-.687.64-.706.616m-1.267-1.986c-.043-.043.798-.952 1.877-2.03.542-.532 1.007-1.048 1.407-1.364.393-.324.693-.441.704-.417.016.03-.246.19-.602.533-.362.335-.807.865-1.355 1.402-1.079 1.078-1.989 1.918-2.031 1.876zm.43-4.02c-.043-.055.477-.468 1.053-1.018.586-.546.872-1.13.927-1.108.063.013-.16.69-.775 1.264-.599.572-1.174.902-1.205.861" fill="#1D2B4D"/><path d="M134.611 43.98a.549.549 0 0 1-.023.13l-.09.375-.368 1.428-.004.013-.012.01c-.264.233-.561.5-.882.803-.311.306-.687.634-.976 1.045a.552.552 0 0 0-.1.332.526.526 0 0 0 .177.31c.093.092.207.176.322.266.094.081.22.08.365.072.571-.067 1.172-.301 1.775-.551l.423-.175-.327.32-1.309 1.28.02-.027c-.166.406-.272.922-.068 1.332.228.409.632.753 1.037 1.058l.089.067-.072.085c-.286.338-.489.872-.115 1.202.333.346.79.613 1.241.85l-.154.086.002-.026.001-.007v.002c.027.032-.061-.076.063.093.295-.14.085-.058.149-.08v.001l-.002.05.001.108c.003.071.009.144.02.215.021.144.058.284.113.415.057.131.134.252.233.35.1.095.222.18.34.194.268.03.579-.068.865-.17.291-.108.577-.242.86-.387a14.236 14.236 0 0 0 1.529-.927c.481-.338.95-.692 1.338-1.1.199-.2.329-.423.347-.689.024-.258-.04-.524-.14-.771-.206-.496-.544-.936-.901-1.31l-.033-.034.003-.051c.013-.26.024-.526-.077-.753a1.122 1.122 0 0 0-.461-.546c-.42-.253-.946-.3-1.412-.27l-.132.008.032-.13c.034-.143.075-.284.105-.425.009-.142.049-.284.033-.421a1.172 1.172 0 0 0-.237-.746c-.323-.41-.889-.535-1.362-.534h-.154l.082-.124c.273-.416.539-.81.737-1.205a1.76 1.76 0 0 0 .188-.596.978.978 0 0 0-.117-.555 2.478 2.478 0 0 0-.72-.783c-.28-.171-.599-.165-.856-.088-.522.165-.849.48-1.065.668-.108.098-.185.18-.238.233a.507.507 0 0 1-.083.08.426.426 0 0 1 .065-.095 2.91 2.91 0 0 1 .224-.252c.102-.106.236-.231.41-.362.172-.131.387-.27.661-.357.268-.089.624-.105.937.079l.219.16.199.19c.125.138.262.281.359.466.1.18.16.402.141.627a1.906 1.906 0 0 1-.193.648c-.201.412-.464.81-.734 1.23l-.071-.124a2.39 2.39 0 0 1 .798.114c.262.085.525.234.711.472.185.235.287.545.28.85.018.154-.022.302-.032.457-.03.15-.071.298-.108.45l-.1-.122c.507-.034 1.049.005 1.536.29.238.142.439.37.545.64.118.27.107.565.093.85l-.03-.086c.38.397.726.84.952 1.377.109.267.185.563.158.872a1.365 1.365 0 0 1-.127.448 1.986 1.986 0 0 1-.275.368c-.409.43-.882.786-1.371 1.13a14.25 14.25 0 0 1-1.553.943 7.846 7.846 0 0 1-.885.397c-.305.105-.613.217-.972.181-.38-.08-.603-.374-.739-.673a1.922 1.922 0 0 1-.128-.47 2.39 2.39 0 0 1-.021-.239l-.001-.12.003-.063.001-.013v-.003c.065-.024-.144.057.151-.083.124.169.036.062.063.094v.01l-.001.02-.003.031-.014.16-.14-.074c-.472-.252-.926-.513-1.301-.9a1.024 1.024 0 0 1-.223-.358.847.847 0 0 1-.018-.423c.058-.272.19-.497.358-.7l.017.15c-.424-.325-.829-.661-1.094-1.134a1.395 1.395 0 0 1-.121-.777c.027-.256.093-.494.193-.725l.007-.015.013-.014 1.318-1.271.097.144c-.621.25-1.215.48-1.833.548-.147.01-.341.006-.473-.11-.112-.09-.228-.176-.333-.282a.672.672 0 0 1-.214-.402.683.683 0 0 1 .125-.42c.322-.442.693-.75 1.015-1.057.328-.299.63-.56.901-.788l-.015.024.415-1.423.112-.366a.504.504 0 0 1 .046-.12" fill="#1D2B4D"/><path d="M38.311 58.262H21.996a2.043 2.043 0 0 1-2.041-2.044V33.605c0-1.129.914-2.044 2.04-2.044h10.348l8.01 8.267v16.39a2.043 2.043 0 0 1-2.042 2.044" fill="#fff"/><path d="M32.343 31.561v6.364a1.9 1.9 0 0 0 1.899 1.902h6.11l-8.009-8.266" fill="#F3F2F1"/><path d="M32.427 38.484s-.08 1.543 1.674 2.05c.066.02.133.034.2.046.799.143 6.052 1.079 6.052.958v-1.71h-6.111s-1.526-.053-1.815-1.344" fill="#9D9D9D"/><path d="M38.311 58.262c0-.01.123.003.353-.041a2.022 2.022 0 0 0 1.657-1.874c.01-.66-.002-1.425-.001-2.279l-.025-14.24.017.04-8.016-8.261.047.02a34138.083 34138.083 0 0 1-9.094.003h-.792c-.266.004-.533-.014-.784.029a1.973 1.973 0 0 0-1.642 1.806c-.015.362-.004.74-.008 1.108v6.519l-.005 8.152c0 1.299-.002 2.565-.003 3.796 0 .615 0 1.222-.002 1.819v.888c.004.295-.02.586.037.86a1.993 1.993 0 0 0 1.678 1.58c.26.034.536.018.803.022l3.08.005 9.293.022 2.527.012.656.007c.148.003.224.007.224.007s-.075.005-.224.007l-.656.007-2.527.013-9.294.022-3.08.005c-.268-.005-.535.013-.817-.02a2.107 2.107 0 0 1-1.775-1.666c-.06-.296-.036-.592-.041-.883l-.001-.889-.002-1.818-.003-3.796-.004-8.152v-4.313l-.001-2.206c.003-.372-.008-.736.007-1.118a2.112 2.112 0 0 1 1.758-1.932c.275-.046.542-.026.806-.03h3.916l5.97.002h.028l.02.02 8.003 8.272.016.017v.024l-.024 14.24c-.006.856.002 1.616-.014 2.282a2.057 2.057 0 0 1-.76 1.466 2.025 2.025 0 0 1-1.21.446c-.06.002-.09 0-.09 0" fill="#17282F"/><path d="M40.353 39.828a.743.743 0 0 1-.157.013l-.45.013-1.656.022c-.704.004-1.535.01-2.455.014-.463 0-.948 0-1.452.002a1.961 1.961 0 0 1-1.818-1.375c-.085-.254-.096-.534-.09-.78l.005-1.452.014-2.459.022-1.657.013-.45a.68.68 0 0 1 .014-.158.67.67 0 0 1 .014.157l.013.45.022 1.658.015 2.459c0 .463.002.949.004 1.452-.006.255.005.497.085.739.076.239.203.465.373.658a1.83 1.83 0 0 0 1.318.622l1.448.007 2.456.015 1.655.023.45.013a.625.625 0 0 1 .157.014m-8.318-2.588c0 .038-1.927.07-4.304.07-2.378 0-4.304-.032-4.304-.07 0-.038 1.927-.069 4.304-.069 2.377 0 4.304.03 4.304.069zm4.084 3.175c0 .038-2.841.069-6.346.069s-6.346-.031-6.346-.07c0-.037 2.84-.068 6.346-.068 3.505 0 6.346.03 6.346.069zm0 3.175c0 .038-2.841.069-6.346.069s-6.346-.031-6.346-.07c0-.038 2.84-.068 6.346-.068 3.505 0 6.346.03 6.346.069zm0 3.174c0 .039-2.841.07-6.346.07s-6.346-.031-6.346-.07c0-.038 2.84-.069 6.346-.069 3.505 0 6.346.031 6.346.07zm0 3.175c0 .038-2.841.07-6.346.07s-6.346-.032-6.346-.07c0-.038 2.84-.069 6.346-.069 3.505 0 6.346.03 6.346.07zm0 3.175c0 .038-2.841.069-6.346.069s-6.346-.03-6.346-.069c0-.038 2.84-.07 6.346-.07 3.505 0 6.346.032 6.346.07z" fill="#17282F"/><path d="M29.037 53.855H17.412c-.616 0-1.116-.5-1.116-1.118v-4c0-.617.5-1.117 1.116-1.117h11.625c.617 0 1.117.5 1.117 1.117v4c0 .617-.5 1.118-1.117 1.118" fill="#4C73CC"/><path d="M21.17 50.505c0-.26-.168-.411-.5-.411h-.444v.818h.444c.332 0 .5-.152.5-.407zm.552 0c0 .524-.394.85-1.022.85h-.474v.65h-.544V49.65H20.7c.628 0 1.022.326 1.022.855m1.428 1.053c.467 0 .773-.28.773-.73 0-.451-.306-.73-.773-.73h-.498v1.46h.498zm-1.042-1.908h1.069c.77 0 1.297.464 1.297 1.178 0 .713-.528 1.177-1.297 1.177h-1.07V49.65m3.321.437v.623h1.089v.438h-1.089v.857h-.544V49.65h1.777v.437h-1.233m2.491 45.437H11.778a2.021 2.021 0 0 1-2.02-2.023V71.13c0-1.117.905-2.023 2.02-2.023h10.237l7.924 8.179V93.5a2.021 2.021 0 0 1-2.02 2.023z" fill="#fff"/><path d="M22.015 69.107v6.297c0 1.038.84 1.88 1.878 1.88l6.046.002-7.924-8.179" fill="#F3F2F1"/><path d="M22.097 75.956s-.08 1.527 1.657 2.03c.065.018.132.032.199.044.79.141 5.986 1.067 5.986.948v-1.692h-6.046s-1.51-.052-1.796-1.33z" fill="#9D9D9D"/><path d="M27.92 95.524c-.001-.01.12.002.348-.042a2 2 0 0 0 1.639-1.854c.01-.652-.002-1.409-.001-2.254l-.025-14.088.017.04-7.93-8.173.047.02a33401.36 33401.36 0 0 1-8.997.003h-.784c-.263.004-.527-.014-.775.028a1.952 1.952 0 0 0-1.625 1.787c-.014.358-.004.733-.007 1.097v2.182l-.001 4.266-.004 8.065-.003 3.756-.002 1.8v.878c.004.291-.02.58.037.85a1.972 1.972 0 0 0 1.659 1.564c.258.033.53.017.794.022l3.047.004 9.194.022 2.5.013.65.006c.146.003.221.008.221.008s-.075.004-.221.007l-.65.006-2.5.013-9.194.022-3.047.005c-.265-.005-.53.013-.809-.02a2.084 2.084 0 0 1-1.756-1.649c-.06-.292-.036-.585-.042-.873a1144.263 1144.263 0 0 0-.002-2.678L9.695 86.6l-.004-8.065-.001-4.266v-2.182c.003-.369-.008-.73.007-1.107a2.089 2.089 0 0 1 1.74-1.912c.272-.045.536-.026.797-.03h3.874l5.907.002h.028l.02.02 7.917 8.185.016.016v.024l-.024 14.088c-.005.847.002 1.6-.014 2.258a2.035 2.035 0 0 1-.752 1.45 2.004 2.004 0 0 1-1.198.441c-.059.002-.089 0-.089 0" fill="#17282F"/><path d="M29.939 77.286a.733.733 0 0 1-.155.013l-.446.013-1.637.022c-.698.004-1.52.01-2.43.014l-1.436.001a1.947 1.947 0 0 1-1.8-1.36c-.084-.252-.094-.528-.088-.772l.004-1.436.015-2.433.022-1.64.013-.445a.676.676 0 0 1 .014-.156.77.77 0 0 1 .014.156l.012.446.022 1.64.015 2.432.004 1.436c-.005.253.005.492.084.731.075.236.201.46.37.65a1.81 1.81 0 0 0 1.303.616l1.433.007 2.429.015 1.637.023.446.013a.646.646 0 0 1 .155.014m-8.23-2.56c0 .038-1.906.069-4.257.069-2.352 0-4.258-.031-4.258-.07 0-.038 1.906-.068 4.258-.068 2.351 0 4.258.03 4.258.069m4.04 3.14c0 .039-2.81.07-6.278.07-3.468 0-6.278-.031-6.278-.07 0-.037 2.81-.068 6.278-.068 3.467 0 6.278.03 6.278.069zm0 3.141c0 .038-2.81.07-6.278.07-3.468 0-6.278-.032-6.278-.07 0-.038 2.81-.069 6.278-.069 3.467 0 6.278.031 6.278.07zm0 3.141c0 .038-2.81.07-6.278.07-3.468 0-6.278-.032-6.278-.07 0-.038 2.81-.069 6.278-.069 3.467 0 6.278.031 6.278.07zm0 3.141c0 .038-2.81.07-6.278.07-3.468 0-6.278-.032-6.278-.07 0-.038 2.81-.069 6.278-.069 3.467 0 6.278.031 6.278.069zm0 3.141c0 .038-2.81.069-6.278.069-3.468 0-6.278-.03-6.278-.069 0-.038 2.81-.069 6.278-.069 3.467 0 6.278.03 6.278.069z" fill="#17282F"/><path d="M18.732 91.163H7.255c-.616 0-1.116-.5-1.116-1.118v-3.933c0-.617.5-1.117 1.116-1.117h11.477c.617 0 1.117.5 1.117 1.117v3.933c0 .617-.5 1.118-1.117 1.118" fill="#4C73CC"/><path d="M10.96 87.85c0-.256-.166-.406-.495-.406h-.439v.809h.44c.328 0 .495-.15.495-.403zm.546 0c0 .519-.39.842-1.01.842h-.47v.643h-.538v-2.33h1.007c.622 0 1.01.322 1.01.845m1.856 0c0-.256-.167-.406-.495-.406h-.44v.809h.44c.329 0 .495-.15.495-.403zm.545 0c0 .519-.389.842-1.01.842h-.47v.643h-.538v-2.33h1.007c.622 0 1.01.322 1.01.845m.802-.406h-.745v-.44h2.029v.44h-.745v1.89h-.539v-1.89zm44.95-55.828H43.62c-1.108 0-2.007-.9-2.007-2.01V7.378c0-1.11.899-2.01 2.007-2.01h10.172l7.873 8.126v16.112c0 1.11-.898 2.01-2.007 2.01z" fill="#fff"/><path d="M53.79 5.368v6.256a1.87 1.87 0 0 0 1.867 1.87h6.007l-7.873-8.126" fill="#F3F2F1"/><path d="M53.873 12.174s-.08 1.517 1.646 2.015c.064.02.13.033.197.045.785.14 5.948 1.06 5.948.941v-1.68h-6.007s-1.5-.052-1.784-1.321" fill="#9D9D9D"/><path d="M59.658 31.616c-.001-.01.12.002.346-.041a1.986 1.986 0 0 0 1.628-1.842c.01-.648-.001-1.4 0-2.24l-.025-13.999.016.04-7.88-8.12.048.02a37213.988 37213.988 0 0 1-8.94.003h-.779c-.26.004-.524-.014-.77.028a1.941 1.941 0 0 0-1.614 1.774c-.014.357-.004.729-.007 1.09v2.169l-.001 4.239-.004 8.014-.003 3.731-.002 1.788v.873c.004.29-.02.577.037.845a1.96 1.96 0 0 0 1.648 1.554c.256.032.527.016.789.02l3.027.005 9.136.022 2.484.013.646.007c.145.002.22.007.22.007s-.075.005-.22.007l-.646.007-2.484.013-9.136.022-3.027.004c-.264-.004-.527.014-.804-.02a2.07 2.07 0 0 1-1.746-1.639c-.06-.29-.035-.581-.04-.867l-.001-.873-.002-1.788-.003-3.731-.004-8.014v-4.24l-.001-2.168c.003-.365-.008-.724.007-1.1a2.078 2.078 0 0 1 1.728-1.9c.272-.044.534-.026.793-.03h.78l3.07.001 5.869.002h.028l.019.02 7.867 8.132.017.017v.023l-.025 14c-.005.84.002 1.588-.014 2.242a2.021 2.021 0 0 1-.747 1.441 1.989 1.989 0 0 1-1.19.439c-.059.002-.088 0-.088 0" fill="#17282F"/><path d="M61.664 13.494c0 .005-.053.01-.154.014l-.442.013-1.628.022-2.413.014-1.427.001a1.936 1.936 0 0 1-1.789-1.352c-.084-.25-.094-.525-.088-.767l.004-1.427.015-2.417.022-1.63.013-.442a.682.682 0 0 1 .014-.155c.004 0 .01.053.014.155l.013.443.021 1.629.015 2.417.004 1.427c-.005.251.005.488.084.726a1.805 1.805 0 0 0 1.662 1.258l1.423.007 2.413.015 1.628.022.442.013c.101.005.154.01.154.014m-8.177-2.543c0 .038-1.894.069-4.23.069-2.337 0-4.231-.031-4.231-.07 0-.037 1.894-.068 4.23-.068 2.337 0 4.231.03 4.231.069zm4.015 3.12c0 .039-2.793.07-6.238.07-3.446 0-6.238-.031-6.238-.07 0-.037 2.792-.069 6.238-.069 3.445 0 6.238.031 6.238.07zm0 3.121c0 .039-2.793.07-6.238.07-3.446 0-6.238-.031-6.238-.07 0-.038 2.792-.069 6.238-.069 3.445 0 6.238.031 6.238.07zm0 3.121c0 .038-2.793.07-6.238.07-3.446 0-6.238-.032-6.238-.07 0-.038 2.792-.069 6.238-.069 3.445 0 6.238.031 6.238.07zm0 3.121c0 .038-2.793.069-6.238.069-3.446 0-6.238-.03-6.238-.069 0-.038 2.792-.069 6.238-.069 3.445 0 6.238.031 6.238.069zm0 3.12c0 .039-2.793.07-6.238.07-3.446 0-6.238-.031-6.238-.07 0-.037 2.792-.068 6.238-.068 3.445 0 6.238.03 6.238.069z" fill="#17282F"/><path d="M50.522 27.283h-11.39c-.616 0-1.116-.5-1.116-1.118v-3.893c0-.618.5-1.118 1.116-1.118h11.39c.616 0 1.116.5 1.116 1.118v3.893c0 .618-.5 1.118-1.116 1.118z" fill="#4C73CC"/><path d="m42.803 25.463-.558-.804-.549.804h-.614l.855-1.178-.812-1.138h.608l.532.751.521-.751h.579l-.806 1.119.862 1.197h-.618m.829-2.316h.535v1.88h1.16v.436h-1.695v-2.316m1.8 2.088.182-.404c.195.143.486.242.763.242.317 0 .446-.106.446-.248 0-.434-1.345-.136-1.345-.996 0-.394.318-.722.975-.722.29 0 .588.07.803.206l-.165.406a1.307 1.307 0 0 0-.641-.181c-.318 0-.44.119-.44.264 0 .427 1.345.133 1.345.983 0 .387-.32.718-.981.718-.367 0-.737-.11-.942-.268zm113.43 73.427h-16.294a2.04 2.04 0 0 1-2.039-2.042V74.037a2.04 2.04 0 0 1 2.039-2.041h10.333l8 8.255v16.37a2.04 2.04 0 0 1-2.039 2.04" fill="#fff"/><path d="M152.901 71.996v6.356c0 1.048.849 1.898 1.896 1.898l6.104.001-8-8.255" fill="#F3F2F1"/><path d="M152.985 78.91s-.08 1.541 1.672 2.047c.066.02.133.034.201.046.797.142 6.043 1.077 6.043.956v-1.708h-6.104s-1.524-.052-1.812-1.342z" fill="#9D9D9D"/><path d="M158.862 98.662c-.001-.01.122.002.352-.041a2.024 2.024 0 0 0 1.655-1.871c.01-.66-.002-1.424-.001-2.277l-.025-14.222.016.04-8.005-8.25.047.02-5.963.003h-3.91c-.265.005-.532-.013-.783.03a1.969 1.969 0 0 0-1.64 1.803c-.014.362-.004.74-.007 1.107v2.203l-.001 4.307-.005 8.141-.002 3.791-.002 1.817-.001.887c.005.294-.019.585.038.859a1.989 1.989 0 0 0 1.675 1.578c.26.033.535.017.802.022l3.075.004 9.282.022 2.523.013.656.007c.148.002.224.007.224.007s-.076.005-.224.007l-.656.007-2.523.013-9.282.022-3.075.004c-.268-.004-.535.014-.817-.02a2.1 2.1 0 0 1-1.772-1.664c-.061-.295-.036-.59-.042-.881l-.001-.887-.002-1.817-.002-3.79-.004-8.142-.001-4.307-.001-2.203c.004-.372-.007-.736.008-1.117a2.106 2.106 0 0 1 1.755-1.93c.275-.045.542-.026.805-.03h3.91l5.963.002h.028l.02.02 7.993 8.262.016.017v.023l-.024 14.222c-.006.855.001 1.614-.015 2.279a2.05 2.05 0 0 1-.759 1.464 2.018 2.018 0 0 1-1.208.446h-.09" fill="#17282F"/><path d="M160.9 80.251c0 .005-.053.01-.156.014l-.45.013-1.653.022-2.452.014h-1.45a1.955 1.955 0 0 1-1.416-.664 1.963 1.963 0 0 1-.4-.707c-.085-.255-.096-.533-.089-.78l.004-1.45.015-2.455.021-1.655.013-.45a.78.78 0 0 1 .014-.157c.005 0 .01.054.014.157l.013.45.022 1.655.015 2.455.004 1.45c-.006.256.005.496.085.739a1.83 1.83 0 0 0 1.689 1.279 3498.004 3498.004 0 0 1 3.898.021l1.653.023c.183.005.332.01.45.012a.7.7 0 0 1 .156.014m-8.306-2.584c0 .038-1.925.07-4.299.07-2.374 0-4.298-.031-4.298-.07 0-.038 1.924-.068 4.298-.068s4.299.03 4.299.068zm4.078 3.17c0 .04-2.838.07-6.337.07-3.501 0-6.338-.03-6.338-.07 0-.037 2.837-.068 6.338-.068 3.499 0 6.337.03 6.337.069zm0 3.171c0 .039-2.838.07-6.337.07-3.501 0-6.338-.031-6.338-.07 0-.038 2.837-.068 6.338-.068 3.499 0 6.337.03 6.337.068zm0 3.17c0 .04-2.838.07-6.337.07-3.501 0-6.338-.03-6.338-.07 0-.037 2.837-.068 6.338-.068 3.499 0 6.337.031 6.337.069zm0 3.172c0 .038-2.838.069-6.337.069-3.501 0-6.338-.031-6.338-.07 0-.038 2.837-.068 6.338-.068 3.499 0 6.337.03 6.337.069zm0 3.91c0 .038-2.838.07-6.337.07-3.501 0-6.338-.032-6.338-.07 0-.038 2.837-.069 6.338-.069 3.499 0 6.337.031 6.337.069z" fill="#17282F"/><path d="M149.598 94.26h-11.606c-.617 0-1.117-.5-1.117-1.118v-3.991c0-.617.5-1.118 1.117-1.118h11.606c.617 0 1.117.5 1.117 1.118v3.991c0 .618-.5 1.118-1.117 1.118z" fill="#4C73CC"/><path d="M139.519 91.97c.467 0 .772-.28.772-.73 0-.45-.305-.73-.772-.73h-.496v1.46h.496zm-1.04-1.906h1.067c.769 0 1.296.464 1.296 1.176 0 .713-.527 1.177-1.296 1.177h-1.067v-2.353m4.645 1.176c0-.447-.316-.753-.735-.753-.42 0-.735.306-.735.753s.315.753.735.753c.419 0 .735-.306.735-.753zm-2.021 0c0-.699.544-1.217 1.286-1.217.738 0 1.285.515 1.285 1.217 0 .703-.547 1.217-1.285 1.217-.742 0-1.286-.517-1.286-1.217zm2.832 0c0-.71.544-1.217 1.276-1.217.406 0 .745.148.967.417l-.349.323a.757.757 0 0 0-.591-.276c-.44 0-.752.31-.752.753 0 .444.312.753.752.753a.75.75 0 0 0 .591-.279l.349.323c-.222.272-.561.42-.97.42-.729 0-1.273-.507-1.273-1.217m4.042 1.177-.568-.817-.557.817h-.624l.869-1.197-.826-1.156h.618l.54.763.531-.763h.587l-.819 1.136.876 1.217h-.627" fill="#fff"/><path d="M176.558 106.418c0 .038-39.527.069-88.275.069-48.764 0-88.283-.031-88.283-.069 0-.038 39.519-.069 88.283-.069 48.748 0 88.275.031 88.275.069z" fill="#17282F"/></svg>