<svg width="184" height="146" viewBox="0 0 184 146" fill="none" xmlns="http://www.w3.org/2000/svg">
<path d="M26.8246 131.988C62.5908 150.672 120.583 150.672 156.349 131.988C192.115 113.303 192.115 83.0084 156.349 64.3197C120.583 45.631 62.6072 45.6351 26.8246 64.3197C-8.9579 83.0043 -8.92519 113.303 26.8246 131.988Z" fill="white"/>
<path d="M16.8528 101.343L5.22656 94.6327V69.6953L16.8528 76.4102V101.343Z" fill="#E0E0E0"/>
<path d="M16.8516 76.41L33.4628 66.8203V91.7536L16.8516 101.343V76.41Z" fill="#EBEBEB"/>
<path d="M33.4641 66.8203L16.8528 76.41L5.22656 69.6952L21.8378 60.1055L33.4641 66.8203Z" fill="#F5F5F5"/>
<path d="M18.5158 77.3671L31.8024 69.6953L32.1091 69.8712V79.1092L18.8184 86.781L18.5117 86.6051L18.5158 77.3671Z" fill="#E0E0E0"/>
<path d="M18.8203 77.547L32.111 69.8711V79.1091L18.8203 86.7809V77.547Z" fill="#F5F5F5"/>
<path d="M24.0277 76.1068L26.2892 74.8023C26.5795 74.6306 26.8167 74.7083 26.8167 74.9741C26.7956 75.1369 26.737 75.2926 26.6455 75.4288C26.5539 75.5651 26.4319 75.6782 26.2892 75.7592L24.0277 77.0638C23.7333 77.2355 23.4961 77.1578 23.4961 76.892C23.5173 76.7287 23.5764 76.5727 23.6687 76.4363C23.761 76.3 23.884 76.1872 24.0277 76.1068V76.1068Z" fill="#E0E0E0"/>
<path d="M18.2109 89.0546L31.4975 81.3828V90.6208L31.8042 90.7967L18.5136 98.4685L18.2109 98.2926V89.0546Z" fill="#E0E0E0"/>
<path d="M18.5117 89.2304L31.8024 81.5586V90.7966L18.5117 98.4684V89.2304Z" fill="#F5F5F5"/>
<path d="M23.7221 87.7941L26.004 86.4937C26.2985 86.322 26.5356 86.3997 26.5356 86.6655C26.5144 86.8288 26.4553 86.9848 26.363 87.1211C26.2707 87.2575 26.1478 87.3703 26.004 87.4506L23.7426 88.7552C23.4481 88.9269 23.2109 88.8492 23.2109 88.5834C23.2293 88.4213 23.285 88.2656 23.3737 88.1287C23.4624 87.9917 23.5817 87.8772 23.7221 87.7941Z" fill="#E0E0E0"/>
<path d="M16.8528 74.9723L5.22656 68.2574V43.3242L16.8528 50.0349V74.9723Z" fill="#E0E0E0"/>
<path d="M16.8516 50.035L33.4628 40.4453V65.3827L16.8516 74.9724V50.035Z" fill="#EBEBEB"/>
<path d="M33.4641 40.4451L16.8528 50.0349L5.22656 43.3241L21.8378 33.7344L33.4641 40.4451Z" fill="#F5F5F5"/>
<path d="M18.5117 50.996L31.8024 43.3242L32.1091 43.5001V52.7381L18.8184 60.4099L18.5117 60.2299V50.996Z" fill="#E0E0E0"/>
<path d="M24.0277 49.7288L26.2851 48.4243C26.5795 48.2566 26.8167 48.3343 26.8167 48.6001C26.7949 48.7632 26.7355 48.919 26.6433 49.0553C26.551 49.1915 26.4284 49.3045 26.2851 49.3853L24.0277 50.6898C23.7333 50.8575 23.4961 50.7839 23.4961 50.5181C23.5176 50.3544 23.5768 50.1979 23.6691 50.0609C23.7613 49.924 23.8841 49.8103 24.0277 49.7288V49.7288Z" fill="#E0E0E0"/>
<path d="M18.2109 62.6835L31.4975 55.0117V64.2457L31.8042 64.4215L18.5136 72.0933L18.2109 71.9174V62.6835Z" fill="#E0E0E0"/>
<path d="M18.5117 62.8593L31.8024 55.1875V64.4214L18.5117 72.0932V62.8593Z" fill="#F5F5F5"/>
<path d="M23.723 61.4158L26.0049 60.1113C26.2953 59.9436 26.5366 60.0213 26.5366 60.2872C26.5135 60.4499 26.4537 60.6052 26.3616 60.7412C26.2694 60.8773 26.1475 60.9905 26.0049 61.0723L23.723 62.3646C23.4286 62.5323 23.1914 62.4546 23.1914 62.1928C23.2147 62.0313 23.2748 61.8773 23.3669 61.7426C23.4591 61.6079 23.5809 61.4961 23.723 61.4158V61.4158Z" fill="#E0E0E0"/>
<path d="M18.5117 50.996L31.8024 43.3242V52.5582L18.5117 60.2299V50.996Z" fill="#E0E0E0"/>
<path d="M38.4509 47.8873L31.1758 43.6875V51.8255L38.4509 56.0212V47.8873Z" fill="#E0E0E0"/>
<path d="M23.4961 61.5468V50.0351L26.3464 48.383L26.8167 49.0782L35.1224 44.2812V54.832L23.4961 61.5468Z" fill="#EBEBEB"/>
<path d="M23.4961 61.5448L24.3262 51.4725L35.9525 44.7617L35.1224 54.8299L23.4961 61.5448Z" fill="#F5F5F5"/>
<path d="M25.1589 55.5585L18.8203 51.8984V60.0364L25.1589 63.6924V55.5585Z" fill="#EBEBEB"/>
<path d="M25.1602 54.8319L38.4508 47.1602V56.3941L25.1602 64.0659V54.8319Z" fill="#F5F5F5"/>
<path d="M30.3676 53.3883L32.6249 52.0838C32.9194 51.9161 33.1566 51.9938 33.1566 52.2596C33.1344 52.4226 33.0749 52.5783 32.9827 52.7145C32.8905 52.8507 32.7681 52.9637 32.6249 53.0448L30.3676 54.3493C30.0731 54.517 29.8359 54.4393 29.8359 54.1775C29.8575 54.0138 29.9167 53.8573 30.0089 53.7204C30.1012 53.5834 30.2239 53.4698 30.3676 53.3883Z" fill="#E0E0E0"/>
<path d="M25.1565 54.8317L24.7148 54.5781V63.8121L25.1565 64.0656V54.8317Z" fill="#E0E0E0"/>
<path d="M24.7148 54.5782L38.0014 46.9023L38.4472 47.16L25.1565 54.8318L24.7148 54.5782Z" fill="#EBEBEB"/>
<path d="M154.208 86.2387L142.578 79.5238V54.5906L154.208 61.3013V86.2387Z" fill="#E0E0E0"/>
<path d="M154.207 61.3007L170.818 51.7109V76.6483L154.207 86.238V61.3007Z" fill="#EBEBEB"/>
<path d="M170.82 51.7117L154.208 61.3014L142.578 54.5906L159.193 44.9968L170.82 51.7117Z" fill="#F5F5F5"/>
<path d="M155.867 62.2616L169.158 54.5898L169.465 54.7657L169.46 63.9996L156.174 71.6714L155.867 71.4956V62.2616Z" fill="#E0E0E0"/>
<path d="M156.176 62.4381L169.466 54.7664L169.462 64.0003L156.176 71.6721V62.4381Z" fill="#F5F5F5"/>
<path d="M161.387 60.9946L163.644 59.6901C163.939 59.5224 164.176 59.6001 164.176 59.8619C164.155 60.0256 164.095 60.1821 164.003 60.319C163.911 60.456 163.788 60.5697 163.644 60.6511L161.387 61.9557C161.093 62.1233 160.855 62.0456 160.855 61.7839C160.877 61.6202 160.936 61.4637 161.028 61.3267C161.121 61.1898 161.243 61.0761 161.387 60.9946V60.9946Z" fill="#E0E0E0"/>
<path d="M155.562 73.95L168.853 66.2741V75.5121L169.16 75.688L155.869 83.3598L155.562 83.1839V73.95Z" fill="#E0E0E0"/>
<path d="M155.867 74.1249L169.158 66.4531V75.6871L155.867 83.3588V74.1249Z" fill="#F5F5F5"/>
<path d="M161.078 72.6823L163.34 71.3777C163.63 71.2101 163.867 71.2878 163.867 71.5495C163.846 71.7126 163.787 71.8686 163.696 72.0055C163.604 72.1423 163.482 72.2563 163.34 72.3387L161.078 73.6433C160.784 73.8109 160.547 73.7332 160.547 73.4674C160.569 73.3044 160.628 73.1488 160.721 73.0126C160.813 72.8764 160.935 72.7633 161.078 72.6823Z" fill="#E0E0E0"/>
<path d="M43.589 112.298C43.589 112.298 43.634 105.812 39.5446 100.95C35.9254 96.6439 33.9993 93.9122 35.1403 92.6526C36.2812 91.3931 38.7349 91.0905 42.0432 94.5747C45.3516 98.0589 45.6092 107.71 45.1512 109.894L43.589 112.298Z" fill="#5F90FF"/>
<path opacity="0.2" d="M43.589 112.298C43.589 112.298 43.634 105.812 39.5446 100.95C35.9254 96.6439 33.9993 93.9122 35.1403 92.6526C36.2812 91.3931 38.7349 91.0905 42.0432 94.5747C45.3516 98.0589 45.6092 107.71 45.1512 109.894L43.589 112.298Z" fill="black"/>
<path d="M44.2765 105.326C44.2299 105.326 44.1847 105.31 44.1482 105.281C44.1118 105.252 44.0863 105.212 44.0761 105.166C42.6448 98.4717 38.9725 94.7708 36.9073 93.1596C36.8646 93.1264 36.8367 93.0777 36.8298 93.024C36.8229 92.9704 36.8375 92.9162 36.8705 92.8733C36.9044 92.8303 36.9538 92.8023 37.0082 92.7954C37.0625 92.7885 37.1173 92.8033 37.1609 92.8365C39.2669 94.4723 43.0169 98.2591 44.4769 105.08C44.4829 105.106 44.4836 105.133 44.479 105.16C44.4744 105.186 44.4645 105.211 44.45 105.234C44.4356 105.256 44.4167 105.276 44.3946 105.291C44.3726 105.306 44.3477 105.316 44.3215 105.322L44.2765 105.326Z" fill="white"/>
<path d="M43.4347 114.709L41.7703 115.67C41.5928 115.185 41.2933 114.753 40.9009 114.418C40.5084 114.082 40.036 113.852 39.5293 113.752C37.7095 113.343 35.8202 113.412 34.5443 111.834C33.2684 110.255 34.8224 108.538 34.5443 107.376C34.2662 106.215 34.0863 105.88 31.8044 104.718C29.5224 103.557 28.6228 101.631 30.3403 100.326C32.0579 99.0217 34.8387 99.9787 36.5236 101.144C38.0203 102.167 39.4434 102.436 41.116 102.645C42.7886 102.854 45.5121 103.782 45.095 107.667C44.8219 110.072 44.2645 112.435 43.4347 114.709V114.709Z" fill="#5F90FF"/>
<path d="M37.0487 109.602C37.0051 109.602 36.9628 109.588 36.9276 109.562C36.8924 109.536 36.8661 109.5 36.8524 109.459C36.8369 109.407 36.8424 109.351 36.8676 109.303C36.8928 109.255 36.9357 109.218 36.9874 109.201C37.1346 109.156 40.6678 108.036 42.1687 109.238C42.2059 109.273 42.2286 109.321 42.2323 109.372C42.2359 109.423 42.2203 109.474 42.1884 109.514C42.1565 109.554 42.1107 109.581 42.0601 109.589C42.0095 109.597 41.9578 109.585 41.9151 109.557C40.5901 108.494 37.1468 109.582 37.11 109.594L37.0487 109.602Z" fill="white"/>
<path d="M43.6205 114.397C43.5707 114.397 43.5226 114.378 43.4856 114.345C43.4485 114.312 43.4252 114.266 43.4201 114.217C42.5082 105.604 32.1333 101.519 32.031 101.478C32.0057 101.468 31.9825 101.454 31.9628 101.435C31.943 101.417 31.9272 101.395 31.9162 101.37C31.9051 101.345 31.8991 101.318 31.8985 101.291C31.8979 101.264 31.9026 101.237 31.9125 101.212C31.9326 101.163 31.9709 101.123 32.0196 101.101C32.0683 101.079 32.1237 101.076 32.1742 101.094C32.2846 101.139 42.8885 105.31 43.825 114.18C43.8307 114.233 43.815 114.287 43.7813 114.329C43.7476 114.371 43.6986 114.399 43.645 114.405L43.6205 114.397Z" fill="white"/>
<path d="M145.333 109.051C145.378 108.908 147.133 99.8787 145.333 93.4746C143.698 87.6022 141.563 85.4348 138.52 84.9564C135.478 84.4779 134.157 86.6698 135.772 89.6388C137.388 92.6077 141.277 96.5458 142.23 103.179C142.638 105.911 142.949 108.282 142.949 108.282L145.333 109.051Z" fill="#5F90FF"/>
<path opacity="0.2" d="M145.333 109.051C145.378 108.908 147.133 99.8787 145.333 93.4746C143.698 87.6022 141.563 85.4348 138.52 84.9564C135.478 84.4779 134.157 86.6698 135.772 89.6388C137.388 92.6077 141.277 96.5458 142.23 103.179C142.638 105.911 142.949 108.282 142.949 108.282L145.333 109.051Z" fill="black"/>
<path d="M144.308 103.866C144.281 103.864 144.255 103.857 144.231 103.846C144.207 103.834 144.185 103.818 144.167 103.797C144.149 103.777 144.136 103.754 144.127 103.728C144.118 103.703 144.114 103.676 144.116 103.649C144.525 96.3372 142.137 89.8104 137.855 86.6084C137.812 86.5759 137.783 86.5274 137.775 86.4738C137.768 86.4201 137.782 86.3655 137.814 86.3222C137.848 86.2797 137.896 86.2517 137.949 86.244C138.003 86.2364 138.057 86.2498 138.101 86.2813C142.489 89.5528 144.95 96.2268 144.521 103.674C144.518 103.727 144.494 103.777 144.454 103.813C144.414 103.849 144.362 103.868 144.308 103.866Z" fill="white"/>
<path d="M150.042 113.753C149.809 112.072 150.774 109.553 153.068 108.956C155.362 108.359 156.384 107.042 155.558 105.603C154.732 104.163 154.924 102.842 157.006 102.245C159.088 101.648 160.911 100.609 159.713 98.4094C158.842 96.8186 158.65 95.788 160.785 92.6555C162.555 90.0546 161.108 88.5293 158.891 88.8155C156.675 89.1018 155.305 91.7436 153.918 92.1852C152.532 92.6269 152.213 90.2714 150.385 91.3265C148.557 92.3815 148.668 95.0846 148.61 96.9699C148.553 98.8551 148.43 99.2804 146.778 99.0514C145.126 98.8224 143.507 99.0923 143.544 103.088C143.572 106.515 145.4 110.759 145.4 110.759L150.042 113.753Z" fill="#5F90FF"/>
<path d="M147.143 111.197H147.123C147.068 111.191 147.018 111.163 146.983 111.12C146.949 111.077 146.933 111.023 146.939 110.968C148.092 100.667 156.933 91.9765 159.24 90.214C159.283 90.1809 159.338 90.1664 159.392 90.1737C159.446 90.181 159.495 90.2095 159.528 90.2529C159.561 90.2962 159.576 90.351 159.568 90.4051C159.561 90.4591 159.532 90.5081 159.489 90.5412C157.211 92.2792 148.484 100.855 147.348 111.013C147.342 111.063 147.318 111.11 147.28 111.143C147.242 111.177 147.194 111.196 147.143 111.197V111.197Z" fill="white"/>
<path d="M151.176 100.185C151.135 100.184 151.094 100.172 151.06 100.149C151.026 100.125 150.999 100.092 150.984 100.054C150.966 100.002 150.969 99.9459 150.992 99.8964C151.015 99.847 151.056 99.8082 151.107 99.788C154.403 98.5612 158.14 99.1419 158.3 99.1664C158.353 99.1754 158.4 99.205 158.432 99.2486C158.463 99.2922 158.476 99.3464 158.468 99.3995C158.458 99.4523 158.428 99.4993 158.385 99.5312C158.342 99.563 158.288 99.5774 158.234 99.5713C158.198 99.5713 154.444 98.9824 151.25 100.172C151.226 100.18 151.201 100.185 151.176 100.185V100.185Z" fill="white"/>
<path d="M148.239 106.377C148.211 106.376 148.182 106.37 148.156 106.358C148.13 106.346 148.107 106.329 148.088 106.307C146.717 104.711 145.788 102.784 145.393 100.717C145.389 100.69 145.39 100.663 145.397 100.637C145.403 100.611 145.415 100.586 145.43 100.565C145.446 100.543 145.467 100.525 145.49 100.511C145.513 100.497 145.538 100.488 145.565 100.484C145.591 100.48 145.618 100.481 145.645 100.487C145.671 100.494 145.695 100.505 145.717 100.521C145.739 100.537 145.757 100.557 145.771 100.58C145.785 100.603 145.794 100.629 145.798 100.656C146.189 102.641 147.083 104.492 148.395 106.033C148.42 106.063 148.437 106.1 148.442 106.139C148.448 106.178 148.442 106.218 148.426 106.254C148.409 106.29 148.383 106.321 148.35 106.342C148.317 106.364 148.279 106.376 148.239 106.377V106.377Z" fill="white"/>
<path d="M43.4375 51.4177V114.714L108.222 77.312L108.218 19.7695L60.0488 47.5818L58.3844 42.7849L43.4375 51.4177Z" fill="#5F90FF"/>
<path opacity="0.7" d="M43.4375 51.4177V114.714L108.222 77.312L108.218 19.7695L60.0488 47.5818L58.3844 42.7849L43.4375 51.4177Z" fill="black"/>
<path d="M43.4375 114.714L46.7581 57.1715L111.543 19.7695L108.222 77.312L43.4375 114.714Z" fill="#E0E0E0"/>
<path d="M43.4375 114.714L48.4184 58.1325L113.203 20.7265L108.222 77.312L43.4375 114.714Z" fill="#5F90FF"/>
<path opacity="0.7" d="M43.4375 114.714L48.4184 58.1325L113.203 20.7265L108.222 77.312L43.4375 114.714Z" fill="black"/>
<path d="M53.4023 57.1716V120.472L118.187 83.0659V25.5234L70.0136 53.3357L68.3533 48.5388L53.4023 57.1716Z" fill="#5F90FF"/>
<path opacity="0.5" d="M53.4023 57.1716V120.472L118.187 83.0659V25.5234L70.0136 53.3357L68.3533 48.5388L53.4023 57.1716Z" fill="black"/>
<path d="M53.4023 120.472L56.723 62.9254L121.508 25.5234L118.187 83.0659L53.4023 120.472Z" fill="#E0E0E0"/>
<path d="M53.4023 120.472L58.3833 63.8864L123.168 26.4803L118.187 83.0658L53.4023 120.472Z" fill="#5F90FF"/>
<path opacity="0.5" d="M53.4023 120.472L58.3833 63.8864L123.168 26.4803L118.187 83.0658L53.4023 120.472Z" fill="black"/>
<path d="M108.205 140.609C96.5749 133.895 85.787 126.595 80.8633 118.032L95.8306 109.391L108.205 140.609Z" fill="#E0E0E0"/>
<path d="M65.0273 63.8864V127.183L129.812 89.7807V32.2383L81.6386 60.0505L79.9783 55.2536L65.0273 63.8864Z" fill="#5F90FF"/>
<path opacity="0.2" d="M65.0273 63.8864V127.183L129.812 89.7807V32.2383L81.6386 60.0505L79.9783 55.2536L65.0273 63.8864Z" fill="black"/>
<path d="M83.692 82.6004C83.5284 82.6004 83.5039 82.4123 83.5039 82.3019V28.3213C83.517 28.1119 83.5785 27.9084 83.6835 27.7268C83.7885 27.5451 83.9342 27.3903 84.1091 27.2744L130.868 0.284182C130.932 0.244243 131.005 0.221688 131.08 0.21875C131.244 0.21875 131.268 0.406865 131.268 0.51728V54.4978C131.256 54.7078 131.194 54.912 131.089 55.0944C130.984 55.2767 130.838 55.4323 130.663 55.5488L83.9047 82.539C83.8401 82.577 83.7669 82.5981 83.692 82.6004Z" fill="white"/>
<path d="M131.057 0.404918C131.06 0.434816 131.06 0.464989 131.057 0.494886V54.4754C131.044 54.6495 130.991 54.8184 130.904 54.9698C130.817 55.1212 130.698 55.2513 130.554 55.3505L83.7954 82.3408L83.7136 82.3776C83.7082 82.3479 83.7082 82.3174 83.7136 82.2876V28.3071C83.7277 28.1337 83.7801 27.9656 83.8671 27.815C83.9541 27.6643 84.0735 27.5349 84.2166 27.4361L130.975 0.445812C131.001 0.427773 131.03 0.415245 131.061 0.409009L131.057 0.404918ZM131.086 6.53305e-05C130.974 0.00338071 130.866 0.0358104 130.771 0.0941237L84.0122 27.0844C83.8066 27.2194 83.6356 27.4007 83.5127 27.6138C83.3898 27.8268 83.3186 28.0657 83.3047 28.3112V82.2917C83.3047 82.6107 83.4642 82.7947 83.7136 82.7947C83.8251 82.7918 83.9337 82.7594 84.0285 82.7007L130.787 55.7104C130.994 55.5763 131.165 55.3953 131.288 55.182C131.411 54.9688 131.482 54.7294 131.495 54.4836V0.503067C131.495 0.184091 131.335 -0.0040241 131.086 6.53305e-05V6.53305e-05Z" fill="#5F90FF"/>
<path opacity="0.7" d="M131.057 0.404918C131.06 0.434816 131.06 0.464989 131.057 0.494886V54.4754C131.044 54.6495 130.991 54.8184 130.904 54.9698C130.817 55.1212 130.698 55.2513 130.554 55.3505L83.7954 82.3408L83.7136 82.3776C83.7082 82.3479 83.7082 82.3174 83.7136 82.2876V28.3071C83.7277 28.1337 83.7801 27.9656 83.8671 27.815C83.9541 27.6643 84.0735 27.5349 84.2166 27.4361L130.975 0.445812C131.001 0.427773 131.03 0.415245 131.061 0.409009L131.057 0.404918ZM131.086 6.53305e-05C130.974 0.00338071 130.866 0.0358104 130.771 0.0941237L84.0122 27.0844C83.8066 27.2194 83.6356 27.4007 83.5127 27.6138C83.3898 27.8268 83.3186 28.0657 83.3047 28.3112V82.2917C83.3047 82.6107 83.4642 82.7947 83.7136 82.7947C83.8251 82.7918 83.9337 82.7594 84.0285 82.7007L130.787 55.7104C130.994 55.5763 131.165 55.3953 131.288 55.182C131.411 54.9688 131.482 54.7294 131.495 54.4836V0.503067C131.495 0.184091 131.335 -0.0040241 131.086 6.53305e-05V6.53305e-05Z" fill="white"/>
<path d="M88.2852 30.3671L104.896 20.7773V39.9568L88.2852 49.5465V30.3671Z" fill="#5F90FF"/>
<path opacity="0.8" d="M88.2852 30.3671L104.896 20.7773V39.9568L88.2852 49.5465V30.3671Z" fill="white"/>
<path d="M102.403 25.5586V31.3247L101.88 31.615V29.8525C101.88 28.8792 101.091 28.548 100.109 29.1123L93.0713 33.1813C92.094 33.7456 91.3006 34.9929 91.3006 35.9662V37.7287L90.7812 38.0395V32.2857L102.403 25.5586Z" fill="white"/>
<path d="M99.2055 40.2387C98.3549 40.7295 97.6638 40.2142 97.6638 39.0814V29.8516L95.525 31.013V40.3164C95.525 41.4451 94.8339 42.7701 93.9833 43.2485L92.4375 44.14V44.7535L100.743 39.9566V39.3472L99.2055 40.2387Z" fill="white"/>
<path d="M108.203 19.8339C108.203 20.3655 108.682 20.5168 109.266 20.1815L125.428 10.8371C125.715 10.6746 125.96 10.4479 126.144 10.1747C126.329 9.90155 126.447 9.58939 126.491 9.26269C126.491 8.73515 126.013 8.57975 125.428 8.91917L109.279 18.2431C108.987 18.4053 108.738 18.6338 108.551 18.9102C108.364 19.1865 108.245 19.5029 108.203 19.8339V19.8339Z" fill="#455A64"/>
<path d="M108.203 25.5589C108.203 26.0906 108.682 26.246 109.266 25.9065L125.416 16.5826C125.702 16.4201 125.948 16.1934 126.132 15.9202C126.316 15.6471 126.435 15.3349 126.479 15.0082C126.479 14.4807 126 14.3253 125.416 14.6647L109.266 23.9886C108.98 24.1507 108.735 24.3768 108.551 24.6492C108.366 24.9216 108.247 25.233 108.203 25.5589Z" fill="#455A64"/>
<path d="M108.203 31.324C108.203 31.8556 108.682 32.011 109.266 31.6716L125.416 22.3477C125.702 22.1855 125.947 21.9595 126.131 21.6871C126.316 21.4147 126.435 21.1033 126.479 20.7773C126.479 20.2457 126 20.0903 125.416 20.4297L109.266 29.7536C108.98 29.9158 108.735 30.1419 108.551 30.4143C108.366 30.6867 108.247 30.998 108.203 31.324V31.324Z" fill="#455A64"/>
<path d="M108.203 37.0779C108.203 37.6095 108.682 37.7649 109.266 37.4255L125.416 28.1016C125.702 27.9395 125.947 27.7134 126.131 27.441C126.316 27.1686 126.435 26.8572 126.479 26.5312C126.479 25.9996 126 25.8442 125.416 26.1836L109.266 35.5075C108.98 35.6697 108.735 35.8958 108.551 36.1682C108.366 36.4406 108.247 36.7519 108.203 37.0779V37.0779Z" fill="#455A64"/>
<path d="M88.2852 54.3427C88.2852 54.8743 88.7595 55.0297 89.3484 54.6903L125.429 33.8341C125.716 33.6725 125.961 33.4466 126.146 33.1741C126.33 32.9016 126.449 32.59 126.493 32.2638C126.493 31.7322 126.014 31.5809 125.429 31.9162L89.3484 52.7723C89.0616 52.9337 88.8162 53.1596 88.6316 53.4321C88.4471 53.7047 88.3285 54.0164 88.2852 54.3427V54.3427Z" fill="#455A64"/>
<path d="M88.2852 60.0975C88.2852 60.6291 88.7595 60.7845 89.3484 60.4451L125.429 39.6135C125.716 39.451 125.961 39.2242 126.146 38.9511C126.33 38.6779 126.449 38.3658 126.493 38.0391C126.493 37.5115 126.014 37.3561 125.429 37.6955L89.3484 58.5271C89.0616 58.6885 88.8162 58.9144 88.6316 59.1869C88.4471 59.4595 88.3285 59.7712 88.2852 60.0975V60.0975Z" fill="#455A64"/>
<path d="M88.2852 65.8555C88.2852 66.383 88.7595 66.5384 89.3484 66.199L125.429 45.3674C125.716 45.2049 125.961 44.9781 126.146 44.705C126.33 44.4318 126.449 44.1197 126.493 43.793C126.493 43.2654 126.014 43.11 125.429 43.4494L89.3484 64.281C89.0611 64.4428 88.8153 64.6693 88.6308 64.9426C88.4462 65.2159 88.3279 65.5285 88.2852 65.8555V65.8555Z" fill="#455A64"/>
<path d="M65.0273 127.183L76.6536 76.3553L141.438 38.9492L129.812 89.7809L65.0273 127.183Z" fill="#5F90FF"/>
<path d="M80.8789 80.3318V118.032L95.8299 109.4V71.7031L80.8789 80.3318Z" fill="#5F90FF"/>
<path opacity="0.2" d="M80.8789 80.3318V118.032L95.8299 109.4V71.7031L80.8789 80.3318Z" fill="black"/>
<path d="M108.233 140.368C106.961 139.419 94.7009 130.05 88.4686 116.649C81.8356 102.401 81.8438 85.7819 81.8438 79.5292V79.3329L126.288 53.6758C126.288 59.9858 126.288 76.6298 132.949 90.9264C139.039 104.013 150.828 113.263 152.697 114.678L108.233 140.368Z" fill="white"/>
<path d="M126.082 54.0438C126.082 60.6196 126.208 76.9446 132.764 91.0286C138.648 103.665 149.837 112.752 152.328 114.67L108.243 140.122C106.522 138.826 94.7238 129.612 88.6551 116.579C82.0302 102.373 82.0302 85.786 82.0302 79.5414V79.4637L126.065 54.0397L126.082 54.0438ZM126.474 53.3322L81.6212 79.2306C81.6212 85.1153 81.4986 102.213 88.2666 116.751C94.9283 131.019 108.203 140.613 108.203 140.613L153.068 114.711C153.068 114.711 139.777 105.117 133.136 90.8487C126.364 76.3107 126.491 59.2128 126.491 53.3281L126.474 53.3322Z" fill="#5F90FF"/>
<path opacity="0.7" d="M126.082 54.0438C126.082 60.6196 126.208 76.9446 132.764 91.0286C138.648 103.665 149.837 112.752 152.328 114.67L108.243 140.122C106.522 138.826 94.7238 129.612 88.6551 116.579C82.0302 102.373 82.0302 85.786 82.0302 79.5414V79.4637L126.065 54.0397L126.082 54.0438ZM126.474 53.3322L81.6212 79.2306C81.6212 85.1153 81.4986 102.213 88.2666 116.751C94.9283 131.019 108.203 140.613 108.203 140.613L153.068 114.711C153.068 114.711 139.777 105.117 133.136 90.8487C126.364 76.3107 126.491 59.2128 126.491 53.3281L126.474 53.3322Z" fill="white"/>
<path d="M121.416 62.0177L107.234 70.1966C106.95 70.3528 106.708 70.5753 106.528 70.8452C106.349 71.115 106.237 71.4242 106.203 71.7465C106.224 72.2658 106.718 72.413 107.303 72.0736L121.489 63.8948C121.77 63.74 122.009 63.5204 122.188 63.2544C122.366 62.9884 122.479 62.6835 122.516 62.3653C122.491 61.8255 122.005 61.6783 121.416 62.0177Z" fill="#455A64"/>
<path d="M121.719 67.5997L107.537 75.7786C107.256 75.9294 107.018 76.1487 106.845 76.4161C106.672 76.6835 106.57 76.9903 106.547 77.308C106.592 77.811 107.107 77.946 107.692 77.6065L121.878 69.4277C122.157 69.2774 122.394 69.0586 122.565 68.7917C122.736 68.5248 122.836 68.2187 122.856 67.9023C122.815 67.3952 122.308 67.2725 121.719 67.5997Z" fill="#455A64"/>
<path d="M122.287 73.0251L108.1 81.2039C107.516 81.5434 107.09 82.2181 107.16 82.7048C107.229 83.1914 107.765 83.3182 108.354 82.9788L122.54 74.7999C123.125 74.4605 123.542 73.7898 123.468 73.3032C123.395 72.8165 122.871 72.6857 122.287 73.0251Z" fill="#455A64"/>
<path d="M123.139 78.2868L108.953 86.4657C108.368 86.8051 107.963 87.4676 108.062 87.942C108.16 88.4163 108.716 88.5227 109.288 88.1832L123.471 80.0044C124.059 79.6649 124.452 79.0065 124.354 78.5322C124.256 78.0578 123.745 77.9474 123.139 78.2868Z" fill="#455A64"/>
<path d="M124.29 83.3741L110.104 91.553C109.519 91.8924 109.138 92.5385 109.286 92.9925C109.433 93.4464 109.993 93.5486 110.578 93.2092L124.764 85.0303C125.353 84.6909 125.721 84.0489 125.582 83.5909C125.443 83.1329 124.875 83.0347 124.29 83.3741Z" fill="#455A64"/>
<path d="M125.79 88.2773L91.2177 108.238C90.6329 108.577 90.2771 109.207 90.4366 109.645C90.5961 110.082 91.2054 110.164 91.7902 109.825L126.362 89.864C126.951 89.5246 127.291 88.8989 127.131 88.4572C126.972 88.0156 126.354 87.9379 125.79 88.2773Z" fill="#455A64"/>
<path d="M127.607 92.9619L93.0388 112.922C92.4499 113.262 92.1268 113.875 92.3231 114.292C92.5194 114.71 93.141 114.775 93.738 114.436L128.31 94.475C128.899 94.1356 129.214 93.5221 129.018 93.105C128.821 92.6879 128.196 92.6266 127.607 92.9619Z" fill="#455A64"/>
<path d="M129.877 97.4213L95.3048 117.382C94.7159 117.721 94.4256 118.318 94.6587 118.715C94.8918 119.112 95.5583 119.153 96.1472 118.813L130.695 98.8526C131.28 98.5172 131.562 97.9243 131.329 97.5276C131.096 97.1309 130.449 97.0818 129.877 97.4213Z" fill="#455A64"/>
<path d="M132.522 101.643L97.9543 121.6C97.3654 121.939 97.1037 122.524 97.3695 122.896C97.6354 123.268 98.3346 123.305 98.9235 122.961L133.491 103.001C134.08 102.661 134.334 102.085 134.068 101.708C133.802 101.332 133.111 101.304 132.522 101.643Z" fill="#455A64"/>
<path d="M135.543 105.654L100.971 125.61C100.386 125.95 100.153 126.518 100.448 126.874C100.742 127.23 101.466 127.246 102.055 126.906L136.627 106.938C137.212 106.598 137.445 106.038 137.142 105.682C136.84 105.327 136.132 105.302 135.543 105.654Z" fill="#455A64"/>
<path d="M138.875 109.474L104.315 129.431C103.726 129.77 103.497 130.326 103.841 130.657C104.184 130.989 104.912 130.997 105.497 130.657L140.069 110.697C140.658 110.358 140.862 109.81 140.535 109.47C140.208 109.131 139.472 109.139 138.875 109.474Z" fill="#455A64"/>
<path d="M142.556 113.126L107.983 133.083C107.399 133.422 107.206 133.966 107.574 134.289C107.943 134.612 108.695 134.6 109.284 134.26L143.827 114.3C144.412 113.96 144.596 113.429 144.236 113.102C143.876 112.774 143.128 112.787 142.556 113.126Z" fill="#455A64"/>
<path d="M102.094 73.1763L85.7852 82.582C85.9651 88.4913 86.6398 97.0136 89.1099 105.597L105.423 96.1917C102.949 87.6079 102.274 79.0815 102.094 73.1763Z" fill="#5F90FF"/>
<path opacity="0.8" d="M102.094 73.1763L85.7852 82.582C85.9651 88.4913 86.6398 97.0136 89.1099 105.597L105.423 96.1917C102.949 87.6079 102.274 79.0815 102.094 73.1763Z" fill="white"/>
<path d="M92.4346 81.2802C92.4566 80.8988 92.3972 80.517 92.2604 80.1602C92.1237 79.8035 91.9126 79.4799 91.6412 79.2109L85.7852 82.5888C85.8342 84.151 85.916 85.8972 86.0592 87.7783C86.8209 87.8659 87.5914 87.7235 88.2715 87.3693C90.5739 86.3143 92.4346 83.5785 92.4346 81.2802Z" fill="#5F90FF"/>
<path opacity="0.6" d="M92.4346 81.2802C92.4566 80.8988 92.3972 80.517 92.2604 80.1602C92.1237 79.8035 91.9126 79.4799 91.6412 79.2109L85.7852 82.5888C85.8342 84.151 85.916 85.8972 86.0592 87.7783C86.8209 87.8659 87.5914 87.7235 88.2715 87.3693C90.5739 86.3143 92.4346 83.5785 92.4346 81.2802Z" fill="white"/>
<path d="M104.037 90.5484C102.949 89.1784 100.737 84.9458 99.7924 83.1015C99.7553 83.0286 99.6972 82.9685 99.6255 82.929C99.5539 82.8895 99.4721 82.8723 99.3906 82.8798C99.3091 82.8873 99.2318 82.9191 99.1686 82.971C99.1053 83.0229 99.0591 83.0926 99.0359 83.171C98.0139 86.6644 97.4207 90.2691 97.2693 93.9058C95.9073 92.8245 94.7364 91.5224 93.8055 90.0535C93.7658 89.9966 93.7107 89.9522 93.6466 89.9256C93.5826 89.899 93.5122 89.8913 93.4439 89.9033C93.3755 89.9153 93.3121 89.9466 93.2609 89.9935C93.2098 90.0404 93.1732 90.101 93.1553 90.168C91.3723 97.0342 92.2679 103.79 92.2679 103.79L105.424 96.1918C104.876 94.2943 104.422 92.405 104.037 90.5484Z" fill="#5F90FF"/>
<path opacity="0.6" d="M104.037 90.5484C102.949 89.1784 100.737 84.9458 99.7924 83.1015C99.7553 83.0286 99.6972 82.9685 99.6255 82.929C99.5539 82.8895 99.4721 82.8723 99.3906 82.8798C99.3091 82.8873 99.2318 82.9191 99.1686 82.971C99.1053 83.0229 99.0591 83.0926 99.0359 83.171C98.0139 86.6644 97.4207 90.2691 97.2693 93.9058C95.9073 92.8245 94.7364 91.5224 93.8055 90.0535C93.7658 89.9966 93.7107 89.9522 93.6466 89.9256C93.5826 89.899 93.5122 89.8913 93.4439 89.9033C93.3755 89.9153 93.3121 89.9466 93.2609 89.9935C93.2098 90.0404 93.1732 90.101 93.1553 90.168C91.3723 97.0342 92.2679 103.79 92.2679 103.79L105.424 96.1918C104.876 94.2943 104.422 92.405 104.037 90.5484Z" fill="white"/>
</svg>
