<svg width="101" height="71" viewBox="0 0 101 71" fill="none" xmlns="http://www.w3.org/2000/svg">
<g opacity="0.8" clip-path="url(#clip0)">
<path opacity="0.1" d="M62.0872 8.54234C57.7963 11.554 52.2307 11.3597 47.3535 9.79241C42.4763 8.22517 37.9961 5.43482 33.2442 3.45182C29.2835 1.79567 25.1106 0.705169 20.8475 0.212229C14.7911 -0.482566 8.02778 0.363838 3.80835 5.23485C-0.890737 10.6565 -0.529839 20.4376 4.55055 25.4183C7.1362 27.9501 10.5216 29.1927 13.4737 31.1692C16.4258 33.1457 19.1608 36.4262 18.9094 40.2397C18.6766 43.7741 15.9703 46.4826 13.1694 48.1838C11.0049 49.4981 8.3395 50.9332 8.0788 53.6557C7.82645 56.2898 10.0679 58.3537 12.2082 59.5275C19.1905 63.3577 27.7945 63.3205 34.7527 59.4345C37.2335 58.044 39.5121 56.1986 42.1144 55.1215C48.9474 52.2828 56.477 55.1411 63.7126 56.1856C69.8607 57.0686 76.1264 56.6115 82.0821 54.8453C85.6651 53.784 89.2621 52.1619 91.7791 49.14C93.5947 46.9607 94.7256 44.2039 95.787 41.4796C96.9188 38.5757 98.0071 35.6511 99.0517 32.7058C99.678 30.9386 100.295 29.136 100.457 27.2441C100.75 23.8167 99.5147 20.4283 97.8317 17.5356C93.8359 10.6621 87.1059 5.83291 79.8175 4.60609C72.5291 3.37927 64.8185 5.77524 59.1657 11.0183" fill="#960A2C"/>
<g opacity="0.1">
<path opacity="0.1" d="M50.6591 9.61811L50.3057 30.1736C50.3057 30.1736 63.1013 30.1736 73.9885 33.7174L74.2 12.9516C74.2 12.9516 56.7387 8.76706 50.6591 9.61811Z" fill="black"/>
</g>
<path d="M50.3808 9.24507L50.0273 29.8006C50.0273 29.8006 62.8229 29.8006 73.7102 33.3443L73.9217 12.5786C73.9217 12.5786 56.4604 8.39401 50.3808 9.24507Z" fill="#F7F7FD"/>
<g opacity="0.1">
<path opacity="0.1" d="M44.2352 10.2069L44.5887 30.7624C44.5887 30.7624 31.7931 30.7624 20.9068 34.3062L20.6943 13.5404C20.6943 13.5404 38.1556 9.36049 44.2352 10.2069Z" fill="black"/>
</g>
<path d="M44.5135 9.74205L44.867 30.2976C44.867 30.2976 32.0714 30.2976 21.1851 33.8413L20.9727 13.0756C20.9727 13.0756 38.4339 8.89565 44.5135 9.74205Z" fill="#F7F7FD"/>
<g opacity="0.2">
<path opacity="0.2" d="M38.766 12.1388L38.9562 23.1616C38.9562 23.1616 32.0908 23.1616 26.2552 25.0618L26.1411 13.9256C26.1411 13.9256 35.5059 11.6849 38.766 12.1388Z" fill="#960A2C"/>
</g>
<g opacity="0.1">
<path opacity="0.1" d="M81.7417 17.1777V37.5184C81.7417 37.5184 85.9166 37.0217 94.6792 47.8659L95.4567 27.5253C95.4567 27.5253 86.3369 17.6735 81.7417 17.1777Z" fill="black"/>
</g>
<path d="M81.5562 16.8984V37.2391C81.5562 37.2391 85.731 36.7424 94.4937 47.5866L95.2712 27.246C95.2712 27.246 86.1513 17.3942 81.5562 16.8984Z" fill="#F7F7FD"/>
<g opacity="0.1">
<path opacity="0.1" d="M14.2614 17.2715V37.6122C14.2614 37.6122 10.0903 37.1155 1.32946 47.9597L0.547363 27.619C0.547363 27.619 9.66627 17.7672 14.2614 17.2715Z" fill="black"/>
</g>
<path d="M14.5398 16.8984V37.2391C14.5398 37.2391 10.3686 36.7424 1.60778 47.5866L0.825684 27.246C0.825684 27.246 9.94459 17.3942 14.5398 16.8984Z" fill="#F7F7FD"/>
<g opacity="0.2">
<path opacity="0.2" d="M53.7993 13.5215L62.4673 15.0757V16.3416L53.7993 14.673V13.5215Z" fill="#960A2C"/>
</g>
<path d="M37.0997 25.752L28.4326 27.3062V28.5721L37.0997 26.9034V25.752Z" fill="white"/>
<path d="M53.9146 15.8809L69.7569 19.1614V20.4273L53.9146 17.0323V15.8809Z" fill="white"/>
<path d="M53.9146 18.2402L69.7569 21.5198V22.7866L53.9146 19.3908V18.2402Z" fill="white"/>
<g opacity="0.2">
<path opacity="0.2" d="M85.2505 23.4668V24.5839L88.6489 27.3519L88.8084 26.3939L85.2505 23.4668Z" fill="#960A2C"/>
</g>
<path d="M85.2505 34.2578V35.3749L88.6489 38.1429L88.8084 37.1849L85.2505 34.2578Z" fill="white"/>
<path d="M85.3043 25.3828L85.2505 26.5008L91.6752 32.568L91.5694 31.2909L85.3043 25.3828Z" fill="white"/>
<path d="M85.2505 27.459V28.523L91.6752 34.6981V33.3141L85.2505 27.459Z" fill="white"/>
<g opacity="0.2">
<path opacity="0.2" d="M10.7918 23.709L10.8447 24.827L4.4209 30.8941L4.52666 29.6171L10.7918 23.709Z" fill="#960A2C"/>
</g>
<g opacity="0.2">
<path opacity="0.2" d="M10.8447 25.7852V26.8492L4.4209 33.0242V31.6402L10.8447 25.7852Z" fill="#960A2C"/>
</g>
<path opacity="0.1" d="M19.483 58.7953C22.4036 58.7953 24.7712 58.3681 24.7712 57.841C24.7712 57.314 22.4036 56.8867 19.483 56.8867C16.5624 56.8867 14.1948 57.314 14.1948 57.841C14.1948 58.3681 16.5624 58.7953 19.483 58.7953Z" fill="#960A2C"/>
<path d="M6.94162 52.5957C6.94162 52.5957 7.45096 53.2635 6.70597 54.2699C5.96098 55.2763 5.3468 56.1301 5.59266 56.7589C5.59266 56.7589 6.71617 54.8856 7.63372 54.8596C8.55127 54.8335 7.94823 53.7267 6.94162 52.5957Z" fill="#960A2C"/>
<path opacity="0.1" d="M6.94144 52.5957C6.98608 52.66 7.02108 52.7305 7.04535 52.805C7.93785 53.856 8.41379 54.8373 7.55561 54.8624C6.75681 54.8847 5.79288 56.318 5.56836 56.6798C5.57578 56.7068 5.58506 56.7347 5.59526 56.7617C5.59526 56.7617 6.71878 54.8884 7.63633 54.8624C8.55388 54.8363 7.94805 53.7267 6.94144 52.5957Z" fill="black"/>
<path d="M7.88882 53.4479C7.88882 53.6832 7.86285 53.8739 7.83037 53.8739C7.7979 53.8739 7.771 53.6832 7.771 53.4479C7.771 53.2125 7.8044 53.3232 7.83687 53.3232C7.86934 53.3232 7.88882 53.2116 7.88882 53.4479Z" fill="#FFD037"/>
<path d="M8.21435 53.7253C8.00838 53.8378 7.8284 53.9057 7.81263 53.8778C7.79686 53.8499 7.95179 53.7346 8.15775 53.622C8.36372 53.5095 8.28207 53.5913 8.29784 53.622C8.31362 53.6527 8.42031 53.6136 8.21435 53.7253Z" fill="#FFD037"/>
<path d="M4.24913 52.5957C4.24913 52.5957 3.74165 53.2617 4.48386 54.2727C5.22606 55.2837 5.84302 56.1329 5.59716 56.7617C5.59716 56.7617 4.47365 54.8884 3.5561 54.8624C2.63855 54.8363 3.24345 53.7267 4.24913 52.5957Z" fill="#960A2C"/>
<path opacity="0.1" d="M4.24901 52.5957C4.20479 52.6602 4.16981 52.7307 4.14511 52.805C3.2526 53.856 2.77667 54.8373 3.63484 54.8624C4.43457 54.8847 5.39758 56.318 5.62209 56.6798C5.61481 56.7076 5.60582 56.735 5.59519 56.7617C5.59519 56.7617 4.47168 54.8884 3.55413 54.8624C2.63657 54.8363 3.24333 53.7267 4.24901 52.5957Z" fill="black"/>
<path d="M3.30176 53.4479C3.30176 53.6832 3.32773 53.8739 3.36021 53.8739C3.39268 53.8739 3.41958 53.6832 3.41958 53.4479C3.41958 53.2125 3.38618 53.3232 3.35371 53.3232C3.32124 53.3232 3.30176 53.2116 3.30176 53.4479Z" fill="#FFD037"/>
<path d="M2.97711 53.7253C3.18307 53.8378 3.36213 53.9057 3.3779 53.8778C3.39368 53.8499 3.23874 53.7346 3.03278 53.622C2.82682 53.5095 2.90846 53.5913 2.89269 53.622C2.87691 53.6527 2.77115 53.6136 2.97711 53.7253Z" fill="#FFD037"/>
<path d="M3.46338 56.6742C3.46338 56.6742 4.88841 56.6305 5.31889 56.3236C5.74937 56.0166 7.51025 55.6511 7.61694 56.1431C7.72363 56.6352 9.7582 58.5884 8.14947 58.6014C6.54074 58.6144 4.41155 58.3503 3.98292 58.088C3.5543 57.8257 3.46338 56.6742 3.46338 56.6742Z" fill="#A8A8A8"/>
<path opacity="0.2" d="M8.17828 58.4298C6.56955 58.4428 4.44035 58.1787 4.01173 57.9164C3.68516 57.7173 3.55528 57.0021 3.51167 56.6719H3.46436C3.46436 56.6719 3.55713 57.8243 3.98297 58.0857C4.40881 58.347 6.54079 58.6121 8.14952 58.5991C8.6134 58.5991 8.77483 58.4298 8.76555 58.1842C8.70154 58.334 8.52434 58.427 8.17828 58.4298Z" fill="black"/>
<path opacity="0.1" d="M56.2116 45.2782C61.028 45.2782 64.9325 44.6077 64.9325 43.7807C64.9325 42.9537 61.028 42.2832 56.2116 42.2832C51.3952 42.2832 47.4907 42.9537 47.4907 43.7807C47.4907 44.6077 51.3952 45.2782 56.2116 45.2782Z" fill="#960A2C"/>
<path d="M54.4529 23.5714C54.4104 23.6624 54.3792 23.7583 54.3602 23.857C54.3546 23.8818 54.349 23.9078 54.3435 23.9351C54.2878 24.2197 54.2507 24.5778 54.2312 24.7862C54.2219 24.8904 54.2173 24.9573 54.2173 24.9573C54.2173 24.9573 52.205 24.8225 52.5538 24.4839C52.6437 24.3904 52.7077 24.275 52.7394 24.149C52.7496 24.1128 52.7579 24.0765 52.7653 24.0393C52.782 23.9549 52.7928 23.8694 52.7978 23.7835C52.7978 23.7621 52.7978 23.7407 52.7978 23.7184C52.8023 23.5789 52.7958 23.4393 52.7783 23.3008C52.7783 23.3008 53.4324 23.3008 53.926 23.3538C54.2581 23.3919 54.517 23.458 54.4529 23.5714Z" fill="#D38884"/>
<path d="M50.9644 33.1707C50.2788 33.1483 50.7844 31.7169 50.8633 31.5244C50.9421 31.3318 50.7464 30.8603 50.7464 30.8603C50.7464 30.8603 50.5144 29.4967 50.5144 29.4074C50.5026 29.2215 50.4765 29.0368 50.4365 28.8549C50.4124 28.6692 50.4447 28.4806 50.5293 28.3136C50.6081 28.1899 50.5961 27.6942 50.5961 27.6942V27.0524L50.7491 26.8496L51.1397 27.2217L51.2483 27.324L51.4394 28.042L51.3717 29.0707L51.3355 30.0725L51.5721 31.4583C51.5721 31.4583 51.6546 33.1939 50.9644 33.1707Z" fill="#D38884"/>
<path opacity="0.1" d="M51.1817 27.3909L50.5972 27.1472V27.0524L50.7493 26.8496L51.1409 27.2198L51.1817 27.3909Z" fill="black"/>
<path d="M50.9126 25.9258C50.8375 26.1108 50.783 26.3036 50.7502 26.5006C50.72 26.6896 50.6687 26.8746 50.5972 27.0521L51.2466 27.3228L50.9126 25.9258Z" fill="#4C4981"/>
<path opacity="0.05" d="M50.9126 25.9258C50.8375 26.1108 50.783 26.3036 50.7502 26.5006C50.72 26.6896 50.6687 26.8746 50.5972 27.0521L51.2466 27.3228L50.9126 25.9258Z" fill="black"/>
<path d="M56.0854 40.156L56.0316 40.2713C56.0316 40.2713 55.9731 40.6536 55.9731 40.6629C55.9731 40.6722 55.8043 40.927 55.8043 40.927L55.3803 41.02L55.2003 40.9977C55.1907 40.8926 55.1746 40.7883 55.1521 40.6852C55.1456 40.6564 55.1391 40.6266 55.1307 40.5968C55.0674 40.3584 54.9675 40.1312 54.8348 39.9234C54.8348 39.9234 54.5203 39.1459 54.408 39.0445C54.2958 38.9431 53.8681 37.9172 53.9135 37.6698C53.9376 37.534 53.9182 37.0782 53.8959 36.6987C53.8773 36.389 53.8569 36.1286 53.8569 36.1286L54.9248 35.4961L55.0491 35.6923L55.1233 35.8086C55.1233 35.8086 55.1233 35.8309 55.1187 35.8681V35.8821C55.1064 36.0403 55.0753 36.1964 55.0259 36.3471C55.0259 36.3471 54.9461 36.922 55.0259 37.0233C55.1057 37.1247 55.3599 38.4799 55.4165 39.1068C55.4165 39.1263 55.4165 39.1459 55.4165 39.1635C55.4387 39.4519 55.6169 39.7086 55.7959 39.8965C55.8071 39.9095 55.8191 39.9216 55.8312 39.9337C55.9107 40.0135 55.9957 40.0878 56.0854 40.156Z" fill="#D38884"/>
<path opacity="0.1" d="M55.2005 40.9948L55.3805 41.0171L55.8045 40.9241C55.8045 40.9241 55.9734 40.6683 55.9734 40.6599C55.9734 40.6516 56.0318 40.2684 56.0318 40.2684L56.0856 40.153L56.0921 40.1391C55.9885 40.0671 55.891 39.9865 55.8008 39.8982C55.7906 39.8889 55.7804 39.8796 55.7711 39.8693C55.7618 39.8591 55.8314 40.2414 55.5086 40.4079C55.3518 40.4888 55.2228 40.5511 55.1328 40.5939L55.2005 40.9948Z" fill="black"/>
<path d="M56.1599 40.2102L56.0996 40.3395C56.0996 40.3395 56.0411 40.7218 56.0411 40.7311C56.0411 40.7404 55.8723 40.9952 55.8723 40.9952L55.4483 41.0882L55.2043 41.0594C55.2043 41.0101 55.1959 40.9404 55.1839 40.8557C55.1765 40.8046 55.1663 40.7478 55.1523 40.6864C55.2451 40.6446 55.3889 40.5757 55.5735 40.4799C55.8973 40.3135 55.8361 39.9414 55.8361 39.9414C55.9061 40.0114 55.9802 40.0772 56.0578 40.1386C56.1024 40.1702 56.1385 40.1953 56.1599 40.2102Z" fill="#CEDDF9"/>
<path opacity="0.1" d="M56.1601 40.2103L56.0998 40.3396C56.0998 40.3396 56.0413 40.7219 56.0413 40.7312C56.0413 40.7405 55.8725 40.9953 55.8725 40.9953L55.4485 41.0883L55.2045 41.0595C55.2045 41.0102 55.1961 40.9404 55.1841 40.8558C55.236 40.8582 55.2875 40.8653 55.3381 40.8772C55.3381 40.8772 55.917 41.0009 55.9448 40.5414C55.9615 40.281 56.0153 40.1787 56.058 40.1387C56.1026 40.1703 56.1387 40.1954 56.1601 40.2103Z" fill="black"/>
<path d="M56.1168 40.1785C56.1168 40.1785 55.973 40.1469 55.9442 40.6054C55.9155 41.064 55.3375 40.9412 55.3375 40.9412C55.3375 40.9412 55.0536 40.8705 55.0508 40.9887C55.0603 41.0979 55.0859 41.2051 55.1269 41.3068C55.1269 41.3068 55.1436 41.5802 55.1974 41.6453C55.2512 41.7104 55.2169 41.9523 55.2169 41.9523C55.2169 41.9523 55.2391 42.1327 55.6863 41.9523C55.6863 41.9523 56.0852 41.8695 56.4164 41.3719C56.4276 41.3551 56.3775 41.304 56.6669 41.1998C56.9564 41.0956 57.7802 40.4278 57.7209 40.1013C57.7145 40.0473 57.6924 39.9963 57.6575 39.9547C57.6225 39.913 57.5762 39.8825 57.5242 39.8669C57.4809 39.8553 57.4357 39.8525 57.3912 39.8586C57.3468 39.8646 57.304 39.8795 57.2653 39.9023C57.1871 39.9447 57.1062 39.982 57.0232 40.0139C56.9129 40.0586 56.7966 40.0866 56.6781 40.0967C56.5872 40.1044 56.4973 40.1216 56.4099 40.1478C56.3167 40.1843 56.2155 40.1949 56.1168 40.1785Z" fill="#CC8294"/>
<path d="M52.8402 37.0223C52.7763 37.0753 52.7212 37.1381 52.6769 37.2084C52.5136 37.4586 52.4153 37.8083 52.3058 37.959C52.1629 38.1543 52.1203 38.5338 52.1203 38.5338C52.0822 38.7831 51.5553 40.115 51.4124 40.3512C51.2695 40.5875 51.071 41.2302 51.071 41.2302C50.9494 41.3827 50.9569 41.6097 50.9689 41.7176C50.9689 41.7362 50.9689 41.7511 50.9745 41.7613C50.9801 41.7715 50.9745 41.779 50.9745 41.779V41.7855L50.7797 42.1175L50.1599 42.031L49.8398 41.8134C49.8661 41.7707 49.8893 41.7262 49.9094 41.6804C50.0811 41.2972 50.2026 40.6126 50.2026 40.6126C50.2026 40.6126 50.3752 39.8313 50.3622 39.649C50.3665 39.4003 50.3836 39.1519 50.4132 38.9049C50.4132 38.9049 50.9012 37.4121 51.0571 37.1702C51.122 37.0747 51.1622 36.9644 51.174 36.8493C51.177 36.8262 51.177 36.8027 51.174 36.7796L51.3836 36.5703C51.3836 36.5703 53.1093 36.8075 52.8402 37.0223Z" fill="#D38884"/>
<path opacity="0.1" d="M50.9808 41.713C50.9808 41.713 50.9808 41.7316 50.9808 41.7623V41.7865L50.786 42.1186L50.1663 42.0321L49.8462 41.8144C49.8724 41.7717 49.8957 41.7273 49.9158 41.6814C50.0716 41.6368 50.4279 41.7633 50.4279 41.7633C50.4279 41.7633 50.8129 41.8367 50.9753 41.7186C50.9753 41.7177 50.9771 41.7149 50.9808 41.713Z" fill="black"/>
<path d="M50.8296 42.6011L50.2006 42.7518L49.6235 42.3239L49.6532 42.083C49.6935 42.0583 49.7293 42.0268 49.759 41.99C49.8011 41.9404 49.8298 41.8809 49.8425 41.817C49.8759 41.6394 50.4242 41.8338 50.4242 41.8338C50.4242 41.8338 50.825 41.91 50.9808 41.7826C50.9699 41.8994 50.9799 42.0172 51.0105 42.1305C51.0254 42.1856 51.058 42.2344 51.1033 42.2691C51.2638 42.3797 50.8296 42.6011 50.8296 42.6011Z" fill="#CEDDF9"/>
<path opacity="0.1" d="M50.8296 42.5994L50.2006 42.75L49.6235 42.3222L49.6532 42.0813C49.6935 42.0566 49.7293 42.0251 49.759 41.9883C49.8007 41.9883 49.8462 41.9883 49.8852 41.9883C49.9779 41.9976 50.2099 42.4115 50.2099 42.4115C50.7795 42.4496 50.9521 42.2627 51.0105 42.125C51.0254 42.1802 51.058 42.2289 51.1033 42.2636C51.2638 42.378 50.8296 42.5994 50.8296 42.5994Z" fill="black"/>
<path d="M50.2099 42.4815C50.2099 42.4815 49.9817 42.0676 49.8852 42.0592C49.8036 42.0547 49.7218 42.0547 49.6402 42.0592C49.6402 42.0592 49.3879 42.6592 49.2951 42.7103C49.2023 42.7615 49.0669 43.0489 49.0669 43.0489C49.0669 43.0489 49.7349 43.7 50.3806 43.5725C50.5866 43.5755 50.7892 43.6261 50.9725 43.7204C51.2712 43.8767 52.5191 43.7586 52.6712 43.4842C52.7844 43.2777 52.8299 43.128 52.7297 43.0191C52.6997 42.988 52.6628 42.9645 52.622 42.9506C52.5811 42.9367 52.5376 42.9328 52.4949 42.9391C52.3382 42.9605 51.9856 42.9568 51.6767 42.5764C51.6767 42.5764 51.107 42.0537 51.0606 42.0527C51.0142 42.0518 51.0987 42.541 50.2099 42.4815Z" fill="#CC8294"/>
<path opacity="0.1" d="M55.1243 35.8765L55.1196 35.8821C55.0807 35.9249 54.806 36.2272 54.7225 36.2486C54.5845 36.3008 54.4494 36.3607 54.318 36.4281C54.318 36.4281 54.1492 36.6541 54.0147 36.6652C53.974 36.6711 53.9341 36.6817 53.8959 36.6969C53.8773 36.3871 53.8569 36.1267 53.8569 36.1267L54.9248 35.4961L55.0491 35.6923C55.0769 35.7714 55.1085 35.8449 55.1187 35.8681L55.1243 35.8765Z" fill="black"/>
<path d="M51.2428 31.5245C51.2428 31.5245 50.8272 32.0677 51.2428 32.7885C51.4664 33.1937 51.7551 33.5592 52.0973 33.8702L53.513 36.8112C53.513 36.8112 53.8841 36.6085 54.0196 36.5973C54.1551 36.5862 54.323 36.3611 54.323 36.3611C54.4543 36.2933 54.5894 36.2331 54.7275 36.1806C54.8203 36.1583 55.1292 35.8086 55.1292 35.8086C55.1292 35.8086 54.9743 35.4709 55.0086 35.3807C55.0429 35.2905 54.9075 35.0645 54.9075 35.0645C54.8653 34.9515 54.8343 34.8347 54.8147 34.7157C54.8147 34.6227 54.6681 34.4115 54.6681 34.4115C54.6681 34.4115 54.5224 34.1855 54.5224 34.0618C54.5224 33.9381 54.3044 33.4498 54.3044 33.4498L54.2478 31.3105L51.2428 31.5245Z" fill="#CEDDF9"/>
<path opacity="0.05" d="M55.1247 35.8086C55.1247 35.8086 54.813 36.1574 54.723 36.1806C54.5849 36.2331 54.4498 36.2933 54.3185 36.3611C54.3185 36.3611 54.1497 36.5862 54.0151 36.5973C53.9182 36.6175 53.8246 36.651 53.7368 36.6968C53.6162 36.7517 53.5076 36.8112 53.5076 36.8112L52.091 33.8702C51.967 33.7618 51.8519 33.6437 51.7468 33.5168C51.5549 33.2901 51.3841 33.0463 51.2365 32.7885C51.0741 32.5271 51.0165 32.2137 51.0751 31.9114C51.1014 31.7728 51.1564 31.6413 51.2365 31.5254L52.244 31.4538L54.2508 31.3105L54.2675 31.944L54.3046 33.4498C54.3046 33.4498 54.3371 33.5251 54.3779 33.6247C54.4416 33.763 54.4887 33.9085 54.518 34.0581C54.518 34.1827 54.6636 34.4078 54.6636 34.4078C54.6636 34.4078 54.8102 34.6218 54.8102 34.712C54.8299 34.8313 54.861 34.9484 54.903 35.0617C54.903 35.0617 55.0384 35.2868 55.005 35.3761C54.9716 35.4654 55.1247 35.8086 55.1247 35.8086Z" fill="black"/>
<path opacity="0.1" d="M52.8404 37.0221C52.7765 37.0751 52.7214 37.1378 52.6771 37.2081C52.0657 37.2527 51.355 36.9291 51.1704 36.8435C51.1734 36.8203 51.1734 36.7969 51.1704 36.7737L51.3801 36.5645C51.3801 36.5645 53.1094 36.8072 52.8404 37.0221Z" fill="black"/>
<path d="M54.644 32.1916C54.644 32.1916 54.5513 32.5069 54.5206 32.6417C54.49 32.7766 54.4195 33.4426 54.4195 33.4426L54.3805 33.6286L53.7385 36.698L53.5984 37.3649C53.3517 37.5007 52.7338 37.1388 52.7338 37.1388C52.0138 37.2188 51.126 36.7566 51.126 36.7566C51.126 36.7566 51.2716 36.2831 51.2382 36.0469C51.2048 35.8106 51.4405 35.6181 51.4405 35.6181C51.3848 35.4042 51.5861 34.4685 51.5861 34.4685C51.5861 34.4685 51.6316 34.1197 51.8005 34.0295C51.9693 33.9392 51.7782 33.8044 51.7327 33.7244C51.7168 33.6556 51.7223 33.5835 51.7485 33.5179C51.7631 33.4659 51.7804 33.4146 51.8005 33.3644C51.3718 32.9347 51.306 32.2632 51.305 31.8902C51.3039 31.7992 51.3079 31.7082 51.3171 31.6177L52.2449 31.4549L54.272 31.0996L54.4789 31.7377L54.5308 31.8976L54.644 32.1916Z" fill="#CEDDF9"/>
<path opacity="0.1" d="M54.4524 23.5704C54.4099 23.6614 54.3787 23.7573 54.3597 23.856C54.3541 23.8808 54.3485 23.9068 54.343 23.9341C54.1472 24.0615 54.0266 24.0625 53.7761 24.0625C53.6898 24.0625 53.6416 23.8969 53.5599 23.8764C53.5599 23.8764 53.4375 23.4337 53.4031 23.8067C53.1675 23.7583 52.9643 23.9425 52.7973 23.7816C52.7973 23.7602 52.7973 23.7388 52.7973 23.7165C52.8019 23.5769 52.7953 23.4373 52.7778 23.2988C52.7778 23.2988 53.4319 23.2988 53.9255 23.3518C54.2576 23.3909 54.5165 23.4569 54.4524 23.5704Z" fill="black"/>
<path d="M54.9167 22.8116C54.9164 22.9978 54.8749 23.1816 54.7951 23.3498C54.7154 23.5179 54.5994 23.6662 54.4555 23.784C54.3116 23.9017 54.1434 23.9859 53.9631 24.0306C53.7828 24.0752 53.5948 24.0792 53.4128 24.0421C53.2075 23.9997 53.0161 23.9063 52.8562 23.7706C52.6963 23.6348 52.5729 23.4609 52.4973 23.2649C52.4217 23.069 52.3965 22.8571 52.4238 22.6488C52.451 22.4404 52.53 22.2423 52.6535 22.0725C52.777 21.9028 52.941 21.7668 53.1305 21.677C53.32 21.5872 53.5289 21.5466 53.7381 21.5588C53.9474 21.5709 54.1502 21.6355 54.3281 21.7467C54.5059 21.8578 54.6531 22.0119 54.7562 22.1949C54.8626 22.3828 54.918 22.5955 54.9167 22.8116Z" fill="#D38884"/>
<path opacity="0.1" d="M54.2312 24.7856C54.2219 24.8897 54.2173 24.9567 54.2173 24.9567C54.2173 24.9567 52.205 24.8218 52.5538 24.4833C52.6437 24.3898 52.7077 24.2744 52.7394 24.1484L53.6124 24.2917C53.6124 24.2917 53.8592 24.4833 54.0503 24.6637C54.1047 24.7125 54.1656 24.7535 54.2312 24.7856Z" fill="black"/>
<path opacity="0.1" d="M54.5316 31.9606C54.4431 31.9724 54.3531 31.9658 54.2672 31.9411C54.23 31.9292 54.1943 31.9133 54.1605 31.8936C53.9917 31.7923 53.4304 31.9169 53.4304 31.9169C53.4304 31.9169 51.9014 32.0183 51.8337 31.9169C51.7957 31.8583 51.5257 31.8667 51.3049 31.8843C51.2121 31.8918 51.1333 31.9011 51.0767 31.9067C51.103 31.7681 51.158 31.6366 51.2381 31.5207L52.2456 31.4491L54.2728 31.0938L54.4797 31.7318C54.4931 31.8089 54.5104 31.8853 54.5316 31.9606Z" fill="black"/>
<path d="M53.6097 24.3601L52.5131 24.1797C52.4937 24.223 52.4652 24.2616 52.4294 24.2927C52.3937 24.3239 52.3516 24.3469 52.3062 24.3601C52.1605 24.3936 51.5083 24.7322 51.2161 25.1377L50.9238 25.5442C50.9238 25.5442 50.6872 25.8372 50.7661 26.0734C50.845 26.3097 50.9349 27.1105 50.9349 27.1105L51.0472 28.0006C51.0472 28.0006 51.2606 28.6433 51.1938 28.9251C51.127 29.207 51.2272 30.3901 51.2272 30.3901L51.0027 31.855C51.0027 31.855 51.7662 31.7536 51.8377 31.855C51.9091 31.9564 53.4343 31.855 53.4343 31.855C53.4343 31.855 53.991 31.7304 54.1645 31.8318C54.2779 31.8931 54.4078 31.9169 54.5356 31.8996C54.5356 31.8996 54.4011 31.4346 54.479 31.1788C54.5569 30.923 54.5356 30.4459 54.5356 30.4459C54.5356 30.4459 54.6478 29.7585 54.5912 29.6348C54.5347 29.5111 54.7156 29.06 54.7156 29.06L55.3112 25.9162C55.3112 25.9162 55.2388 25.3526 54.9206 25.161C54.6024 24.9694 54.2433 24.9126 54.0522 24.7331C53.8611 24.5536 53.6097 24.3601 53.6097 24.3601Z" fill="#4C4981"/>
<path d="M54.1187 27.458V27.83L54.4647 28.7657L54.59 29.6335C54.59 29.6335 54.8154 30.253 54.8154 30.4706C54.8154 30.6883 55.3655 31.7216 55.3655 31.7216C55.3655 31.7216 55.5158 32.0713 55.4407 32.1383C55.3655 32.2053 54.7143 33.6935 55.5335 33.6488C56.3527 33.6042 56.0957 32.049 56.0957 32.049L55.9834 31.3728C55.9834 31.3728 55.8257 29.6819 55.8257 29.5582C55.8257 29.5582 55.6235 28.8373 55.6012 28.6792C55.5789 28.5211 55.4323 27.7212 55.4323 27.7212L55.309 27.2031L54.1187 27.458Z" fill="#D38884"/>
<path opacity="0.1" d="M53.7244 28.6309L52.5025 29.3322L52.123 29.907L52.6287 29.3917L53.7244 28.6309Z" fill="black"/>
<path opacity="0.1" d="M53.3541 29.9746C53.3541 29.9746 52.7975 30.3383 52.5359 30.3383C52.2742 30.3383 51.6675 30.9633 51.6675 30.9633C51.6675 30.9633 52.5275 30.4053 52.5952 30.4229C52.663 30.4406 53.3541 29.9746 53.3541 29.9746Z" fill="black"/>
<path opacity="0.1" d="M51.929 30.168C51.929 30.168 51.4067 30.6414 51.5412 30.6926C51.6757 30.7437 52.3762 30.168 52.3762 30.168H51.929Z" fill="black"/>
<path opacity="0.1" d="M54.2391 28.4785C54.2391 28.4785 53.8346 29.0282 53.9441 29.0198C54.0536 29.0115 54.3653 28.698 54.3653 28.698L54.2391 28.4785Z" fill="black"/>
<path opacity="0.1" d="M54.2977 29.0195C54.2977 29.0195 53.8597 29.5181 53.8764 29.6446C53.8931 29.7711 54.2977 29.0195 54.2977 29.0195Z" fill="black"/>
<path opacity="0.1" d="M54.4083 29.2695C54.4083 29.2695 54.1132 29.7978 54.2394 29.9076C54.3656 30.0173 54.4083 29.2695 54.4083 29.2695Z" fill="black"/>
<path opacity="0.1" d="M54.0257 27.9121C54.0257 27.9121 53.8058 28.2842 53.9664 28.3093C54.1269 28.3344 54.1426 28.3093 54.1426 28.3093L54.0257 27.9121Z" fill="black"/>
<path opacity="0.1" d="M54.0871 26.5508C54.0323 26.7782 53.9572 27.0001 53.8626 27.2139C53.8274 27.105 53.7983 26.9941 53.7754 26.8819C53.8679 26.7613 53.9724 26.6504 54.0871 26.5508Z" fill="black"/>
<path opacity="0.1" d="M54.7563 22.1954C54.7345 22.2429 54.7061 22.2871 54.6719 22.3265C54.6144 22.3785 54.5633 22.4372 54.5197 22.5014C54.4854 22.5973 54.4669 22.6981 54.465 22.7999C54.4483 22.9004 54.3852 23.012 54.2794 23.0148C54.2274 23.0104 54.1768 22.9952 54.131 22.9701C54.108 22.9582 54.0824 22.9524 54.0566 22.9532C54.0308 22.954 54.0056 22.9615 53.9835 22.9748C53.9542 23.0047 53.9373 23.0445 53.9362 23.0864C53.9233 23.1738 53.9184 23.2622 53.9213 23.3506C53.9213 23.3859 53.9213 23.4203 53.9269 23.4557C53.9528 23.5668 53.946 23.6831 53.9074 23.7905C53.859 23.8683 53.7857 23.9273 53.6996 23.9579C53.606 23.9966 53.5083 24.0241 53.4083 24.0398C53.2178 24.0632 53.0256 24.0694 52.834 24.0584C52.8163 24.0589 52.7987 24.056 52.782 24.05C52.7738 24.0467 52.7663 24.042 52.7598 24.0361C52.781 23.9304 52.7925 23.823 52.7941 23.7152C52.6653 23.5898 52.5649 23.4382 52.4997 23.2705C52.4345 23.1029 52.4059 22.9231 52.4161 22.7435C52.4262 22.5638 52.4747 22.3884 52.5583 22.2292C52.642 22.07 52.7588 21.9306 52.9008 21.8206C53.0428 21.7106 53.2068 21.6325 53.3816 21.5915C53.5564 21.5506 53.7379 21.5478 53.9139 21.5833C54.0898 21.6189 54.2561 21.6919 54.4015 21.7975C54.5468 21.9031 54.6678 22.0388 54.7563 22.1954Z" fill="black"/>
<path d="M54.2327 21.1324C54.1177 21.1203 54.0091 21.1817 53.8959 21.2068C53.6631 21.258 53.4246 21.152 53.1853 21.1529C52.9795 21.1646 52.7793 21.2245 52.6008 21.3277C52.4564 21.3961 52.3247 21.4886 52.2111 21.6012C52.0971 21.7156 52.0308 21.8693 52.0256 22.0309C52.0414 22.1236 52.0386 22.2184 52.0172 22.3099C51.9932 22.3561 51.9646 22.3997 51.9319 22.4402C51.9023 22.4878 51.8834 22.5414 51.8765 22.5971C51.8696 22.6529 51.8749 22.7094 51.892 22.7629C51.9399 22.8688 52.0048 22.9662 52.084 23.0513C52.238 23.2494 52.3345 23.4865 52.4728 23.6968C52.5331 23.788 52.6007 23.8742 52.675 23.9544C52.6872 23.9686 52.702 23.9803 52.7186 23.9888C52.735 23.9946 52.7523 23.9971 52.7696 23.9962C53.0628 24.0046 53.3662 24.0111 53.6362 23.8958C53.7227 23.8657 53.7961 23.8066 53.844 23.7284C53.8829 23.6211 53.89 23.5048 53.8644 23.3935C53.8521 23.2696 53.8549 23.1447 53.8727 23.0215C53.8739 22.9799 53.8908 22.9403 53.9201 22.9108C53.9422 22.897 53.9676 22.8893 53.9937 22.8885C54.0197 22.8877 54.0455 22.8938 54.0685 22.9062C54.1144 22.9304 54.1644 22.9455 54.216 22.9508C54.3171 22.9508 54.3812 22.8355 54.4016 22.735C54.3904 22.6447 54.4038 22.5531 54.4402 22.4698C54.4766 22.3865 54.5347 22.3146 54.6085 22.2616C54.678 22.1732 54.7257 22.0696 54.7478 21.9592C54.7699 21.8488 54.7657 21.7348 54.7356 21.6263C54.6688 21.417 54.4647 21.1557 54.2327 21.1324Z" fill="#1E1637"/>
<path opacity="0.1" d="M55.436 26.4732C55.4113 26.6273 55.4113 26.7843 55.436 26.9383C55.4248 27.0629 55.436 27.7503 55.436 27.7503C55.0649 27.6368 54.1213 27.8628 54.1213 27.8628L54.0091 27.5252C53.945 27.4419 53.8971 27.3472 53.868 27.2462C53.8328 27.1369 53.8037 27.0257 53.7808 26.9132C53.7318 26.6793 53.695 26.443 53.6704 26.2054C53.6231 25.8473 54.1547 25.4613 54.5574 25.2473C54.96 25.0334 55.3126 25.9458 55.3126 25.9458C55.3126 25.9458 55.4805 26.2965 55.436 26.4732Z" fill="black"/>
<path d="M55.436 26.4099C55.4113 26.564 55.4113 26.721 55.436 26.875C55.4248 26.9987 55.436 27.6861 55.436 27.6861C55.0649 27.5735 54.1213 27.7986 54.1213 27.7986L54.0091 27.461C53.9448 27.3778 53.8969 27.2831 53.868 27.1819C53.8328 27.073 53.8037 26.9621 53.7808 26.8499C53.7319 26.616 53.6951 26.3798 53.6704 26.1421C53.6231 25.783 54.1547 25.398 54.5574 25.1831C54.96 24.9683 55.3126 25.8816 55.3126 25.8816C55.3126 25.8816 55.4805 26.2295 55.436 26.4099Z" fill="#4C4981"/>
<path opacity="0.2" d="M54.7229 21.6267C54.7036 21.5628 54.6758 21.5018 54.6403 21.4453C54.6459 21.4611 54.6514 21.476 54.6561 21.4918C54.6862 21.6003 54.6904 21.7143 54.6683 21.8247C54.6462 21.9351 54.5985 22.0387 54.529 22.1271C54.4552 22.1801 54.3971 22.252 54.3607 22.3353C54.3243 22.4186 54.3109 22.5102 54.3221 22.6005C54.3063 22.701 54.2423 22.8117 54.1365 22.8154C54.0845 22.811 54.034 22.7958 53.9881 22.7707C53.9652 22.7588 53.9396 22.753 53.9137 22.7538C53.8879 22.7546 53.8627 22.762 53.8406 22.7754C53.8113 22.8052 53.7944 22.8451 53.7933 22.887C53.7753 23.0102 53.7725 23.1351 53.7849 23.259C53.7951 23.3725 53.8174 23.4944 53.7645 23.5948C53.7156 23.6721 53.6425 23.731 53.5567 23.7622C53.2867 23.8776 52.9833 23.8711 52.6902 23.8627C52.6728 23.8632 52.6554 23.8604 52.6391 23.8543C52.6221 23.8464 52.6072 23.8346 52.5955 23.8199C52.5204 23.7403 52.4528 23.6541 52.3933 23.5623C52.255 23.3521 52.1586 23.1158 52.0045 22.9168C51.9628 22.8628 51.9118 22.8098 51.8774 22.7531V22.7642C51.9247 22.8705 51.9897 22.968 52.0695 23.0526C52.2226 23.2507 52.32 23.4878 52.4573 23.6981C52.5176 23.7895 52.5856 23.8757 52.6605 23.9557C52.6723 23.9699 52.6868 23.9816 52.7031 23.9901C52.7195 23.9958 52.7368 23.9983 52.7542 23.9976C53.0473 24.0059 53.3516 24.0124 53.6207 23.8971C53.7072 23.867 53.7806 23.8079 53.8285 23.7297C53.8675 23.6224 53.8746 23.5061 53.8489 23.3948C53.8376 23.2709 53.8404 23.1461 53.8573 23.0228C53.8592 22.9814 53.876 22.9421 53.9046 22.9121C53.9267 22.8983 53.9521 22.8906 53.9782 22.8898C54.0042 22.889 54.0301 22.8951 54.053 22.9075C54.0989 22.9317 54.149 22.9468 54.2005 22.9521C54.3026 22.9521 54.3657 22.8368 54.3861 22.7363C54.3876 22.6344 54.4061 22.5335 54.4408 22.4377C54.4841 22.3734 54.5352 22.3146 54.593 22.2629C54.663 22.1745 54.7112 22.0709 54.7338 21.9603C54.7563 21.8498 54.7526 21.7355 54.7229 21.6267Z" fill="black"/>
<path d="M63.7673 21.8706L62.9658 23.5783C62.9658 23.5783 62.8479 23.8991 62.7719 23.9587C62.6958 24.0182 62.359 25.032 62.359 25.032L61.499 26.3602L61.4405 26.4532L61.1038 26.3602L60.8672 25.4748L60.8811 25.218V25.1855C60.8811 25.1855 61.4118 24.6274 61.5305 24.5856C61.5305 24.5856 61.6233 24.5967 61.7996 24.1642C61.9759 23.7317 62.1373 23.6387 62.1373 23.6387L62.2301 23.3262L63.2255 21.7366C63.2255 21.7366 64.0605 20.5377 64.2878 21.0697C64.5151 21.6018 63.7673 21.8706 63.7673 21.8706Z" fill="#FFD2C6"/>
<path d="M60.4389 34.0008C60.4362 34.0297 60.427 34.0577 60.412 34.0826C60.3192 34.2184 59.7969 36.9818 59.7969 36.9818C59.8387 37.1678 59.7208 37.5399 59.6448 37.7091C59.5687 37.8784 59.3998 38.7564 59.3998 38.7564C59.3998 38.7564 59.3581 40.6502 59.2495 40.9459C59.141 41.2417 59.2839 41.876 59.2839 41.876C59.2737 42.1672 59.4481 42.476 59.552 42.6322L59.5724 42.662C59.6058 42.7104 59.6281 42.7383 59.6281 42.7383C59.6567 42.7947 59.6968 42.8445 59.7459 42.8843L59.77 42.9029C59.9134 42.9989 60.0736 43.0668 60.2422 43.1029H60.2589C60.3257 43.1177 60.3703 43.1243 60.3703 43.1243L60.412 43.3531L59.9658 43.4461L59.1141 43.5047C59.1141 43.5047 58.1103 43.5819 58.3385 43.1326C58.3543 43.1026 58.3679 43.0716 58.3793 43.0396C58.3882 43.0177 58.3959 42.9954 58.4025 42.9727C58.5398 42.542 58.447 42.0184 58.447 42.0184L58.2531 40.4892C57.9331 39.069 58.5046 37.4887 58.5046 37.4887C58.5046 37.4887 58.4554 37.3622 58.5649 37.0413C58.6743 36.7204 58.5649 36.0182 58.5649 36.0182C58.5649 36.0182 58.5064 35.1141 58.4303 34.6667C58.4004 34.4783 58.3901 34.2872 58.3997 34.0966C58.4034 33.9851 58.4136 33.8739 58.4303 33.7636L60.3517 33.5078C60.3517 33.5078 60.4621 33.8213 60.4389 34.0008Z" fill="#FFD2C6"/>
<path opacity="0.1" d="M60.4115 43.3556L59.9652 43.4486L59.1136 43.5072C59.1136 43.5072 58.1097 43.5844 58.338 43.1352C58.3538 43.1052 58.3674 43.0741 58.3788 43.0421C58.3876 43.0202 58.3954 42.9979 58.402 42.9752C58.5759 42.9809 58.7477 43.0155 58.9104 43.0775C59.1961 43.1882 59.4114 42.8998 59.4114 42.8998L59.5505 42.6338L59.5709 42.5957C59.6043 42.6441 59.6266 42.672 59.6266 42.672C59.6603 42.7373 59.7089 42.7937 59.7686 42.8366L59.7444 42.8859L59.6099 43.1705C59.6099 43.1705 59.7825 43.1882 60.0181 43.2263C60.0637 43.2381 60.1121 43.2321 60.1535 43.2095C60.1948 43.1869 60.226 43.1493 60.2408 43.1045H60.2575C60.3243 43.1193 60.3688 43.1259 60.3688 43.1259L60.4115 43.3556Z" fill="black"/>
<path d="M60.8246 43.5662C60.7912 43.7187 59.8514 43.7652 59.8514 43.7652C59.8514 43.7652 59.3282 43.715 59.1816 43.8368C59.035 43.9587 58.6036 43.9299 58.5869 43.9299C58.5702 43.9299 58.3429 43.9215 58.2538 43.5122C58.1647 43.103 58.3698 43.0472 58.3791 43.0407C58.561 43.0433 58.7409 43.0783 58.9107 43.1439C59.1964 43.2546 59.4117 42.9663 59.4117 42.9663L59.5712 42.6621C59.6046 42.7105 59.6269 42.7384 59.6269 42.7384C59.6606 42.8037 59.7092 42.8602 59.7689 42.903L59.6102 43.2369C59.6102 43.2369 59.7828 43.2546 60.0184 43.2918C60.0467 43.2983 60.076 43.2984 60.1043 43.2921C60.1326 43.2859 60.1591 43.2734 60.182 43.2556C60.2049 43.2378 60.2236 43.2151 60.2367 43.1892C60.2498 43.1633 60.257 43.1348 60.2578 43.1058C60.2582 43.0974 60.2582 43.089 60.2578 43.0807C60.2578 43.0807 60.4044 43.1234 60.5862 43.1737C60.6678 43.1972 60.7376 43.2506 60.7817 43.3233C60.8259 43.396 60.8412 43.4827 60.8246 43.5662Z" fill="#626696"/>
<path d="M62.5955 36.0166C62.5733 36.1515 62.5501 36.5012 62.5501 36.5012C62.6289 36.7942 62.4267 37.4899 62.4267 37.4899L62.3255 37.8871C62.3701 38.394 62.0472 39.6339 62.0472 39.6339C62.0472 39.6339 61.8311 40.7835 61.7188 41.2792C61.6516 41.5548 61.6721 41.8446 61.7772 42.108L61.7856 42.1284C61.7856 42.1377 61.7902 42.147 61.7921 42.1563C61.7954 42.17 61.7998 42.1833 61.8051 42.1963C61.8302 42.2646 61.8676 42.3276 61.9155 42.3823C61.9339 42.4047 61.9541 42.4255 61.9758 42.4447C62.0815 42.5386 62.2027 42.6135 62.3339 42.666L62.3905 42.6884C62.4491 42.7102 62.5089 42.7288 62.5695 42.7442H62.59L62.5445 43.0102L61.9489 42.8567L61.151 42.5972L60.7641 42.3796C60.7641 42.3796 60.7641 42.3582 60.7762 42.3172C60.7767 42.3148 60.7767 42.3123 60.7762 42.3098C60.7762 42.2921 60.7836 42.2717 60.7883 42.2475C60.8495 41.8987 61.0016 40.923 60.9256 40.2012C60.8328 39.3111 61.2039 38.0824 61.2902 37.7904C61.3438 37.6229 61.3668 37.447 61.3579 37.2714C61.2113 37.0574 61.1779 36.2008 61.1779 36.2008C61.1779 36.2008 60.9079 35.6483 60.6853 35.0623C60.6111 34.8711 60.5573 34.6725 60.5248 34.4699C60.4984 34.3273 60.4875 34.1823 60.4923 34.0374C60.4923 34.0374 62.3023 32.3808 62.5009 33.9843C62.5074 34.0392 62.5139 34.0904 62.5204 34.1415C62.6966 35.6158 62.6169 35.8855 62.5955 36.0166Z" fill="#FFD2C6"/>
<path opacity="0.1" d="M62.5956 42.75L62.5501 43.0161L61.9545 42.8626L61.1566 42.6031L60.7642 42.378C60.7642 42.378 60.7642 42.3566 60.7762 42.3157C60.7767 42.3132 60.7767 42.3107 60.7762 42.3082C60.7762 42.2906 60.7836 42.2701 60.7883 42.2459H60.8439C60.9573 42.2349 61.0717 42.2505 61.1779 42.2915C61.3078 42.3399 61.4785 42.3957 61.5129 42.3724C61.5731 42.3466 61.6385 42.3351 61.704 42.3389L61.7866 42.1529L61.7995 42.125C61.8245 42.1934 61.8619 42.2565 61.9099 42.311C61.9298 42.3344 61.9512 42.3564 61.974 42.3771V42.4412L61.9693 42.5343C62.0584 42.5911 62.1549 42.6356 62.256 42.6663C62.2822 42.6729 62.3096 42.6729 62.3358 42.6663L62.3924 42.6887C62.451 42.7105 62.5108 42.7291 62.5714 42.7445L62.5956 42.75Z" fill="black"/>
<path d="M62.2969 43.3209C62.1308 43.2735 61.73 43.1963 61.6651 43.2558C61.6001 43.3154 61.0444 43.2558 61.0444 43.2558C60.9862 43.2549 60.9292 43.2389 60.879 43.2094C60.8288 43.1799 60.787 43.1379 60.7577 43.0875C60.6418 42.907 60.7355 42.3239 60.7355 42.3239H60.7763L60.8449 42.3164C60.9582 42.3054 61.0725 42.3207 61.1789 42.3611C61.3088 42.4104 61.4795 42.4662 61.5139 42.4429C61.5739 42.4164 61.6394 42.4046 61.705 42.4085L61.7977 42.1992C61.8229 42.2675 61.8603 42.3305 61.9082 42.3852C61.9278 42.4085 61.9492 42.4303 61.9722 42.4504L61.9638 42.6057C62.053 42.6626 62.1494 42.7074 62.2505 42.7387C62.2749 42.748 62.3018 42.7487 62.3267 42.7408C62.3517 42.7329 62.3732 42.7167 62.3878 42.695C62.3921 42.6876 62.3955 42.6798 62.398 42.6717C62.4731 42.7072 62.5522 42.7335 62.6337 42.7498C62.7379 42.7389 62.8426 42.7666 62.928 42.8275C63.0134 42.8885 63.0737 42.9786 63.0975 43.081C63.1857 43.3405 62.463 43.3684 62.2969 43.3209Z" fill="#626696"/>
<path opacity="0.1" d="M60.4387 34.0008L60.3357 34.0324C60.2548 34.057 60.1719 34.0745 60.088 34.0845C59.5555 34.1598 58.6787 34.1142 58.4004 34.0966C58.4041 33.9851 58.4143 33.8739 58.431 33.7636L60.3524 33.5078C60.3524 33.5078 60.4619 33.8213 60.4387 34.0008Z" fill="black"/>
<path d="M62.1152 33.5335C62.1152 33.5335 61.4101 33.6433 60.8358 33.7689C60.6447 33.8107 60.4647 33.8554 60.3358 33.8972C60.2548 33.9218 60.172 33.9395 60.0881 33.9502C59.4488 34.0432 58.3133 33.9567 58.3133 33.9567C58.0015 32.9429 58.6918 31.6659 58.6918 31.6659C58.676 31.5645 58.8356 31.2529 58.8356 31.2529V31.2427L58.9339 30.8809H61.5548L61.5873 31.0362L61.6541 31.3524L62.066 33.3122L62.1152 33.5335Z" fill="#626696"/>
<path opacity="0.1" d="M62.5215 34.1484L62.5057 34.1549L62.1986 34.2916C61.8665 34.4451 60.8729 34.4777 60.5287 34.4777C60.5023 34.3351 60.4914 34.1901 60.4962 34.0452C60.4962 34.0452 62.3063 32.3886 62.5048 33.9922C62.5085 34.0461 62.515 34.101 62.5215 34.1484Z" fill="black"/>
<path d="M62.5697 33.9912L62.5057 34.02L62.1986 34.1567C61.8609 34.313 60.8348 34.3427 60.5064 34.3427H60.4201C60.2689 34.3381 60.1168 34.1958 60.1168 34.1567C60.1168 34.1363 60.101 34.0358 60.088 33.9502C60.0759 33.8814 60.0666 33.8219 60.0666 33.8219C59.7144 33.6699 59.3734 33.493 59.0461 33.2926C58.7891 33.1169 58.8541 31.8677 58.9032 31.2399C58.9209 31.0232 58.9366 30.8809 58.9366 30.8809L61.59 31.0362L61.9611 31.0576L62.1736 31.105L62.2302 31.1171C62.2302 31.1171 62.3833 32.2332 62.4584 32.3263C62.5336 32.4193 62.4844 32.7318 62.4751 32.9104C62.475 32.987 62.4666 33.0634 62.4501 33.1382C62.4501 33.1382 62.5595 33.4508 62.5345 33.6256C62.523 33.7486 62.535 33.8727 62.5697 33.9912Z" fill="#626696"/>
<path d="M59.7289 24.7271C60.3295 24.7271 60.8163 24.239 60.8163 23.637C60.8163 23.0349 60.3295 22.5469 59.7289 22.5469C59.1284 22.5469 58.6416 23.0349 58.6416 23.637C58.6416 24.239 59.1284 24.7271 59.7289 24.7271Z" fill="#FFD2C6"/>
<path d="M59.1981 24.0909C59.1981 24.0909 59.2732 25.1233 59.0626 25.3605C58.8219 25.602 58.5686 25.8305 58.3037 26.0451L58.4726 26.7464L59.4254 26.8561L60.5387 25.6647L60.2854 25.3568C60.2854 25.3568 60.0915 24.6973 60.2511 24.3681C60.4106 24.0388 59.1981 24.0909 59.1981 24.0909Z" fill="#FFD2C6"/>
<path opacity="0.1" d="M61.499 26.3598L61.4405 26.4528L61.1038 26.3598L60.8672 25.4744L60.8811 25.2176L60.9507 25.1172C60.9507 25.1172 61.3218 25.1256 61.306 25.4641C61.2902 25.7599 61.4591 26.2473 61.499 26.3598Z" fill="black"/>
<path opacity="0.1" d="M62.232 31.2537C62.232 31.2537 61.9639 31.3133 61.6568 31.3533C61.3497 31.3933 60.9953 31.4147 60.8496 31.3291C60.6056 31.184 59.2836 31.2258 58.9014 31.2407H58.8364L58.9348 30.8789H61.5557L61.5881 31.0342L61.9592 31.0556L62.1717 31.1031C62.2107 31.1942 62.232 31.2537 62.232 31.2537Z" fill="black"/>
<path d="M60.884 25.1836C60.884 25.1836 61.2551 25.192 61.2384 25.5305C61.2217 25.8691 61.4406 26.4513 61.4406 26.4513L61.3562 26.6457C61.3562 26.6457 61.2384 27.1192 61.3311 27.2373C61.4239 27.3554 61.7607 27.3554 61.5668 28.3274C61.5668 28.3274 61.525 29.0547 61.6262 29.291C61.7273 29.5272 61.7273 30.0937 61.8785 30.3309C62.0166 30.5833 62.1351 30.8461 62.2329 31.1168C62.2329 31.1168 61.1372 31.3614 60.8506 31.1931C60.5639 31.0247 58.8021 31.1084 58.8021 31.1084C58.8021 31.1084 58.8104 30.8127 58.8021 30.7782C58.7939 30.7415 58.7934 30.7034 58.8006 30.6664C58.8078 30.6295 58.8225 30.5944 58.8438 30.5634C58.9032 30.4825 58.996 30.3476 58.945 30.2295C58.8939 30.1113 59.0711 29.9365 58.9784 29.7533C58.8856 29.57 58.7733 29.5337 58.7928 29.4333C58.7978 29.3757 58.7912 29.3177 58.7733 29.2627C58.7555 29.2077 58.7268 29.1569 58.6889 29.1133C58.6221 29.0287 58.1666 28.1358 58.1666 28.1358L58.0905 27.7191C58.0905 27.7191 57.5042 27.2884 57.5153 27.0857C57.5264 26.8829 57.737 26.6011 57.737 26.6011L58.3011 26.043C58.3011 26.043 58.6138 26.3807 58.9171 26.2625C59.2205 26.1444 59.8727 25.578 59.8727 25.578C59.8727 25.578 60.1056 25.4515 60.1223 25.3585C60.139 25.2654 60.2828 25.3501 60.2828 25.3501C60.2828 25.3501 60.4934 25.2338 60.5351 25.2747C60.6066 25.3121 60.6837 25.3376 60.7634 25.3501L60.884 25.1836Z" fill="#FFCDE5"/>
<path d="M57.6971 26.9453L57.5181 27.0867C57.382 27.3753 57.3053 27.6885 57.2926 28.0075C57.2452 28.4872 57.1693 28.9636 57.0653 29.4343L56.7109 30.0696C56.7109 30.0696 56.1292 31.2945 56.0531 31.6201C55.977 31.9456 55.6319 32.4953 55.6319 32.4953C55.6319 32.4953 54.4601 33.551 55.2775 33.7417C56.0949 33.9323 56.1208 32.9046 56.1208 32.9046C56.1208 32.9046 56.3064 32.6934 56.3426 32.5493C56.3788 32.4051 57.4104 30.5672 57.4104 30.5672C57.4104 30.5672 57.7732 30.0724 57.6971 29.8101C57.6971 29.8101 58.1693 28.6939 58.1693 28.4149C58.1605 28.1815 58.1351 27.949 58.0933 27.7192L58.1693 27.136L57.6971 26.9453Z" fill="#FFD2C6"/>
<path opacity="0.1" d="M60.1248 29.2754C60.1248 29.2754 59.2991 29.7088 59.1386 29.7321C58.9781 29.7553 59.8382 29.6391 59.8382 29.6391L60.1248 29.2754Z" fill="black"/>
<path opacity="0.1" d="M60.7984 29.6113C60.7984 29.6113 59.7027 29.9834 59.2212 29.9164C59.2212 29.9146 60.4199 30.1443 60.7984 29.6113Z" fill="black"/>
<path opacity="0.1" d="M60.8672 29.7344C60.8672 29.7344 59.8801 30.3566 59.2993 30.2552C59.2993 30.2552 60.6566 30.5259 60.8672 30.3817L60.2605 30.2134C60.2605 30.2134 60.934 29.8553 60.8672 29.7344Z" fill="black"/>
<path opacity="0.1" d="M59.7309 21.7192C59.5886 21.6841 59.4404 21.68 59.2964 21.7071C59.1523 21.7342 59.0158 21.792 58.8959 21.8764C58.727 22.0094 58.6175 22.2131 58.4246 22.3126C58.3244 22.3556 58.2215 22.3919 58.1166 22.4215C57.9318 22.4972 57.7778 22.6331 57.6794 22.8072C57.581 22.9813 57.5438 23.1835 57.5738 23.3814C57.6035 23.5488 57.6814 23.7032 57.7204 23.8687C57.7891 24.1636 57.7278 24.4724 57.6536 24.7663C57.4459 25.5812 57.1308 26.3648 56.7166 27.0962C56.6839 27.1416 56.6676 27.1966 56.6702 27.2525C56.6806 27.29 56.7004 27.3243 56.7277 27.352C57.1174 27.8031 57.7482 27.9585 58.3466 27.9789C58.5663 28.0007 58.7878 27.9638 58.9886 27.872C59.1127 27.8004 59.2195 27.7022 59.3013 27.5845C59.5083 27.3005 59.6112 26.9536 59.5926 26.6023C59.5768 26.3187 59.4822 26.0322 59.5537 25.7578C59.5607 25.7195 59.5781 25.6838 59.6038 25.6546C59.6678 25.5885 59.7745 25.6062 59.8654 25.595C60.1131 25.5662 60.2727 25.3048 60.3024 25.0565C60.332 24.8081 60.2699 24.5589 60.268 24.3124C60.2671 23.9824 60.37 23.6605 60.5621 23.3925C60.6447 23.279 60.7477 23.1674 60.7774 23.0251C60.8126 22.8465 60.7096 22.7154 60.6206 22.5749C60.4823 22.3554 60.4146 22.0997 60.204 21.9322C60.065 21.8252 59.903 21.7523 59.7309 21.7192Z" fill="black"/>
<path d="M59.6629 21.6503C59.5215 21.6157 59.3743 21.6118 59.2313 21.6389C59.0882 21.666 58.9526 21.7235 58.8335 21.8075C58.6647 21.9414 58.5552 22.1451 58.3613 22.2446C58.2609 22.2868 58.158 22.3229 58.0533 22.3525C57.8689 22.4282 57.7152 22.5638 57.6167 22.7375C57.5183 22.9112 57.4809 23.113 57.5106 23.3106C57.5402 23.478 57.6182 23.6324 57.6571 23.7979C57.7258 24.0928 57.6655 24.4016 57.5903 24.6955C57.3828 25.5089 57.068 26.2908 56.6542 27.0208C56.6209 27.0658 56.6045 27.1211 56.6079 27.177C56.6174 27.2147 56.6369 27.2491 56.6644 27.2766C57.0541 27.7286 57.685 27.883 58.2834 27.9035C58.5029 27.9252 58.7244 27.8886 58.9254 27.7974C59.0493 27.7253 59.156 27.6269 59.238 27.5091C59.4447 27.2249 59.5472 26.878 59.5284 26.5269C59.5117 26.2479 59.4171 25.9567 59.4885 25.6824C59.4964 25.6443 59.5136 25.6088 59.5386 25.5791C59.6036 25.5131 59.7093 25.5307 59.8012 25.5205C60.048 25.4917 60.2075 25.2294 60.2372 24.982C60.2669 24.7346 60.2048 24.4844 60.2038 24.2379C60.2024 23.9081 60.3054 23.5863 60.4979 23.3189C60.5796 23.2045 60.6835 23.0929 60.7132 22.9469C60.7475 22.7683 60.6445 22.6381 60.5554 22.4967C60.4172 22.2781 60.3495 22.0214 60.1389 21.854C59.9982 21.7499 59.8352 21.6801 59.6629 21.6503Z" fill="#985C7E"/>
<path opacity="0.1" d="M59.2993 32.2188C59.2993 32.2188 59.5155 33.2335 59.8754 33.5088L59.2993 32.2188Z" fill="black"/>
<g opacity="0.1">
<path opacity="0.1" d="M57.5747 23.54C57.5635 23.5009 57.5505 23.4609 57.5366 23.4219C57.5515 23.4619 57.5607 23.4972 57.5747 23.54Z" fill="black"/>
<path opacity="0.1" d="M60.6501 22.6602C60.654 22.691 60.654 22.7223 60.6501 22.7532C60.6223 22.8955 60.5174 23.0071 60.4349 23.1206C60.2429 23.3886 60.14 23.7105 60.1408 24.0404C60.1408 24.2906 60.2039 24.5399 60.1742 24.7845C60.1445 25.0292 59.9886 25.2942 59.7381 25.3221C59.6453 25.3333 59.5405 25.3156 59.4765 25.3817C59.4512 25.4113 59.4337 25.4468 59.4255 25.4849C59.354 25.7593 59.4496 26.043 59.4654 26.3295C59.4826 26.6808 59.3784 27.0274 59.1703 27.3107C59.0887 27.4287 58.9819 27.5268 58.8577 27.5981C58.6572 27.69 58.436 27.7269 58.2166 27.7051C57.6312 27.6856 57.0105 27.534 56.6171 27.0996C56.6067 27.1255 56.6035 27.1538 56.6078 27.1814C56.6174 27.2191 56.6369 27.2535 56.6644 27.281C57.0541 27.733 57.685 27.8874 58.2834 27.9079C58.503 27.9296 58.7244 27.893 58.9254 27.8018C59.0493 27.7297 59.156 27.6313 59.2381 27.5135C59.4447 27.2293 59.5472 26.8824 59.5284 26.5313C59.5117 26.2523 59.4171 25.9611 59.4885 25.6867C59.4964 25.6487 59.5136 25.6132 59.5386 25.5835C59.6036 25.5175 59.7094 25.5351 59.8012 25.5249C60.048 25.4961 60.2076 25.2338 60.2373 24.9864C60.2669 24.739 60.2048 24.4888 60.2039 24.2423C60.2025 23.9125 60.3054 23.5907 60.498 23.3233C60.5796 23.2089 60.6835 23.0973 60.7132 22.9513C60.7286 22.8498 60.7061 22.7461 60.6501 22.6602Z" fill="black"/>
</g>
<path opacity="0.1" d="M12.4846 46.7145C13.5688 46.7145 14.4477 46.6254 14.4477 46.5155C14.4477 46.4055 13.5688 46.3164 12.4846 46.3164C11.4004 46.3164 10.5215 46.4055 10.5215 46.5155C10.5215 46.6254 11.4004 46.7145 12.4846 46.7145Z" fill="#960A2C"/>
<path d="M13.1714 43.2246C13.1714 43.2246 10.6107 44.551 11.9337 46.108C11.971 46.205 12.0379 46.2878 12.1248 46.3444C12.2118 46.401 12.3144 46.4286 12.418 46.4233C12.418 46.4233 12.3457 46.2921 12.6212 46.187C12.7194 46.1492 12.8128 46.0998 12.8995 46.0401C13.016 45.9594 13.103 45.8428 13.1472 45.708C13.1472 45.708 13.6714 45.0058 13.2651 43.7064C13.2651 43.7064 13.3179 43.3344 13.2716 43.2795L12.9608 43.7064C12.9608 43.7064 13.2827 43.9231 13.3198 44.2412C13.3198 44.2412 12.9849 43.7073 12.9116 43.7687C12.8967 43.7808 12.7576 44.0022 12.7576 44.0022C12.7576 44.0022 13.3142 44.3817 13.356 44.8737C13.356 44.8737 13.0424 44.1845 12.7065 44.0859L12.5154 44.4328C12.5154 44.4328 13.124 44.8049 13.1927 45.3629C13.1927 45.3629 12.8392 44.6542 12.4783 44.5119L12.3364 44.8784C12.3364 44.8784 12.9227 45.2504 12.9765 45.7155C12.9765 45.7155 12.4857 44.9379 12.3095 44.963C12.3095 44.963 12.1991 45.3071 12.2167 45.4132C12.2167 45.4132 12.6323 45.6922 12.6398 45.9647C12.6398 45.9647 12.2566 45.4792 12.1972 45.5118C12.1972 45.5118 12.1731 45.9991 12.29 46.2559C12.1694 46.027 12.1109 45.7704 12.1202 45.5118C12.0015 45.6169 11.9163 45.7547 11.8753 45.908C11.8753 45.908 11.7649 45.6392 12.1276 45.3936C12.1276 45.3936 12.162 45.0142 12.2037 44.9676C12.2037 44.9676 11.8113 45.1592 11.6471 45.3955C11.6471 45.3955 11.7083 45.0439 12.2408 44.8691L12.3763 44.497C12.3763 44.497 11.8437 44.723 11.6786 44.9221C11.6786 44.9221 11.7973 44.5733 12.4208 44.4059L12.6064 44.0636C12.6064 44.0636 12.1332 44.2235 11.9022 44.4059C11.9022 44.4059 12.0812 44.1054 12.6629 43.9678L12.8132 43.7529C12.8132 43.7529 12.469 43.8766 12.3735 43.9203C12.2779 43.964 12.2584 43.9427 12.2584 43.9427C12.4338 43.7939 12.6472 43.6972 12.8745 43.6636C12.8745 43.6636 13.1945 43.2479 13.1714 43.2246Z" fill="#960A2C"/>
<path d="M15.6941 45.5846C15.9623 45.7436 16.3816 45.8469 16.9095 45.5055L16.9039 46.2598C16.942 46.7779 17.5793 48.6623 17.5793 48.6623L18.0293 50.2138C18.352 51.3093 18.5188 52.445 18.5247 53.5873C18.5132 53.9469 18.5618 54.3059 18.6685 54.6495C18.9079 55.3006 18.5757 56.1377 18.4292 56.4474C18.162 56.5404 17.8864 56.6102 17.6869 56.6567C17.6642 56.6619 17.6419 56.6688 17.6201 56.6771V56.6725C17.6201 56.6725 16.9447 56.9413 16.6442 56.9041C16.4206 56.8762 16.2805 57.1561 16.4586 57.3617C16.313 57.4066 16.1609 57.4268 16.0086 57.4212C15.708 57.384 15.5587 57.9021 16.1209 58.05C16.6831 58.1979 19.8746 58.05 19.8746 58.05C19.9644 58.005 20.0368 57.9313 20.0803 57.8405C20.1238 57.7498 20.136 57.6471 20.1149 57.5486C20.3598 57.5393 20.5129 57.5319 20.5129 57.5319C20.5129 57.5319 21.076 57.2733 20.5129 56.5711L20.4832 56.5943L20.3626 56.239V55.7582C20.3626 55.7582 21.076 52.3167 20.8506 51.9149C20.6251 51.5131 20.5129 49.439 20.5129 49.439L20.588 47.1844C20.7912 46.763 20.8961 46.1036 20.9489 45.5874C21.0254 45.341 21.0736 45.0867 21.0927 44.8293C21.1011 44.7084 21.1085 44.581 21.1131 44.4489C21.1161 44.1595 21.07 43.8717 20.9768 43.5979C21.2306 43.2185 21.5148 42.8604 21.8266 42.5273C21.9562 42.4065 22.0547 42.2559 22.1135 42.0886C22.1723 41.9212 22.1897 41.7421 22.1643 41.5665L21.9787 40.3099L21.5279 38.1706C21.5844 37.5754 21.4611 37.2331 21.3237 37.0396C21.3562 36.848 21.3868 36.6555 21.41 36.4629C21.5097 35.6244 21.4652 34.775 21.2783 33.9516C21.2133 33.6642 21.1243 33.3694 20.9239 33.1517C20.6957 32.9053 20.3264 32.7546 20.242 32.4318C20.229 32.35 20.2116 32.269 20.19 32.1891C20.1075 31.977 19.8468 31.9007 19.6185 31.8728C19.2122 31.8235 18.6249 31.7854 18.2343 31.9454C17.9625 32.0579 17.5849 32.3649 17.4374 32.6951C17.3484 32.8325 17.3153 32.9989 17.3446 33.1601C17.3588 33.2153 17.3807 33.2682 17.4095 33.3173C17.3493 33.4756 17.3178 33.6436 17.3168 33.813C17.3183 34.1027 17.4067 34.3851 17.5705 34.6237C17.7343 34.8622 17.9659 35.0458 18.2353 35.1506C18.2436 35.1785 18.2519 35.2064 18.2594 35.2343C18.2763 35.3003 18.2884 35.3674 18.2956 35.4352C18.2891 35.5663 18.2807 35.6975 18.2742 35.8277C18.2707 35.8456 18.266 35.8633 18.2603 35.8807C17.9372 36.0241 17.6222 36.1853 17.3168 36.3634C17.5422 36.6955 17.2797 38.0999 17.2797 38.0999C16.7165 38.4329 16.1534 39.2831 16.7536 40.1694C17.3539 41.0558 17.0162 42.0064 17.0162 42.0064L16.9234 43.4518L16.9049 43.7402H16.9123L16.9049 43.8499H16.9206V43.968C16.6562 44.0611 16.2712 44.2601 16.042 44.6191C15.9331 44.7973 15.8008 44.9599 15.6487 45.1028C15.6115 45.1329 15.5823 45.1718 15.5637 45.2159C15.5452 45.2601 15.5378 45.3082 15.5423 45.3559C15.5468 45.4036 15.563 45.4495 15.5895 45.4894C15.616 45.5293 15.652 45.562 15.6941 45.5846ZM20.2262 41.7451C20.2037 41.4952 20.2499 41.244 20.3598 41.0186C20.4479 41.0186 20.537 41.0186 20.6251 41.0186C20.6344 41.081 20.6446 41.1405 20.6576 41.1944C20.7337 41.5237 20.4294 41.679 20.2262 41.7451Z" fill="url(#paint0_linear)"/>
<path d="M20.3004 56.0695L20.4451 56.5039L19.9775 56.9745L18.4245 57.3363L17.3047 57.2275L17.3771 56.8294C17.3983 56.7438 17.4428 56.6658 17.5055 56.6039C17.5682 56.542 17.6467 56.4987 17.7324 56.4787C18.1963 56.3699 19.0702 56.1234 19.2548 55.7793L20.3004 56.0695Z" fill="#DB8B8B"/>
<path opacity="0.1" d="M20.3004 56.0695L20.4451 56.5039L19.9775 56.9745L18.4245 57.3363L17.3047 57.2275L17.3771 56.8294C17.3983 56.7438 17.4428 56.6658 17.5055 56.6039C17.5682 56.542 17.6467 56.4987 17.7324 56.4787C18.1963 56.3699 19.0702 56.1234 19.2548 55.7793L20.3004 56.0695Z" fill="black"/>
<path d="M17.6633 57.121L17.8804 56.8308L17.6633 56.496C17.6633 56.496 17.0138 56.7583 16.7244 56.722C16.4349 56.6857 16.2911 57.1936 16.8329 57.3378C17.3747 57.4819 20.4447 57.3378 20.4447 57.3378C20.4447 57.3378 20.9865 57.0848 20.4447 56.3965L19.9771 56.7583C19.9771 56.7583 19.182 57.1936 18.7849 57.121H17.6633Z" fill="#2E3037"/>
<path d="M16.6885 57.7362L17.8083 57.8441L19.3613 57.4823L19.8308 57.0117L19.7927 56.8963L19.7389 56.7345L19.687 56.5773L18.6395 56.2871C18.5864 56.3741 18.5136 56.4474 18.4271 56.501C18.0866 56.7336 17.4752 56.9019 17.1171 56.9865L17.0716 56.9996C17.002 57.0224 16.9386 57.0609 16.8861 57.1121C16.8231 57.1737 16.7785 57.2517 16.7571 57.3372L16.6885 57.7362Z" fill="#DB8B8B"/>
<path opacity="0.1" d="M16.6885 57.7364L17.8083 57.8443L19.3613 57.4824L19.8308 57.0118L19.7927 56.8965L19.3613 57.2285C19.3613 57.2285 18.5672 57.6638 18.1692 57.5913H17.0503L17.2665 57.3011L17.0716 56.9997C17.002 57.0225 16.9386 57.061 16.8861 57.1123C16.8231 57.1739 16.7785 57.2518 16.7571 57.3374L16.6885 57.7364Z" fill="black"/>
<path d="M17.0503 57.6269L17.2665 57.3367L17.0503 57.0019C17.0503 57.0019 16.4009 57.2642 16.1105 57.2279C15.8201 57.1916 15.6772 57.6994 16.219 57.8436C16.7608 57.9878 19.8308 57.8436 19.8308 57.8436C19.8308 57.8436 20.3726 57.5906 19.8308 56.9023L19.3613 57.2604C19.3613 57.2604 18.5672 57.6957 18.1692 57.6232L17.0503 57.6269Z" fill="#2E3037"/>
<path d="M17.9531 36.6248C17.9531 36.6248 19.6871 36.8053 19.4375 36.0817C19.3672 35.8761 19.3487 35.6562 19.3837 35.4417C19.429 35.176 19.5341 34.9241 19.6908 34.7051L18.0654 34.959C18.1624 35.1222 18.2364 35.2981 18.2853 35.4817C18.4755 36.25 17.9531 36.6248 17.9531 36.6248Z" fill="#DB8B8B"/>
<path d="M20.9143 44.8809C20.9143 44.8809 20.8781 46.4379 20.5172 47.1987L20.4412 49.4068C20.4412 49.4068 20.5497 51.4344 20.7659 51.8335C20.982 52.2325 20.2964 55.5995 20.2964 55.5995V56.178C20.2964 56.178 19.1414 56.6133 18.812 56.1064L19.1423 51.7972L19.0003 45.8203L20.9143 44.8809Z" fill="#474463"/>
<path opacity="0.1" d="M20.9143 44.8809C20.9143 44.8809 20.8781 46.4379 20.5172 47.1987L20.4412 49.4068C20.4412 49.4068 20.5497 51.4344 20.7659 51.8335C20.982 52.2325 20.2964 55.5995 20.2964 55.5995V56.178C20.2964 56.178 19.1414 56.6133 18.812 56.1064L19.1423 51.7972L19.0003 45.8203L20.9143 44.8809Z" fill="black"/>
<path d="M21.6371 39.8828L21.8533 40.4623L22.0342 41.6937C22.0587 41.8652 22.0421 42.0401 21.9856 42.2038C21.9291 42.3675 21.8345 42.5154 21.7095 42.635C21.2763 43.0694 20.6983 43.9753 20.6983 43.9753L20.0117 41.9133C20.0117 41.9133 20.6983 41.8044 20.5897 41.3338C20.4812 40.8632 20.5173 39.9935 20.5173 39.9935L21.6371 39.8828Z" fill="#FC6681"/>
<path opacity="0.05" d="M21.6371 39.8828L21.8533 40.4623L22.0342 41.6937C22.0587 41.8652 22.0421 42.0401 21.9856 42.2038C21.9291 42.3675 21.8345 42.5154 21.7095 42.635C21.2763 43.0694 20.6983 43.9753 20.6983 43.9753L20.0117 41.9133C20.0117 41.9133 20.6983 41.8044 20.5897 41.3338C20.4812 40.8632 20.5173 39.9935 20.5173 39.9935L21.6371 39.8828Z" fill="black"/>
<path opacity="0.1" d="M18.4272 56.501C18.8911 57.2321 19.6111 56.8173 19.7391 56.7345L19.6871 56.5773L18.6397 56.2871C18.5866 56.3741 18.5138 56.4474 18.4272 56.501Z" fill="black"/>
<path d="M16.978 46.2934C17.0142 46.8003 17.6275 48.6475 17.6275 48.6475L18.0607 50.1673C18.3716 51.2417 18.5318 52.3543 18.5367 53.473C18.5275 53.8253 18.5754 54.1768 18.6786 54.5137C18.9681 55.3099 18.3901 56.3963 18.3901 56.3963C18.8957 57.3013 19.7622 56.6865 19.7622 56.6865V56.107C19.7622 56.107 20.4488 52.9567 20.2678 52.341C20.0869 51.7253 20.0155 50.0594 20.0155 50.0594V47.0542C20.5925 46.475 20.9428 45.7072 21.0026 44.8908C21.0119 44.7727 21.0184 44.648 21.023 44.5187C21.0527 43.7012 20.4951 42.7441 20.2808 42.4018C20.2289 42.3199 20.1964 42.2734 20.1964 42.2734L17.0031 43.5421H16.9957V43.6658V43.9402L16.978 46.2934Z" fill="#474463"/>
<path opacity="0.1" d="M18.0615 34.959C18.1586 35.1222 18.2326 35.2981 18.2814 35.4817C18.4578 35.5494 18.646 35.5807 18.8347 35.5738C19.0234 35.567 19.2088 35.522 19.3799 35.4417C19.4252 35.176 19.5302 34.9241 19.6869 34.7051L18.0615 34.959Z" fill="black"/>
<path d="M18.7833 35.5016C19.5611 35.5016 20.1917 34.8694 20.1917 34.0896C20.1917 33.3099 19.5611 32.6777 18.7833 32.6777C18.0055 32.6777 17.375 33.3099 17.375 34.0896C17.375 34.8694 18.0055 35.5016 18.7833 35.5016Z" fill="#DB8B8B"/>
<path opacity="0.1" d="M16.978 43.9401H16.9929C18.5079 44.2517 20.4089 42.6696 20.4089 42.6696C20.3581 42.5832 20.314 42.493 20.2771 42.3998C20.2252 42.318 20.1927 42.2715 20.1927 42.2715L17.0031 43.542L16.9947 43.6685L16.978 43.9401Z" fill="black"/>
<path d="M17.3794 36.5891C17.3794 36.5891 19.4019 35.3577 20.0523 35.8646L20.955 37.0235C20.955 37.0235 21.533 37.204 21.4245 38.3629L21.8577 40.4631L20.5589 40.7895C20.5589 40.7895 19.7916 41.5132 20.4086 42.5651C20.4086 42.5651 18.4946 44.1584 16.9759 43.8329L17.0835 42.1308C17.0835 42.1308 17.4091 41.1895 16.8311 40.3208C16.2531 39.452 16.795 38.6187 17.3368 38.2922C17.3386 38.2866 17.5919 36.9147 17.3794 36.5891Z" fill="#FC6681"/>
<path d="M17.2665 43.9766C17.2665 43.9766 16.5085 44.1207 16.1467 44.7002C16.0428 44.8745 15.9158 45.0337 15.7691 45.1736C15.7361 45.2037 15.7105 45.2411 15.6945 45.2829C15.6784 45.3246 15.6723 45.3696 15.6766 45.4141C15.681 45.4586 15.6956 45.5015 15.7194 45.5394C15.7432 45.5772 15.7754 45.609 15.8136 45.6322C16.1003 45.8042 16.5679 45.9112 17.1579 45.4248C18.1692 44.5914 17.2665 43.9766 17.2665 43.9766Z" fill="#DB8B8B"/>
<path opacity="0.1" d="M18.3861 37.2771C18.3861 37.2771 19.1088 37.2046 19.2888 39.0881C19.4688 40.9715 19.7582 41.4059 19.7582 41.4059C19.7582 41.4059 19.9391 42.3835 19.5059 42.9629C19.0726 43.5424 18.2413 44.7729 18.2413 44.7729C18.2413 44.7729 17.3386 45.0268 17.1577 44.1218L18.2775 42.0216C18.2775 42.0216 18.4584 41.298 18.0252 40.7911C17.5919 40.2842 17.2663 36.9153 18.3861 37.2771Z" fill="black"/>
<path d="M18.3138 37.1701C18.3138 37.1701 19.0365 37.0975 19.2165 38.9801C19.3965 40.8626 19.6869 41.2979 19.6869 41.2979C19.6869 41.2979 19.8669 42.2755 19.4336 42.855C19.0003 43.4344 18.1691 44.665 18.1691 44.665C18.1691 44.665 17.2664 44.9189 17.0854 44.0139L18.2052 41.9137C18.2052 41.9137 18.3862 41.1891 17.9529 40.6822C17.5196 40.1753 17.194 36.8055 18.3138 37.1701Z" fill="#FC6681"/>
<path opacity="0.1" d="M17.7183 38.5254C17.7183 38.5254 17.6459 39.648 17.9707 40.2638C18.2954 40.8795 18.2963 41.6757 17.9707 42.111" fill="black"/>
<path opacity="0.1" d="M17.5376 37.1489C17.5376 37.1489 17.8271 36.8597 18.6574 36.8234C19.4877 36.7871 19.8496 36.5332 19.8496 36.5332" fill="black"/>
<path opacity="0.1" d="M19.5468 32.265C19.7657 32.292 20.0171 32.3673 20.096 32.5747C20.1169 32.6532 20.1336 32.7327 20.1461 32.8129C20.2277 33.1291 20.5831 33.2779 20.802 33.5188C20.9959 33.7318 21.0803 34.0211 21.1434 34.302C21.3233 35.109 21.3662 35.9407 21.2705 36.7621C21.2 37.363 21.0562 37.9545 21.0154 38.5572C20.9746 39.16 21.0488 39.7952 21.3781 40.3021C21.5192 40.5198 21.7056 40.7114 21.8058 40.9532C21.599 41.1216 21.3132 41.1457 21.0469 41.1551C20.7377 41.165 20.4284 41.165 20.1192 41.1551C19.9555 41.1619 19.7926 41.128 19.6451 41.0565C19.5408 40.9899 19.4552 40.8977 19.3965 40.7886C19.2193 40.4863 19.1738 40.1236 19.1812 39.772C19.1886 39.4204 19.2443 39.0725 19.2508 38.7219C19.2508 38.5303 19.2397 38.3275 19.1302 38.1712C19.0402 38.0668 18.9384 37.9731 18.8268 37.8922C18.4409 37.549 18.3082 36.9974 18.2952 36.4803C18.2822 35.9631 18.3667 35.4441 18.323 34.9279C18.3064 34.7261 18.2303 34.4833 18.0327 34.4443C17.9703 34.4408 17.9083 34.4328 17.8471 34.4201C17.6875 34.3587 17.7033 34.1336 17.6616 33.969C17.6105 33.783 17.4537 33.6416 17.4092 33.4546C17.3053 33.0165 17.861 32.4938 18.2256 32.3385C18.5902 32.1832 19.1552 32.2166 19.5468 32.265Z" fill="black"/>
<path d="M19.5831 32.1912C19.8021 32.2191 20.0526 32.2945 20.1324 32.501C20.1533 32.5797 20.1701 32.6595 20.1825 32.74C20.2641 33.0562 20.6194 33.2051 20.8384 33.445C21.0323 33.658 21.1167 33.9473 21.1798 34.2282C21.3596 35.0353 21.4026 35.8669 21.3069 36.6883C21.2364 37.2892 21.0926 37.8807 21.0518 38.4834C21.011 39.0862 21.0852 39.7214 21.4145 40.2283C21.5555 40.446 21.742 40.6376 21.8422 40.8794C21.6353 41.0478 21.3496 41.0719 21.0833 41.0813C20.7741 41.0912 20.4633 41.0912 20.1509 41.0813C19.9872 41.0881 19.8243 41.0542 19.6768 40.9827C19.5728 40.9162 19.4872 40.8244 19.4282 40.7157C19.2501 40.4125 19.2055 40.0498 19.213 39.6982C19.2204 39.3466 19.2761 38.9987 19.2825 38.6481C19.2825 38.4574 19.2714 38.2537 19.1619 38.0974C19.0717 37.9932 18.9699 37.8996 18.8586 37.8184C18.4726 37.4752 18.339 36.9246 18.326 36.4065C18.313 35.8884 18.3984 35.3704 18.3548 34.8541C18.3381 34.6523 18.262 34.4095 18.0644 34.3705C18.002 34.367 17.94 34.359 17.8789 34.3463C17.7193 34.2849 17.735 34.0598 17.6933 33.8952C17.6423 33.7092 17.4855 33.5678 17.4409 33.3808C17.337 32.9437 17.8928 32.42 18.2574 32.2647C18.622 32.1094 19.1916 32.1466 19.5831 32.1912Z" fill="#472727"/>
<path opacity="0.1" d="M89.67 64.733C90.8997 64.733 91.8966 64.5956 91.8966 64.4261C91.8966 64.2566 90.8997 64.1191 89.67 64.1191C88.4403 64.1191 87.4434 64.2566 87.4434 64.4261C87.4434 64.5956 88.4403 64.733 89.67 64.733Z" fill="#960A2C"/>
<path opacity="0.1" d="M81.1407 65.6002C82.3704 65.6002 83.3673 65.4628 83.3673 65.2933C83.3673 65.1237 82.3704 64.9863 81.1407 64.9863C79.9109 64.9863 78.9141 65.1237 78.9141 65.2933C78.9141 65.4628 79.9109 65.6002 81.1407 65.6002Z" fill="#960A2C"/>
<path opacity="0.1" d="M71.0938 64.4264C72.3235 64.4264 73.3204 64.289 73.3204 64.1194C73.3204 63.9499 72.3235 63.8125 71.0938 63.8125C69.8641 63.8125 68.8672 63.9499 68.8672 64.1194C68.8672 64.289 69.8641 64.4264 71.0938 64.4264Z" fill="#960A2C"/>
<path opacity="0.1" d="M84.5549 67.9802C85.4291 67.9802 86.1377 67.8828 86.1377 67.7626C86.1377 67.6424 85.4291 67.5449 84.5549 67.5449C83.6808 67.5449 82.9722 67.6424 82.9722 67.7626C82.9722 67.8828 83.6808 67.9802 84.5549 67.9802Z" fill="#960A2C"/>
<path opacity="0.1" d="M75.7019 67.7615C76.576 67.7615 77.2847 67.664 77.2847 67.5438C77.2847 67.4236 76.576 67.3262 75.7019 67.3262C74.8278 67.3262 74.1191 67.4236 74.1191 67.5438C74.1191 67.664 74.8278 67.7615 75.7019 67.7615Z" fill="#960A2C"/>
<path d="M81.0931 65.2251C81.0931 65.2251 84.216 54.9622 80.6042 50.8511C77.9026 47.7761 74.8364 48.1435 73.4605 48.5258C73.105 48.6208 72.7744 48.7921 72.4915 49.0279C72.2086 49.2637 71.9802 49.5582 71.8221 49.8912C71.3424 50.9292 71.4287 52.6155 74.8187 54.5827C80.4938 57.8762 80.8491 62.3957 80.8491 62.3957L81.0931 65.2251Z" fill="#960A2C"/>
<path d="M73.9512 49.9785C73.9512 49.9785 83.1573 52.8619 81.0949 65.224" stroke="#565987" stroke-miterlimit="10"/>
<path d="M79.3287 51.0137C79.3287 51.0137 78.0605 51.8694 78.4641 53.1529" stroke="#565987" stroke-miterlimit="10"/>
<path d="M74.8745 51.7728C74.8745 51.7728 75.6501 50.9822 76.5927 51.4184" stroke="#565987" stroke-miterlimit="10"/>
<path d="M78.5186 55.7499C78.5186 55.7499 79.8787 55.0579 80.2303 55.9248" stroke="#565987" stroke-miterlimit="10"/>
<path d="M81.8808 57.1946C81.8808 57.1946 80.8603 57.1127 80.8408 57.6029" stroke="#565987" stroke-miterlimit="10"/>
<path d="M81.2195 65.3063C81.2195 65.3063 77.5622 57.8468 76.5575 58.0105C76.0806 58.0877 75.8607 58.5583 75.7605 59.0336C75.6373 59.6449 75.707 60.2795 75.96 60.8492C76.4777 62.0407 77.8693 64.3073 81.2195 65.3063Z" fill="#960A2C"/>
<path d="M76.5845 59.4258C76.5845 59.4258 80.4235 65.0065 81.1657 65.252" stroke="#565987" stroke-miterlimit="10"/>
<path d="M76.231 60.2969H77.1272" stroke="#565987" stroke-miterlimit="10"/>
<path d="M77.3042 62.3398L78.7088 62.4003" stroke="#565987" stroke-miterlimit="10"/>
<path d="M78.159 60.7051L78.0068 61.4389" stroke="#565987" stroke-miterlimit="10"/>
<path d="M79.6524 62.9375L79.6255 63.6044" stroke="#565987" stroke-miterlimit="10"/>
<path d="M81.1108 65.3063C81.1108 65.3063 84.768 57.8468 85.7728 58.0105C86.2506 58.0877 86.4705 58.5583 86.5698 59.0336C86.693 59.6449 86.6233 60.2795 86.3703 60.8492C85.848 62.0407 84.4563 64.3073 81.1108 65.3063Z" fill="#960A2C"/>
<path d="M85.7459 59.4258C85.7459 59.4258 81.9068 65.0065 81.1655 65.252" stroke="#565987" stroke-miterlimit="10"/>
<path d="M86.0984 60.2969H85.2021" stroke="#565987" stroke-miterlimit="10"/>
<path d="M85.0247 62.3398L83.6201 62.4003" stroke="#565987" stroke-miterlimit="10"/>
<path d="M84.1704 60.7051L84.3226 61.4389" stroke="#565987" stroke-miterlimit="10"/>
<path d="M82.6768 62.9375L82.7037 63.6044" stroke="#565987" stroke-miterlimit="10"/>
<path d="M74.8307 67.0475C74.731 66.966 74.6585 66.856 74.6229 66.7322C74.6066 66.67 74.6122 66.6042 74.6388 66.5457C74.6653 66.4873 74.7111 66.4398 74.7686 66.4113C74.9022 66.3601 75.0469 66.4531 75.1526 66.5471C75.2584 66.641 75.3846 66.748 75.5237 66.7284C75.451 66.662 75.3965 66.5779 75.3657 66.4842C75.3348 66.3905 75.3285 66.2904 75.3475 66.1936C75.3539 66.1539 75.3709 66.1166 75.3966 66.0857C75.4709 66.0057 75.6054 66.0401 75.6945 66.1025C75.9728 66.3015 76.0554 66.6866 76.0572 67.0326C76.0711 66.9052 76.0711 66.7767 76.0572 66.6494C76.0518 66.5855 76.0621 66.5212 76.0872 66.4622C76.1123 66.4032 76.1513 66.3512 76.201 66.3108C76.2681 66.2743 76.3437 66.2564 76.42 66.2587C76.483 66.2497 76.5472 66.2541 76.6084 66.2716C76.6696 66.2891 76.7265 66.3192 76.7753 66.3601C76.8829 66.4754 76.8551 66.6698 76.7614 66.7973C76.6558 66.9166 76.5302 67.0164 76.3903 67.0921C76.2853 67.1553 76.1956 67.241 76.1277 67.3432C76.1201 67.3576 76.1136 67.3725 76.1082 67.3879H75.3131C75.1378 67.2967 74.9755 67.1822 74.8307 67.0475Z" fill="#960A2C"/>
<path d="M88.7676 64.0448C88.6679 63.9633 88.5954 63.8533 88.5598 63.7295C88.5437 63.6676 88.5493 63.602 88.5756 63.5438C88.602 63.4855 88.6475 63.4381 88.7045 63.4095C88.8381 63.3574 88.9829 63.4504 89.0895 63.5444C89.1962 63.6383 89.3215 63.7453 89.4606 63.7304C89.3879 63.6639 89.3334 63.5798 89.3026 63.4861C89.2717 63.3925 89.2654 63.2924 89.2844 63.1956C89.2908 63.1558 89.3078 63.1186 89.3335 63.0877C89.4078 63.0077 89.5423 63.0421 89.6314 63.1044C89.9097 63.3035 89.9922 63.6885 89.9941 64.0345C90.008 63.9072 90.008 63.7787 89.9941 63.6513C89.9887 63.5874 89.999 63.5232 90.0241 63.4642C90.0492 63.4051 90.0882 63.3532 90.1379 63.3128C90.205 63.2763 90.2806 63.2583 90.3569 63.2607C90.4197 63.2516 90.4838 63.2559 90.5449 63.2734C90.6059 63.2909 90.6626 63.3211 90.7113 63.3621C90.8198 63.4774 90.791 63.6718 90.6973 63.7992C90.5919 63.9186 90.4663 64.0184 90.3262 64.0941C90.2212 64.1572 90.1315 64.243 90.0637 64.3452C90.0561 64.3596 90.0496 64.3745 90.0442 64.3898H89.2491C89.0738 64.2971 88.9119 64.181 88.7676 64.0448Z" fill="#960A2C"/>
<path d="M84.1231 67.0475C84.0232 66.9661 83.9504 66.8561 83.9144 66.7322C83.8981 66.67 83.9037 66.6042 83.9303 66.5457C83.9568 66.4873 84.0026 66.4398 84.0601 66.4113C84.1937 66.3601 84.3384 66.4531 84.4451 66.5471C84.5518 66.641 84.677 66.748 84.8162 66.7284C84.7431 66.6622 84.6885 66.5781 84.6576 66.4844C84.6267 66.3906 84.6206 66.2904 84.6399 66.1936C84.646 66.1538 84.663 66.1164 84.6891 66.0857C84.7633 66.0057 84.8969 66.0401 84.986 66.1025C85.2643 66.3015 85.3478 66.6866 85.3487 67.0326C85.3645 66.9054 85.3664 66.7769 85.3543 66.6494C85.3487 66.5855 85.3588 66.5213 85.3837 66.4623C85.4086 66.4033 85.4476 66.3513 85.4971 66.3108C85.5643 66.2745 85.6398 66.2565 85.7161 66.2587C85.7791 66.2497 85.8433 66.254 85.9045 66.2715C85.9657 66.289 86.0226 66.3192 86.0714 66.3601C86.179 66.4754 86.1512 66.6698 86.0575 66.7973C85.9518 66.9164 85.8263 67.0162 85.6864 67.0921C85.581 67.1548 85.4912 67.2406 85.4239 67.3432C85.4159 67.3574 85.4093 67.3724 85.4044 67.3879H84.6084C84.432 67.297 84.2688 67.1824 84.1231 67.0475Z" fill="#960A2C"/>
<path d="M70.9499 60.9746C70.9499 60.9746 70.6512 61.3653 71.0872 61.9559C71.5233 62.5465 71.8832 63.045 71.7366 63.4134C71.7366 63.4134 71.0789 62.3168 70.5435 62.2972C70.0082 62.2777 70.3608 61.6313 70.9499 60.9746Z" fill="#960A2C"/>
<path opacity="0.1" d="M70.9497 60.9746C70.9234 61.0123 70.9027 61.0536 70.8885 61.0974C70.3662 61.7122 70.0878 62.287 70.5898 62.301C71.0583 62.3149 71.6196 63.1539 71.7532 63.365C71.7493 63.3816 71.744 63.3977 71.7374 63.4134C71.7374 63.4134 71.0796 62.3168 70.5443 62.2972C70.009 62.2777 70.3606 61.6313 70.9497 60.9746Z" fill="black"/>
<path d="M70.395 61.4747C70.395 61.6123 70.4108 61.7239 70.4293 61.7239C70.4479 61.7239 70.4637 61.6123 70.4637 61.4747C70.4637 61.337 70.4451 61.4021 70.4256 61.4021C70.4062 61.4021 70.395 61.337 70.395 61.4747Z" fill="#FFD037"/>
<path d="M70.2053 61.638C70.3259 61.7032 70.4307 61.7431 70.44 61.7264C70.4493 61.7097 70.3593 61.6427 70.2386 61.5767C70.118 61.5106 70.1654 61.559 70.1561 61.5767C70.1468 61.5943 70.0846 61.572 70.2053 61.638Z" fill="#FFD037"/>
<path d="M72.5262 60.9746C72.5262 60.9746 72.824 61.3653 72.3879 61.9559C71.9519 62.5465 71.5929 63.045 71.7385 63.4134C71.7385 63.4134 72.3963 62.3168 72.9325 62.2972C73.4688 62.2777 73.1153 61.6313 72.5262 60.9746Z" fill="#960A2C"/>
<path opacity="0.1" d="M72.5265 60.9746C72.5524 61.0124 72.5727 61.0538 72.5868 61.0974C73.1101 61.7122 73.3884 62.287 72.8856 62.301C72.4217 62.3149 71.8567 63.1539 71.7222 63.365C71.7222 63.3817 71.7324 63.3976 71.7379 63.4134C71.7379 63.4134 72.3957 62.3168 72.9319 62.2972C73.4682 62.2777 73.1156 61.6313 72.5265 60.9746Z" fill="black"/>
<path d="M73.0804 61.4747C73.0804 61.6123 73.0655 61.7239 73.046 61.7239C73.0266 61.7239 73.0117 61.6123 73.0117 61.4747C73.0117 61.337 73.0312 61.4021 73.0498 61.4021C73.0683 61.4021 73.0804 61.337 73.0804 61.4747Z" fill="#FFD037"/>
<path d="M73.2714 61.638C73.1508 61.7032 73.045 61.7431 73.0367 61.7264C73.0283 61.7097 73.1174 61.6427 73.238 61.5767C73.3586 61.5106 73.3113 61.559 73.3206 61.5767C73.3298 61.5943 73.392 61.572 73.2714 61.638Z" fill="#FFD037"/>
<path d="M72.9856 63.364C72.9856 63.364 72.1507 63.3379 71.9002 63.1584C71.6497 62.9789 70.6171 62.765 70.5549 63.0533C70.4928 63.3416 69.3006 64.4848 70.2432 64.4922C71.1858 64.4996 72.4308 64.3452 72.6823 64.1918C72.9337 64.0383 72.9856 63.364 72.9856 63.364Z" fill="#A8A8A8"/>
<path opacity="0.2" d="M70.2253 64.39C71.1679 64.3975 72.4139 64.2431 72.6653 64.0896C72.8555 63.9733 72.9325 63.5548 72.9576 63.3613H72.9854C72.9854 63.3613 72.9325 64.0357 72.682 64.1891C72.4315 64.3426 71.1846 64.497 70.243 64.4896C69.9711 64.4896 69.8765 64.39 69.8821 64.2468C69.9201 64.3342 70.0231 64.3882 70.2253 64.39Z" fill="black"/>
<path opacity="0.1" d="M16.0205 66.1516C17.7995 66.1516 19.2417 65.9379 19.2417 65.6744C19.2417 65.4109 17.7995 65.1973 16.0205 65.1973C14.2415 65.1973 12.7993 65.4109 12.7993 65.6744C12.7993 65.9379 14.2415 66.1516 16.0205 66.1516Z" fill="#960A2C"/>
<path opacity="0.1" d="M23.8203 70.4348C25.5993 70.4348 27.0415 70.2211 27.0415 69.9576C27.0415 69.6941 25.5993 69.4805 23.8203 69.4805C22.0413 69.4805 20.5991 69.6941 20.5991 69.9576C20.5991 70.2211 22.0413 70.4348 23.8203 70.4348Z" fill="#960A2C"/>
<path opacity="0.1" d="M58.2306 59.0367C59.4085 59.0367 60.3635 58.9297 60.3635 58.7976C60.3635 58.6656 59.4085 58.5586 58.2306 58.5586C57.0526 58.5586 56.0977 58.6656 56.0977 58.7976C56.0977 58.9297 57.0526 59.0367 58.2306 59.0367Z" fill="#960A2C"/>
<path opacity="0.1" d="M48.2599 65.9136C49.4378 65.9136 50.3928 65.8066 50.3928 65.6746C50.3928 65.5426 49.4378 65.4355 48.2599 65.4355C47.0819 65.4355 46.127 65.5426 46.127 65.6746C46.127 65.8066 47.0819 65.9136 48.2599 65.9136Z" fill="#960A2C"/>
<path opacity="0.1" d="M43.7652 70.1968C44.9432 70.1968 45.8981 70.0898 45.8981 69.9578C45.8981 69.8258 44.9432 69.7188 43.7652 69.7188C42.5873 69.7188 41.6323 69.8258 41.6323 69.9578C41.6323 70.0898 42.5873 70.1968 43.7652 70.1968Z" fill="#960A2C"/>
</g>
<defs>
<linearGradient id="paint0_linear" x1="18.8615" y1="58.1151" x2="18.8615" y2="31.8263" gradientUnits="userSpaceOnUse">
<stop stop-color="#808080" stop-opacity="0.25"/>
<stop offset="0.54" stop-color="#808080" stop-opacity="0.12"/>
<stop offset="1" stop-color="#808080" stop-opacity="0.1"/>
</linearGradient>
<clipPath id="clip0">
<rect width="100" height="70.4348" fill="white" transform="translate(0.5)"/>
</clipPath>
</defs>
</svg>
