<svg width="201" height="154" viewBox="0 0 201 154" fill="none" xmlns="http://www.w3.org/2000/svg">
<path d="M160.324 140.226H173.065V140.124H160.324V140.226Z" fill="#ECECEC"/>
<path d="M124.066 141.324H127.411V141.222H124.066V141.324Z" fill="#ECECEC"/>
<path d="M152.555 136.468H159.937V136.366H152.555V136.468Z" fill="#ECECEC"/>
<path d="M20.1797 137.148H36.7952V137.046H20.1797V137.148Z" fill="#ECECEC"/>
<path d="M40.2188 137.148H42.6549V137.046H40.2188V137.148Z" fill="#ECECEC"/>
<path d="M50.5742 138.859H86.6087V138.757H50.5742V138.859Z" fill="#ECECEC"/>
<path d="M17.4262 0.101136C16.2683 0.101136 15.3266 1.09177 15.3266 2.30982V112.149C15.3266 113.367 16.2683 114.358 17.4262 114.358H91.7058C92.8629 114.358 93.805 113.367 93.805 112.149V2.30982C93.805 1.09177 92.8629 0.101136 91.7058 0.101136H17.4262ZM91.7058 114.459H17.4262C16.2156 114.459 15.2305 113.423 15.2305 112.149V2.30982C15.2305 1.03633 16.2156 -3.09662e-05 17.4262 -3.09662e-05H91.7058C92.916 -3.09662e-05 93.9012 1.03633 93.9012 2.30982V112.149C93.9012 113.423 92.916 114.459 91.7058 114.459" fill="#ECECEC"/>
<path d="M100.629 0.101136C99.4714 0.101136 98.5298 1.09177 98.5298 2.30982V112.149C98.5298 113.367 99.4714 114.358 100.629 114.358H174.908C176.066 114.358 177.008 113.367 177.008 112.149V2.30982C177.008 1.09177 176.066 0.101136 174.908 0.101136H100.629ZM174.908 114.459H100.629C99.4187 114.459 98.4336 113.423 98.4336 112.149V2.30982C98.4336 1.03633 99.4187 -3.09662e-05 100.629 -3.09662e-05H174.908C176.119 -3.09662e-05 177.104 1.03633 177.104 2.30982V112.149C177.104 113.423 176.119 114.459 174.908 114.459" fill="#ECECEC"/>
<path d="M192.336 132.608H0V132.506H192.336V132.608Z" fill="#ECECEC"/>
<path d="M34.9567 81.817C32.5475 81.0335 30.9615 80.518 29.0778 79.9053C28.6481 79.7657 28.7624 79.0952 29.2113 79.1202C31.4085 79.2421 33.2072 79.3424 35.9865 79.4982C34.3863 76.57 33.4415 74.7434 32.3637 72.4513C32.1659 72.0309 32.6953 71.6553 32.9914 72.0058C34.4378 73.7167 35.648 75.108 37.5875 77.2972C38.0506 74.4633 38.5865 71.8552 39.2577 69.233C39.3789 68.7607 40.0486 68.8838 40.0075 69.371C39.8282 71.4983 39.7628 73.6443 39.8117 75.7178C39.9021 75.7514 39.9059 75.753 39.9963 75.7866C41.6242 73.8341 43.3333 71.9572 45.1144 70.1585C45.4571 69.8125 45.9695 70.3094 45.6752 70.7019C43.9469 73.0069 42.3467 75.4187 40.8918 77.9249C43.2172 77.0026 45.5556 76.1071 47.9029 75.2403C48.341 75.0788 48.6218 75.7287 48.2179 75.9695C45.7833 77.421 43.3753 78.907 40.9711 80.4447C43.5076 81.2949 45.1621 81.8489 47.1662 82.5203C47.5947 82.6643 47.4766 83.3328 47.0277 83.3045C44.9736 83.1742 43.2679 83.0658 40.6614 82.9011C41.9197 84.4514 42.7944 85.5144 43.8119 86.7171C44.1088 87.0692 43.6876 87.579 43.3153 87.3188C42.0355 86.4253 40.9095 85.633 39.2708 84.4752C39.437 85.8527 39.5813 86.9178 39.7544 87.9639C39.8336 88.4422 39.1904 88.6308 39.0227 88.1788C38.5973 87.0335 38.208 85.8936 37.7137 84.3826C35.8634 93.696 36.3431 102.725 38.1322 111.983C37.2455 111.814 36.802 111.73 35.915 111.562C34.619 102.069 34.9544 93.5697 36.9547 84.2381C35.8434 85.4444 35.0267 86.3553 34.2478 87.2715C33.9393 87.6345 33.3973 87.2132 33.6362 86.7968C34.1589 85.8847 34.7275 84.9556 35.4864 83.7561C33.5069 84.213 32.1509 84.5286 30.6565 84.8823C30.2164 84.9867 29.9983 84.3421 30.4026 84.1309C31.7951 83.4016 33.0738 82.7534 34.9567 81.817Z" fill="#ECECEC"/>
<path d="M31.8314 85.0336C33.6574 84.015 34.9718 83.2817 36.3459 82.5153C36.8783 82.2183 36.569 81.366 35.9835 81.5174C34.2686 81.9597 32.6734 82.3721 30.4085 82.9572C31.3167 80.2034 31.891 78.3513 32.4507 76.3121C32.6169 75.708 31.8294 75.347 31.5206 75.8856C30.6039 77.4837 29.7311 78.9631 28.4451 81.1095C27.6654 78.9174 26.8649 76.8815 25.9874 74.882C25.7274 74.2884 24.8777 74.6109 25.0315 75.2442C25.4158 76.8297 25.7343 78.4261 25.9797 79.9946C25.897 80.0452 25.8932 80.0472 25.8109 80.0982C24.3511 78.8996 22.8547 77.7511 21.3248 76.6545C20.7982 76.2769 20.2193 77.0409 20.6894 77.4934C22.3008 79.0437 23.8437 80.6724 25.31 82.3749C23.3347 82.0119 21.3537 81.6683 19.3696 81.3438C18.7545 81.243 18.539 82.1693 19.1276 82.3834C21.3175 83.1802 23.4963 84.0053 25.6793 84.866C23.7337 85.974 22.3504 86.7619 20.8763 87.6008C20.347 87.9023 20.6613 88.7516 21.2452 88.5959C22.8293 88.1738 24.3249 87.7756 26.4194 87.218C25.6697 88.5991 25.0965 89.6427 24.5076 90.6908C24.2033 91.2323 24.8792 91.7887 25.3062 91.3484C26.1398 90.4893 26.9684 89.6306 28.0647 88.4919C28.1128 89.3113 28.1489 90.0223 28.1735 90.686C28.1974 91.3322 29.0875 91.3905 29.1891 90.7523C29.316 89.9543 29.4395 89.1029 29.5784 88.0949C33.0481 96.8818 34.179 105.846 34.0636 115.292C34.9053 114.953 35.3257 114.783 36.167 114.443C35.7566 104.863 33.9186 96.5787 30.2985 87.8043C31.0955 88.3947 31.7652 88.8981 32.3772 89.3712C32.8788 89.7589 33.4808 89.0467 33.0539 88.57C32.638 88.1054 32.1822 87.6085 31.6552 87.0427C33.1977 87.0881 34.371 87.1245 35.5188 87.1633C36.1243 87.1836 36.2551 86.2751 35.6708 86.1063C34.5383 85.779 33.3735 85.4544 31.8314 85.0336Z" fill="#F0F0F0"/>
<path d="M39.804 90.1354C38.4391 89.3743 37.4659 88.8312 36.4365 88.257C36.0596 88.0469 36.2777 87.4436 36.6924 87.5504C37.9748 87.8814 39.1527 88.1857 40.8414 88.622C40.1667 86.5776 39.7451 85.2151 39.33 83.6955C39.2127 83.2674 39.7697 83.0116 39.9882 83.3933C40.6722 84.5866 41.3153 85.6776 42.2724 87.2752C42.8552 85.6371 43.4533 84.1188 44.1119 82.6256C44.2969 82.2064 44.8993 82.4354 44.7893 82.883C44.4943 84.0852 44.2511 85.2976 44.0657 86.4869C44.1188 86.5193 44.1211 86.5209 44.1738 86.5533C45.2821 85.6424 46.4199 84.7711 47.5839 83.9408C47.9571 83.6745 48.3633 84.2204 48.0298 84.5397C46.8177 85.6995 45.6583 86.9199 44.5577 88.1975C46.0368 87.9255 47.5201 87.6686 49.0049 87.4266C49.44 87.3558 49.5942 88.0117 49.178 88.1627C47.5436 88.7563 45.9175 89.371 44.2885 90.0132C45.7406 90.84 46.7627 91.4223 47.8659 92.0499C48.241 92.264 48.0179 92.8649 47.6047 92.7549C46.4188 92.4388 45.3128 92.1442 43.7492 91.7282C44.3131 92.767 44.7401 93.544 45.184 94.3331C45.3998 94.7167 44.922 95.1116 44.6193 94.7996C43.9919 94.153 43.3745 93.5136 42.5497 92.6565C42.512 93.2991 42.4844 93.8507 42.4663 94.3658C42.4505 94.8235 41.8204 94.8664 41.7477 94.4152C41.6488 93.8013 41.5538 93.1486 41.4465 92.3676C38.9169 98.7727 38.0926 105.307 38.1764 112.194C37.5633 111.946 37.2563 111.822 36.6431 111.575C36.9428 104.591 38.2822 98.5521 40.9214 92.1551C40.2986 92.6165 39.7828 93.0049 39.3108 93.3712C38.9565 93.6459 38.5303 93.1425 38.8315 92.8046C39.1566 92.4396 39.5139 92.0495 39.9324 91.5999C38.7673 91.6343 37.891 91.6614 37.0251 91.691C36.5962 91.7055 36.5039 91.0629 36.9178 90.9431C37.771 90.6955 38.6399 90.4531 39.804 90.1354Z" fill="#F5F5F5"/>
<path d="M30.309 132.44H41.7807C42.5827 132.44 43.2463 131.784 43.2955 130.941L44.5115 110.127C44.5653 109.208 27.5244 109.208 27.5783 110.127L28.7942 130.941C28.8434 131.784 29.507 132.44 30.309 132.44Z" fill="#407BFF"/>
<path d="M29.6118 84.3451C29.3087 84.0813 29.1533 83.6738 29.199 83.2626L29.4571 80.956L28.8686 82.0288C28.5205 82.6637 27.7223 82.8345 27.166 82.393L26.0155 81.4793L27.0672 83.2651C27.368 83.7766 27.2703 84.4418 26.836 84.8336L25.4766 86.0593L26.8094 85.7396C27.3934 85.5996 27.9827 85.9504 28.1693 86.5489L28.6278 88.0223L28.9213 86.4551C29.0532 85.7509 29.7318 85.3179 30.3861 85.5203L31.2816 85.7979L29.6118 84.3451Z" fill="#E7E7E7"/>
<path d="M37.2624 80.371C37.4839 80.1784 37.5974 79.8809 37.564 79.5807L37.3755 77.8956L37.8051 78.6791C38.0594 79.1432 38.6426 79.2675 39.0488 78.9454L39.8893 78.2781L39.1211 79.5827C38.9011 79.9558 38.9726 80.4422 39.29 80.7279L40.2828 81.6234L39.3092 81.39C38.8826 81.2876 38.4522 81.5433 38.316 81.9812L37.9809 83.0572L37.7667 81.9124C37.6705 81.398 37.1751 81.082 36.6969 81.2297L36.043 81.432L37.2624 80.371Z" fill="#F5F5F5"/>
<path d="M41.797 90.0279C41.9563 89.8895 42.0374 89.6762 42.0132 89.4605L41.8782 88.2514L42.1867 88.8139C42.369 89.1465 42.7875 89.236 43.0791 89.0049L43.6819 88.5258L43.1307 89.4622C42.9729 89.7301 43.0245 90.0789 43.2518 90.284L43.9646 90.9267L43.2657 90.7587C42.9599 90.6855 42.651 90.8692 42.5533 91.1828L42.3128 91.9553L42.159 91.1334C42.0897 90.7644 41.7343 90.5378 41.3912 90.6438L40.9219 90.7891L41.797 90.0279Z" fill="#E7E7E7"/>
<path d="M147.956 35.7877H137.89C137.61 35.7877 137.383 35.5489 137.383 35.2539V33.1933C137.383 32.8983 137.61 32.6596 137.89 32.6596H147.956C148.237 32.6596 148.464 32.8983 148.464 33.1933V35.2539C148.464 35.5489 148.237 35.7877 147.956 35.7877Z" fill="#F5F5F5"/>
<path d="M144.574 39.6632H134.508C134.227 39.6632 134 39.424 134 39.1295V37.0685C134 36.7739 134.227 36.5351 134.508 36.5351H144.574C144.854 36.5351 145.081 36.7739 145.081 37.0685V39.1295C145.081 39.424 144.854 39.6632 144.574 39.6632Z" fill="#F5F5F5"/>
<path d="M156.172 39.6632H146.105C145.825 39.6632 145.598 39.424 145.598 39.1295V37.0685C145.598 36.7739 145.825 36.5351 146.105 36.5351H156.172C156.452 36.5351 156.679 36.7739 156.679 37.0685V39.1295C156.679 39.424 156.452 39.6632 156.172 39.6632Z" fill="#F0F0F0"/>
<path d="M161.552 11.0767H150.812C150.532 11.0767 150.305 10.838 150.305 10.543V8.2922C150.305 7.9976 150.532 7.75844 150.812 7.75844H161.552C161.833 7.75844 162.059 7.9976 162.059 8.2922V10.543C162.059 10.838 161.833 11.0767 161.552 11.0767Z" fill="#F5F5F5"/>
<path d="M161.552 19.3107H150.812C150.532 19.3107 150.305 19.0719 150.305 18.7769V16.5261C150.305 16.2311 150.532 15.9924 150.812 15.9924H161.552C161.833 15.9924 162.059 16.2311 162.059 16.5261V18.7769C162.059 19.0719 161.833 19.3107 161.552 19.3107Z" fill="#F5F5F5"/>
<path d="M157.962 15.1901H147.222C146.942 15.1901 146.715 14.9509 146.715 14.6563V12.4055C146.715 12.1105 146.942 11.8718 147.222 11.8718H157.962C158.243 11.8718 158.47 12.1105 158.47 12.4055V14.6563C158.47 14.9509 158.243 15.1901 157.962 15.1901Z" fill="#F5F5F5"/>
<path d="M170.267 15.1901H159.527C159.247 15.1901 159.02 14.9509 159.02 14.6563V12.4055C159.02 12.1105 159.247 11.8718 159.527 11.8718H170.267C170.547 11.8718 170.774 12.1105 170.774 12.4055V14.6563C170.774 14.9509 170.547 15.1901 170.267 15.1901Z" fill="#F0F0F0"/>
<path d="M84.2188 108.549H158.093V106.315H84.2188V108.549Z" fill="#F5F5F5"/>
<path d="M157.539 108.549H174.086V106.315H157.539V108.549Z" fill="#ECECEC"/>
<path d="M91.8948 113.983V108.551H88.4531L91.8948 113.983Z" fill="#E1E1E1"/>
<path d="M90.176 113.983L86.7344 108.552H88.455L91.897 113.983H90.176Z" fill="#FAFAFA"/>
<path d="M171.395 113.983V108.552H167.953L171.395 113.983Z" fill="#E1E1E1"/>
<path d="M169.672 113.983L166.23 108.551H167.951L171.393 113.983H169.672Z" fill="#FAFAFA"/>
<path d="M162.267 106.624H164.212C165.088 106.624 165.789 105.86 165.76 104.94L165.512 97.2268H160.967L160.72 104.94C160.69 105.86 161.392 106.624 162.267 106.624Z" fill="#F0F0F0"/>
<path d="M146.645 98.5282C146.645 101.036 148.577 103.069 150.961 103.069C153.344 103.069 155.277 101.036 155.277 98.5282C155.277 96.0209 153.344 93.9875 150.961 93.9875C148.577 93.9875 146.645 96.0209 146.645 98.5282Z" fill="#F0F0F0"/>
<path d="M150.659 106.553H151.262V103.544H150.961C148.332 103.544 146.193 101.294 146.193 98.5283C146.193 95.7624 148.332 93.512 150.961 93.512V92.8779C147.999 92.8779 145.59 95.4128 145.59 98.5283C145.59 101.537 147.837 104.005 150.659 104.17V106.553Z" fill="#ECECEC"/>
<path d="M148.426 106.624H153.558C153.558 105.955 153.043 105.413 152.408 105.413H149.577C148.941 105.413 148.426 105.955 148.426 106.624Z" fill="#ECECEC"/>
<path d="M162.555 106.624L158.5 102.358L154.445 106.624H162.555Z" fill="#F5F5F5"/>
<path d="M158.5 102.358L162.555 106.624H158.5V102.358Z" fill="#E7E7E7"/>
<path d="M130.234 101.042C130.254 101.446 130.266 101.769 130.266 101.984C130.266 103.846 129.47 105.506 128.22 106.624H121.093C119.843 105.506 119.047 103.846 119.047 101.984C119.047 101.769 119.058 101.446 119.079 101.042H130.234Z" fill="#F5F5F5"/>
<path d="M134.664 104.837C134.688 104.682 134.704 104.525 134.704 104.363C134.704 104.146 134.699 103.703 134.691 103.141C134.835 103.073 134.99 103.034 135.136 103.034C135.766 103.034 135.815 103.727 135.815 103.939C135.815 104.44 135.246 104.845 134.774 104.845C134.736 104.845 134.699 104.842 134.664 104.837ZM129.238 104.363C129.238 105.27 129.626 106.079 130.235 106.624H133.707C134.102 106.272 134.401 105.807 134.564 105.278C134.632 105.291 134.701 105.3 134.774 105.3C135.47 105.3 136.249 104.718 136.249 103.939C136.249 103.125 135.802 102.578 135.136 102.578C134.985 102.578 134.832 102.606 134.683 102.657C134.683 102.639 134.683 102.622 134.683 102.604C134.676 102.214 134.373 101.899 134.002 101.899H129.941C129.569 101.899 129.266 102.214 129.26 102.604C129.247 103.418 129.238 104.081 129.238 104.363" fill="#ECECEC"/>
<path d="M97.1057 106.624L97.6742 99.7891H89.4357L88.8672 106.624H97.1057Z" fill="#F0F0F0"/>
<path d="M97.1055 106.624L97.674 99.7891H98.1175L97.549 106.624H97.1055Z" fill="#E1E1E1"/>
<path d="M96.3243 105.925L96.7766 100.485H90.218L89.7656 105.925H96.3243Z" fill="#FAFAFA"/>
<path d="M95.8187 105.479L96.1969 100.935H90.718L90.3398 105.479H95.8187Z" fill="#ECECEC"/>
<path d="M106.393 106.624H98.1172L99.0358 95.5822H107.312L106.393 106.624Z" fill="#F0F0F0"/>
<path d="M106.395 106.624H106.79L107.708 95.5822H107.313L106.395 106.624Z" fill="#E1E1E1"/>
<path d="M105.643 105.495H99.0547L99.7856 96.7049H106.374L105.643 105.495Z" fill="#E1E1E1"/>
<path d="M105.16 104.773H99.6562L100.267 97.4299H105.771L105.16 104.773Z" fill="#FAFAFA"/>
<path d="M101.194 101.411L101.736 101.981C102.213 102.484 102.987 102.484 103.464 101.981L104.006 101.411C104.483 100.909 104.483 100.095 104.006 99.5934L103.464 99.0228C102.987 98.5206 102.213 98.5206 101.736 99.0228L101.194 99.5934C100.717 100.095 100.717 100.909 101.194 101.411Z" fill="#ECECEC"/>
<path d="M100.92 103.524L101.189 103.806C101.665 104.308 102.439 104.308 102.916 103.806L103.185 103.524C103.662 103.022 103.662 102.208 103.185 101.706L102.916 101.424C102.439 100.922 101.665 100.922 101.189 101.424L100.92 101.706C100.443 102.208 100.443 103.022 100.92 103.524Z" fill="#E7E7E7"/>
<path d="M26.691 24.2293H38.4473C38.7273 24.2293 38.9547 24.4681 38.9547 24.7631V27.3008C38.9547 27.5954 38.7273 27.8345 38.4473 27.8345H26.691C26.4105 27.8345 26.1836 27.5954 26.1836 27.3008V24.7631C26.1836 24.4681 26.4105 24.2293 26.691 24.2293Z" fill="#F5F5F5"/>
<path d="M32.6558 19.7606H44.4121C44.6922 19.7606 44.9191 19.9993 44.9191 20.2943V22.832C44.9191 23.1266 44.6922 23.3658 44.4121 23.3658H32.6558C32.3754 23.3658 32.1484 23.1266 32.1484 22.832V20.2943C32.1484 19.9993 32.3754 19.7606 32.6558 19.7606Z" fill="#F5F5F5"/>
<path d="M19.2886 19.7606H31.045C31.325 19.7606 31.552 19.9993 31.552 20.2943V22.832C31.552 23.1266 31.325 23.3658 31.045 23.3658H19.2886C19.0082 23.3658 18.7812 23.1266 18.7812 22.832V20.2943C18.7812 19.9993 19.0082 19.7606 19.2886 19.7606Z" fill="#F0F0F0"/>
<path d="M24.7483 94.5005C20.7196 85.2838 18.2335 75.1982 18.5274 64.9557C18.8755 52.812 22.2879 40.6731 28.85 30.9574C35.4125 21.2413 45.2032 14.1006 55.9809 12.0894C66.759 10.0782 78.403 13.4535 86.4565 21.6667C94.1692 29.5326 104.678 34.6209 115.093 33.4797C122.905 32.6239 130.283 28.9301 136.528 23.582C144.101 17.0967 154.657 16.6799 162.269 23.1085C164.426 24.9307 166.339 27.1398 167.9 29.6807C173.512 38.8117 174.85 50.6134 173.139 61.5075C171.428 72.402 166.909 82.5195 161.61 91.8787C138.693 134.839 52.0869 157.052 24.7483 94.5005Z" fill="#407BFF"/>
<g opacity="0.899994">
<g opacity="0.899994">
<path opacity="0.899994" d="M24.7483 94.5005C20.7196 85.2838 18.2335 75.1982 18.5274 64.9557C18.8755 52.812 22.2879 40.6731 28.85 30.9574C35.4125 21.2413 45.2032 14.1006 55.9809 12.0894C66.759 10.0782 78.403 13.4535 86.4565 21.6667C94.1692 29.5326 104.678 34.6209 115.093 33.4797C122.905 32.6239 130.283 28.9301 136.528 23.582C144.101 17.0967 154.657 16.6799 162.269 23.1085C164.426 24.9307 166.339 27.1398 167.9 29.6807C173.512 38.8117 174.85 50.6134 173.139 61.5075C171.428 72.402 166.909 82.5195 161.61 91.8787C138.693 134.839 52.0869 157.052 24.7483 94.5005Z" fill="white"/>
</g>
</g>
<path d="M170.753 145.749C170.753 148.28 137.361 150.331 96.1695 150.331C54.9781 150.331 21.5859 148.28 21.5859 145.749C21.5859 143.219 54.9781 141.167 96.1695 141.167C137.361 141.167 170.753 143.219 170.753 145.749Z" fill="#F5F5F5"/>
<path d="M155.414 113.855H128.118C123.317 113.855 119.426 109.761 119.426 104.712V26.7755C119.426 21.7259 123.317 17.6324 128.118 17.6324H155.414C160.215 17.6324 164.106 21.7259 164.106 26.7755V104.712C164.106 109.761 160.215 113.855 155.414 113.855Z" fill="#407BFF"/>
<g opacity="0.300003">
<g opacity="0.300003">
<path opacity="0.300003" d="M155.511 17.6318H128.02C123.273 17.6318 119.426 21.6796 119.426 26.6728V104.814C119.426 109.806 123.273 113.854 128.02 113.854H155.511C160.258 113.854 164.106 109.806 164.106 104.814V26.6728C164.106 21.6796 160.258 17.6318 155.511 17.6318Z" fill="black"/>
</g>
</g>
<path d="M164.106 22.3546V41.4369H119.426V22.3546C119.426 19.7488 121.435 17.6348 123.915 17.6348H159.617C162.096 17.6348 164.106 19.7488 164.106 22.3546Z" fill="#407BFF"/>
<path d="M131.308 27.907C131.308 27.3695 130.966 27.0584 130.304 27.0584H129.422V28.7556H130.304C130.966 28.7556 131.308 28.444 131.308 27.907ZM132.068 27.907C132.068 28.8469 131.406 29.4266 130.339 29.4266H129.422V30.6595H128.668V26.3869H130.339C131.406 26.3869 132.068 26.9607 132.068 27.907Z" fill="white"/>
<path d="M134.516 27.3643V28.0907C134.452 28.0785 134.4 28.0721 134.348 28.0721C133.796 28.0721 133.448 28.4142 133.448 29.0798V30.6602H132.723V27.4011H133.413V27.8767C133.622 27.5351 134 27.3643 134.516 27.3643Z" fill="white"/>
<path d="M135.567 28.7677H137.325C137.267 28.2975 136.925 27.974 136.449 27.974C135.979 27.974 135.637 28.2916 135.567 28.7677ZM138.004 29.2742H135.573C135.66 29.7503 136.037 30.0556 136.577 30.0556C136.925 30.0556 137.198 29.9398 137.418 29.7012L137.807 30.1714C137.528 30.5194 137.093 30.7025 136.559 30.7025C135.52 30.7025 134.848 30.0006 134.848 29.0303C134.848 28.0594 135.527 27.3639 136.449 27.3639C137.354 27.3639 138.016 28.029 138.016 29.0484C138.016 29.1093 138.01 29.2011 138.004 29.2742" fill="white"/>
<path d="M143.892 28.7927V30.6603H143.167V28.8904C143.167 28.3108 142.911 28.0295 142.471 28.0295C141.995 28.0295 141.664 28.3593 141.664 29.0063V30.6603H140.939V28.8904C140.939 28.3108 140.684 28.0295 140.243 28.0295C139.761 28.0295 139.436 28.3593 139.436 29.0063V30.6603H138.711V27.4013H139.401V27.816C139.633 27.523 139.993 27.3644 140.417 27.3644C140.869 27.3644 141.246 27.5411 141.461 27.9078C141.711 27.5721 142.129 27.3644 142.621 27.3644C143.37 27.3644 143.892 27.8101 143.892 28.7927Z" fill="white"/>
<path d="M144.822 27.4H145.547V30.6595H144.822V27.4ZM144.723 26.4046C144.723 26.1484 144.92 25.9471 145.187 25.9471C145.454 25.9471 145.651 26.1361 145.651 26.3864C145.651 26.6549 145.46 26.8625 145.187 26.8625C144.92 26.8625 144.723 26.6613 144.723 26.4046Z" fill="white"/>
<path d="M149.499 27.4002V30.6598H148.809V30.2446C148.577 30.5435 148.211 30.7025 147.811 30.7025C147.016 30.7025 146.477 30.2446 146.477 29.2619V27.4002H147.202V29.1584C147.202 29.7503 147.468 30.0311 147.927 30.0311C148.432 30.0311 148.774 29.7012 148.774 29.0479V27.4002H149.499Z" fill="white"/>
<path d="M155.63 28.7927V30.6603H154.905V28.8904C154.905 28.3108 154.65 28.0295 154.209 28.0295C153.733 28.0295 153.403 28.3593 153.403 29.0063V30.6603H152.677V28.8904C152.677 28.3108 152.422 28.0295 151.981 28.0295C151.499 28.0295 151.174 28.3593 151.174 29.0063V30.6603H150.449V27.4013H151.14V27.816C151.372 27.523 151.731 27.3644 152.155 27.3644C152.608 27.3644 152.985 27.5411 153.2 27.9078C153.449 27.5721 153.867 27.3644 154.36 27.3644C155.108 27.3644 155.63 27.8101 155.63 28.7927Z" fill="white"/>
<path d="M151.093 108.745H132.44C129.904 108.745 127.848 106.582 127.848 103.913V103.547C127.848 100.879 129.904 98.7157 132.44 98.7157H151.093C153.629 98.7157 155.685 100.879 155.685 103.547V103.913C155.685 106.582 153.629 108.745 151.093 108.745Z" fill="#407BFF"/>
<path d="M133.49 104.677C133.49 104.479 133.34 104.355 133.112 104.265L132.936 105.204C133.288 105.129 133.49 104.937 133.49 104.677ZM132.682 103.086L132.871 102.099C132.499 102.174 132.291 102.387 132.284 102.647C132.284 102.86 132.447 102.983 132.682 103.086V103.086ZM134.546 104.499C134.546 105.411 133.849 106.021 132.76 106.117L132.617 106.871H131.965L132.108 106.117C131.489 106.055 130.942 105.85 130.609 105.589L131.046 104.739C131.391 105.006 131.828 105.177 132.278 105.226L132.499 104.067C131.893 103.875 131.228 103.622 131.228 102.791C131.228 101.88 131.939 101.263 133.047 101.18L133.19 100.426H133.842L133.699 101.187C134.161 101.235 134.585 101.373 134.898 101.578L134.501 102.428C134.22 102.23 133.881 102.112 133.529 102.071L133.301 103.278C133.901 103.463 134.546 103.71 134.546 104.499Z" fill="white"/>
<path d="M152.818 79.183H129.754V78.2013H152.818V79.183Z" fill="#407BFF"/>
<path d="M152.818 63.0619H129.754V62.0802H152.818V63.0619Z" fill="#407BFF"/>
<path d="M152.818 47.5275H129.754V46.5458H152.818V47.5275Z" fill="#407BFF"/>
<path d="M145.112 54.7643C145.112 57.0947 143.316 58.9839 141.1 58.9839C138.885 58.9839 137.09 57.0947 137.09 54.7643C137.09 52.4338 138.885 50.5446 141.1 50.5446C143.316 50.5446 145.112 52.4338 145.112 54.7643Z" fill="#407BFF"/>
<path d="M143.97 53.852L141.662 56.2796L140.586 57.4135L139.508 56.2796L140.584 55.1478L142.891 52.7182L143.97 53.852Z" fill="white"/>
<path d="M141.663 56.2787L140.587 57.413L138.301 55.0079L139.377 53.8756L140.585 55.1468L141.663 56.2787Z" fill="white"/>
<path d="M145.112 70.3423C145.112 72.6727 143.316 74.5619 141.1 74.5619C138.885 74.5619 137.09 72.6727 137.09 70.3423C137.09 68.0118 138.885 66.1226 141.1 66.1226C143.316 66.1226 145.112 68.0118 145.112 70.3423Z" fill="#407BFF"/>
<path d="M143.97 69.4262L141.662 71.8534L140.586 72.9877L139.508 71.8534L140.584 70.7215L142.891 68.2919L143.97 69.4262Z" fill="white"/>
<path d="M141.663 71.8534L140.587 72.9877L138.301 70.5826L139.377 69.4508L140.585 70.7215L141.663 71.8534Z" fill="white"/>
<path d="M145.112 87.0411C145.112 89.3716 143.316 91.2607 141.1 91.2607C138.885 91.2607 137.09 89.3716 137.09 87.0411C137.09 84.7107 138.885 82.8215 141.1 82.8215C143.316 82.8215 145.112 84.7107 145.112 87.0411Z" fill="#407BFF"/>
<path d="M143.97 86.1294L141.662 88.557L140.586 89.6908L139.508 88.557L140.584 87.4247L142.891 84.9951L143.97 86.1294Z" fill="white"/>
<path d="M141.663 88.557L140.587 89.6908L138.301 87.2862L139.377 86.1539L140.585 87.4247L141.663 88.557Z" fill="white"/>
<path d="M135.839 34.6772L136.59 35.9401L137.963 36.3008L137.054 37.442L137.152 38.9282L135.839 38.3702L134.526 38.9282L134.625 37.442L133.715 36.3008L135.088 35.9401L135.839 34.6772Z" fill="white"/>
<path d="M141.101 34.6772L141.852 35.9401L143.225 36.3008L142.315 37.442L142.414 38.9282L141.101 38.3702L139.788 38.9282L139.886 37.442L138.977 36.3008L140.35 35.9401L141.101 34.6772Z" fill="white"/>
<path d="M146.363 34.678L147.113 35.9409L148.487 36.3017L147.577 37.4429L147.676 38.9291L146.363 38.371L145.05 38.9291L145.148 37.4429L144.238 36.3017L145.612 35.9409L146.363 34.678Z" fill="white"/>
<path d="M102.922 108.377H75.6253C70.8248 108.377 66.9336 104.283 66.9336 99.2337V21.2974C66.9336 16.2478 70.8248 12.1543 75.6253 12.1543H102.922C107.722 12.1543 111.613 16.2478 111.613 21.2974V99.2337C111.613 104.283 107.722 108.377 102.922 108.377Z" fill="#407BFF"/>
<g opacity="0.5">
<g opacity="0.5">
<path opacity="0.5" d="M102.631 12.1554H75.9142C70.9545 12.1554 66.9336 16.3853 66.9336 21.6028V98.9275C66.9336 104.146 70.9554 108.377 75.9165 108.377H102.631C107.592 108.377 111.614 104.146 111.614 98.9275V21.6053C111.614 16.3863 107.592 12.1554 102.631 12.1554Z" fill="white"/>
</g>
</g>
<path d="M111.614 16.8736V35.9554H66.9336V16.8736C66.9336 14.2678 68.9431 12.1538 71.4225 12.1538H107.125C109.604 12.1538 111.614 14.2678 111.614 16.8736Z" fill="#407BFF"/>
<path d="M76.1445 24.7316L76.4058 24.1151C76.7305 24.39 77.247 24.5853 77.7463 24.5853C78.3785 24.5853 78.6454 24.3473 78.6454 24.0297C78.6454 23.1079 76.2318 23.7121 76.2318 22.1253C76.2318 21.4357 76.7539 20.8497 77.868 20.8497C78.3551 20.8497 78.866 20.9841 79.2197 21.2281L78.9822 21.8446C78.6164 21.6188 78.2161 21.5088 77.862 21.5088C77.2354 21.5088 76.9802 21.7655 76.9802 22.0885C76.9802 22.998 79.3881 22.4061 79.3881 23.9747C79.3881 24.6585 78.86 25.2445 77.7463 25.2445C77.1136 25.2445 76.4814 25.0369 76.1445 24.7316Z" fill="white"/>
<path d="M81.9308 25.0055C81.7568 25.1523 81.4955 25.2254 81.2347 25.2254C80.5558 25.2254 80.1667 24.847 80.1667 24.1264V22.5578H79.6562V21.9477H80.1667V21.2026H80.8922V21.9477H81.7218V22.5578H80.8922V24.1083C80.8922 24.4258 81.0429 24.5967 81.3214 24.5967C81.4726 24.5967 81.6177 24.554 81.7278 24.4627L81.9308 25.0055Z" fill="white"/>
<path d="M84.3974 24.1633V23.7849H83.6491C83.1559 23.7849 83.0224 23.9802 83.0224 24.2183C83.0224 24.4927 83.2427 24.6698 83.6141 24.6698C83.9682 24.6698 84.2757 24.499 84.3974 24.1633ZM85.1229 23.272V25.1828H84.438V24.7862C84.264 25.0664 83.9276 25.2255 83.4634 25.2255C82.7556 25.2255 82.3086 24.8166 82.3086 24.2487C82.3086 23.7054 82.6571 23.2784 83.5968 23.2784H84.3974V23.2293C84.3974 22.7836 84.1422 22.5215 83.6257 22.5215C83.2777 22.5215 82.9179 22.6432 82.686 22.8445L82.4014 22.2893C82.7322 22.0209 83.2137 21.8864 83.713 21.8864C84.6065 21.8864 85.1229 22.332 85.1229 23.272" fill="white"/>
<path d="M89.1031 23.315V25.1826H88.3776V23.4127C88.3776 22.833 88.1051 22.5518 87.6409 22.5518C87.1244 22.5518 86.7763 22.8816 86.7763 23.5344V25.1826H86.0508V21.9235H86.7413V22.3442C86.9793 22.0453 87.3567 21.8867 87.8093 21.8867C88.5516 21.8867 89.1031 22.3324 89.1031 23.315Z" fill="white"/>
<path d="M92.3767 23.553C92.3767 22.9301 91.9764 22.5335 91.4538 22.5335C90.9317 22.5335 90.5314 22.9301 90.5314 23.553C90.5314 24.1758 90.9317 24.5724 91.4538 24.5724C91.9764 24.5724 92.3767 24.1758 92.3767 23.553ZM93.0906 20.6537V25.1825H92.394V24.7614C92.1504 25.0731 91.7907 25.2252 91.3671 25.2252C90.468 25.2252 89.8008 24.566 89.8008 23.553C89.8008 22.5399 90.468 21.8866 91.3671 21.8866C91.7674 21.8866 92.1215 22.027 92.3651 22.3259V20.6537H93.0906Z" fill="white"/>
<path d="M95.9092 24.1633V23.7849H95.1608C94.6676 23.7849 94.5342 23.9802 94.5342 24.2183C94.5342 24.4927 94.7544 24.6698 95.1258 24.6698C95.4799 24.6698 95.7874 24.499 95.9092 24.1633ZM96.6347 23.272V25.1828H95.9497V24.7862C95.7757 25.0664 95.4393 25.2255 94.9751 25.2255C94.2673 25.2255 93.8203 24.8166 93.8203 24.2487C93.8203 23.7054 94.1688 23.2784 95.1085 23.2784H95.9092V23.2293C95.9092 22.7836 95.6539 22.5215 95.1374 22.5215C94.7894 22.5215 94.4297 22.6432 94.1978 22.8445L93.9132 22.2893C94.244 22.0209 94.7255 21.8864 95.2247 21.8864C96.1182 21.8864 96.6347 22.332 96.6347 23.272" fill="white"/>
<path d="M99.3555 21.8865V22.613C99.2916 22.6007 99.2394 22.5943 99.1876 22.5943C98.6361 22.5943 98.288 22.9364 98.288 23.602V25.1824H97.5625V21.9234H98.253V22.399C98.462 22.0573 98.8395 21.8865 99.3555 21.8865Z" fill="white"/>
<path d="M102.263 23.553C102.263 22.9301 101.863 22.5335 101.341 22.5335C100.818 22.5335 100.418 22.9301 100.418 23.553C100.418 24.1758 100.818 24.5724 101.341 24.5724C101.863 24.5724 102.263 24.1758 102.263 23.553ZM102.977 20.6537V25.1825H102.281V24.7614C102.037 25.0731 101.677 25.2252 101.254 25.2252C100.355 25.2252 99.6875 24.566 99.6875 23.553C99.6875 22.5399 100.355 21.8866 101.254 21.8866C101.654 21.8866 102.008 22.027 102.252 22.3259V20.6537H102.977Z" fill="white"/>
<path d="M98.9794 103.268H80.3268C77.7906 103.268 75.7344 101.105 75.7344 98.4363V98.0706C75.7344 95.4025 77.7906 93.2389 80.3268 93.2389H98.9794C101.516 93.2389 103.572 95.4025 103.572 98.0706V98.4363C103.572 101.105 101.516 103.268 98.9794 103.268Z" fill="#407BFF"/>
<path d="M100.705 73.7054H77.6406V72.7238H100.705V73.7054Z" fill="#407BFF"/>
<path d="M100.705 57.5844H77.6406V56.6027H100.705V57.5844Z" fill="#407BFF"/>
<path d="M100.705 42.0492H77.6406V41.0675H100.705V42.0492Z" fill="#407BFF"/>
<path d="M92.8343 64.8608C92.8343 67.1913 91.0384 69.0804 88.8231 69.0804C86.6083 69.0804 84.8125 67.1913 84.8125 64.8608C84.8125 62.5304 86.6083 60.6412 88.8231 60.6412C91.0384 60.6412 92.8343 62.5304 92.8343 64.8608Z" fill="#407BFF"/>
<path d="M91.6918 63.9487L89.3846 66.3763L88.3082 67.5101L87.2305 66.3763L88.3064 65.2445L90.614 62.8149L91.6918 63.9487Z" fill="white"/>
<path d="M89.3855 66.3758L88.3092 67.5101L86.0234 65.1051L87.0998 63.9728L88.3073 65.244L89.3855 66.3758Z" fill="white"/>
<path d="M93.1819 81.5633C93.1819 83.8938 91.3861 85.783 89.1708 85.783C86.9555 85.783 85.1602 83.8938 85.1602 81.5633C85.1602 79.2329 86.9555 77.3437 89.1708 77.3437C91.3861 77.3437 93.1819 79.2329 93.1819 81.5633Z" fill="#407BFF"/>
<path d="M92.0434 80.6518L89.7357 83.079L88.6598 84.2133L87.582 83.079L88.6579 81.9471L90.9651 79.5175L92.0434 80.6518Z" fill="white"/>
<path d="M89.7332 83.079L88.6568 84.2133L86.3711 81.8082L87.4475 80.6764L88.6554 81.9471L89.7332 83.079Z" fill="white"/>
<path d="M92.7917 49.3298C92.7917 51.6367 91.014 53.5062 88.8216 53.5062C86.6292 53.5062 84.8516 51.6367 84.8516 49.3298C84.8516 47.0234 86.6292 45.1534 88.8216 45.1534C91.014 45.1534 92.7917 47.0234 92.7917 49.3298Z" fill="#1A2E35"/>
<g opacity="0.5">
<g opacity="0.5">
<path opacity="0.5" d="M92.7917 49.3298C92.7917 51.6367 91.014 53.5062 88.8216 53.5062C86.6292 53.5062 84.8516 51.6367 84.8516 49.3298C84.8516 47.0234 86.6292 45.1534 88.8216 45.1534C91.014 45.1534 92.7917 47.0234 92.7917 49.3298Z" fill="white"/>
</g>
</g>
<path d="M91.0656 48.0906L87.6442 51.6898L86.5781 50.5683L89.9995 46.9691L91.0656 48.0906Z" fill="white"/>
<path d="M87.6442 46.9681L91.0656 50.5673L89.9995 51.6888L86.5781 48.0896L87.6442 46.9681Z" fill="white"/>
<path d="M107.152 17.4348V28.6384L109.399 26.2741V17.4348H107.152Z" fill="#407BFF"/>
<path d="M111.646 17.4348V28.6384L109.398 26.2741V17.4348H111.646Z" fill="#407BFF"/>
<g opacity="0.300003">
<g opacity="0.300003">
<path opacity="0.300003" d="M111.647 17.432V28.639L109.4 26.2703L107.148 28.639V17.432H111.647Z" fill="black"/>
</g>
</g>
<path d="M110.497 6.23643C110.82 6.87254 111.563 7.12678 112.179 6.81118C113.097 6.34245 114.14 7.14004 113.999 8.20267C113.905 8.91683 114.364 9.58189 115.039 9.70804C116.044 9.89553 116.442 11.1859 115.735 11.959C115.259 12.4783 115.259 13.3004 115.735 13.8197C116.442 14.5922 116.044 15.8831 115.039 16.0706C114.364 16.1968 113.905 16.8618 113.999 17.576C114.14 18.6391 113.097 19.4367 112.179 18.967C111.563 18.6519 110.82 18.9056 110.497 19.5422C110.017 20.489 108.728 20.489 108.248 19.5422C107.925 18.9056 107.182 18.6519 106.565 18.967C105.648 19.4367 104.605 18.6391 104.745 17.576C104.84 16.8618 104.381 16.1968 103.706 16.0706C102.701 15.8831 102.303 14.5922 103.01 13.8197C103.486 13.3004 103.486 12.4783 103.01 11.959C102.303 11.1859 102.701 9.89553 103.706 9.70804C104.381 9.58189 104.84 8.91683 104.745 8.20267C104.605 7.14004 105.648 6.34245 106.565 6.81118C107.182 7.12678 107.925 6.87254 108.248 6.23643C108.728 5.28962 110.017 5.28962 110.497 6.23643Z" fill="#407BFF"/>
<path d="M110.497 6.23643C110.82 6.87254 111.563 7.12678 112.179 6.81118C113.097 6.34245 114.14 7.14004 113.999 8.20267C113.905 8.91683 114.364 9.58189 115.039 9.70804C116.044 9.89553 116.442 11.1859 115.735 11.959C115.259 12.4783 115.259 13.3004 115.735 13.8197C116.442 14.5922 116.044 15.8831 115.039 16.0706C114.364 16.1968 113.905 16.8618 113.999 17.576C114.14 18.6391 113.097 19.4367 112.179 18.967C111.563 18.6519 110.82 18.9056 110.497 19.5422C110.017 20.489 108.728 20.489 108.248 19.5422C107.925 18.9056 107.182 18.6519 106.565 18.967C105.648 19.4367 104.605 18.6391 104.745 17.576C104.84 16.8618 104.381 16.1968 103.706 16.0706C102.701 15.8831 102.303 14.5922 103.01 13.8197C103.486 13.3004 103.486 12.4783 103.01 11.959C102.303 11.1859 102.701 9.89553 103.706 9.70804C104.381 9.58189 104.84 8.91683 104.745 8.20267C104.605 7.14004 105.648 6.34245 106.565 6.81118C107.182 7.12678 107.925 6.87254 108.248 6.23643C108.728 5.28962 110.017 5.28962 110.497 6.23643Z" fill="#407BFF"/>
<g opacity="0.5">
<g opacity="0.5">
<path opacity="0.5" d="M110.497 6.23643C110.82 6.87254 111.563 7.12678 112.179 6.81118C113.097 6.34245 114.14 7.14004 113.999 8.20267C113.905 8.91683 114.364 9.58189 115.039 9.70804C116.044 9.89553 116.442 11.1859 115.735 11.959C115.259 12.4783 115.259 13.3004 115.735 13.8197C116.442 14.5922 116.044 15.8831 115.039 16.0706C114.364 16.1968 113.905 16.8618 113.999 17.576C114.14 18.6391 113.097 19.4367 112.179 18.967C111.563 18.6519 110.82 18.9056 110.497 19.5422C110.017 20.489 108.728 20.489 108.248 19.5422C107.925 18.9056 107.182 18.6519 106.565 18.967C105.648 19.4367 104.605 18.6391 104.745 17.576C104.84 16.8618 104.381 16.1968 103.706 16.0706C102.701 15.8831 102.303 14.5922 103.01 13.8197C103.486 13.3004 103.486 12.4783 103.01 11.959C102.303 11.1859 102.701 9.89553 103.706 9.70804C104.381 9.58189 104.84 8.91683 104.745 8.20267C104.605 7.14004 105.648 6.34245 106.565 6.81118C107.182 7.12678 107.925 6.87254 108.248 6.23643C108.728 5.28962 110.017 5.28962 110.497 6.23643Z" fill="white"/>
</g>
</g>
<path d="M107.352 11.4848H106.774C106.501 11.4848 106.268 11.718 106.253 12.0051L106.114 14.8092C106.1 15.0963 106.31 15.3295 106.582 15.3295H107.16C107.433 15.3295 107.666 15.0963 107.68 14.8092L107.82 12.0051C107.834 11.718 107.624 11.4848 107.352 11.4848Z" fill="white"/>
<path d="M111.965 11.4858H110.61L110.987 10.5523C111.028 10.4507 111.043 10.3407 111.032 10.2342L110.952 9.49796C110.92 9.20347 110.683 8.98063 110.401 8.98063H109.725C109.689 9.72227 109.433 10.4335 108.994 11.0156L108.58 11.5663C108.471 11.7091 108.406 11.8868 108.397 12.0665L108.266 14.6894C108.249 15.0418 108.509 15.3304 108.845 15.3304H111.21C111.417 15.3304 111.619 15.2342 111.762 15.0669L111.983 14.8092C112.07 14.7071 112.13 14.5834 112.159 14.4499L112.61 12.334C112.652 12.1376 112.611 11.932 112.498 11.77C112.373 11.5913 112.175 11.4858 111.965 11.4858Z" fill="white"/>
<path d="M88.8235 28.638L89.5742 29.9009L90.9478 30.2616L90.038 31.4028L90.1364 32.889L88.8235 32.331L87.5106 32.889L87.609 31.4028L86.6992 30.2616L88.0733 29.9009L88.8235 28.638Z" fill="white"/>
<path d="M81.5178 99.2138C81.5178 99.0156 81.3676 98.8919 81.1394 98.8025L80.964 99.742C81.3153 99.6664 81.5178 99.4745 81.5178 99.2138ZM80.7097 97.6236L80.8982 96.636C80.5268 96.7111 80.3182 96.9237 80.3122 97.1843C80.3122 97.3973 80.475 97.5205 80.7097 97.6236ZM82.5736 99.0362C82.5736 99.9476 81.8766 100.558 80.7876 100.654L80.6444 101.408H79.9926L80.1358 100.654C79.5167 100.593 78.9694 100.387 78.6367 100.126L79.0734 99.2757C79.4187 99.5432 79.8554 99.7145 80.3052 99.7626L80.5268 98.6042C79.9212 98.4118 79.2559 98.1586 79.2559 97.3281C79.2559 96.4166 79.9664 95.7997 81.0746 95.7167L81.2178 94.9628H81.8696L81.7264 95.7246C82.1892 95.7717 82.6128 95.9096 82.9254 96.1153L82.5284 96.9649C82.2475 96.7666 81.9088 96.6493 81.5565 96.6085L81.3288 97.815C81.9284 98.0005 82.5736 98.2474 82.5736 99.0362Z" fill="white"/>
<path d="M47.0432 108.875H19.7464C14.9464 108.875 11.0547 104.781 11.0547 99.7315V21.7953C11.0547 16.7457 14.9464 12.6522 19.7464 12.6522H47.0432C51.8437 12.6522 55.7349 16.7457 55.7349 21.7953V99.7315C55.7349 104.781 51.8437 108.875 47.0432 108.875Z" fill="#1A2E35"/>
<g opacity="0.699997">
<g opacity="0.699997">
<path opacity="0.699997" d="M46.9083 12.6515H19.8808C15.0065 12.6515 11.0547 16.8088 11.0547 21.9365V99.589C11.0547 104.717 15.0065 108.874 19.8808 108.874H46.9083C51.7831 108.874 55.7345 104.717 55.7345 99.589V21.9365C55.7345 16.8088 51.7831 12.6515 46.9083 12.6515Z" fill="white"/>
</g>
</g>
<path d="M55.7349 17.3744V36.4567H11.0547V17.3744C11.0547 14.7686 13.0642 12.6546 15.5436 12.6546H51.246C53.7254 12.6546 55.7349 14.7686 55.7349 17.3744Z" fill="#407BFF"/>
<path d="M55.7349 17.3744V36.4567H11.0547V17.3744C11.0547 14.7686 13.0642 12.6546 15.5436 12.6546H51.246C53.7254 12.6546 55.7349 14.7686 55.7349 17.3744Z" fill="#407BFF"/>
<path d="M28.9622 24.4405C28.9622 24.013 28.6547 23.824 28.0859 23.824H26.8677V25.057H28.0859C28.6547 25.057 28.9622 24.868 28.9622 24.4405ZM26.8677 22.0295V23.2075H27.9352C28.4573 23.2075 28.7531 23.0122 28.7531 22.6215C28.7531 22.2249 28.4573 22.0295 27.9352 22.0295H26.8677ZM29.7222 24.52C29.7222 25.2523 29.1768 25.6793 28.1326 25.6793H26.1133V21.4067H28.0164C28.9911 21.4067 29.5137 21.8401 29.5137 22.5179C29.5137 22.9572 29.3046 23.2807 28.9911 23.4578C29.4264 23.6041 29.7222 23.9644 29.7222 24.52" fill="white"/>
<path d="M32.331 24.6601V24.2817H31.5826C31.0895 24.2817 30.956 24.4771 30.956 24.7151C30.956 24.9895 31.1763 25.1667 31.5477 25.1667C31.9018 25.1667 32.2093 24.9959 32.331 24.6601ZM33.0565 23.7688V25.6796H32.3716V25.283C32.1976 25.5633 31.8612 25.7223 31.397 25.7223C30.6892 25.7223 30.2422 25.3134 30.2422 24.7455C30.2422 24.2022 30.5907 23.7752 31.5304 23.7752H32.331V23.7261C32.331 23.2804 32.0758 23.0183 31.5593 23.0183C31.2113 23.0183 30.8515 23.1401 30.6196 23.3413L30.335 22.7862C30.6658 22.5177 31.1473 22.3832 31.6466 22.3832C32.54 22.3832 33.0565 22.8289 33.0565 23.7688" fill="white"/>
<path d="M33.6289 25.3566L33.9074 24.777C34.1799 24.9659 34.598 25.1004 34.9866 25.1004C35.4453 25.1004 35.6366 24.9659 35.6366 24.7401C35.6366 24.1178 33.7218 24.7033 33.7218 23.4036C33.7218 22.7872 34.2499 22.3842 35.0851 22.3842C35.4971 22.3842 35.9674 22.4877 36.2454 22.6649L35.9674 23.2446C35.6711 23.0615 35.3753 23.0007 35.0795 23.0007C34.6386 23.0007 34.4295 23.1533 34.4295 23.3668C34.4295 24.026 36.3443 23.4399 36.3443 24.7156C36.3443 25.3262 35.8106 25.7228 34.9404 25.7228C34.4239 25.7228 33.9074 25.5642 33.6289 25.3566Z" fill="white"/>
<path d="M36.9734 22.4197H37.699V25.6793H36.9734V22.4197ZM36.875 21.4244C36.875 21.1681 37.0719 20.9669 37.3392 20.9669C37.6061 20.9669 37.803 21.1559 37.803 21.4062C37.803 21.6747 37.6117 21.8823 37.3392 21.8823C37.0719 21.8823 36.875 21.6811 36.875 21.4244Z" fill="white"/>
<path d="M38.3945 24.05C38.3945 23.0733 39.0907 22.3837 40.0714 22.3837C40.6747 22.3837 41.1562 22.6463 41.3941 23.1405L40.837 23.4822C40.6513 23.171 40.3733 23.0306 40.0658 23.0306C39.532 23.0306 39.1256 23.4213 39.1256 24.05C39.1256 24.6847 39.532 25.0695 40.0658 25.0695C40.3733 25.0695 40.6513 24.9291 40.837 24.6174L41.3941 24.9595C41.1562 25.4479 40.6747 25.7223 40.0714 25.7223C39.0907 25.7223 38.3945 25.0268 38.3945 24.05Z" fill="white"/>
<path d="M36.6979 66.2412C36.6979 68.548 34.9203 70.4176 32.7279 70.4176C30.5354 70.4176 28.7578 68.548 28.7578 66.2412C28.7578 63.9348 30.5354 62.0647 32.7279 62.0647C34.9203 62.0647 36.6979 63.9348 36.6979 66.2412Z" fill="#1A2E35"/>
<g opacity="0.5">
<g opacity="0.5">
<path opacity="0.5" d="M36.6979 66.2412C36.6979 68.548 34.9203 70.4176 32.7279 70.4176C30.5354 70.4176 28.7578 68.548 28.7578 66.2412C28.7578 63.9348 30.5354 62.0647 32.7279 62.0647C34.9203 62.0647 36.6979 63.9348 36.6979 66.2412Z" fill="white"/>
</g>
</g>
<path d="M34.9719 65.002L31.5505 68.6012L30.4844 67.4797L33.9057 63.8804L34.9719 65.002Z" fill="white"/>
<path d="M31.5505 63.8804L34.9719 67.4797L33.9057 68.6012L30.4844 65.002L31.5505 63.8804Z" fill="white"/>
<path d="M36.928 81.675C36.928 84.0055 35.1322 85.8942 32.9169 85.8942C30.7016 85.8942 28.9062 84.0055 28.9062 81.675C28.9062 79.3446 30.7016 77.4554 32.9169 77.4554C35.1322 77.4554 36.928 79.3446 36.928 81.675Z" fill="#407BFF"/>
<path d="M35.786 80.7614L33.4784 83.1891L32.4025 84.3229L31.3242 83.1891L32.4006 82.0567L34.7078 79.6276L35.786 80.7614Z" fill="white"/>
<path d="M33.4793 83.19L32.4029 84.3239L30.1172 81.9193L31.1936 80.787L32.4015 82.0577L33.4793 83.19Z" fill="white"/>
<path d="M42.7216 103.765H24.069C21.5327 103.765 19.4766 101.601 19.4766 98.9328V98.5672C19.4766 95.899 21.5327 93.7355 24.069 93.7355H42.7216C45.2583 93.7355 47.3141 95.899 47.3141 98.5672V98.9328C47.3141 101.601 45.2583 103.765 42.7216 103.765Z" fill="#407BFF"/>
<path d="M24.4553 99.8794C24.4553 99.6811 24.3051 99.5574 24.0769 99.4681L23.9015 100.407C24.2528 100.332 24.4553 100.14 24.4553 99.8794ZM23.6472 98.2891L23.8357 97.3016C23.4643 97.3767 23.2562 97.5892 23.2497 97.8498C23.2497 98.0628 23.4125 98.186 23.6472 98.2891ZM25.5111 99.7017C25.5111 100.613 24.8141 101.223 23.7251 101.319L23.5819 102.074H22.9301L23.0738 101.319C22.4542 101.258 21.9069 101.052 21.5742 100.791L22.0109 99.9412C22.3562 100.209 22.7929 100.38 23.2427 100.428L23.4643 99.2693C22.8587 99.0774 22.1934 98.8241 22.1934 97.9936C22.1934 97.0822 22.9039 96.4652 24.0121 96.3822L24.1553 95.6283H24.8071L24.6639 96.3896C25.1267 96.4372 25.5503 96.5751 25.8629 96.7803L25.4659 97.6304C25.185 97.4321 24.8463 97.3148 24.494 97.2736L24.2663 98.4805C24.8659 98.6661 25.5111 98.9124 25.5111 99.7017Z" fill="white"/>
<path d="M44.4473 74.2028H21.3828V73.2211H44.4473V74.2028Z" fill="#407BFF"/>
<path d="M44.4473 58.0817H21.3828V57.1H44.4473V58.0817Z" fill="#407BFF"/>
<path d="M44.4473 42.5473H21.3828V41.5657H44.4473V42.5473Z" fill="#407BFF"/>
<path d="M36.6979 49.8271C36.6979 52.1335 34.9203 54.0035 32.7279 54.0035C30.5354 54.0035 28.7578 52.1335 28.7578 49.8271C28.7578 47.5202 30.5354 45.6507 32.7279 45.6507C34.9203 45.6507 36.6979 47.5202 36.6979 49.8271Z" fill="#1A2E35"/>
<g opacity="0.5">
<g opacity="0.5">
<path opacity="0.5" d="M36.6979 49.8271C36.6979 52.1335 34.9203 54.0035 32.7279 54.0035C30.5354 54.0035 28.7578 52.1335 28.7578 49.8271C28.7578 47.5202 30.5354 45.6507 32.7279 45.6507C34.9203 45.6507 36.6979 47.5202 36.6979 49.8271Z" fill="white"/>
</g>
</g>
<path d="M34.9719 48.5879L31.5505 52.1871L30.4844 51.0656L33.9057 47.4664L34.9719 48.5879Z" fill="white"/>
<path d="M31.5505 47.4664L34.9719 51.0656L33.9057 52.1871L30.4844 48.5879L31.5505 47.4664Z" fill="white"/>
<g opacity="0.100006">
<g opacity="0.100006">
<path opacity="0.100006" d="M156.914 136.165L157.756 133.502L159.242 133.883L161.037 134.637L160.075 137.132L156.914 136.165Z" fill="black"/>
</g>
</g>
<path d="M154.661 138.641C154.108 138.541 153.524 138.36 153.442 138.155C153.429 138.126 153.42 138.073 153.505 137.995C153.551 137.949 153.614 137.924 153.682 137.928C153.736 137.928 153.787 137.936 153.838 137.947C154.197 138.093 154.528 138.296 154.826 138.553C154.881 138.594 154.936 138.643 154.991 138.692C154.886 138.68 154.776 138.66 154.661 138.641ZM155.278 138.723C155.266 138.711 155.164 138.613 155.011 138.486C154.901 138.397 154.769 138.291 154.625 138.189C154.315 137.969 153.955 137.77 153.68 137.772C153.571 137.772 153.465 137.814 153.39 137.885C153.289 137.963 153.252 138.095 153.295 138.214C153.385 138.414 153.783 138.593 154.189 138.697C154.282 138.717 154.371 138.736 154.464 138.757C154.713 138.804 154.963 138.84 155.216 138.859H155.22C155.25 138.859 155.279 138.842 155.292 138.809C155.308 138.78 155.3 138.747 155.278 138.723" fill="#407BFF"/>
<path d="M155.164 138.61C155.125 138.569 155.083 138.529 155.044 138.479C154.738 138.129 154.456 137.584 154.527 137.399C154.535 137.382 154.56 137.329 154.703 137.352L154.746 137.369C154.843 137.393 154.928 137.45 154.987 137.527C155.137 137.818 155.203 138.138 155.18 138.458C155.175 138.507 155.172 138.557 155.164 138.61ZM155.126 137.448C155.033 137.321 154.893 137.236 154.732 137.212C154.512 137.177 154.42 137.268 154.387 137.35C154.299 137.531 154.433 137.872 154.625 138.191C154.701 138.314 154.787 138.432 154.872 138.538C154.978 138.669 155.084 138.775 155.169 138.844C155.178 138.853 155.19 138.856 155.203 138.856C155.207 138.856 155.212 138.86 155.216 138.86H155.22C155.233 138.864 155.245 138.869 155.258 138.864C155.284 138.856 155.304 138.831 155.308 138.806C155.312 138.79 155.332 138.646 155.34 138.449C155.355 138.145 155.327 137.714 155.126 137.448" fill="#407BFF"/>
<path d="M177.086 140.358H179.91L180.744 135.436L177.291 134.758L177.086 140.358Z" fill="#FFC3BD"/>
<path d="M155.857 137.304L158.651 138.233L161.787 134.325L158.653 131.897L155.857 137.304Z" fill="#FFC3BD"/>
<g opacity="0.100006">
<g opacity="0.100006">
<path opacity="0.100006" d="M177.295 134.758L180.748 135.437L180.187 138.753L177.18 138.623L177.295 134.758Z" fill="black"/>
</g>
</g>
<path d="M181.358 137.847L176.286 137.543L176.133 135.44L181.807 135.848L181.358 137.847Z" fill="#407BFF"/>
<g opacity="0.5">
<g opacity="0.5">
<path opacity="0.5" d="M181.358 137.847L176.286 137.543L176.133 135.44L181.807 135.848L181.358 137.847Z" fill="white"/>
</g>
</g>
<path d="M176.096 140.513C175.572 140.554 175.005 140.521 174.883 140.343C174.859 140.318 174.839 140.272 174.894 140.173C174.926 140.115 174.978 140.073 175.04 140.061C175.088 140.049 175.135 140.04 175.183 140.04C175.545 140.094 175.895 140.21 176.222 140.384C176.285 140.409 176.349 140.442 176.408 140.48C176.309 140.492 176.203 140.504 176.096 140.513ZM176.676 140.438C176.66 140.43 176.545 140.359 176.376 140.272C176.262 140.214 176.12 140.148 175.967 140.085C175.632 139.945 175.249 139.837 174.997 139.912C174.899 139.937 174.816 140.003 174.765 140.094C174.694 140.198 174.694 140.335 174.761 140.438C174.891 140.612 175.296 140.687 175.687 140.682C175.773 140.682 175.86 140.678 175.947 140.674C176.179 140.658 176.411 140.629 176.64 140.583H176.644H176.652C176.679 140.575 176.703 140.55 176.711 140.517C176.715 140.488 176.699 140.455 176.676 140.438" fill="#407BFF"/>
<path d="M175.673 139.331C175.677 139.31 175.689 139.256 175.823 139.239L175.862 139.244C175.957 139.244 176.051 139.277 176.122 139.343C176.327 139.588 176.461 139.886 176.52 140.201C176.532 140.255 176.54 140.305 176.544 140.354C176.5 140.326 176.453 140.292 176.406 140.259C176.043 139.99 175.657 139.53 175.673 139.331ZM176.725 140.508C176.725 140.491 176.709 140.346 176.67 140.151C176.603 139.849 176.473 139.439 176.229 139.227C176.114 139.128 175.965 139.078 175.815 139.099C175.606 139.12 175.543 139.227 175.535 139.318C175.5 139.522 175.709 139.824 175.969 140.085C176.063 140.184 176.166 140.276 176.264 140.351C176.39 140.454 176.512 140.533 176.611 140.578C176.619 140.583 176.63 140.587 176.642 140.583H176.646H176.654C176.655 140.583 176.655 140.582 176.655 140.582C176.668 140.584 176.681 140.585 176.693 140.578C176.713 140.562 176.729 140.536 176.725 140.508" fill="#407BFF"/>
<path d="M176.973 140.117L180.41 140.097C180.539 140.096 180.652 140.19 180.681 140.323L181.318 143.26C181.376 143.52 181.223 143.781 180.976 143.842C180.944 143.85 180.912 143.854 180.879 143.855C179.64 143.84 178.538 143.775 176.996 143.786C175.176 143.798 175.639 144.024 173.499 144.069C172.21 144.094 171.965 142.554 172.512 142.475C175.012 142.129 175.268 141.333 176.228 140.384C176.437 140.202 176.702 140.107 176.973 140.117Z" fill="#1A2E35"/>
<path d="M170.721 67.6604L157.402 133.234L162.312 134.608C165.983 126.156 169.059 117.51 171.353 110.746C172.442 107.538 172.879 104.519 173.711 101.691C174.701 98.329 176.035 95.2361 176.715 92.4119C180.274 77.6266 179.986 70.2179 179.986 70.2179L180.745 68.2686L170.721 67.6604Z" fill="#1A2E35"/>
<g opacity="0.300003">
<g opacity="0.300003">
<path opacity="0.300003" d="M178.89 81.7329C178.406 84.7145 177.711 88.2736 176.715 92.4113C176.392 93.7548 174.224 100.225 173.712 101.69C173.111 92.2199 175.167 76.2104 175.167 76.2104L178.89 81.7329Z" fill="black"/>
</g>
</g>
<path d="M174.812 67.9974L175.816 104.02L176.695 135.573L181.324 135.91C182.613 128.185 183.557 121.177 184.237 114.866C184.681 110.743 183.927 107.728 184.167 104.195C184.207 103.608 184.252 103.005 184.301 102.392C185.109 92.2759 185.18 82.1062 184.467 71.9826C184.331 70.0531 184.24 68.7638 184.24 68.7638L174.812 67.4952V67.9974Z" fill="#1A2E35"/>
<path d="M161.664 136.436L156.809 134.861L157.14 132.781L162.555 134.609L161.664 136.436Z" fill="#407BFF"/>
<g opacity="0.5">
<g opacity="0.5">
<path opacity="0.5" d="M161.664 136.436L156.809 134.861L157.14 132.781L162.555 134.609L161.664 136.436Z" fill="white"/>
</g>
</g>
<path d="M174.152 45.155C174.02 45.3489 172.923 46.9461 172.154 49.7634C171.966 50.4441 171.797 51.1927 171.67 52.015L171.333 52.9838L168.364 51.7426L167.895 51.5492C168.617 48.1192 171.417 45.0191 173.495 45.066C173.772 45.0713 173.987 45.0923 174.152 45.155Z" fill="#407BFF"/>
<g opacity="0.199997">
<g opacity="0.199997">
<path opacity="0.199997" d="M174.152 45.155C174.02 45.3489 172.923 46.9461 172.154 49.7634C171.966 50.4441 171.797 51.1927 171.67 52.015L171.333 52.9838L168.364 51.7426L167.895 51.5492C168.617 48.1192 171.417 45.0191 173.495 45.066C173.772 45.0713 173.987 45.0923 174.152 45.155Z" fill="white"/>
</g>
</g>
<path d="M170.454 67.3524C170.814 66.5131 170.769 64.8706 171.949 64.5622C173.519 64.1523 174.809 64.0333 180.988 64.5857C183.902 64.8463 184.549 67.2966 184.465 68.5535C184.454 68.7218 184.4 68.8825 184.308 69.0213L184.185 69.2074C183.894 69.3248 170.675 67.7822 170.544 67.8676C170.544 67.8676 170.336 67.6284 170.454 67.3524" fill="#407BFF"/>
<g opacity="0.199997">
<g opacity="0.199997">
<path opacity="0.199997" d="M170.454 67.3524C170.814 66.5131 170.769 64.8706 171.949 64.5622C173.519 64.1523 174.809 64.0333 180.988 64.5857C183.902 64.8463 184.549 67.2966 184.465 68.5535C184.454 68.7218 184.4 68.8825 184.308 69.0213L184.185 69.2074C183.894 69.3248 170.675 67.7822 170.544 67.8676C170.544 67.8676 170.336 67.6284 170.454 67.3524" fill="white"/>
</g>
</g>
<path d="M173.654 45.13C173.57 45.2947 170.942 45.5824 171.15 57.6949C171.177 59.2513 170.801 62.5582 170.801 62.5582C170.801 62.5615 170.801 62.5647 170.8 62.5675L170.419 63.5739C170.106 64.4019 170.155 65.333 170.552 66.1205L170.741 66.4973C170.744 66.5025 170.749 66.5062 170.754 66.5066L184.077 67.9322C184.081 67.9326 184.084 67.9318 184.087 67.9298L184.471 67.9326C184.471 67.9326 185.33 60.6154 186.477 55.7254C186.851 54.1294 187.257 52.1724 187.257 52.1724C186.8 48.6874 186.854 46.5742 186.866 46.5973C186.87 46.6062 186.863 46.577 186.854 46.5742C185.24 46.072 183.592 45.6937 181.926 45.4424C180.156 45.1559 178.37 45.0029 176.579 44.9847C174.892 45.0292 173.657 45.1247 173.654 45.13Z" fill="#407BFF"/>
<path d="M181.891 39.0688C181.411 40.8534 180.815 44.1413 181.928 45.4553L181.084 46.3807C179.602 48.0091 176.991 47.2067 176.574 44.9952C178.522 44.6734 178.11 42.6141 178.466 40.6239L181.891 39.0688Z" fill="#FFC3BD"/>
<g opacity="0.199997">
<g opacity="0.199997">
<path opacity="0.199997" d="M177.453 38.5696C177.857 39.9945 178.406 42.2861 177.999 43.8667C179.75 44.0298 180.912 42.3569 180.982 41.8252C180.982 41.8252 180.55 40.5286 180.478 39.8945L177.453 38.5696Z" fill="black"/>
</g>
</g>
<path d="M182.404 36.2778C182.194 39.3125 182.169 40.6001 180.696 42.1403C178.48 44.4574 174.985 43.5238 174.327 40.4888C173.734 37.7541 174.175 33.2558 177.013 32.0786C179.037 31.2308 181.332 32.2704 182.138 34.4006C182.363 34.9963 182.455 35.6389 182.404 36.2778Z" fill="#FFC3BD"/>
<path d="M184.073 34.8708C183.764 36.0201 183.618 37.0702 183.491 38.3736C183.136 38.3688 182.746 38.368 182.392 38.3627C182.191 38.5739 182.107 38.9037 182.21 39.1826C182.035 39.0895 181.858 38.9782 181.758 38.8005C181.664 38.633 181.652 38.4303 181.639 38.236C181.592 37.5048 181.559 36.7327 181.415 36.0156C180.849 35.7736 180.195 35.8355 179.667 35.5142C178.486 34.7976 177.442 33.8438 176.641 32.6828C175.767 33.0773 175.09 33.9648 174.812 34.9218C174.563 34.9963 174.29 34.8494 174.137 34.6284C173.985 34.4071 173.933 34.1278 173.911 33.8559C173.853 33.1441 173.99 32.3934 174.401 31.8257C174.688 31.4307 175.122 31.1373 175.591 31.0576C175.795 31.0228 176.003 31.075 176.187 30.9832C176.386 30.8832 176.565 30.6311 176.763 30.5052C177.638 29.9517 178.751 29.8792 179.722 30.156C180.953 30.5065 182.004 31.3474 182.934 32.2656C183.439 32.7653 184.261 34.1683 184.073 34.8708Z" fill="#1A2E35"/>
<path d="M183.409 39.1936C183.127 39.7027 182.665 40.073 182.124 40.2239C181.407 40.4153 181.065 39.7379 181.277 39.035C181.467 38.3997 182.076 37.5487 182.785 37.6514C183.303 37.7482 183.647 38.2673 183.556 38.8116C183.533 38.9484 183.483 39.0783 183.409 39.1936Z" fill="#FFC3BD"/>
<path d="M177.937 37.0413C177.934 37.3056 177.796 37.5156 177.635 37.518C177.473 37.5209 177.337 37.2999 177.34 37.0357C177.343 36.7714 177.481 36.5614 177.643 36.559C177.805 36.5561 177.94 36.7771 177.937 37.0413Z" fill="#1A2E35"/>
<path d="M175.083 37.0089C175.077 37.2747 174.942 37.4832 174.777 37.4872C174.612 37.4908 174.48 37.2687 174.485 36.9996C174.49 36.7305 174.622 36.5269 174.787 36.5229C174.953 36.5188 175.095 36.7369 175.083 37.0089Z" fill="#1A2E35"/>
<path d="M176.208 37.5601C175.975 38.1627 175.666 38.7296 175.289 39.2452C175.547 39.4431 175.876 39.5111 176.186 39.4309L176.208 37.5601Z" fill="#FF847F"/>
<path d="M177.082 40.3273C176.939 40.3908 176.791 40.4385 176.639 40.4705C176.605 40.4786 176.571 40.4563 176.563 40.4207C176.563 40.4203 176.563 40.4199 176.563 40.4199C176.559 40.3851 176.58 40.3523 176.613 40.3438C177.244 40.2224 177.782 39.7894 178.059 39.18C178.067 39.1468 178.098 39.1254 178.13 39.1306C178.161 39.1347 178.182 39.1638 178.179 39.1958C178.179 39.199 178.178 39.2023 178.177 39.2059C177.965 39.7154 177.572 40.1176 177.082 40.3273Z" fill="#1A2E35"/>
<path d="M178.942 35.5408C178.91 35.5517 178.871 35.5416 178.843 35.5137C178.586 35.2559 178.253 35.1398 177.948 35.2021C177.896 35.2154 177.837 35.1774 177.816 35.1155C177.795 35.054 177.82 34.9917 177.872 34.9763C177.873 34.9759 177.874 34.9759 177.874 34.9759C178.242 34.8949 178.647 35.0321 178.958 35.3429C179.003 35.387 179.015 35.459 178.984 35.5068C178.973 35.5226 178.959 35.5339 178.942 35.5408Z" fill="#1A2E35"/>
<path d="M174.331 35.6785C174.29 35.6947 174.244 35.6858 174.212 35.6554C174.16 35.6101 174.153 35.5288 174.196 35.4746C174.197 35.4741 174.197 35.4741 174.197 35.4737C174.492 35.0893 174.947 34.8813 175.415 34.9165C175.48 34.9218 175.529 34.9817 175.524 35.0505C175.524 35.0541 175.523 35.0573 175.523 35.061C175.514 35.131 175.452 35.1808 175.385 35.171C175.385 35.171 175.385 35.171 175.385 35.171C174.999 35.1492 174.627 35.324 174.384 35.6401C174.371 35.6579 174.352 35.6708 174.331 35.6785Z" fill="#1A2E35"/>
<path d="M181.46 44.4878L182.525 45.5416C182.525 45.5416 178.676 48.3747 178.614 48.1938C178.552 48.0121 177.754 47.066 177.754 47.066L181.46 44.4878Z" fill="#407BFF"/>
<path d="M177.569 44.3881L176.211 44.9567C176.211 44.9567 176.44 48.0144 176.561 47.8699C176.682 47.725 177.755 47.1532 177.755 47.1532L177.569 44.3881Z" fill="#407BFF"/>
<g opacity="0.199997">
<g opacity="0.199997">
<path opacity="0.199997" d="M181.46 44.4878L182.525 45.5416C182.525 45.5416 178.676 48.3747 178.614 48.1938C178.552 48.0121 177.754 47.066 177.754 47.066L181.46 44.4878Z" fill="white"/>
</g>
</g>
<g opacity="0.199997">
<g opacity="0.199997">
<path opacity="0.199997" d="M177.569 44.3881L176.211 44.9567C176.211 44.9567 176.44 48.0144 176.561 47.8699C176.682 47.725 177.755 47.1532 177.755 47.1532L177.569 44.3881Z" fill="white"/>
</g>
</g>
<path d="M176.844 57.0202C177.091 57.403 179.095 57.0202 179.095 57.0202L180.813 57.1437C181.001 57.1465 181.163 56.9972 181.19 56.7997L181.669 54.5157C181.683 54.402 181.611 54.3041 181.508 54.2855L180.148 54.0273C179.601 53.9237 179.038 54.0496 178.578 54.3777L177.14 55.404L176.844 57.0202Z" fill="#FFC3BD"/>
<path d="M177.225 55.2912L177.136 57.0527C177.136 57.0527 169.406 60.1068 167.188 58.7697C165.734 57.8961 167.188 54.1909 168.365 51.7334L171.334 52.9033L170.353 55.5923L177.225 55.2912Z" fill="#FFC3BD"/>
<g opacity="0.100006">
<g opacity="0.100006">
<path opacity="0.100006" d="M176.848 57.02C177.095 57.4028 179.099 57.02 179.099 57.02L180.817 57.1434C181.004 57.1462 181.167 56.9969 181.194 56.7994L181.673 54.5155C181.686 54.4018 181.615 54.3038 181.512 54.2852L180.152 54.0271C179.605 53.9235 179.042 54.0493 178.582 54.3775L177.144 55.4037L176.848 57.02Z" fill="black"/>
</g>
<g opacity="0.100006">
<path opacity="0.100006" d="M177.225 55.2912L177.136 57.0527C177.136 57.0527 169.406 60.1068 167.188 58.7697C165.734 57.8961 167.188 54.1909 168.365 51.7334L171.334 52.9033L170.353 55.5923L177.225 55.2912Z" fill="black"/>
</g>
</g>
<path d="M186.376 47.8615L180.674 56.1151L172.325 54.496L171.949 56.2268C171.949 56.2268 180.038 60.8562 182.246 59.5002C184.455 58.1441 188.17 49.9354 188.17 49.9354L186.376 47.8615Z" fill="#FFC3BD"/>
<path d="M171.949 56.2246C171.697 56.6038 169.697 56.1946 169.697 56.1946L167.979 56.295C167.791 56.2962 167.63 56.1445 167.606 55.9466L167.154 53.6566C167.142 53.5428 167.214 53.4457 167.318 53.4283L168.68 53.1884C169.228 53.0916 169.79 53.2248 170.246 53.5594L172.33 54.5509L171.949 56.2246Z" fill="#FFC3BD"/>
<path d="M187.457 47.0862C188.8 48.7555 188.405 52.8815 186.471 55.507L181.758 52.5929C181.758 52.5929 184.524 47.6799 186.05 46.7131C186.702 46.3003 186.966 46.4756 187.457 47.0862Z" fill="#407BFF"/>
<g opacity="0.199997">
<g opacity="0.199997">
<path opacity="0.199997" d="M187.457 47.0862C188.8 48.7555 188.405 52.8815 186.471 55.507L181.758 52.5929C181.758 52.5929 184.524 47.6799 186.05 46.7131C186.702 46.3003 186.966 46.4756 187.457 47.0862Z" fill="white"/>
</g>
</g>
<path d="M155.666 137.047L159.232 137.944C159.366 137.978 159.459 138.097 159.454 138.233L159.349 141.216C159.341 141.481 159.114 141.69 158.842 141.682C158.807 141.681 158.773 141.677 158.739 141.669C157.46 141.324 156.334 140.968 154.734 140.568C152.845 140.093 153.266 140.434 151.037 139.905C149.695 139.587 149.843 138.046 150.43 138.116C153.11 138.451 153.583 137.756 154.825 137.104C155.088 136.986 155.388 136.965 155.666 137.047Z" fill="#1A2E35"/>
<path d="M105.5 154C158.243 154 201 151.761 201 149C201 146.239 158.243 144 105.5 144C52.7568 144 10 146.239 10 149C10 151.761 52.7568 154 105.5 154Z" fill="#5F90FF"/>
</svg>
