<svg width="64" height="64" viewBox="0 0 64 64" fill="none" xmlns="http://www.w3.org/2000/svg">
<path d="M57.4179 41.4994H2.29672V13.6415C2.29774 12.7893 2.66104 11.9722 3.30689 11.3696C3.95275 10.767 4.82842 10.4281 5.74179 10.4271H31.0057V8.28418H5.74179C4.2195 8.28577 2.76005 8.85071 1.68362 9.85506C0.607196 10.8594 0.0017097 12.2211 0 13.6415V46.8567C0.0017097 48.277 0.607196 49.6388 1.68362 50.6431C2.76005 51.6474 4.2195 52.2124 5.74179 52.214H20.0773L17.6165 57.5713H12.6319C11.7183 57.5713 10.842 57.9099 10.1959 58.5127C9.54983 59.1156 9.18687 59.9331 9.18687 60.7856C9.18687 61.6381 9.54983 62.4557 10.1959 63.0585C10.842 63.6614 11.7183 64 12.6319 64H47.0827C47.9964 64 48.8727 63.6614 49.5188 63.0585C50.1648 62.4557 50.5278 61.6381 50.5278 60.7856C50.5278 59.9331 50.1648 59.1156 49.5188 58.5127C48.8727 57.9099 47.9964 57.5713 47.0827 57.5713H42.0981L39.6373 52.214H53.9729C55.4952 52.2124 56.9546 51.6474 58.031 50.6431C59.1075 49.6388 59.713 48.277 59.7147 46.8567V28.6419H57.4179V41.4994ZM48.2311 60.7856C48.2307 61.0697 48.1096 61.3421 47.8944 61.5429C47.6791 61.7438 47.3872 61.8568 47.0827 61.8571H12.6319C12.3274 61.8571 12.0353 61.7442 11.8199 61.5433C11.6046 61.3423 11.4836 61.0698 11.4836 60.7856C11.4836 60.5015 11.6046 60.2289 11.8199 60.028C12.0353 59.8271 12.3274 59.7142 12.6319 59.7142H47.0827C47.3872 59.7145 47.6791 59.8275 47.8944 60.0284C48.1096 60.2292 48.2307 60.5016 48.2311 60.7856ZM39.5994 57.5713H20.1152L22.576 52.214H37.1386L39.5994 57.5713ZM53.9729 50.0711H5.74179C4.82842 50.0701 3.95275 49.7311 3.30689 49.1285C2.66104 48.5259 2.29774 47.7089 2.29672 46.8567V43.6423H57.4179V46.8567C57.4169 47.7089 57.0536 48.5259 56.4078 49.1285C55.7619 49.7311 54.8862 50.0701 53.9729 50.0711V50.0711Z" fill="#2D4356"/>
<path d="M31.0057 45.7853H28.709V47.9282H31.0057V45.7853Z" fill="#2D4356"/>
<path d="M63.5991 12.1926C63.7792 12.0485 63.907 11.856 63.9651 11.6415C64.0231 11.427 64.0086 11.2009 63.9234 10.9944L62.5495 7.66164C62.4644 7.45516 62.3129 7.27833 62.1157 7.15542C61.9185 7.03252 61.6854 6.96958 61.4484 6.97523L58.3223 7.04957L56.9487 5.70073L57.1883 2.79159C57.2064 2.57098 57.1509 2.35054 57.0294 2.16053C56.9079 1.97053 56.7263 1.82029 56.5096 1.73044L53.012 0.280226C52.7953 0.190359 52.5541 0.165286 52.3215 0.208452C52.0889 0.251618 51.8764 0.360904 51.713 0.521304L49.559 2.63636L47.5653 2.58895L45.5297 0.373845C45.3753 0.205947 45.1691 0.0867426 44.9392 0.0325953C44.7093 -0.021552 44.4671 -0.00798783 44.2458 0.0714256L40.6737 1.35329C40.4524 1.43272 40.2629 1.57413 40.1312 1.75808C39.9995 1.94204 39.932 2.15953 39.9381 2.38069L40.0177 5.29733L38.5721 6.5792L35.4542 6.35553C35.2177 6.33858 34.9815 6.39035 34.7778 6.5037C34.5742 6.61706 34.4132 6.78646 34.3168 6.98863L32.7625 10.2522C32.6663 10.4543 32.6394 10.6793 32.6857 10.8963C32.7319 11.1133 32.849 11.3116 33.0209 11.464L35.2878 13.4739L35.2368 15.3341L32.863 17.2332C32.683 17.3773 32.5552 17.5698 32.4971 17.7843C32.439 17.9988 32.4536 18.2249 32.5388 18.4314L33.9126 21.7642C33.9984 21.9702 34.1502 22.1466 34.3472 22.2694C34.5442 22.3922 34.7769 22.4555 35.0138 22.4506L38.1399 22.3762L39.5135 23.7251L39.2739 26.6342C39.2557 26.8548 39.3112 27.0753 39.4328 27.2653C39.5543 27.4553 39.7359 27.6055 39.9526 27.6954L43.4497 29.1456C43.6664 29.2355 43.9076 29.2605 44.1402 29.2174C44.3728 29.1742 44.5853 29.0649 44.7487 28.9045L46.9027 26.7894L48.8964 26.8369L50.932 29.052C51.0864 29.2199 51.2927 29.3391 51.5225 29.3932C51.7524 29.4474 51.9946 29.4338 52.2159 29.3544L55.788 28.0725C56.0093 27.9931 56.1988 27.8517 56.3305 27.6677C56.4623 27.4838 56.5297 27.2663 56.5237 27.0451L56.444 24.1285L57.8896 22.8466L61.008 23.0703C61.2444 23.0872 61.4807 23.0355 61.6843 22.9221C61.888 22.8088 62.049 22.6394 62.1453 22.4372L63.6996 19.1742C63.7959 18.972 63.8228 18.747 63.7765 18.53C63.7302 18.3131 63.6131 18.1148 63.4412 17.9624L61.1744 15.9524L61.2253 14.0923L63.5991 12.1926ZM59.2223 17.1773L61.2717 18.9945L60.375 20.8754L57.5563 20.6737C57.3961 20.6621 57.235 20.6821 57.0836 20.7323C56.9322 20.7826 56.7938 20.862 56.6774 20.9654L54.4918 22.903C54.3754 23.0062 54.2835 23.1311 54.222 23.2695C54.1605 23.4079 54.1308 23.5568 54.1348 23.7066L54.2066 26.3435L52.1473 27.0825L50.307 25.0801C50.2024 24.9663 50.0734 24.8742 49.9283 24.8099C49.7832 24.7456 49.6252 24.7103 49.4646 24.7065L46.4501 24.6347C46.4404 24.6347 46.4306 24.6347 46.4214 24.6347C46.2657 24.6347 46.1115 24.6643 45.9684 24.7216C45.8253 24.7789 45.6961 24.8628 45.5888 24.9681L43.6414 26.8803L41.6263 26.0436L41.8425 23.4138C41.8548 23.2643 41.8333 23.1141 41.7795 22.9728C41.7257 22.8316 41.6407 22.7024 41.53 22.5938L39.4532 20.5544C39.3428 20.4454 39.2091 20.3594 39.0607 20.302C38.9122 20.2446 38.7525 20.2172 38.5919 20.2214L35.7658 20.2884L34.9737 18.367L37.1197 16.6501C37.2417 16.5525 37.3404 16.4321 37.4093 16.2967C37.4783 16.1613 37.5161 16.0139 37.5202 15.8641L37.5973 13.0515C37.6013 12.9017 37.5716 12.7528 37.5101 12.6144C37.4486 12.4759 37.3567 12.3511 37.2403 12.2479L35.1905 10.4315L36.0872 8.55041L38.9058 8.75211C39.066 8.76342 39.227 8.7433 39.3784 8.69306C39.5298 8.64282 39.6682 8.56357 39.7848 8.46041L41.9704 6.52281C42.0868 6.41957 42.1786 6.29472 42.2401 6.15631C42.3016 6.0179 42.3313 5.869 42.3274 5.71922L42.2556 3.08236L44.3149 2.34332L46.1551 4.34574C46.2597 4.45934 46.3886 4.55124 46.5335 4.6155C46.6784 4.67977 46.8362 4.71499 46.9966 4.71888L50.011 4.79066C50.1717 4.79538 50.3316 4.76812 50.4801 4.71072C50.6286 4.65331 50.7623 4.56706 50.8723 4.45771L52.8198 2.54556L54.8359 3.38223L54.6197 6.01199C54.6074 6.16148 54.6288 6.31171 54.6827 6.45297C54.7365 6.59423 54.8215 6.72337 54.9322 6.83206L57.009 8.87145C57.1194 8.98034 57.2532 9.06627 57.4016 9.12364C57.55 9.18102 57.7097 9.20854 57.8703 9.2044L60.6964 9.13744L61.4885 11.0588L59.3429 12.7749C59.2209 12.8725 59.1222 12.9929 59.0533 13.1283C58.9843 13.2637 58.9465 13.4111 58.9424 13.561L58.8653 16.3735C58.8613 16.5233 58.891 16.6723 58.9524 16.8107C59.0139 16.9492 59.1059 17.074 59.2223 17.1773V17.1773Z" fill="#2D4356"/>
<path d="M45.2967 7.59489C43.7879 8.13636 42.4851 9.08313 41.5529 10.3155C40.6208 11.5478 40.1013 13.0104 40.06 14.5182C40.0188 16.026 40.4577 17.5114 41.3212 18.7865C42.1847 20.0616 43.4341 21.0691 44.9114 21.6817C46.3886 22.2943 48.0274 22.4844 49.6204 22.228C51.2135 21.9716 52.6893 21.2802 53.8612 20.2412C55.033 19.2022 55.8484 17.8624 56.2042 16.391C56.5599 14.9197 56.4401 13.3829 55.8597 11.9751C55.0795 10.0888 53.5292 8.56832 51.5489 7.74716C49.5687 6.92599 47.3202 6.87123 45.2967 7.59489V7.59489ZM50.341 19.8307C49.2562 20.2201 48.0719 20.3006 46.938 20.062C45.8041 19.8234 44.7715 19.2764 43.9708 18.4903C43.1701 17.7042 42.6372 16.7141 42.4395 15.6454C42.2418 14.5767 42.3883 13.4772 42.8603 12.4862C43.3323 11.4951 44.1087 10.6568 45.0913 10.0775C46.0738 9.49808 47.2185 9.20357 48.3805 9.23118C49.5425 9.25878 50.6696 9.60726 51.6193 10.2325C52.569 10.8578 53.2987 11.7318 53.716 12.7441C54.2739 14.1015 54.2318 15.61 53.5991 16.9385C52.9663 18.2671 51.7946 19.3072 50.341 19.8307Z" fill="#2D4356"/>
<path d="M11.1472 20.384L8.51402 17.9272L11.1472 15.4705L9.52314 13.9552L6.07807 17.1696C5.97143 17.2691 5.88683 17.3872 5.82912 17.5172C5.7714 17.6472 5.7417 17.7865 5.7417 17.9272C5.7417 18.0679 5.7714 18.2073 5.82912 18.3373C5.88683 18.4673 5.97143 18.5854 6.07807 18.6849L9.52314 21.8993L11.1472 20.384Z" fill="#2D4356"/>
<path d="M20.334 21.8993L23.7791 18.6849C23.8857 18.5854 23.9703 18.4673 24.0281 18.3373C24.0858 18.2073 24.1155 18.0679 24.1155 17.9272C24.1155 17.7865 24.0858 17.6472 24.0281 17.5172C23.9703 17.3872 23.8857 17.2691 23.7791 17.1696L20.334 13.9552L18.71 15.4705L21.3431 17.9272L18.71 20.384L20.334 21.8993Z" fill="#2D4356"/>
<path d="M14.9627 13.3814L12.666 21.9531L14.8942 22.4728L17.1909 13.9011L14.9627 13.3814Z" fill="#2D4356"/>
<path d="M8.03842 24.3561H5.7417V26.499H8.03842V24.3561Z" fill="#2D4356"/>
<path d="M32.154 24.3561H10.3352V26.499H32.154V24.3561Z" fill="#2D4356"/>
<path d="M8.03842 28.6418H5.7417V30.7848H8.03842V28.6418Z" fill="#2D4356"/>
<path d="M35.5991 28.6418H10.3352V30.7848H35.5991V28.6418Z" fill="#2D4356"/>
<path d="M8.03842 32.9277H5.7417V35.0707H8.03842V32.9277Z" fill="#2D4356"/>
<path d="M39.0442 32.9277H10.3352V35.0707H39.0442V32.9277Z" fill="#2D4356"/>
<path d="M8.03842 37.2136H5.7417V39.3565H8.03842V37.2136Z" fill="#2D4356"/>
<path d="M44.786 37.2136H10.3352V39.3565H44.786V37.2136Z" fill="#2D4356"/>
<path d="M49.3795 37.2136H47.0828V39.3565H49.3795V37.2136Z" fill="#2D4356"/>
<path d="M48.231 32.9277H45.9343V35.0707H48.231V32.9277Z" fill="#2D4356"/>
<path d="M43.6375 32.9277H41.3408V35.0707H43.6375V32.9277Z" fill="#2D4356"/>
<path d="M53.973 37.2136H51.6763V39.3565H53.973V37.2136Z" fill="#2D4356"/>
</svg>
