<svg width="61" height="78" viewBox="0 0 61 78" fill="none" xmlns="http://www.w3.org/2000/svg">
<g opacity="0.8" clip-path="url(#clip0)">
<path d="M36.8272 76.4843H0.5V76.1836H36.881L36.8272 76.4843Z" fill="#3F3D56"/>
<path d="M13.0517 72.1263L10.9375 72.2691L11.2194 49.8516H16.4344L13.0517 72.1263Z" fill="#A0616A"/>
<path d="M23.1996 72.1263L21.0854 72.2691L21.3673 49.8516L24.7402 49.8524L23.1996 72.1263Z" fill="#A0616A"/>
<path d="M25.4549 69.6991C23.2418 70.7216 21.1616 70.6694 19.1816 69.8077L18.1257 44.1403L15.1012 69.5831C12.8896 70.1374 10.6543 70.1349 8.40039 69.6991C8.91951 65.8877 11.1356 42.6845 10.9374 38.4288L25.7368 37.7148L25.4549 69.6991Z" fill="#2F2E41"/>
<path d="M12.6735 78.0007C12.382 78.0007 12.0937 77.9403 11.8261 77.8233C11.5585 77.7063 11.3173 77.5351 11.1174 77.3203C10.9175 77.1054 10.7631 76.8514 10.6636 76.5739C10.5641 76.2964 10.5217 76.0012 10.5389 75.7064L10.7429 72.2151C11.5642 70.7233 12.5611 70.7173 13.7229 72.1073L14.7065 75.1628C14.8112 75.488 14.8383 75.8337 14.7858 76.1716C14.7332 76.5095 14.6024 76.83 14.4041 77.1068C14.2058 77.3836 13.9456 77.6089 13.6448 77.7643C13.344 77.9197 13.0111 78.0007 12.6735 78.0007Z" fill="#2F2E41"/>
<path d="M22.6808 78.0007C22.3894 78.0007 22.101 77.9403 21.8334 77.8233C21.5658 77.7063 21.3247 77.5351 21.1248 77.3203C20.9248 77.1054 20.7704 76.8514 20.6709 76.5739C20.5714 76.2964 20.529 76.0012 20.5462 75.7064L20.7502 72.2151C21.5715 70.7233 22.5684 70.7173 23.7302 72.1073L24.7138 75.1628C24.8185 75.488 24.8456 75.8337 24.7931 76.1716C24.7405 76.5095 24.6098 76.83 24.4114 77.1068C24.2131 77.3836 23.9529 77.6089 23.6521 77.7643C23.3513 77.9197 23.0185 78.0007 22.6808 78.0007Z" fill="#2F2E41"/>
<path d="M19.8169 10.0141C22.0743 10.0141 23.9044 8.16015 23.9044 5.87324C23.9044 3.58633 22.0743 1.73242 19.8169 1.73242C17.5595 1.73242 15.7295 3.58633 15.7295 5.87324C15.7295 8.16015 17.5595 10.0141 19.8169 10.0141Z" fill="#A0616A"/>
<path d="M19.6762 13.7266L13.0518 11.0137C14.6371 10.2264 15.7135 8.76343 16.5754 7.01562H19.5353C19.3941 9.68257 19.2804 12.2867 19.6762 13.7266Z" fill="#A0616A"/>
<path d="M26.1596 38.713L10.3737 39.1413C10.5659 31.4624 10.2286 23.561 9.43728 15.4688C9.34853 14.5566 9.55975 13.6403 10.0381 12.8622C10.5165 12.0841 11.2352 11.4879 12.0825 11.1663L13.6154 10.584L19.817 12.2974L22.7439 14.5707C23.1361 14.8762 23.4474 15.2754 23.6502 15.7326C23.8529 16.1897 23.9408 16.6906 23.9059 17.1905C23.4628 23.7461 24.4522 31.0436 26.1596 38.713Z" fill="#960A2C"/>
<path d="M27.9195 44.1216C27.4993 44.1463 27.0857 44.0067 26.764 43.7315C26.4424 43.4564 26.2372 43.0668 26.1907 42.6429L25.8418 39.4599L27.7066 38.9336L29.2464 41.6239C29.3872 41.8699 29.4635 42.1484 29.468 42.4327C29.4724 42.7171 29.4049 42.9979 29.2719 43.2483C29.1388 43.4987 28.9447 43.7105 28.708 43.8634C28.4712 44.0162 28.1998 44.1051 27.9195 44.1216Z" fill="#A0616A"/>
<path d="M29.5423 39.7129L25.8777 39.8557L23.0587 28.4328L22.354 14.2969C22.999 14.3786 23.5988 14.6755 24.0588 15.1408C24.5187 15.6061 24.8127 16.2133 24.8942 16.8666L26.1595 27.0049L29.5423 39.7129Z" fill="#960A2C"/>
<path opacity="0.2" d="M12.1356 18.5098L11.9946 27.9337L18.1963 38.4999L12.6994 27.6481L12.1356 18.5098Z" fill="black"/>
<path opacity="0.2" d="M10.2646 32.7422L13.9404 39.1412L12.6378 39.0698L10.2646 32.7422Z" fill="black"/>
<path d="M18.7786 31.4981C18.6072 31.4983 18.4428 31.5674 18.3215 31.6902C18.2002 31.813 18.132 31.9796 18.1318 32.1533V72.7785C18.132 72.9522 18.2002 73.1188 18.3215 73.2416C18.4428 73.3644 18.6072 73.4335 18.7786 73.4337H60.1735C60.345 73.4335 60.5094 73.3644 60.6306 73.2416C60.7519 73.1188 60.8201 72.9522 60.8203 72.7785V32.1533C60.8201 31.9796 60.7519 31.813 60.6306 31.6902C60.5094 31.5673 60.345 31.4983 60.1735 31.498L18.7786 31.4981Z" fill="#E6E6E6"/>
<path d="M19.7524 71.7922H59.1991V33.1406H19.7524V71.7922Z" fill="white"/>
<path d="M23.2659 39.2969C23.0027 39.2969 22.7886 39.679 22.7886 40.1487C22.7886 40.6184 23.0027 41.0005 23.2659 41.0005H41.2569C41.5201 41.0005 41.7342 40.6184 41.7342 40.1487C41.7342 39.679 41.5201 39.2969 41.2569 39.2969H23.2659Z" fill="#E6E6E6"/>
<path d="M23.2659 44.5391C23.0027 44.5391 22.7886 44.9212 22.7886 45.3909C22.7886 45.8606 23.0027 46.2427 23.2659 46.2427H41.2569C41.5201 46.2427 41.7342 45.8606 41.7342 45.3909C41.7342 44.9212 41.5201 44.5391 41.2569 44.5391H23.2659Z" fill="#E6E6E6"/>
<path d="M23.2659 49.7207C23.0027 49.7207 22.7886 50.1028 22.7886 50.5725C22.7886 51.0422 23.0027 51.4243 23.2659 51.4243H41.2569C41.5201 51.4243 41.7342 51.0422 41.7342 50.5725C41.7342 50.1028 41.5201 49.7207 41.2569 49.7207H23.2659Z" fill="#E6E6E6"/>
<path d="M23.2659 54.9629C23.0027 54.9629 22.7886 55.345 22.7886 55.8147C22.7886 56.2844 23.0027 56.6665 23.2659 56.6665H41.2569C41.5201 56.6665 41.7342 56.2844 41.7342 55.8147C41.7342 55.345 41.5201 54.9629 41.2569 54.9629H23.2659Z" fill="#E6E6E6"/>
<path d="M50.3716 39.3535C50.1486 39.3535 49.9347 39.4433 49.777 39.603C49.6193 39.7628 49.5308 39.9794 49.5308 40.2053C49.5308 40.4312 49.6193 40.6479 49.777 40.8077C49.9347 40.9674 50.1486 41.0571 50.3716 41.0571H53.7349C53.9579 41.0571 54.1718 40.9674 54.3295 40.8077C54.4872 40.6479 54.5757 40.4312 54.5757 40.2053C54.5757 39.9794 54.4872 39.7628 54.3295 39.603C54.1718 39.4433 53.9579 39.3535 53.7349 39.3535H50.3716Z" fill="#E6E6E6"/>
<path d="M50.3716 44.4941C50.1486 44.4941 49.9347 44.5839 49.777 44.7436C49.6193 44.9034 49.5308 45.12 49.5308 45.346C49.5308 45.5719 49.6193 45.7885 49.777 45.9483C49.9347 46.108 50.1486 46.1978 50.3716 46.1978H53.7349C53.9579 46.1978 54.1718 46.108 54.3295 45.9483C54.4872 45.7885 54.5757 45.5719 54.5757 45.346C54.5757 45.12 54.4872 44.9034 54.3295 44.7436C54.1718 44.5839 53.9579 44.4941 53.7349 44.4941H50.3716Z" fill="#E6E6E6"/>
<path d="M50.3716 49.6348C50.1486 49.6348 49.9347 49.7245 49.777 49.8843C49.6193 50.044 49.5308 50.2607 49.5308 50.4866C49.5308 50.7125 49.6193 50.9292 49.777 51.0889C49.9347 51.2486 50.1486 51.3384 50.3716 51.3384H53.7349C53.9579 51.3384 54.1718 51.2486 54.3295 51.0889C54.4872 50.9292 54.5757 50.7125 54.5757 50.4866C54.5757 50.2607 54.4872 50.044 54.3295 49.8843C54.1718 49.7245 53.9579 49.6348 53.7349 49.6348H50.3716Z" fill="#E6E6E6"/>
<path d="M50.3716 54.7734C50.1486 54.7734 49.9347 54.8632 49.777 55.0229C49.6193 55.1827 49.5308 55.3993 49.5308 55.6253C49.5308 55.8512 49.6193 56.0678 49.777 56.2276C49.9347 56.3873 50.1486 56.4771 50.3716 56.4771H53.7349C53.9579 56.4771 54.1718 56.3873 54.3295 56.2276C54.4872 56.0678 54.5757 55.8512 54.5757 55.6253C54.5757 55.3993 54.4872 55.1827 54.3295 55.0229C54.1718 54.8632 53.9579 54.7734 53.7349 54.7734H50.3716Z" fill="#E6E6E6"/>
<path d="M49.3468 63.3945C49.0626 63.3945 48.7901 63.5089 48.5892 63.7124C48.3883 63.916 48.2754 64.1921 48.2754 64.4799C48.2754 64.7678 48.3883 65.0439 48.5892 65.2474C48.7901 65.451 49.0626 65.5653 49.3468 65.5653H53.6324C53.9165 65.5653 54.1891 65.451 54.39 65.2474C54.5909 65.0439 54.7038 64.7678 54.7038 64.4799C54.7038 64.1921 54.5909 63.916 54.39 63.7124C54.1891 63.5089 53.9165 63.3945 53.6324 63.3945H49.3468Z" fill="#960A2C"/>
<path d="M54.5605 60.4883H22.8477V60.7739H54.5605V60.4883Z" fill="#E6E6E6"/>
<path d="M19.161 43.418C18.7824 43.6044 18.3476 43.6364 17.9463 43.5076C17.545 43.3788 17.2078 43.0989 17.0042 42.7256L15.4751 39.9226L16.9973 38.7109L19.439 40.5956C19.6623 40.768 19.8384 40.9954 19.9503 41.2562C20.0622 41.517 20.1064 41.8025 20.0785 42.0855C20.0506 42.3685 19.9516 42.6396 19.791 42.8728C19.6304 43.1061 19.4135 43.2938 19.161 43.418Z" fill="#A0616A"/>
<path d="M18.1258 38.8565L15.0249 40.5699L7.97764 28.2903L7.16551 17.4918C7.07438 16.2802 7.37197 15.0712 8.01396 14.0447C8.65595 13.0183 9.608 12.2294 10.7284 11.7954L11.6422 11.4414L12.206 27.7191L18.1258 38.8565Z" fill="#960A2C"/>
<path d="M23.2854 1.32758L23.3308 2.01805L22.9799 1.06999C22.0973 0.420054 21.0423 0.0535939 19.9518 0.0180892L19.9518 0.0180805C19.3039 -0.0473053 18.65 0.0479232 18.0465 0.295554C17.4431 0.543184 16.9081 0.935787 16.4878 1.43951C16.0674 1.94324 15.7744 2.54298 15.6338 3.18701C15.4932 3.83105 15.5093 4.50006 15.6808 5.13637L15.7296 5.72957L16.8572 4.15891H16.8572C17.365 3.69246 17.9835 3.36738 18.6523 3.21541C19.3212 3.06344 20.0175 3.08976 20.6733 3.29183C21.166 3.44413 21.6397 3.65327 22.0853 3.91513C22.7652 4.32763 23.3787 4.84324 23.9045 5.44399L24.0024 4.76924C24.6608 3.51471 24.2689 2.24116 23.2854 1.32758Z" fill="#2F2E41"/>
</g>
<defs>
<clipPath id="clip0">
<rect width="60.32" height="78" fill="white" transform="translate(0.5)"/>
</clipPath>
</defs>
</svg>
