<svg width="101" height="98" viewBox="0 0 101 98" fill="none" xmlns="http://www.w3.org/2000/svg">
<g opacity="0.8" clip-path="url(#clip0)">
<path d="M50.0062 29.9684H49.3225C49.1047 29.8344 48.8858 29.702 48.6659 29.5712C48.5298 29.4867 48.3921 29.4054 48.2543 29.3224C45.9787 27.9555 43.6892 26.6449 41.3859 25.3907C39.0847 24.1355 36.7722 22.9387 34.4485 21.8004C34.387 21.7741 34.3366 21.7271 34.3062 21.6677C34.2757 21.6083 34.2672 21.5401 34.282 21.475C34.2844 21.4665 34.2882 21.4584 34.2932 21.4511C34.3252 21.3905 34.3973 21.3649 34.503 21.416C34.7881 21.5563 35.0747 21.6967 35.3597 21.8403C37.6898 22.9982 40.0103 24.2147 42.3211 25.4896C44.6303 26.764 46.9268 28.0953 49.2104 29.4835C49.2584 29.5122 49.3065 29.5425 49.3545 29.5712C49.5723 29.7036 49.7885 29.836 50.0062 29.9684Z" fill="white"/>
<path d="M58.8214 29.9694H58.3986C58.3025 29.837 58.2081 29.7046 58.112 29.5723C55.8541 26.4556 53.5966 23.339 51.3396 20.2224C47.6436 15.12 43.9486 10.0175 40.2547 4.91513C40.2328 4.88768 40.2165 4.85626 40.2066 4.82262C40.1746 4.70938 40.2579 4.64239 40.3652 4.65355C40.4104 4.65973 40.4538 4.67545 40.4925 4.69965C40.5312 4.72385 40.5642 4.75599 40.5894 4.79391C42.6616 7.65534 44.7333 10.5157 46.8045 13.375C50.4813 18.4519 54.1576 23.5283 57.8334 28.6041C58.0672 28.9263 58.301 29.2501 58.5348 29.5723C58.6309 29.7046 58.727 29.837 58.8214 29.9694Z" fill="white"/>
<path d="M68.2269 27.4713C68.2093 28.1811 68.1661 28.8797 68.1084 29.5719C68.0972 29.7043 68.086 29.8367 68.0747 29.9691H67.6311C67.644 29.8367 67.6568 29.7043 67.668 29.5719C67.7561 28.5718 67.8169 27.5606 67.8201 26.5223C67.8158 23.6436 67.518 20.7727 66.9314 17.9539C66.3076 14.9188 65.4197 11.9435 64.2778 9.06179C63.0792 6.02244 61.6381 3.08356 59.9685 0.273335C59.937 0.227555 59.9229 0.1722 59.9284 0.117026C59.946 -0.0089791 60.1141 -0.0472589 60.2407 0.0723661C60.2656 0.0958358 60.2872 0.122681 60.3047 0.152116C60.5113 0.501421 60.7141 0.851789 60.9133 1.20322C62.522 4.02943 63.902 6.9789 65.0401 10.0236C66.1241 12.9151 66.953 15.8952 67.5174 18.9301C68.046 21.7456 68.2837 24.6076 68.2269 27.4713Z" fill="white"/>
<path d="M99.102 29.5723H1.89639C1.52614 29.5726 1.17115 29.7192 0.90935 29.98C0.647549 30.2408 0.500325 30.5943 0.5 30.9631V96.5687C0.500325 96.9374 0.647548 97.291 0.90935 97.5518C1.17115 97.8125 1.52614 97.9592 1.89639 97.9595H99.102C99.3039 97.9595 99.5034 97.9159 99.6867 97.8316C99.87 97.7474 100.033 97.6245 100.164 97.4715C100.175 97.4595 100.185 97.4467 100.194 97.4332C100.278 97.3317 100.345 97.2182 100.394 97.0966C100.465 96.9294 100.501 96.7499 100.5 96.5687V30.9631C100.5 30.5941 100.352 30.2403 100.09 29.9795C99.8279 29.7187 99.4725 29.5722 99.102 29.5723ZM100.101 96.5687C100.101 96.7627 100.044 96.9525 99.9363 97.1142C99.8406 97.2565 99.7107 97.3727 99.5584 97.4523C99.4173 97.5249 99.2608 97.5627 99.102 97.5624H1.89639C1.63188 97.562 1.3783 97.4573 1.19127 97.271C1.00424 97.0847 0.899027 96.8321 0.898706 96.5687V30.9631C0.899025 30.6997 1.00424 30.4471 1.19127 30.2608C1.3783 30.0745 1.63188 29.9697 1.89639 29.9694H99.102C99.3667 29.9694 99.6207 30.074 99.8081 30.2603C99.9954 30.4466 100.101 30.6994 100.101 30.9631V96.5687Z" fill="#3F3D56"/>
<path d="M100.3 35.1465H0.699219V35.5441H100.3V35.1465Z" fill="#3F3D56"/>
<path d="M4.09214 33.7469C4.75355 33.7469 5.28974 33.2129 5.28974 32.5541C5.28974 31.8954 4.75355 31.3613 4.09214 31.3613C3.43072 31.3613 2.89453 31.8954 2.89453 32.5541C2.89453 33.2129 3.43072 33.7469 4.09214 33.7469Z" fill="#3F3D56"/>
<path d="M7.5355 33.7469C8.19692 33.7469 8.7331 33.2129 8.7331 32.5541C8.7331 31.8954 8.19692 31.3613 7.5355 31.3613C6.87408 31.3613 6.33789 31.8954 6.33789 32.5541C6.33789 33.2129 6.87408 33.7469 7.5355 33.7469Z" fill="#3F3D56"/>
<path d="M10.9784 33.7469C11.6398 33.7469 12.176 33.2129 12.176 32.5541C12.176 31.8954 11.6398 31.3613 10.9784 31.3613C10.3169 31.3613 9.78076 31.8954 9.78076 32.5541C9.78076 33.2129 10.3169 33.7469 10.9784 33.7469Z" fill="#3F3D56"/>
<path d="M44.8553 68.9486C43.6575 68.1721 43.0618 66.3673 43.3552 64.7168C43.6487 63.0664 44.754 61.6448 46.0789 61.0317C46.7234 60.7423 47.4299 60.617 48.1351 60.6669C48.8403 60.7169 49.5219 60.9405 50.1189 61.3177C51.3338 62.0577 53.0522 62.463 53.6292 63.9435C54.0726 65.0812 53.5102 67.3915 52.9134 68.4965C52.3977 69.4516 51.4175 69.8885 50.4967 70.0783C49.478 70.2853 48.4265 70.2719 47.4134 70.0391C46.4003 69.8062 45.4492 69.3594 44.6245 68.7289L44.8553 68.9486Z" fill="#2F2E41"/>
<path d="M44.2308 77.714L43.2731 79.3585L43.1466 79.5754L42.9624 79.8944H40.1392L40.3297 79.5754L40.823 78.7476L41.9728 76.8145L43.2747 77.3328L44.2308 77.714Z" fill="#FFB8B8"/>
<path d="M39.9279 79.8948L39.4122 79.5758L39.3481 79.536L42.5846 73.6616C42.7238 73.4073 42.9122 73.1831 43.139 73.0018C43.3658 72.8206 43.6264 72.6859 43.9058 72.6057C44.2585 72.5011 44.632 72.4874 44.9915 72.5658C45.2013 72.6099 45.4032 72.6852 45.5904 72.7891C45.6675 72.8312 45.7419 72.8781 45.813 72.9295C46.0867 73.1206 46.3116 73.373 46.4696 73.6664C46.6577 74.0098 46.7506 74.3969 46.7388 74.788C46.727 75.179 46.6108 75.5598 46.4024 75.8914L45.1549 77.8772L44.0883 79.5758L43.8881 79.8948H39.9279Z" fill="#2F2E41"/>
<path d="M48.2428 71.0322C50.4151 71.0322 52.176 69.2783 52.176 67.1148C52.176 64.9512 50.4151 63.1973 48.2428 63.1973C46.0705 63.1973 44.3096 64.9512 44.3096 67.1148C44.3096 69.2783 46.0705 71.0322 48.2428 71.0322Z" fill="#FFB8B8"/>
<path d="M52.1911 79.8936H43.3498L43.3898 79.7804C43.3673 79.7118 43.3465 79.6432 43.3273 79.5746C43.3065 79.5029 43.2888 79.4295 43.2729 79.3577C43.1292 78.69 43.1297 77.9995 43.2745 77.3321C43.7629 74.9428 45.7118 73.0016 45.7118 73.0016C45.7455 72.9761 45.7791 72.9522 45.8127 72.9283C46.1026 72.7168 46.4172 72.5412 46.7495 72.4051C48.1972 71.807 49.7153 72.0478 50.7354 72.3573C51.0906 72.4643 51.4379 72.5959 51.7747 72.7512C51.8932 72.8071 51.9573 72.8421 51.9573 72.8421L52.0582 75.9061L52.1799 79.5746L52.1911 79.8936Z" fill="#960A2C"/>
<path d="M56.2811 79.5754L55.6053 76.1525L54.9231 72.7009C54.8947 72.5584 54.8236 72.4277 54.7193 72.3261C54.615 72.2245 54.4822 72.1566 54.3385 72.1315L52.9101 71.8858L51.5809 71.6578C51.4527 71.6347 51.3207 71.6471 51.199 71.6935C51.0773 71.7399 50.9707 71.8185 50.8907 71.9209C50.7908 72.0449 50.7361 72.199 50.7354 72.358C50.7354 72.4562 50.7556 72.5533 50.7946 72.6435C51.488 74.2544 51.5009 76.8048 51.3247 79.5754C51.3167 79.6806 51.3103 79.7875 51.3023 79.8944H56.3451L56.2811 79.5754Z" fill="#2F2E41"/>
<path d="M46.7499 72.4047C46.7204 72.2887 46.6625 72.1817 46.5813 72.0935C46.5001 72.0052 46.3981 71.9385 46.2845 71.8992C46.171 71.86 46.0494 71.8495 45.9308 71.8687C45.8121 71.8879 45.7001 71.9362 45.6049 72.0092L44.9915 72.5642L42.4805 74.8419C42.4022 74.9119 42.3409 74.9986 42.3011 75.0955C42.0176 75.7702 41.4652 77.102 40.823 78.7465C40.7189 79.0144 40.6116 79.2904 40.5011 79.5743C40.4627 79.6795 40.4211 79.7864 40.3794 79.8933H44.5175C44.5511 79.7864 44.5847 79.6795 44.6184 79.5743C44.8025 78.9953 44.9819 78.4275 45.1549 77.8756C45.6609 76.2726 46.1173 74.8164 46.4696 73.6648C46.5673 73.3458 46.6564 73.0512 46.737 72.7812C46.7747 72.659 46.7791 72.5291 46.7499 72.4047Z" fill="#2F2E41"/>
<path d="M57.2102 79.8943H57.4777L57.4408 79.805L57.3432 79.5753L55.8362 76.0137L55.6056 76.1524L53.7544 77.2673L54.704 79.5753L54.8353 79.8943H56.3455H57.2102Z" fill="#FFB8B8"/>
<path d="M55.6823 73.1892C55.4784 72.6577 55.0761 72.2253 54.5594 71.9824C54.0428 71.7395 53.4518 71.705 52.9102 71.8861C52.841 71.909 52.7731 71.9356 52.7069 71.9659C52.3275 72.1344 52.0042 72.4072 51.7749 72.7522C51.6813 72.89 51.6044 73.0383 51.5458 73.194C51.4419 73.4644 51.3928 73.7526 51.4013 74.0419C51.4099 74.3313 51.4759 74.6161 51.5955 74.8799L52.0583 75.9071L53.7142 79.5756L53.8583 79.8946H57.21L57.4406 79.8053L58.0396 79.5756L58.1229 79.5437L55.6823 73.1892Z" fill="#2F2E41"/>
<path d="M51.332 62.6163C51.4691 62.6573 51.6159 62.6521 51.7497 62.6015C51.8836 62.5509 51.9969 62.4578 52.0722 62.3366C52.1435 62.213 52.1855 62.0749 52.1949 61.9327C52.2043 61.7905 52.1808 61.648 52.1264 61.5162C52.0148 61.2532 51.8388 61.0221 51.6147 60.844C51.3601 60.6146 51.0501 60.4547 50.7151 60.3801C50.5477 60.3443 50.3745 60.3447 50.2073 60.3813C50.04 60.4179 49.8827 60.4899 49.7458 60.5924C49.6114 60.6982 49.5118 60.8417 49.4597 61.0043C49.4076 61.1669 49.4054 61.3412 49.4534 61.5051C49.5552 61.7993 49.8311 61.9963 50.1066 62.1431C50.6531 62.4337 51.2559 62.6044 51.8742 62.6436L51.332 62.6163Z" fill="#2F2E41"/>
<path d="M52.097 66.9972C51.4647 67.0841 51.5459 66.7635 51.2926 66.1799C51.0393 65.5963 50.7003 64.9035 50.0648 64.8444C49.5439 64.796 49.1148 65.2107 48.6928 65.5187C47.9408 66.0676 46.9272 66.3362 46.0554 66.0069C45.1836 65.6776 44.5778 64.6428 44.9086 63.7746C45.0116 63.5348 45.1629 63.3187 45.3531 63.1395C45.5434 62.9604 45.7685 62.8221 46.0146 62.7331C46.5083 62.5583 47.0327 62.4858 47.5556 62.5199C48.7185 62.557 49.859 62.8478 50.8968 63.3718C51.6129 63.7342 52.3102 64.2528 52.5818 65.0057C52.8535 65.7587 53.0323 66.8168 52.2554 67.0205L52.097 66.9972Z" fill="#2F2E41"/>
<path d="M51.009 60.5441C50.6964 60.0022 50.9545 59.2587 51.4659 58.8966C51.9773 58.5346 52.6633 58.499 53.2736 58.6443C53.8771 58.7957 54.4301 59.1025 54.877 59.5339C55.3239 59.9654 55.6491 60.5063 55.8199 61.1024C56.0788 62.05 55.9249 63.0678 56.1442 64.0253C56.2611 64.5357 56.4817 65.0169 56.7923 65.4392C57.103 65.8615 57.4972 66.216 57.9506 66.4808C58.404 66.7457 58.907 66.9153 59.4287 66.9792C59.9504 67.0431 60.4797 67 60.984 66.8525C61.6409 66.6604 62.3085 66.1933 62.3731 65.5144C62.4411 66.294 62.2627 67.0752 61.8627 67.7487C61.4628 68.4222 60.8614 68.9543 60.1427 69.2705C59.2964 69.6221 58.3523 69.645 57.4355 69.6216C56.8381 69.6063 56.227 69.5705 55.6759 69.3403C55.2946 69.1671 54.9518 68.9198 54.6676 68.613C54.3835 68.3061 54.1637 67.9458 54.0211 67.5533C53.7405 66.7643 53.6647 65.9174 53.8008 65.0914C53.891 64.4489 54.0704 63.8191 54.1206 63.1723C54.1708 62.5254 54.0756 61.8348 53.6753 61.323C53.2749 60.8113 52.5101 60.5499 51.9409 60.8653C51.7121 60.992 51.5275 61.1991 51.279 61.2808C51.0304 61.3626 50.6781 61.2189 50.7007 60.9592L51.009 60.5441Z" fill="#2F2E41"/>
<path d="M77.8491 79.8934L77.8795 79.5744L78.7828 70.2149C79.0788 69.984 79.3969 69.7826 79.7324 69.6136C81.5916 68.6805 83.3852 69.1271 84.3556 69.5131C84.6128 69.6134 84.8613 69.7345 85.0987 69.8752L85.6272 79.5744L85.6448 79.8934H77.8491Z" fill="#960A2C"/>
<path d="M82.0787 67.7256C84.251 67.7256 86.012 65.9717 86.012 63.8081C86.012 61.6445 84.251 59.8906 82.0787 59.8906C79.9065 59.8906 78.1455 61.6445 78.1455 63.8081C78.1455 65.9717 79.9065 67.7256 82.0787 67.7256Z" fill="#FFB8B8"/>
<path d="M85.2703 66.1963C85.5626 65.8894 85.7567 65.5029 85.8279 65.0858C85.899 64.6687 85.844 64.24 85.6698 63.8541C85.4956 63.4683 85.2102 63.1428 84.8497 62.919C84.4893 62.6952 84.0701 62.5832 83.6456 62.5973C83.1017 62.6155 82.5892 62.8371 82.0702 62.9998C81.2835 63.2664 80.4442 63.3416 79.6224 63.2194C78.7957 63.0915 78.0496 62.6528 77.5379 61.9935C77.0513 61.3274 76.8996 60.4034 77.2434 59.6541C77.6402 58.7891 78.5673 58.3124 79.4395 57.9251C79.7912 57.7497 80.1668 57.6268 80.5544 57.5603C80.7486 57.5281 80.9473 57.5363 81.1382 57.5842C81.3291 57.6321 81.508 57.7188 81.6636 57.8387C81.9087 58.0487 82.0524 58.3643 82.319 58.5462C82.6193 58.751 83.0092 58.7456 83.3713 58.7817C84.1869 58.8631 84.9583 59.1898 85.5829 59.7184C86.2075 60.247 86.6557 60.9525 86.8679 61.741C87.0801 62.5295 87.0463 63.3637 86.7709 64.1326C86.4955 64.9015 85.9916 65.5687 85.3263 66.0454L85.2703 66.1963Z" fill="#2F2E41"/>
<path d="M80.3185 71.2343L79.7324 69.6138L79.6958 69.5127C79.6785 69.4649 79.6504 69.4215 79.6138 69.386C79.5772 69.3505 79.5329 69.3238 79.4843 69.3079C79.4358 69.2919 79.3842 69.2872 79.3336 69.2941C79.2829 69.3009 79.2345 69.3191 79.192 69.3474L78.5265 69.7892C78.5265 69.7892 74.2588 69.7892 73.9161 72.3396C73.9113 72.3795 73.9049 72.4241 73.9001 72.472C73.8999 72.4742 73.8993 72.4763 73.8985 72.4784C73.8553 72.6458 73.0498 75.7465 72.3579 79.5745C72.3388 79.6798 72.3195 79.7867 72.3003 79.8935H81.5741V79.8935C81.8758 76.0481 81.707 72.4728 80.3185 71.2343Z" fill="#2F2E41"/>
<path d="M91.3813 79.5743C90.8753 75.6474 90.1514 72.4718 90.1514 72.4718C90.145 72.4239 90.1386 72.3793 90.1338 72.3394C89.7927 69.789 85.5249 69.789 85.5249 69.789L84.8599 69.3474C84.8173 69.3191 84.7689 69.3009 84.7182 69.2941C84.6675 69.2872 84.6159 69.292 84.5674 69.3079C84.5188 69.3239 84.4745 69.3506 84.4379 69.3862C84.4012 69.4217 84.3732 69.4651 84.3559 69.513L83.733 71.234C82.3445 72.4726 82.1756 76.0478 82.4774 79.8932L82.4775 79.8933H91.4213C91.4085 79.7864 91.3941 79.6796 91.3813 79.5743Z" fill="#2F2E41"/>
<path d="M16.2619 70.6343L15.3107 79.5758L15.277 79.8948H12.7036C12.734 79.7912 12.7644 79.6843 12.7965 79.5758C13.5268 77.0813 14.5212 73.4399 14.4139 72.4749C14.2458 70.9692 15.4228 70.4668 15.4228 70.4668L15.4965 70.4812L16.2619 70.6343Z" fill="#960A2C"/>
<path d="M20.4122 67.874C22.5845 67.874 24.3455 66.1201 24.3455 63.9565C24.3455 61.793 22.5845 60.0391 20.4122 60.0391C18.24 60.0391 16.479 61.793 16.479 63.9565C16.479 66.1201 18.24 67.874 20.4122 67.874Z" fill="#A0616A"/>
<path d="M25.5037 77.9959C25.3054 78.3601 25.1429 78.7425 25.0185 79.1379C24.9721 79.2782 24.9273 79.425 24.8856 79.5749C24.8552 79.6786 24.828 79.7855 24.8007 79.8939H14.4268C14.4412 79.7886 14.454 79.6818 14.4684 79.5749C14.9985 75.404 15.4276 71.1709 15.4965 70.4802C15.5029 70.4148 15.5061 70.3813 15.5061 70.3813C21.7228 67.118 26.2596 71.3862 26.2596 71.3862C26.2596 71.3862 26.266 71.4165 26.2756 71.4755C26.3749 72.072 26.8809 75.5555 25.5037 77.9959Z" fill="#960A2C"/>
<path d="M25.0184 79.1384L24.3267 77.6614L24.4948 71.8046L26.2756 71.476L26.338 71.4648C27.2585 71.9978 27.9708 72.8253 28.359 73.8127C28.7049 74.674 29.363 77.2643 29.9188 79.5754C29.9444 79.6823 29.97 79.7892 29.9956 79.8944H25.3723L25.2234 79.5754L25.0184 79.1384Z" fill="#960A2C"/>
<path d="M31.346 53.5762H8.60275C8.11492 53.5768 7.64725 53.77 7.3023 54.1136C6.95735 54.4571 6.76329 54.923 6.7627 55.4088V78.061C6.76329 78.5469 6.95735 79.0127 7.3023 79.3563C7.64725 79.6998 8.11492 79.8931 8.60275 79.8937H31.346C31.8339 79.8933 32.3017 79.7002 32.6467 79.3565C32.9917 79.0129 33.1857 78.547 33.186 78.061V55.4088C33.1857 54.9229 32.9917 54.4569 32.6467 54.1133C32.3017 53.7697 31.8339 53.5765 31.346 53.5762ZM32.8657 78.061C32.8653 78.4623 32.7051 78.8472 32.4202 79.1309C32.1353 79.4147 31.7489 79.5743 31.346 79.5747H8.60275C8.19988 79.5741 7.81368 79.4144 7.52879 79.1307C7.24391 78.8469 7.08359 78.4623 7.08298 78.061V55.4088C7.08359 55.0076 7.24391 54.6229 7.52879 54.3392C7.81368 54.0554 8.19988 53.8958 8.60275 53.8952H31.346C31.7489 53.8955 32.1353 54.0551 32.4202 54.3389C32.7051 54.6227 32.8653 55.0075 32.8657 55.4088V78.061ZM15.311 79.5747L15.2774 79.8937H24.801C24.8282 79.7852 24.8554 79.6783 24.8858 79.5747H15.311Z" fill="#3F3D56"/>
<path d="M61.8704 53.5762H39.1272C38.6393 53.5768 38.1717 53.77 37.8267 54.1136C37.4818 54.4571 37.2877 54.923 37.2871 55.4088V78.061C37.2877 78.5469 37.4818 79.0127 37.8267 79.3563C38.1717 79.6998 38.6393 79.8931 39.1272 79.8937H61.8704C62.3583 79.8933 62.8261 79.7002 63.1711 79.3565C63.5161 79.0129 63.7101 78.547 63.7104 78.061V55.4088C63.7101 54.9229 63.5161 54.4569 63.1711 54.1133C62.8261 53.7697 62.3583 53.5765 61.8704 53.5762ZM63.3901 78.061C63.3897 78.4623 63.2295 78.8472 62.9446 79.1309C62.6597 79.4147 62.2733 79.5743 61.8704 79.5747H39.1272C38.7243 79.5741 38.3381 79.4144 38.0532 79.1307C37.7683 78.8469 37.608 78.4623 37.6074 78.061V55.4088C37.608 55.0076 37.7683 54.6229 38.0532 54.3392C38.3381 54.0554 38.7243 53.8958 39.1272 53.8952H61.8704C62.2733 53.8955 62.6597 54.0551 62.9446 54.3389C63.2295 54.6227 63.3897 55.0075 63.3901 55.4088V78.061ZM43.3277 79.5747C43.3469 79.6432 43.3677 79.7118 43.3901 79.7804L43.3501 79.8937H51.3026C51.3107 79.7868 51.3171 79.6799 51.3251 79.5747H43.3277Z" fill="#3F3D56"/>
<path d="M92.3963 53.5762H69.653C69.1651 53.5765 68.6973 53.7697 68.3523 54.1133C68.0073 54.4569 67.8133 54.9229 67.813 55.4088V78.061C67.8133 78.547 68.0073 79.0129 68.3523 79.3566C68.6973 79.7002 69.1651 79.8934 69.653 79.8937H92.3963C92.8841 79.8931 93.3518 79.6998 93.6967 79.3562C94.0416 79.0127 94.2357 78.5469 94.2363 78.061V55.4088C94.2357 54.923 94.0416 54.4572 93.6967 54.1136C93.3518 53.77 92.8841 53.5768 92.3963 53.5762ZM93.916 78.061C93.9154 78.4623 93.7551 78.8469 93.4702 79.1307C93.1853 79.4144 92.7991 79.5741 92.3963 79.5747H69.653C69.2501 79.5743 68.8637 79.4148 68.5788 79.131C68.2938 78.8472 68.1336 78.4624 68.1333 78.061V55.4088C68.1336 55.0075 68.2938 54.6227 68.5788 54.3389C68.8637 54.0551 69.2501 53.8955 69.653 53.8952H92.3963C92.7991 53.8958 93.1853 54.0555 93.4702 54.3392C93.7551 54.6229 93.9154 55.0076 93.916 55.4088V78.061ZM81.5979 79.5747C81.59 79.6799 81.5819 79.7868 81.5739 79.8937H88.4744C88.4872 79.7884 88.5016 79.6815 88.5144 79.5747H81.5979Z" fill="#3F3D56"/>
<path d="M76.9226 89.1457H24.0761C23.7363 89.1457 23.4104 89.0113 23.1702 88.772C22.9299 88.5327 22.7949 88.2082 22.7949 87.8697C22.7949 87.5313 22.9299 87.2068 23.1702 86.9675C23.4104 86.7282 23.7363 86.5938 24.0761 86.5938H76.9226C77.2624 86.5938 77.5882 86.7282 77.8285 86.9675C78.0688 87.2068 78.2037 87.5313 78.2037 87.8697C78.2037 88.2082 78.0688 88.5327 77.8285 88.772C77.5882 89.0113 77.2624 89.1457 76.9226 89.1457Z" fill="#CCCCCC"/>
<path d="M62.1095 46.8782H38.889C38.5493 46.8782 38.2234 46.7437 37.9831 46.5044C37.7429 46.2651 37.6079 45.9406 37.6079 45.6022C37.6079 45.2638 37.7429 44.9392 37.9831 44.6999C38.2234 44.4606 38.5493 44.3262 38.889 44.3262H62.1095C62.4493 44.3262 62.7751 44.4606 63.0154 44.6999C63.2556 44.9392 63.3906 45.2638 63.3906 45.6022C63.3906 45.9406 63.2556 46.2651 63.0154 46.5044C62.7751 46.7437 62.4493 46.8782 62.1095 46.8782Z" fill="#960A2C"/>
<path d="M22.2935 67.3699C22.4267 67.5007 22.6028 67.5793 22.7895 67.5912C22.9762 67.6031 23.1609 67.5476 23.3098 67.4348C24.2367 66.7504 25.0505 65.8985 25.5322 64.8594C26.084 63.6687 26.1456 62.2076 25.4802 61.076C24.9177 60.1193 23.9245 59.502 22.9346 58.9951C22.5503 58.7791 22.1363 58.6201 21.7057 58.5234C21.2706 58.4278 20.8152 58.501 20.4324 58.728C20.2451 58.845 20.0975 59.0155 20.0089 59.2172C19.9204 59.419 19.8949 59.6426 19.9358 59.859C19.4604 59.3187 18.8514 58.9115 18.1692 58.6778C17.7396 58.5104 17.2693 58.4765 16.8199 58.5804C16.1918 58.7579 15.7332 59.3138 15.4824 59.9142C15.2795 60.3709 15.2095 60.8752 15.2802 61.3696C15.3174 61.6156 15.4061 61.8511 15.5404 62.0609C15.6748 62.2707 15.8519 62.45 16.0602 62.5873C16.5795 62.9074 17.2421 62.8843 17.8386 62.7535C18.435 62.6228 19.0124 62.3954 19.6204 62.3379C20.2283 62.2803 20.9054 62.4313 21.2754 62.9153C21.536 63.2561 21.6029 63.7014 21.6614 64.1257L21.9656 66.3331C21.9905 66.6524 22.0724 66.9647 22.2074 67.2554C22.2308 67.2972 22.2598 67.3358 22.2935 67.3699Z" fill="#2F2E41"/>
</g>
<defs>
<clipPath id="clip0">
<rect width="100" height="97.9592" fill="white" transform="translate(0.5)"/>
</clipPath>
</defs>
</svg>
