<svg width="18" height="24" viewBox="0 0 18 24" fill="none" xmlns="http://www.w3.org/2000/svg">
<path d="M17.2969 4.59375L13.4062 0.703125C12.9844 0.28125 12.375 0 11.8125 0H2.20312C0.984375 0.046875 0 1.03125 0 2.29688V21.7969C0 23.0156 0.984375 24 2.20312 24H15.75C16.9688 24 18 23.0156 18 21.7969V6.1875C18 5.625 17.7188 5.01562 17.2969 4.59375ZM12 1.54688C12.0938 1.59375 12.2344 1.64062 12.3281 1.73438L16.2656 5.67188C16.3594 5.76562 16.4062 5.90625 16.4531 6.04688H12V1.54688ZM16.5 21.7969C16.5 22.1719 16.125 22.5469 15.75 22.5469H2.20312C1.82812 22.5469 1.45312 22.1719 1.45312 21.7969V2.29688C1.45312 1.875 1.82812 1.5 2.20312 1.5H10.5V6.42188C10.5 7.03125 10.9688 7.5 11.625 7.5H16.5V21.7969ZM3 9.75V20.25C3 20.6719 3.32812 21 3.75 21H14.25C14.625 21 15 20.6719 15 20.25V9.75C15 9.375 14.625 9 14.25 9H3.75C3.32812 9 3 9.375 3 9.75ZM13.5 19.5H9.75V17.25H13.5V19.5ZM13.5 15.75H9.75V13.5H13.5V15.75ZM4.5 10.5H13.5V12H4.5V10.5ZM4.5 13.5H8.25V15.75H4.5V13.5ZM4.5 17.25H8.25V19.5H4.5V17.25Z" fill="#219653"/>
</svg>
